<svg width="360" height="168" viewBox="0 0 360 168" fill="none" xmlns="http://www.w3.org/2000/svg">
    <g clip-path="url(#clip0_3474_103803)">
        <path d="M85.8667 20.0611V19.1193L90.0216 12.5455H90.7048V14.0043H90.2431L87.1039 18.9716V19.0455H92.6991V20.0611H85.8667ZM90.317 22V19.7749V19.3363V12.5455H91.4065V22H90.317ZM97.9439 22V14.9091H98.9964V15.9801H99.0703C99.1995 15.6293 99.4334 15.3446 99.772 15.1261C100.111 14.9076 100.492 14.7983 100.917 14.7983C100.997 14.7983 101.097 14.7998 101.217 14.8029C101.337 14.806 101.428 14.8106 101.489 14.8168V15.9247C101.452 15.9155 101.368 15.9016 101.235 15.8832C101.106 15.8616 100.969 15.8509 100.825 15.8509C100.48 15.8509 100.172 15.9232 99.9012 16.0678C99.6335 16.2094 99.4211 16.4064 99.2642 16.6587C99.1103 16.908 99.0333 17.1927 99.0333 17.5128V22H97.9439ZM107.17 19.1009V14.9091H108.259V22H107.17V20.7997H107.096C106.929 21.1598 106.671 21.466 106.32 21.7184C105.969 21.9677 105.526 22.0923 104.991 22.0923C104.547 22.0923 104.153 21.9954 103.809 21.8015C103.464 21.6045 103.193 21.3091 102.996 20.9151C102.799 20.5181 102.701 20.018 102.701 19.4148V14.9091H103.79V19.3409C103.79 19.858 103.935 20.2704 104.224 20.5781C104.517 20.8859 104.889 21.0398 105.341 21.0398C105.612 21.0398 105.888 20.9705 106.168 20.832C106.451 20.6935 106.688 20.4812 106.879 20.195C107.073 19.9087 107.17 19.544 107.17 19.1009ZM111.264 12.5455V22H110.174V12.5455H111.264ZM116.152 22.1477C115.469 22.1477 114.88 21.9969 114.384 21.6953C113.892 21.3906 113.512 20.9659 113.244 20.4212C112.979 19.8733 112.847 19.2363 112.847 18.5099C112.847 17.7836 112.979 17.1435 113.244 16.5895C113.512 16.0324 113.884 15.5985 114.361 15.2876C114.841 14.9737 115.402 14.8168 116.042 14.8168C116.411 14.8168 116.776 14.8783 117.136 15.0014C117.496 15.1245 117.824 15.3246 118.119 15.6016C118.415 15.8755 118.65 16.2386 118.825 16.6911C119.001 17.1435 119.089 17.7005 119.089 18.3622V18.8239H113.623V17.8821H117.981C117.981 17.482 117.901 17.125 117.741 16.8111C117.584 16.4972 117.359 16.2494 117.067 16.0678C116.777 15.8862 116.436 15.7955 116.042 15.7955C115.608 15.7955 115.232 15.9032 114.915 16.1186C114.601 16.331 114.36 16.608 114.19 16.9496C114.021 17.2912 113.937 17.6574 113.937 18.0483V18.6761C113.937 19.2116 114.029 19.6656 114.214 20.038C114.401 20.4073 114.661 20.6889 114.994 20.8828C115.326 21.0736 115.712 21.169 116.152 21.169C116.439 21.169 116.697 21.129 116.928 21.049C117.162 20.9659 117.364 20.8428 117.533 20.6797C117.702 20.5135 117.833 20.3073 117.925 20.0611L118.978 20.3565C118.867 20.7135 118.681 21.0275 118.419 21.2983C118.158 21.5661 117.834 21.7753 117.45 21.9261C117.065 22.0739 116.633 22.1477 116.152 22.1477ZM125.689 16.4972L124.71 16.7741C124.648 16.611 124.558 16.4525 124.438 16.2987C124.321 16.1417 124.161 16.0124 123.957 15.9109C123.754 15.8093 123.494 15.7585 123.177 15.7585C122.743 15.7585 122.382 15.8585 122.092 16.0586C121.806 16.2556 121.663 16.5064 121.663 16.8111C121.663 17.0819 121.761 17.2958 121.958 17.4528C122.155 17.6097 122.463 17.7405 122.882 17.8452L123.934 18.1037C124.568 18.2576 125.041 18.493 125.352 18.81C125.662 19.1239 125.818 19.5286 125.818 20.0241C125.818 20.4304 125.701 20.7936 125.467 21.1136C125.236 21.4337 124.913 21.6861 124.498 21.8707C124.082 22.0554 123.599 22.1477 123.048 22.1477C122.325 22.1477 121.726 21.9908 121.252 21.6768C120.778 21.3629 120.478 20.9044 120.352 20.3011L121.386 20.0426C121.485 20.4242 121.671 20.7105 121.945 20.9013C122.222 21.0921 122.583 21.1875 123.029 21.1875C123.537 21.1875 123.94 21.0798 124.239 20.8643C124.541 20.6458 124.691 20.3842 124.691 20.0795C124.691 19.8333 124.605 19.6271 124.433 19.4609C124.261 19.2917 123.996 19.1655 123.639 19.0824L122.457 18.8054C121.808 18.6515 121.331 18.413 121.026 18.0898C120.724 17.7636 120.574 17.3558 120.574 16.8665C120.574 16.4664 120.686 16.1125 120.911 15.8047C121.138 15.4969 121.448 15.2553 121.838 15.0799C122.232 14.9045 122.679 14.8168 123.177 14.8168C123.879 14.8168 124.43 14.9706 124.83 15.2784C125.233 15.5862 125.519 15.9924 125.689 16.4972ZM133.835 22.1477C133.195 22.1477 132.633 21.9954 132.15 21.6907C131.67 21.386 131.294 20.9598 131.023 20.4119C130.756 19.8641 130.622 19.224 130.622 18.4915C130.622 17.7528 130.756 17.1081 131.023 16.5572C131.294 16.0063 131.67 15.5785 132.15 15.2738C132.633 14.9691 133.195 14.8168 133.835 14.8168C134.475 14.8168 135.035 14.9691 135.515 15.2738C135.998 15.5785 136.374 16.0063 136.642 16.5572C136.912 17.1081 137.048 17.7528 137.048 18.4915C137.048 19.224 136.912 19.8641 136.642 20.4119C136.374 20.9598 135.998 21.386 135.515 21.6907C135.035 21.9954 134.475 22.1477 133.835 22.1477ZM133.835 21.169C134.321 21.169 134.721 21.0444 135.035 20.7951C135.349 20.5458 135.581 20.218 135.732 19.8118C135.883 19.4055 135.958 18.9654 135.958 18.4915C135.958 18.0175 135.883 17.5759 135.732 17.1665C135.581 16.7572 135.349 16.4264 135.035 16.174C134.721 15.9216 134.321 15.7955 133.835 15.7955C133.349 15.7955 132.948 15.9216 132.634 16.174C132.321 16.4264 132.088 16.7572 131.937 17.1665C131.787 17.5759 131.711 18.0175 131.711 18.4915C131.711 18.9654 131.787 19.4055 131.937 19.8118C132.088 20.218 132.321 20.5458 132.634 20.7951C132.948 21.0444 133.349 21.169 133.835 21.169ZM141.789 14.9091V15.8324H137.966V14.9091H141.789ZM139.111 22V13.9304C139.111 13.5241 139.206 13.1856 139.397 12.9148C139.588 12.6439 139.836 12.4408 140.141 12.3054C140.445 12.17 140.767 12.1023 141.105 12.1023C141.373 12.1023 141.592 12.1238 141.761 12.1669C141.93 12.21 142.056 12.25 142.139 12.2869L141.826 13.2287C141.77 13.2102 141.693 13.1871 141.595 13.1594C141.499 13.1317 141.373 13.1179 141.216 13.1179C140.856 13.1179 140.596 13.2087 140.436 13.3903C140.279 13.5719 140.201 13.8381 140.201 14.1889V22H139.111ZM151.834 16.4972L150.856 16.7741C150.794 16.611 150.703 16.4525 150.583 16.2987C150.466 16.1417 150.306 16.0124 150.103 15.9109C149.9 15.8093 149.64 15.7585 149.323 15.7585C148.889 15.7585 148.528 15.8585 148.238 16.0586C147.952 16.2556 147.809 16.5064 147.809 16.8111C147.809 17.0819 147.907 17.2958 148.104 17.4528C148.301 17.6097 148.609 17.7405 149.028 17.8452L150.08 18.1037C150.714 18.2576 151.187 18.493 151.497 18.81C151.808 19.1239 151.964 19.5286 151.964 20.0241C151.964 20.4304 151.847 20.7936 151.613 21.1136C151.382 21.4337 151.059 21.6861 150.643 21.8707C150.228 22.0554 149.745 22.1477 149.194 22.1477C148.471 22.1477 147.872 21.9908 147.398 21.6768C146.924 21.3629 146.624 20.9044 146.498 20.3011L147.532 20.0426C147.63 20.4242 147.817 20.7105 148.091 20.9013C148.367 21.0921 148.729 21.1875 149.175 21.1875C149.683 21.1875 150.086 21.0798 150.385 20.8643C150.687 20.6458 150.837 20.3842 150.837 20.0795C150.837 19.8333 150.751 19.6271 150.579 19.4609C150.406 19.2917 150.142 19.1655 149.785 19.0824L148.603 18.8054C147.954 18.6515 147.477 18.413 147.172 18.0898C146.87 17.7636 146.719 17.3558 146.719 16.8665C146.719 16.4664 146.832 16.1125 147.056 15.8047C147.284 15.4969 147.593 15.2553 147.984 15.0799C148.378 14.9045 148.825 14.8168 149.323 14.8168C150.025 14.8168 150.576 14.9706 150.976 15.2784C151.379 15.5862 151.665 15.9924 151.834 16.4972ZM157.992 19.1009V14.9091H159.082V22H157.992V20.7997H157.919C157.752 21.1598 157.494 21.466 157.143 21.7184C156.792 21.9677 156.349 22.0923 155.814 22.0923C155.37 22.0923 154.976 21.9954 154.632 21.8015C154.287 21.6045 154.016 21.3091 153.819 20.9151C153.622 20.5181 153.524 20.018 153.524 19.4148V14.9091H154.613V19.3409C154.613 19.858 154.758 20.2704 155.047 20.5781C155.34 20.8859 155.712 21.0398 156.164 21.0398C156.435 21.0398 156.711 20.9705 156.991 20.832C157.274 20.6935 157.511 20.4812 157.702 20.195C157.896 19.9087 157.992 19.544 157.992 19.1009ZM163.878 22.1477C163.213 22.1477 162.641 21.9908 162.161 21.6768C161.681 21.3629 161.311 20.9305 161.053 20.3796C160.794 19.8287 160.665 19.1993 160.665 18.4915C160.665 17.7713 160.797 17.1358 161.062 16.5849C161.33 16.0309 161.702 15.5985 162.179 15.2876C162.659 14.9737 163.22 14.8168 163.86 14.8168C164.358 14.8168 164.808 14.9091 165.208 15.0938C165.608 15.2784 165.936 15.5369 166.191 15.8693C166.446 16.2017 166.605 16.5895 166.666 17.0327H165.577C165.494 16.7095 165.309 16.4233 165.023 16.174C164.74 15.9216 164.358 15.7955 163.878 15.7955C163.453 15.7955 163.081 15.9062 162.761 16.1278C162.444 16.3464 162.196 16.6557 162.018 17.0558C161.842 17.4528 161.755 17.919 161.755 18.4545C161.755 19.0024 161.841 19.4794 162.013 19.8857C162.189 20.2919 162.435 20.6074 162.752 20.832C163.072 21.0567 163.447 21.169 163.878 21.169C164.161 21.169 164.418 21.1198 164.649 21.0213C164.88 20.9228 165.075 20.7813 165.235 20.5966C165.395 20.4119 165.509 20.1903 165.577 19.9318H166.666C166.605 20.3504 166.453 20.7274 166.209 21.0629C165.969 21.3952 165.651 21.6599 165.254 21.8569C164.86 22.0508 164.401 22.1477 163.878 22.1477ZM171.06 22.1477C170.395 22.1477 169.823 21.9908 169.343 21.6768C168.862 21.3629 168.493 20.9305 168.235 20.3796C167.976 19.8287 167.847 19.1993 167.847 18.4915C167.847 17.7713 167.979 17.1358 168.244 16.5849C168.512 16.0309 168.884 15.5985 169.361 15.2876C169.841 14.9737 170.401 14.8168 171.041 14.8168C171.54 14.8168 171.989 14.9091 172.389 15.0938C172.789 15.2784 173.117 15.5369 173.373 15.8693C173.628 16.2017 173.787 16.5895 173.848 17.0327H172.759C172.676 16.7095 172.491 16.4233 172.205 16.174C171.922 15.9216 171.54 15.7955 171.06 15.7955C170.635 15.7955 170.263 15.9062 169.943 16.1278C169.626 16.3464 169.378 16.6557 169.199 17.0558C169.024 17.4528 168.936 17.919 168.936 18.4545C168.936 19.0024 169.022 19.4794 169.195 19.8857C169.37 20.2919 169.616 20.6074 169.933 20.832C170.254 21.0567 170.629 21.169 171.06 21.169C171.343 21.169 171.6 21.1198 171.831 21.0213C172.062 20.9228 172.257 20.7813 172.417 20.5966C172.577 20.4119 172.691 20.1903 172.759 19.9318H173.848C173.787 20.3504 173.634 20.7274 173.391 21.0629C173.151 21.3952 172.833 21.6599 172.436 21.8569C172.042 22.0508 171.583 22.1477 171.06 22.1477ZM178.334 22.1477C177.651 22.1477 177.061 21.9969 176.566 21.6953C176.073 21.3906 175.693 20.9659 175.426 20.4212C175.161 19.8733 175.029 19.2363 175.029 18.5099C175.029 17.7836 175.161 17.1435 175.426 16.5895C175.693 16.0324 176.066 15.5985 176.543 15.2876C177.023 14.9737 177.583 14.8168 178.223 14.8168C178.592 14.8168 178.957 14.8783 179.317 15.0014C179.677 15.1245 180.005 15.3246 180.301 15.6016C180.596 15.8755 180.831 16.2386 181.007 16.6911C181.182 17.1435 181.27 17.7005 181.27 18.3622V18.8239H175.804V17.8821H180.162C180.162 17.482 180.082 17.125 179.922 16.8111C179.765 16.4972 179.54 16.2494 179.248 16.0678C178.959 15.8862 178.617 15.7955 178.223 15.7955C177.789 15.7955 177.414 15.9032 177.097 16.1186C176.783 16.331 176.541 16.608 176.372 16.9496C176.203 17.2912 176.118 17.6574 176.118 18.0483V18.6761C176.118 19.2116 176.21 19.6656 176.395 20.038C176.583 20.4073 176.843 20.6889 177.175 20.8828C177.508 21.0736 177.894 21.169 178.334 21.169C178.62 21.169 178.879 21.129 179.109 21.049C179.343 20.9659 179.545 20.8428 179.714 20.6797C179.883 20.5135 180.014 20.3073 180.107 20.0611L181.159 20.3565C181.048 20.7135 180.862 21.0275 180.601 21.2983C180.339 21.5661 180.016 21.7753 179.631 21.9261C179.246 22.0739 178.814 22.1477 178.334 22.1477ZM187.87 16.4972L186.891 16.7741C186.83 16.611 186.739 16.4525 186.619 16.2987C186.502 16.1417 186.342 16.0124 186.139 15.9109C185.936 15.8093 185.676 15.7585 185.359 15.7585C184.925 15.7585 184.563 15.8585 184.274 16.0586C183.988 16.2556 183.844 16.5064 183.844 16.8111C183.844 17.0819 183.943 17.2958 184.14 17.4528C184.337 17.6097 184.645 17.7405 185.063 17.8452L186.116 18.1037C186.75 18.2576 187.222 18.493 187.533 18.81C187.844 19.1239 187.999 19.5286 187.999 20.0241C187.999 20.4304 187.882 20.7936 187.648 21.1136C187.418 21.4337 187.094 21.6861 186.679 21.8707C186.263 22.0554 185.78 22.1477 185.229 22.1477C184.506 22.1477 183.908 21.9908 183.434 21.6768C182.96 21.3629 182.66 20.9044 182.533 20.3011L183.567 20.0426C183.666 20.4242 183.852 20.7105 184.126 20.9013C184.403 21.0921 184.765 21.1875 185.211 21.1875C185.719 21.1875 186.122 21.0798 186.42 20.8643C186.722 20.6458 186.873 20.3842 186.873 20.0795C186.873 19.8333 186.787 19.6271 186.614 19.4609C186.442 19.2917 186.177 19.1655 185.82 19.0824L184.638 18.8054C183.989 18.6515 183.512 18.413 183.207 18.0898C182.906 17.7636 182.755 17.3558 182.755 16.8665C182.755 16.4664 182.867 16.1125 183.092 15.8047C183.32 15.4969 183.629 15.2553 184.02 15.0799C184.414 14.9045 184.86 14.8168 185.359 14.8168C186.06 14.8168 186.611 14.9706 187.011 15.2784C187.415 15.5862 187.701 15.9924 187.87 16.4972ZM194.582 16.4972L193.603 16.7741C193.542 16.611 193.451 16.4525 193.331 16.2987C193.214 16.1417 193.054 16.0124 192.851 15.9109C192.648 15.8093 192.388 15.7585 192.071 15.7585C191.637 15.7585 191.275 15.8585 190.986 16.0586C190.7 16.2556 190.556 16.5064 190.556 16.8111C190.556 17.0819 190.655 17.2958 190.852 17.4528C191.049 17.6097 191.357 17.7405 191.775 17.8452L192.828 18.1037C193.462 18.2576 193.934 18.493 194.245 18.81C194.556 19.1239 194.711 19.5286 194.711 20.0241C194.711 20.4304 194.594 20.7936 194.36 21.1136C194.13 21.4337 193.806 21.6861 193.391 21.8707C192.975 22.0554 192.492 22.1477 191.941 22.1477C191.218 22.1477 190.62 21.9908 190.146 21.6768C189.672 21.3629 189.372 20.9044 189.245 20.3011L190.279 20.0426C190.378 20.4242 190.564 20.7105 190.838 20.9013C191.115 21.0921 191.477 21.1875 191.923 21.1875C192.431 21.1875 192.834 21.0798 193.132 20.8643C193.434 20.6458 193.585 20.3842 193.585 20.0795C193.585 19.8333 193.499 19.6271 193.326 19.4609C193.154 19.2917 192.889 19.1655 192.532 19.0824L191.35 18.8054C190.701 18.6515 190.224 18.413 189.919 18.0898C189.618 17.7636 189.467 17.3558 189.467 16.8665C189.467 16.4664 189.579 16.1125 189.804 15.8047C190.032 15.4969 190.341 15.2553 190.732 15.0799C191.126 14.9045 191.572 14.8168 192.071 14.8168C192.772 14.8168 193.323 14.9706 193.723 15.2784C194.127 15.5862 194.413 15.9924 194.582 16.4972ZM199.848 22V14.9091H200.937V22H199.848ZM200.402 13.7273C200.189 13.7273 200.006 13.6549 199.852 13.5103C199.701 13.3656 199.626 13.1918 199.626 12.9886C199.626 12.7855 199.701 12.6116 199.852 12.467C200.006 12.3223 200.189 12.25 200.402 12.25C200.614 12.25 200.795 12.3223 200.946 12.467C201.1 12.6116 201.177 12.7855 201.177 12.9886C201.177 13.1918 201.1 13.3656 200.946 13.5103C200.795 13.6549 200.614 13.7273 200.402 13.7273ZM203.942 17.7344V22H202.852V14.9091H203.905V16.017H203.997C204.164 15.657 204.416 15.3677 204.754 15.1491C205.093 14.9276 205.53 14.8168 206.066 14.8168C206.546 14.8168 206.966 14.9152 207.326 15.1122C207.686 15.3061 207.966 15.6016 208.166 15.9986C208.366 16.3925 208.466 16.8911 208.466 17.4943V22H207.377V17.5682C207.377 17.0111 207.232 16.5772 206.943 16.2663C206.653 15.9524 206.256 15.7955 205.752 15.7955C205.404 15.7955 205.093 15.8709 204.819 16.0217C204.548 16.1725 204.334 16.3925 204.177 16.6818C204.02 16.9711 203.942 17.322 203.942 17.7344ZM217.037 14.9091V15.8324H213.362V14.9091H217.037ZM214.433 13.2102H215.523V19.9688C215.523 20.2765 215.567 20.5073 215.657 20.6612C215.749 20.812 215.866 20.9136 216.008 20.9659C216.152 21.0152 216.305 21.0398 216.465 21.0398C216.585 21.0398 216.683 21.0336 216.76 21.0213C216.837 21.0059 216.899 20.9936 216.945 20.9844L217.166 21.9631C217.092 21.9908 216.989 22.0185 216.857 22.0462C216.725 22.0769 216.557 22.0923 216.354 22.0923C216.046 22.0923 215.744 22.0262 215.449 21.8938C215.157 21.7615 214.913 21.5599 214.72 21.2891C214.529 21.0182 214.433 20.6766 214.433 20.2642V13.2102ZM219.838 17.7344V22H218.748V12.5455H219.838V16.017H219.93C220.096 15.6508 220.346 15.36 220.678 15.1445C221.013 14.926 221.46 14.8168 222.017 14.8168C222.5 14.8168 222.923 14.9137 223.286 15.1076C223.649 15.2984 223.931 15.5923 224.131 15.9893C224.334 16.3833 224.436 16.8849 224.436 17.4943V22H223.346V17.5682C223.346 17.005 223.2 16.5695 222.908 16.2617C222.618 15.9509 222.217 15.7955 221.703 15.7955C221.346 15.7955 221.026 15.8709 220.743 16.0217C220.462 16.1725 220.241 16.3925 220.078 16.6818C219.918 16.9711 219.838 17.322 219.838 17.7344ZM229.322 22.1477C228.639 22.1477 228.049 21.9969 227.554 21.6953C227.061 21.3906 226.681 20.9659 226.414 20.4212C226.149 19.8733 226.017 19.2363 226.017 18.5099C226.017 17.7836 226.149 17.1435 226.414 16.5895C226.681 16.0324 227.054 15.5985 227.531 15.2876C228.011 14.9737 228.571 14.8168 229.211 14.8168C229.58 14.8168 229.945 14.8783 230.305 15.0014C230.665 15.1245 230.993 15.3246 231.289 15.6016C231.584 15.8755 231.819 16.2386 231.995 16.6911C232.17 17.1435 232.258 17.7005 232.258 18.3622V18.8239H226.792V17.8821H231.15C231.15 17.482 231.07 17.125 230.91 16.8111C230.753 16.4972 230.528 16.2494 230.236 16.0678C229.947 15.8862 229.605 15.7955 229.211 15.7955C228.777 15.7955 228.402 15.9032 228.085 16.1186C227.771 16.331 227.529 16.608 227.36 16.9496C227.191 17.2912 227.106 17.6574 227.106 18.0483V18.6761C227.106 19.2116 227.198 19.6656 227.383 20.038C227.571 20.4073 227.831 20.6889 228.163 20.8828C228.496 21.0736 228.882 21.169 229.322 21.169C229.608 21.169 229.867 21.129 230.097 21.049C230.331 20.9659 230.533 20.8428 230.702 20.6797C230.872 20.5135 231.002 20.3073 231.095 20.0611L232.147 20.3565C232.036 20.7135 231.85 21.0275 231.589 21.2983C231.327 21.5661 231.004 21.7753 230.619 21.9261C230.234 22.0739 229.802 22.1477 229.322 22.1477ZM240.292 22.1477C239.627 22.1477 239.055 21.9908 238.575 21.6768C238.095 21.3629 237.725 20.9305 237.467 20.3796C237.208 19.8287 237.079 19.1993 237.079 18.4915C237.079 17.7713 237.212 17.1358 237.476 16.5849C237.744 16.0309 238.116 15.5985 238.593 15.2876C239.073 14.9737 239.634 14.8168 240.274 14.8168C240.772 14.8168 241.222 14.9091 241.622 15.0938C242.022 15.2784 242.35 15.5369 242.605 15.8693C242.861 16.2017 243.019 16.5895 243.081 17.0327H241.991C241.908 16.7095 241.723 16.4233 241.437 16.174C241.154 15.9216 240.772 15.7955 240.292 15.7955C239.868 15.7955 239.495 15.9062 239.175 16.1278C238.858 16.3464 238.61 16.6557 238.432 17.0558C238.256 17.4528 238.169 17.919 238.169 18.4545C238.169 19.0024 238.255 19.4794 238.427 19.8857C238.603 20.2919 238.849 20.6074 239.166 20.832C239.486 21.0567 239.861 21.169 240.292 21.169C240.575 21.169 240.832 21.1198 241.063 21.0213C241.294 20.9228 241.489 20.7813 241.649 20.5966C241.81 20.4119 241.923 20.1903 241.991 19.9318H243.081C243.019 20.3504 242.867 20.7274 242.624 21.0629C242.384 21.3952 242.065 21.6599 241.668 21.8569C241.274 22.0508 240.815 22.1477 240.292 22.1477ZM244.593 22V14.9091H245.646V15.9801H245.72C245.849 15.6293 246.083 15.3446 246.421 15.1261C246.76 14.9076 247.142 14.7983 247.566 14.7983C247.646 14.7983 247.746 14.7998 247.866 14.8029C247.986 14.806 248.077 14.8106 248.139 14.8168V15.9247C248.102 15.9155 248.017 15.9016 247.885 15.8832C247.756 15.8616 247.619 15.8509 247.474 15.8509C247.129 15.8509 246.821 15.9232 246.551 16.0678C246.283 16.2094 246.071 16.4064 245.914 16.6587C245.76 16.908 245.683 17.1927 245.683 17.5128V22H244.593ZM250.268 24.6591C250.083 24.6591 249.918 24.6437 249.774 24.6129C249.629 24.5852 249.529 24.5575 249.474 24.5298L249.751 23.5696C250.015 23.6373 250.249 23.6619 250.452 23.6435C250.655 23.625 250.836 23.5342 250.992 23.3711C251.153 23.2111 251.299 22.951 251.431 22.5909L251.634 22.0369L249.012 14.9091L250.194 14.9091L252.151 20.5597H252.225L254.182 14.9091H255.364L252.354 23.0341C252.219 23.4003 252.051 23.7035 251.851 23.9435C251.651 24.1867 251.419 24.3667 251.154 24.4837C250.892 24.6006 250.597 24.6591 250.268 24.6591ZM256.722 24.6591V14.9091H257.775V16.0355H257.904C257.984 15.9124 258.095 15.7554 258.237 15.5646C258.381 15.3707 258.587 15.1984 258.855 15.0476C259.126 14.8937 259.492 14.8168 259.954 14.8168C260.551 14.8168 261.077 14.966 261.533 15.2646C261.988 15.5631 262.344 15.9863 262.599 16.5341C262.855 17.0819 262.982 17.7282 262.982 18.473C262.982 19.224 262.855 19.8749 262.599 20.4258C262.344 20.9736 261.99 21.3983 261.537 21.6999C261.085 21.9985 260.563 22.1477 259.972 22.1477C259.517 22.1477 259.152 22.0723 258.878 21.9215C258.604 21.7676 258.393 21.5937 258.246 21.3999C258.098 21.2029 257.984 21.0398 257.904 20.9105H257.812V24.6591H256.722ZM257.793 18.4545C257.793 18.9901 257.872 19.4625 258.029 19.8718C258.186 20.2781 258.415 20.5966 258.717 20.8274C259.018 21.0552 259.388 21.169 259.825 21.169C260.28 21.169 260.66 21.049 260.965 20.8089C261.273 20.5658 261.503 20.2396 261.657 19.8303C261.814 19.4179 261.893 18.9593 261.893 18.4545C261.893 17.956 261.816 17.5066 261.662 17.1065C261.511 16.7034 261.282 16.3848 260.974 16.1509C260.669 15.9139 260.286 15.7955 259.825 15.7955C259.381 15.7955 259.009 15.9078 258.707 16.1325C258.406 16.354 258.178 16.6649 258.024 17.065C257.87 17.462 257.793 17.9252 257.793 18.4545ZM267.648 14.9091V15.8324H263.973V14.9091H267.648ZM265.044 13.2102H266.134V19.9688C266.134 20.2765 266.178 20.5073 266.268 20.6612C266.36 20.812 266.477 20.9136 266.619 20.9659C266.763 21.0152 266.916 21.0398 267.076 21.0398C267.196 21.0398 267.294 21.0336 267.371 21.0213C267.448 21.0059 267.51 20.9936 267.556 20.9844L267.777 21.9631C267.703 21.9908 267.6 22.0185 267.468 22.0462C267.336 22.0769 267.168 22.0923 266.965 22.0923C266.657 22.0923 266.355 22.0262 266.06 21.8938C265.768 21.7615 265.524 21.5599 265.331 21.2891C265.14 21.0182 265.044 20.6766 265.044 20.2642V13.2102ZM272.011 22.1477C271.371 22.1477 270.81 21.9954 270.326 21.6907C269.846 21.386 269.471 20.9598 269.2 20.4119C268.932 19.8641 268.798 19.224 268.798 18.4915C268.798 17.7528 268.932 17.1081 269.2 16.5572C269.471 16.0063 269.846 15.5785 270.326 15.2738C270.81 14.9691 271.371 14.8168 272.011 14.8168C272.652 14.8168 273.212 14.9691 273.692 15.2738C274.175 15.5785 274.55 16.0063 274.818 16.5572C275.089 17.1081 275.224 17.7528 275.224 18.4915C275.224 19.224 275.089 19.8641 274.818 20.4119C274.55 20.9598 274.175 21.386 273.692 21.6907C273.212 21.9954 272.652 22.1477 272.011 22.1477ZM272.011 21.169C272.498 21.169 272.898 21.0444 273.212 20.7951C273.526 20.5458 273.758 20.218 273.909 19.8118C274.06 19.4055 274.135 18.9654 274.135 18.4915C274.135 18.0175 274.06 17.5759 273.909 17.1665C273.758 16.7572 273.526 16.4264 273.212 16.174C272.898 15.9216 272.498 15.7955 272.011 15.7955C271.525 15.7955 271.125 15.9216 270.811 16.174C270.497 16.4264 270.265 16.7572 270.114 17.1665C269.963 17.5759 269.888 18.0175 269.888 18.4915C269.888 18.9654 269.963 19.4055 270.114 19.8118C270.265 20.218 270.497 20.5458 270.811 20.7951C271.125 21.0444 271.525 21.169 272.011 21.169Z" fill="#868993"/>
        <path d="M0 137.849L11.6852 126.442C11.8145 126.316 11.9603 126.208 12.1186 126.121L21.5626 120.928C21.8285 120.782 22.0577 120.577 22.2327 120.329L30.6899 108.351C30.8071 108.185 30.8983 108.002 30.9604 107.809L36.2067 91.4622L41.657 66.452C41.9134 65.2755 43.1436 64.5906 44.2787 64.9925L47.0645 65.9789C48.2193 66.3878 49.467 65.6718 49.6966 64.4685L52.8201 48.1008L53.734 44.9942C54.343 42.9241 57.346 43.1526 57.6347 45.291L60.2448 64.6196C60.4006 65.7728 61.5042 66.5501 62.6425 66.3082L70.6499 64.6071C71.6464 64.3954 72.6428 64.9666 72.9637 65.9334L78.8031 83.5268C78.8848 83.7727 79.0134 84.0004 79.1818 84.1972L92.9459 100.28C93.0921 100.451 93.266 100.596 93.4604 100.708L105.514 107.713C105.943 107.963 106.449 108.044 106.934 107.941L131.512 102.719C132.01 102.613 132.448 102.322 132.739 101.905L138.012 94.3219C138.893 93.0544 140.817 93.221 141.467 94.6211L148.727 110.25C148.841 110.495 149.004 110.715 149.205 110.896L169.277 128.927C169.533 129.157 169.843 129.317 170.178 129.391L193.709 134.647C194.216 134.76 194.748 134.671 195.191 134.4L209.888 125.38C210.89 124.765 212.204 125.143 212.726 126.196L221.936 144.772C222.141 145.186 222.483 145.516 222.904 145.706L245.26 155.822C245.519 155.939 245.8 156 246.085 156H284.22H375" stroke="#252934" stroke-width="2"/>
        <circle cx="140" cy="95.5" r="3" fill="#F8F8F8" stroke="#14BA30" stroke-width="2"/>
        <path d="M148.625 93.416H151.337C151.801 93.416 152.161 93.5467 152.417 93.808C152.678 94.0693 152.809 94.416 152.809 94.848C152.809 95.0613 152.78 95.2427 152.721 95.392C152.668 95.5413 152.593 95.664 152.497 95.76C152.406 95.856 152.297 95.928 152.169 95.976C152.046 96.0187 151.913 96.0427 151.769 96.048V96.096C151.902 96.096 152.041 96.12 152.185 96.168C152.334 96.216 152.47 96.2933 152.593 96.4C152.716 96.5013 152.817 96.6347 152.897 96.8C152.982 96.9653 153.025 97.168 153.025 97.408C153.025 97.6267 152.988 97.8347 152.913 98.032C152.844 98.224 152.745 98.392 152.617 98.536C152.489 98.68 152.337 98.7947 152.161 98.88C151.985 98.96 151.793 99 151.585 99H148.625V93.416ZM149.841 97.976H151.241C151.401 97.976 151.526 97.9333 151.617 97.848C151.713 97.7573 151.761 97.632 151.761 97.472V97.2C151.761 97.04 151.713 96.9173 151.617 96.832C151.526 96.7413 151.401 96.696 151.241 96.696H149.841V97.976ZM149.841 95.704H151.049C151.209 95.704 151.334 95.6587 151.425 95.568C151.516 95.4773 151.561 95.352 151.561 95.192V94.952C151.561 94.792 151.516 94.6667 151.425 94.576C151.334 94.4853 151.209 94.44 151.049 94.44H149.841V95.704ZM155.183 93.416V96.84C155.183 97.2347 155.26 97.5307 155.415 97.728C155.57 97.92 155.828 98.016 156.191 98.016C156.554 98.016 156.812 97.92 156.967 97.728C157.122 97.5307 157.199 97.2347 157.199 96.84V93.416H158.383V96.712C158.383 97.1227 158.343 97.48 158.263 97.784C158.188 98.0827 158.063 98.3307 157.887 98.528C157.711 98.72 157.484 98.864 157.207 98.96C156.93 99.0507 156.591 99.096 156.191 99.096C155.791 99.096 155.452 99.0507 155.175 98.96C154.898 98.864 154.671 98.72 154.495 98.528C154.319 98.3307 154.191 98.0827 154.111 97.784C154.036 97.48 153.999 97.1227 153.999 96.712V93.416H155.183ZM161.024 99V96.816L159.112 93.416H160.472L161.672 95.64H161.688L162.84 93.416H164.16L162.248 96.808V99H161.024ZM171.057 95.336H171.033L170.625 96.152L169.537 98.128L168.473 96.16L168.049 95.28H168.025V99H166.881V93.416H168.169L169.537 96.032H169.553L170.905 93.416H172.201V99H171.057V95.336ZM175.746 99.096C175.378 99.096 175.042 99.0347 174.738 98.912C174.434 98.7893 174.175 98.608 173.962 98.368C173.749 98.1227 173.583 97.8213 173.466 97.464C173.349 97.1013 173.29 96.6827 173.29 96.208C173.29 95.7333 173.349 95.3173 173.466 94.96C173.583 94.5973 173.749 94.296 173.962 94.056C174.175 93.8107 174.434 93.6267 174.738 93.504C175.042 93.3813 175.378 93.32 175.746 93.32C176.114 93.32 176.45 93.3813 176.754 93.504C177.058 93.6267 177.317 93.8107 177.53 94.056C177.743 94.296 177.909 94.5973 178.026 94.96C178.143 95.3173 178.202 95.7333 178.202 96.208C178.202 96.6827 178.143 97.1013 178.026 97.464C177.909 97.8213 177.743 98.1227 177.53 98.368C177.317 98.608 177.058 98.7893 176.754 98.912C176.45 99.0347 176.114 99.096 175.746 99.096ZM175.746 98.016C176.114 98.016 176.399 97.896 176.602 97.656C176.81 97.416 176.914 97.072 176.914 96.624V95.792C176.914 95.344 176.81 95 176.602 94.76C176.399 94.52 176.114 94.4 175.746 94.4C175.378 94.4 175.09 94.52 174.882 94.76C174.679 95 174.578 95.344 174.578 95.792V96.624C174.578 97.072 174.679 97.416 174.882 97.656C175.09 97.896 175.378 98.016 175.746 98.016ZM180.503 99H179.287V93.416H181.935C182.191 93.416 182.423 93.4587 182.631 93.544C182.839 93.6293 183.015 93.752 183.159 93.912C183.308 94.0667 183.423 94.2533 183.503 94.472C183.583 94.6907 183.623 94.9333 183.623 95.2C183.623 95.5787 183.538 95.9093 183.367 96.192C183.202 96.4747 182.948 96.68 182.607 96.808L183.703 99H182.351L181.375 96.952H180.503V99ZM181.783 95.928C181.964 95.928 182.106 95.8827 182.207 95.792C182.314 95.696 182.367 95.5573 182.367 95.376V95.024C182.367 94.8427 182.314 94.7067 182.207 94.616C182.106 94.52 181.964 94.472 181.783 94.472H180.503V95.928H181.783ZM184.748 99V93.416H188.548V94.496H185.964V95.64H188.18V96.712H185.964V97.92H188.548V99H184.748Z" fill="#E1E3E9"/>
        <circle cx="211" cy="126.5" r="3" fill="#F8F8F8" stroke="#D6A700" stroke-width="2"/>
        <path d="M223.334 130L222.934 128.672H221.07L220.67 130H219.438L221.278 124.416H222.782L224.598 130H223.334ZM222.014 125.52H221.974L221.358 127.64H222.638L222.014 125.52ZM225.441 130V124.416H226.657V128.92H228.785V130H225.441ZM229.753 130V124.416H230.969V128.92H233.097V130H229.753ZM235.81 130V129.032H236.53V125.384H235.81V124.416H238.466V125.384H237.746V129.032H238.466V130H235.81ZM241.253 127.36L240.717 126.24H240.693V130H239.549V124.416H240.877L242.405 127.056L242.941 128.176H242.965V124.416H244.109V130H242.781L241.253 127.36Z" fill="#E1E3E9"/>
        <path d="M295.098 140.496V145H293.882V140.496H292.37V139.416H296.61V140.496H295.098ZM300.428 145L300.028 143.672H298.164L297.764 145H296.532L298.372 139.416H299.876L301.692 145H300.428ZM299.108 140.52H299.068L298.452 142.64H299.732L299.108 140.52ZM304.479 142.568L303.751 143.448V145H302.535V139.416H303.751V142.072H303.799L304.591 140.992L305.847 139.416H307.223L305.343 141.712L307.391 145H305.959L304.479 142.568ZM308.175 145V139.416H311.975V140.496H309.391V141.64H311.607V142.712H309.391V143.92H311.975V145H308.175ZM315.065 145V139.416H317.705C317.967 139.416 318.201 139.461 318.409 139.552C318.617 139.637 318.793 139.757 318.937 139.912C319.087 140.067 319.201 140.256 319.281 140.48C319.361 140.699 319.401 140.939 319.401 141.2C319.401 141.467 319.361 141.709 319.281 141.928C319.201 142.147 319.087 142.333 318.937 142.488C318.793 142.643 318.617 142.765 318.409 142.856C318.201 142.941 317.967 142.984 317.705 142.984H316.281V145H315.065ZM316.281 141.928H317.561C317.743 141.928 317.884 141.883 317.985 141.792C318.092 141.696 318.145 141.557 318.145 141.376V141.024C318.145 140.843 318.092 140.707 317.985 140.616C317.884 140.52 317.743 140.472 317.561 140.472H316.281V141.928ZM321.601 145H320.385V139.416H323.033C323.289 139.416 323.521 139.459 323.729 139.544C323.937 139.629 324.113 139.752 324.257 139.912C324.407 140.067 324.521 140.253 324.601 140.472C324.681 140.691 324.721 140.933 324.721 141.2C324.721 141.579 324.636 141.909 324.465 142.192C324.3 142.475 324.047 142.68 323.705 142.808L324.801 145H323.449L322.473 142.952H321.601V145ZM322.881 141.928C323.063 141.928 323.204 141.883 323.305 141.792C323.412 141.696 323.465 141.557 323.465 141.376V141.024C323.465 140.843 323.412 140.707 323.305 140.616C323.204 140.52 323.063 140.472 322.881 140.472H321.601V141.928H322.881ZM328.008 145.096C327.64 145.096 327.304 145.035 327 144.912C326.696 144.789 326.437 144.608 326.224 144.368C326.01 144.123 325.845 143.821 325.728 143.464C325.61 143.101 325.552 142.683 325.552 142.208C325.552 141.733 325.61 141.317 325.728 140.96C325.845 140.597 326.01 140.296 326.224 140.056C326.437 139.811 326.696 139.627 327 139.504C327.304 139.381 327.64 139.32 328.008 139.32C328.376 139.32 328.712 139.381 329.016 139.504C329.32 139.627 329.578 139.811 329.792 140.056C330.005 140.296 330.17 140.597 330.288 140.96C330.405 141.317 330.464 141.733 330.464 142.208C330.464 142.683 330.405 143.101 330.288 143.464C330.17 143.821 330.005 144.123 329.792 144.368C329.578 144.608 329.32 144.789 329.016 144.912C328.712 145.035 328.376 145.096 328.008 145.096ZM328.008 144.016C328.376 144.016 328.661 143.896 328.864 143.656C329.072 143.416 329.176 143.072 329.176 142.624V141.792C329.176 141.344 329.072 141 328.864 140.76C328.661 140.52 328.376 140.4 328.008 140.4C327.64 140.4 327.352 140.52 327.144 140.76C326.941 141 326.84 141.344 326.84 141.792V142.624C326.84 143.072 326.941 143.416 327.144 143.656C327.352 143.896 327.64 144.016 328.008 144.016ZM331.549 145V139.416H335.253V140.496H332.765V141.64H334.885V142.712H332.765V145H331.549ZM336.082 145V144.032H336.802V140.384H336.082V139.416H338.738V140.384H338.018V144.032H338.738V145H336.082ZM342.118 140.496V145H340.902V140.496H339.39V139.416H343.63V140.496H342.118Z" fill="#E1E3E9"/>
        <circle cx="318" cy="156" r="3" fill="#F8F8F8" stroke="#CC2500" stroke-width="2"/>
        <circle cx="56" cy="46.5" r="3" fill="#F8F8F8" stroke="#14BA30" stroke-width="2"/>
        <path d="M65.003 44.416H67.715C68.179 44.416 68.539 44.5467 68.795 44.808C69.0564 45.0693 69.187 45.416 69.187 45.848C69.187 46.0613 69.1577 46.2427 69.099 46.392C69.0457 46.5413 68.971 46.664 68.875 46.76C68.7844 46.856 68.675 46.928 68.547 46.976C68.4244 47.0187 68.291 47.0427 68.147 47.048V47.096C68.2804 47.096 68.419 47.12 68.563 47.168C68.7124 47.216 68.8484 47.2933 68.971 47.4C69.0937 47.5013 69.195 47.6347 69.275 47.8C69.3604 47.9653 69.403 48.168 69.403 48.408C69.403 48.6267 69.3657 48.8347 69.291 49.032C69.2217 49.224 69.123 49.392 68.995 49.536C68.867 49.68 68.715 49.7947 68.539 49.88C68.363 49.96 68.171 50 67.963 50H65.003V44.416ZM66.219 48.976H67.619C67.779 48.976 67.9044 48.9333 67.995 48.848C68.091 48.7573 68.139 48.632 68.139 48.472V48.2C68.139 48.04 68.091 47.9173 67.995 47.832C67.9044 47.7413 67.779 47.696 67.619 47.696H66.219V48.976ZM66.219 46.704H67.427C67.587 46.704 67.7124 46.6587 67.803 46.568C67.8937 46.4773 67.939 46.352 67.939 46.192V45.952C67.939 45.792 67.8937 45.6667 67.803 45.576C67.7124 45.4853 67.587 45.44 67.427 45.44H66.219V46.704ZM71.561 44.416V47.84C71.561 48.2347 71.6383 48.5307 71.793 48.728C71.9476 48.92 72.2063 49.016 72.569 49.016C72.9316 49.016 73.1903 48.92 73.345 48.728C73.4996 48.5307 73.577 48.2347 73.577 47.84V44.416H74.761V47.712C74.761 48.1227 74.721 48.48 74.641 48.784C74.5663 49.0827 74.441 49.3307 74.265 49.528C74.089 49.72 73.8623 49.864 73.585 49.96C73.3076 50.0507 72.969 50.096 72.569 50.096C72.169 50.096 71.8303 50.0507 71.553 49.96C71.2756 49.864 71.049 49.72 70.873 49.528C70.697 49.3307 70.569 49.0827 70.489 48.784C70.4143 48.48 70.377 48.1227 70.377 47.712V44.416H71.561ZM77.4017 50V47.816L75.4897 44.416H76.8497L78.0497 46.64H78.0657L79.2177 44.416H80.5377L78.6257 47.808V50H77.4017Z" fill="#E1E3E9"/>
    </g>
    <defs>
        <clipPath id="clip0_3474_103803">
            <rect width="360" height="168" fill="white"/>
        </clipPath>
    </defs>
</svg>
