<svg width="24" height="24" viewBox="0 0 24 24" fill="none" xmlns="http://www.w3.org/2000/svg">
    <path d="M12.1006 14.7772L14.7874 19.0642L17.2694 17.6019L13.7408 11.9478L12.1006 14.7772Z" fill="#F8F8F8"/>
    <path d="M19.5287 15.8822L19.5269 14.7106L15.6712 8.60548L14.2407 11.073L17.9628 17.1928L19.3086 16.4C19.4407 16.2911 19.5205 16.1311 19.5289 15.9585L19.5287 15.8822Z" fill="#F8F8F8"/>
    <path d="M3.37164 16.987L5.27211 18.1002L11.5964 7.78943L10.523 7.76061C9.6085 7.74746 8.62338 7.98915 8.17118 8.73953L4.57981 14.3984L3.37158 16.2857V16.987H3.37164Z" fill="white"/>
    <path d="M15.2464 7.78935L12.4176 7.7998L6.01758 18.5365L8.25456 19.8459L8.8629 18.797L15.2464 7.78935Z" fill="white"/>
    <path d="M20.7207 7.7747C20.6971 7.17327 20.3768 6.62267 19.875 6.30214L12.8424 2.19072C12.3461 1.93661 11.726 1.93631 11.2289 2.19053C11.1702 2.22064 4.38982 6.21832 4.38982 6.21832C4.29601 6.26404 4.20564 6.31854 4.12059 6.38036C3.67267 6.70673 3.39963 7.21383 3.37158 7.77101V16.2858L4.57981 14.3986L4.56923 7.8286C4.57068 7.80457 4.57364 7.78097 4.57781 7.75762C4.60507 7.60301 4.69 7.46511 4.81785 7.37195C4.84977 7.34872 11.7459 3.2907 11.7678 3.27952C11.9299 3.19674 12.1359 3.19588 12.2982 3.277L19.2398 7.33624C19.404 7.44256 19.507 7.62286 19.5161 7.81993V15.9585C19.5077 16.1311 19.4406 16.291 19.3086 16.4001L17.9628 17.1928L17.2684 17.6019L14.7864 19.0642L12.2694 20.5471C12.1338 20.5969 11.9753 20.5941 11.8409 20.5385L8.86288 18.7972L8.25453 19.8461L10.9308 21.4125C11.0193 21.4637 11.0982 21.509 11.1628 21.546C11.2631 21.6032 11.3313 21.6413 11.3554 21.6532C11.5457 21.7471 11.8193 21.8018 12.0659 21.8018C12.2921 21.8018 12.5125 21.7596 12.7212 21.6765L20.032 17.3722C20.4516 17.0417 20.6985 16.5433 20.7207 16.0033V7.7747Z" fill="#F8F8F8"/>
</svg>
