<svg width="24" height="24" viewBox="0 0 24 24" fill="none" xmlns="http://www.w3.org/2000/svg">
    <path d="M8.4374 19.6274H3.7499C3.57635 19.6275 3.40582 19.5821 3.25526 19.4958C3.10471 19.4094 2.97939 19.2852 2.89178 19.1354C2.80417 18.9856 2.75732 18.8154 2.75589 18.6419C2.75447 18.4683 2.79851 18.2974 2.88365 18.1462L11.1487 3.48557C11.2352 3.33228 11.361 3.20473 11.513 3.11599C11.665 3.02724 11.8379 2.98047 12.014 2.98047C12.19 2.98047 12.3629 3.02724 12.5149 3.11599C12.667 3.20473 12.7927 3.33228 12.8793 3.48557L15.3562 7.85807C15.4437 8.00937 15.4898 8.18108 15.4898 8.35589C15.4898 8.53069 15.4437 8.70241 15.3562 8.8537L9.29803 19.1381C9.21 19.2879 9.08418 19.4119 8.93314 19.4978C8.7821 19.5837 8.61115 19.6284 8.4374 19.6274Z" fill="#F8F8F8"/>
    <path d="M13.7775 18.1425L16.5619 13.1756C16.6487 13.0224 16.7746 12.8949 16.9268 12.8062C17.079 12.7175 17.252 12.6708 17.4281 12.6708C17.6043 12.6708 17.7772 12.7175 17.9294 12.8062C18.0816 12.8949 18.2075 13.0224 18.2944 13.1756L21.1069 18.1406C21.1927 18.2919 21.2374 18.4631 21.2365 18.6371C21.2356 18.8111 21.1891 18.9818 21.1016 19.1322C21.0142 19.2827 20.8888 19.4075 20.7381 19.4944C20.5874 19.5813 20.4165 19.6272 20.2425 19.6275H14.6456C14.4716 19.6277 14.3005 19.5822 14.1495 19.4957C13.9985 19.4092 13.8729 19.2846 13.785 19.1343C13.6972 18.9841 13.6503 18.8134 13.649 18.6394C13.6476 18.4654 13.692 18.294 13.7775 18.1425Z" fill="#F8F8F8"/>
</svg>
