<svg width="24" height="24" viewBox="0 0 24 24" fill="none" xmlns="http://www.w3.org/2000/svg">
<path d="M17.2031 15.0037V12.6619L15.2981 13.7606V16.1044L17.2031 15.0037Z" fill="#727B93"/>
<path d="M17.2031 8.99625L15.2269 7.85437L12 9.71812L8.77313 7.85437L6.79688 8.99625V11.0719L10.0781 12.9675V16.8994L12 18.0094L13.9219 16.8994V12.9675L17.2031 11.0719V8.99625Z" fill="#727B93"/>
<path d="M20.5031 9.16684V7.09122L18.5269 5.94934L16.6031 7.05934L18.5794 8.20122V10.2768L20.5031 9.16684Z" fill="#727B93"/>
<path d="M5.42064 10.2768V8.20122L7.39689 7.05934L5.47314 5.94934L3.49689 7.09122V9.16684L5.42064 10.2768Z" fill="#727B93"/>
<path d="M6.79688 15.0037L8.70187 16.1044V13.7606L6.79688 12.6619V15.0037Z" fill="#727B93"/>
<path d="M13.9219 18.4894L12 19.5994L10.0781 18.4894V20.7094L12 21.8194L13.9219 20.7094V18.4894Z" fill="#727B93"/>
<path d="M13.8506 7.05935L12 5.9906L10.1494 7.05935L12 8.1281L13.8506 7.05935Z" fill="#727B93"/>
<path d="M18.5793 11.8668V15.7987L15.2981 17.6943V19.9143L20.5031 16.9087V10.7568L18.5793 11.8668Z" fill="#727B93"/>
<path d="M8.70189 17.6943L5.42064 15.7987V11.8668L3.49689 10.7568V16.9087L8.70189 19.9143V17.6943Z" fill="#727B93"/>
<path d="M8.77312 6.26441L12 4.40254L15.2269 6.26441L17.1506 5.15441L12 2.18066L6.84937 5.15441L8.77312 6.26441Z" fill="#727B93"/>
</svg>
