<svg width="24" height="24" viewBox="0 0 24 24" fill="none" xmlns="http://www.w3.org/2000/svg">
<path d="M11.6992 14.8945L12.7383 13.8486C11.918 13.7734 11.3438 13.5137 10.9199 13.0898C9.76465 11.9346 9.76465 10.2939 10.9131 9.14551L13.1826 6.87598C14.3379 5.7207 15.9717 5.7207 17.127 6.87598C18.2891 8.04492 18.2822 9.67188 17.1338 10.8203L15.958 11.9961C16.1768 12.4951 16.2451 13.1035 16.1289 13.6299L18.0908 11.6748C19.7725 10 19.7793 7.62109 18.084 5.92578C16.3887 4.22363 14.0098 4.2373 12.335 5.91211L9.95605 8.29785C8.28125 9.97266 8.26758 12.3516 9.96289 14.0469C10.3662 14.4434 10.9062 14.7441 11.6992 14.8945ZM12.3008 9.13184L11.2686 10.1777C12.082 10.2529 12.6631 10.5195 13.0801 10.9365C14.2422 12.0986 14.2422 13.7324 13.0869 14.8809L10.8174 17.1504C9.66211 18.3057 8.03516 18.3057 6.87305 17.1504C5.71094 15.9883 5.71777 14.3545 6.87305 13.2061L8.04199 12.0303C7.83008 11.5312 7.75488 10.9297 7.87109 10.3965L5.91602 12.3516C4.23438 14.0264 4.22754 16.4121 5.92285 18.1074C7.61816 19.8027 9.99707 19.7891 11.6719 18.1143L14.0439 15.7354C15.7256 14.0537 15.7324 11.6748 14.0371 9.98633C13.6406 9.58301 13.1006 9.28223 12.3008 9.13184Z" fill="#727B93"/>
</svg>
