<svg width="24" height="24" viewBox="0 0 24 24" fill="none" xmlns="http://www.w3.org/2000/svg">
    <path d="M17.9139 4.79622L12.9995 2.18622C12.691 2.02191 12.3469 1.93597 11.9973 1.93597C11.6478 1.93597 11.3037 2.02191 10.9952 2.18622L6.08078 4.79622C5.93017 4.87598 5.80415 4.99529 5.71627 5.14131C5.6284 5.28733 5.58199 5.45455 5.58203 5.62497V18.375C5.58199 18.5454 5.6284 18.7126 5.71627 18.8586C5.80415 19.0047 5.93017 19.124 6.08078 19.2037L10.9952 21.8137C11.3035 21.9787 11.6477 22.065 11.9973 22.065C12.347 22.065 12.6912 21.9787 12.9995 21.8137L17.9139 19.2037C18.0645 19.124 18.1905 19.0047 18.2784 18.8586C18.3663 18.7126 18.4127 18.5454 18.4127 18.375V5.62497C18.4127 5.45455 18.3663 5.28733 18.2784 5.14131C18.1905 4.99529 18.0645 4.87598 17.9139 4.79622ZM10.9314 8.71122L6.43141 11.0981V6.39935L10.9314 8.71122ZM11.5708 9.33747V14.4731C11.5108 14.4528 11.4524 14.4277 11.3964 14.3981L6.72016 11.9137L11.5708 9.33747ZM12.4239 9.33747L17.2745 11.9137L12.5983 14.3981C12.5422 14.4277 12.4839 14.4528 12.4239 14.4731V9.33747ZM13.0633 8.71122L17.5633 6.39935V11.0981L13.0633 8.71122ZM11.3964 2.93997C11.5814 2.84149 11.7878 2.78997 11.9973 2.78997C12.2069 2.78997 12.4133 2.84149 12.5983 2.93997L17.4377 5.50685L12.1145 8.23872C12.0367 8.222 11.9561 8.222 11.8783 8.23872L6.56266 5.50685L11.3964 2.93997ZM17.5127 18.45L12.5983 21.06C12.4134 21.1588 12.207 21.2105 11.9973 21.2105C11.7877 21.2105 11.5813 21.1588 11.3964 21.06L6.48016 18.45C6.46678 18.4425 6.45559 18.4316 6.4477 18.4184C6.4398 18.4053 6.43548 18.3903 6.43516 18.375V12.7312L10.9952 15.1537C11.3039 15.3174 11.6479 15.403 11.9973 15.403C12.3467 15.403 12.6908 15.3174 12.9995 15.1537L17.5595 12.7312V18.375C17.5592 18.3905 17.5547 18.4057 17.5464 18.4189C17.5382 18.4321 17.5265 18.4429 17.5127 18.45Z" fill="#F8F8F8"/>
    <path d="M4.85988 18.5625V18.1387H4.00488V18.5625C4.00456 18.9696 4.11525 19.3691 4.32504 19.7179C4.53483 20.0668 4.83578 20.3519 5.19551 20.5425L5.72051 20.8219L6.12176 20.0719L5.59676 19.7925C5.37331 19.6743 5.18649 19.4972 5.05658 19.2804C4.92668 19.0635 4.85865 18.8153 4.85988 18.5625Z" fill="#F8F8F8"/>
    <path d="M18.8042 3.45377L18.2792 3.17627L17.8779 3.92627L18.4029 4.20377C18.6265 4.32272 18.8134 4.50053 18.9433 4.71798C19.0731 4.93543 19.1411 5.18424 19.1398 5.43752V5.86502H19.9948V5.43752C19.9946 5.03004 19.8837 4.63027 19.674 4.28089C19.4643 3.9315 19.1637 3.64562 18.8042 3.45377Z" fill="#F8F8F8"/>
</svg>
