<svg width="24" height="24" viewBox="0 0 24 24" fill="none" xmlns="http://www.w3.org/2000/svg">
<path fill-rule="evenodd" clip-rule="evenodd" d="M12 22C17.5228 22 22 17.5228 22 12C22 6.47715 17.5228 2 12 2C6.47715 2 2 6.47715 2 12C2 17.5228 6.47715 22 12 22ZM9.08415 14.656C8.48815 14.656 8.00015 14.516 7.62015 14.236C7.24415 13.952 7.05615 13.544 7.05615 13.02C7.05615 12.908 7.06815 12.776 7.09215 12.616C7.15615 12.256 7.24815 11.824 7.36815 11.316C7.70815 9.93995 8.58815 9.25195 10.0042 9.25195C10.3882 9.25195 10.7362 9.31595 11.0402 9.44795C11.3442 9.57195 11.5842 9.76395 11.7602 10.02C11.9362 10.272 12.0242 10.572 12.0242 10.92C12.0242 11.024 12.0122 11.156 11.9882 11.316C11.9122 11.76 11.8242 12.196 11.7162 12.616C11.5402 13.3 11.2402 13.816 10.8082 14.156C10.3802 14.492 9.80415 14.656 9.08415 14.656ZM9.19215 13.576C9.47215 13.576 9.70815 13.492 9.90415 13.328C10.1042 13.164 10.2482 12.912 10.3322 12.568C10.4482 12.096 10.5362 11.688 10.5962 11.336C10.6162 11.232 10.6282 11.124 10.6282 11.012C10.6282 10.556 10.3922 10.328 9.91615 10.328C9.63615 10.328 9.39615 10.412 9.19615 10.576C9.00015 10.74 8.86015 10.992 8.77615 11.336C8.68415 11.672 8.59615 12.08 8.50415 12.568C8.48415 12.668 8.47215 12.772 8.47215 12.884C8.46815 13.348 8.71215 13.576 9.19215 13.576ZM12.2438 14.532C12.2758 14.568 12.3158 14.584 12.3718 14.584H13.3918C13.4438 14.584 13.4918 14.568 13.5358 14.532C13.5838 14.496 13.6078 14.452 13.6198 14.396L13.9638 12.752H14.9758C15.6318 12.752 16.1478 12.616 16.5238 12.34C16.9078 12.064 17.1598 11.64 17.2838 11.064C17.3118 10.928 17.3278 10.796 17.3278 10.672C17.3278 10.236 17.1558 9.904 16.8158 9.672C16.4798 9.444 16.0358 9.328 15.4798 9.328H13.4838C13.4318 9.328 13.3838 9.344 13.3398 9.38C13.2918 9.416 13.2638 9.46 13.2558 9.516L12.2198 14.396C12.2118 14.448 12.2198 14.492 12.2438 14.532ZM15.5758 11.544C15.4198 11.66 15.2398 11.716 15.0278 11.716H14.1678L14.4518 10.372H15.3518C15.5558 10.372 15.7038 10.412 15.7878 10.492C15.8718 10.568 15.9158 10.68 15.9158 10.824C15.9158 10.888 15.9078 10.964 15.8918 11.048C15.8398 11.264 15.7358 11.428 15.5758 11.544Z" fill="#F8F8F8"/>
</svg>
