<svg width="24" height="24" viewBox="0 0 24 24" fill="none" xmlns="http://www.w3.org/2000/svg">
    <path d="M16.035 8.54626L7.97248 13.2056C7.82402 13.2905 7.65598 13.3351 7.48498 13.3351C7.31398 13.3351 7.14594 13.2905 6.99748 13.2056L4.41561 11.7188C4.26922 11.6321 4.14807 11.5086 4.0642 11.3605C3.98032 11.2125 3.93663 11.0451 3.93748 10.875V7.90126C3.93759 7.73021 3.98269 7.56221 4.06826 7.41411C4.15383 7.26601 4.27685 7.14303 4.42498 7.05751L6.99936 5.57063C7.14782 5.48578 7.31586 5.44115 7.48686 5.44115C7.65785 5.44115 7.82589 5.48578 7.97435 5.57063L10.5487 7.05751C10.6969 7.14303 10.8199 7.26601 10.9054 7.41411C10.991 7.56221 11.0361 7.73021 11.0362 7.90126V9.32813C11.0363 9.37071 11.0475 9.41253 11.0687 9.44944C11.09 9.48634 11.1205 9.51703 11.1573 9.53847C11.1941 9.5599 11.2359 9.57132 11.2784 9.57159C11.321 9.57186 11.3629 9.56097 11.4 9.54001L12.7406 8.76563C12.8144 8.72278 12.8757 8.66122 12.9182 8.58715C12.9606 8.51308 12.9828 8.42913 12.9825 8.34376V6.77626C12.9824 6.60543 12.9375 6.43763 12.8523 6.28958C12.7671 6.14153 12.6445 6.01841 12.4969 5.93251L7.96498 3.32251C7.81682 3.23675 7.64867 3.19159 7.47748 3.19159C7.30629 3.19159 7.13814 3.23675 6.98998 3.32251L2.46748 5.93251C2.31935 6.01803 2.19633 6.14101 2.11076 6.28911C2.02519 6.43721 1.98009 6.60521 1.97998 6.77626V12C1.98009 12.171 2.02519 12.3391 2.11076 12.4872C2.19633 12.6353 2.31935 12.7582 2.46748 12.8438L6.98998 15.4538C7.13814 15.5395 7.30629 15.5847 7.47748 15.5847C7.64867 15.5847 7.81682 15.5395 7.96498 15.4538L16.0275 10.7944C16.1759 10.7095 16.344 10.6649 16.515 10.6649C16.686 10.6649 16.854 10.7095 17.0025 10.7944L19.5769 12.2813C19.725 12.3668 19.848 12.4898 19.9336 12.6379C20.0191 12.786 20.0642 12.954 20.0644 13.125V16.0988C20.0642 16.2698 20.0191 16.4378 19.9336 16.5859C19.848 16.734 19.725 16.857 19.5769 16.9425L17.01 18.4294C16.8615 18.5142 16.6935 18.5589 16.5225 18.5589C16.3515 18.5589 16.1834 18.5142 16.035 18.4294L13.4606 16.9425C13.3125 16.857 13.1895 16.734 13.1039 16.5859C13.0183 16.4378 12.9732 16.2698 12.9731 16.0988V14.67C12.9733 14.6274 12.9622 14.5854 12.941 14.5485C12.9197 14.5115 12.8891 14.4808 12.8522 14.4595C12.8152 14.4381 12.7733 14.427 12.7307 14.4271C12.688 14.4272 12.6462 14.4385 12.6094 14.46L11.2687 15.2325C11.195 15.2755 11.1339 15.3371 11.0914 15.4111C11.049 15.4852 11.0267 15.569 11.0269 15.6544V17.2238C11.027 17.3946 11.0719 17.5624 11.1571 17.7104C11.2423 17.8585 11.3648 17.9816 11.5125 18.0675L16.035 20.6775C16.1831 20.7633 16.3513 20.8084 16.5225 20.8084C16.6937 20.8084 16.8618 20.7633 17.01 20.6775L21.5325 18.0675C21.6806 17.982 21.8036 17.859 21.8892 17.7109C21.9748 17.5628 22.0199 17.3948 22.02 17.2238V12C22.0199 11.829 21.9748 11.661 21.8892 11.5129C21.8036 11.3648 21.6806 11.2418 21.5325 11.1563L17.01 8.54626C16.8618 8.4605 16.6937 8.41534 16.5225 8.41534C16.3513 8.41534 16.1831 8.4605 16.035 8.54626V8.54626Z" fill="#F8F8F8"/>
</svg>
