<svg width="24" height="24" viewBox="0 0 24 24" fill="none" xmlns="http://www.w3.org/2000/svg">
<g clip-path="url(#account_logo)">
<mask id="mask_account_logo" style="mask-type:alpha" maskUnits="userSpaceOnUse" x="2" y="11" width="20" height="6">
<path fill-rule="evenodd" clip-rule="evenodd" d="M2.43201 13.8401C2.43201 15.3031 3.1624 16.5388 4.39467 16.5388C5.62695 16.5388 6.84801 15.3031 6.84801 13.8401C6.84801 12.2545 5.62695 11.0188 4.39467 11.0188C3.1624 11.0188 2.43201 12.2545 2.43201 13.8401ZM21.568 13.8401C21.568 15.3031 20.8377 16.5388 19.6053 16.5388C18.373 16.5388 17.152 15.3031 17.152 13.8401C17.152 12.2545 18.373 11.0188 19.6053 11.0188C20.8377 11.0188 21.568 12.2545 21.568 13.8401Z" fill="white"/>
</mask>
<g mask="url(#mask_account_logo)">
<path d="M23.04 9.05615H0.960022V18.3788H23.04V9.05615Z" fill="#727B93"/>
<path d="M20.5867 9.05603H3.41333V18.3787H20.5867V9.05603Z" fill="#727B93"/>
</g>
<g filter="url(#filter_account_logo)">
<path fill-rule="evenodd" clip-rule="evenodd" d="M9.66931 5.00802C9.66931 3.65308 10.7677 2.55469 12.1226 2.55469C13.4776 2.55469 14.576 3.65308 14.576 5.00802V6.35735H9.66931V5.00802Z" fill="#ED3D25"/>
</g>
<path fill-rule="evenodd" clip-rule="evenodd" d="M12.1226 5.37605C12.3936 5.37605 12.6133 5.25682 12.6133 4.85034C12.6133 4.44386 12.3936 3.90405 12.1226 3.90405C11.8516 3.90405 11.632 4.44386 11.632 4.85034C11.632 5.25682 11.8516 5.37605 12.1226 5.37605Z" fill="#F8F8F8"/>
<path d="M12.1227 2.73877C12.0549 2.73877 12 2.79369 12 2.86144C12 2.92919 12.0549 2.9841 12.1227 2.9841V2.73877ZM13.5571 3.62044C13.6026 3.67064 13.6802 3.67448 13.7304 3.629C13.7806 3.58351 13.7844 3.50594 13.739 3.45573L13.5571 3.62044ZM14.0558 3.90991C14.0244 3.84987 13.9503 3.82665 13.8903 3.85805C13.8302 3.88946 13.807 3.96357 13.8384 4.0236L14.0558 3.90991ZM14.0148 4.51203C14.029 4.57827 14.0942 4.62048 14.1604 4.6063C14.2266 4.59212 14.2689 4.52692 14.2547 4.46068L14.0148 4.51203ZM12.1227 2.9841C12.6915 2.9841 13.2029 3.22942 13.5571 3.62044L13.739 3.45573C13.3402 3.01554 12.7637 2.73877 12.1227 2.73877V2.9841ZM13.8384 4.0236C13.918 4.17567 13.9779 4.33958 14.0148 4.51203L14.2547 4.46068C14.213 4.26619 14.1455 4.08133 14.0558 3.90991L13.8384 4.0236Z" fill="#F8F8F8"/>
<path d="M15.68 5.37598H8.56529C8.49755 5.37598 8.44263 5.4309 8.44263 5.49864V7.21598C8.44263 7.28372 8.49755 7.33864 8.56529 7.33864H15.68C15.7477 7.33864 15.8026 7.28372 15.8026 7.21598V5.49864C15.8026 5.4309 15.7477 5.37598 15.68 5.37598Z" fill="#ED3D25"/>
<mask id="mask_account_logo2" style="mask-type:alpha" maskUnits="userSpaceOnUse" x="4" y="6" width="16" height="16">
<path fill-rule="evenodd" clip-rule="evenodd" d="M4.02667 8.56518C4.02667 7.34573 5.01523 6.35718 6.23467 6.35718H17.7653C18.9848 6.35718 19.9733 7.34573 19.9733 8.56518V11.8954C19.9733 12.4516 19.8788 13.0038 19.6937 13.5284L17.5493 19.6041C17.2377 20.4868 16.4032 21.0772 15.4671 21.0772H8.53287C7.59671 21.0772 6.76231 20.4868 6.45074 19.6041L4.3064 13.5284C4.12126 13.0038 4.02667 12.4516 4.02667 11.8954V8.56518Z" fill="white"/>
</mask>
<g mask="url(#mask_account_logo2)">
<path d="M20.2186 6.11182H3.78131V21.3225H20.2186V6.11182Z" fill="#727B93"/>
</g>
<path d="M10.6567 17.2063C10.6268 17.0741 10.7097 16.9428 10.8419 16.9128C10.974 16.8829 11.1054 16.9658 11.1353 17.098C11.2297 17.5149 11.5586 17.7655 12 17.7655C12.4414 17.7655 12.7704 17.5149 12.8647 17.098C12.8946 16.9658 13.026 16.8829 13.1582 16.9128C13.2903 16.9428 13.3732 17.0741 13.3433 17.2063C13.1972 17.8516 12.6661 18.2561 12 18.2561C11.334 18.2561 10.8028 17.8516 10.6567 17.2063Z" fill="#141920"/>
<path fill-rule="evenodd" clip-rule="evenodd" d="M9.05602 15.435C10.2755 15.435 11.264 14.4465 11.264 13.227C11.264 12.0076 10.2755 11.019 9.05602 11.019C7.83658 11.019 6.84802 12.0076 6.84802 13.227C6.84802 14.4465 7.83658 15.435 9.05602 15.435Z" fill="#141920"/>
<path fill-rule="evenodd" clip-rule="evenodd" d="M14.6988 15.4348C15.9183 15.4348 16.9068 14.4462 16.9068 13.2268C16.9068 12.0074 15.9183 11.0188 14.6988 11.0188C13.4794 11.0188 12.4908 12.0074 12.4908 13.2268C12.4908 14.4462 13.4794 15.4348 14.6988 15.4348Z" fill="#141920"/>
<path fill-rule="evenodd" clip-rule="evenodd" d="M9.05606 15.0666C10.0723 15.0666 10.8961 14.2428 10.8961 13.2266C10.8961 12.2104 10.0723 11.3866 9.05606 11.3866C8.03986 11.3866 7.21606 12.2104 7.21606 13.2266C7.21606 14.2428 8.03986 15.0666 9.05606 15.0666Z" fill="#F8F8F8"/>
<path fill-rule="evenodd" clip-rule="evenodd" d="M14.6988 15.0666C15.715 15.0666 16.5388 14.2428 16.5388 13.2266C16.5388 12.2104 15.715 11.3866 14.6988 11.3866C13.6826 11.3866 12.8588 12.2104 12.8588 13.2266C12.8588 14.2428 13.6826 15.0666 14.6988 15.0666Z" fill="#F8F8F8"/>
<path d="M9.79212 12.1227H9.05612C8.92063 12.1227 8.81079 12.2325 8.81079 12.368V13.104C8.81079 13.2395 8.92063 13.3493 9.05612 13.3493H9.79212C9.92762 13.3493 10.0375 13.2395 10.0375 13.104V12.368C10.0375 12.2325 9.92762 12.1227 9.79212 12.1227Z" fill="#141920"/>
<path d="M15.6801 12.1227H14.9441C14.8086 12.1227 14.6988 12.2325 14.6988 12.368V13.104C14.6988 13.2395 14.8086 13.3493 14.9441 13.3493H15.6801C15.8156 13.3493 15.9255 13.2395 15.9255 13.104V12.368C15.9255 12.2325 15.8156 12.1227 15.6801 12.1227Z" fill="#141920"/>
</g>
<defs>
<filter id="filter_account_logo" x="5.74398" y="-1.37065" width="12.7573" height="11.6533" filterUnits="userSpaceOnUse" color-interpolation-filters="sRGB">
<feFlood flood-opacity="0" result="BackgroundImageFix"/>
<feColorMatrix in="SourceAlpha" type="matrix" values="0 0 0 0 0 0 0 0 0 0 0 0 0 0 0 0 0 0 127 0" result="hardAlpha"/>
<feOffset/>
<feGaussianBlur stdDeviation="1.96267"/>
<feColorMatrix type="matrix" values="0 0 0 0 1 0 0 0 0 1 0 0 0 0 1 0 0 0 0.5 0"/>
<feBlend mode="normal" in2="BackgroundImageFix" result="effect1_dropShadow_9300_18797"/>
<feBlend mode="normal" in="SourceGraphic" in2="effect1_dropShadow_9300_18797" result="shape"/>
<feColorMatrix in="SourceAlpha" type="matrix" values="0 0 0 0 0 0 0 0 0 0 0 0 0 0 0 0 0 0 127 0" result="hardAlpha"/>
<feOffset/>
<feGaussianBlur stdDeviation="0.981333"/>
<feComposite in2="hardAlpha" operator="arithmetic" k2="-1" k3="1"/>
<feColorMatrix type="matrix" values="0 0 0 0 1 0 0 0 0 1 0 0 0 0 1 0 0 0 0.5 0"/>
<feBlend mode="normal" in2="shape" result="effect2_innerShadow_9300_18797"/>
</filter>
<clipPath id="account_logo">
<rect width="24" height="24" fill="white"/>
</clipPath>
</defs>
</svg>
