<svg width="24" height="24" viewBox="0 0 24 24" fill="none" xmlns="http://www.w3.org/2000/svg">
    <path d="M12 20.6191C16.9043 20.6191 20.9648 16.5498 20.9648 11.6543C20.9648 6.75 16.8955 2.68945 11.9912 2.68945C7.0957 2.68945 3.03516 6.75 3.03516 11.6543C3.03516 16.5498 7.10449 20.6191 12 20.6191ZM12 19.125C7.85156 19.125 4.53809 15.8027 4.53809 11.6543C4.53809 7.50586 7.84277 4.18359 11.9912 4.18359C16.1396 4.18359 19.4619 7.50586 19.4707 11.6543C19.4795 15.8027 16.1484 19.125 12 19.125ZM7.40332 12.6035H11.9912C12.334 12.6035 12.6064 12.3398 12.6064 11.9883V6.06445C12.6064 5.72168 12.334 5.45801 11.9912 5.45801C11.6484 5.45801 11.3848 5.72168 11.3848 6.06445V11.3818H7.40332C7.05176 11.3818 6.78809 11.6455 6.78809 11.9883C6.78809 12.3398 7.05176 12.6035 7.40332 12.6035Z" fill="#ED3D25"/>
</svg>
