<svg width="24" height="24" viewBox="0 0 24 24" fill="none" xmlns="http://www.w3.org/2000/svg">
<g clip-path="url(#clip0_7019_54709)">
<path d="M12 19.126C15.8623 19.126 19.0615 15.9336 19.0615 12.0645C19.0615 8.20215 15.8623 5.00293 11.9932 5.00293C8.13086 5.00293 4.93848 8.20215 4.93848 12.0645C4.93848 15.9336 8.1377 19.126 12 19.126ZM12 17.7383C8.85547 17.7383 6.33301 15.209 6.33301 12.0645C6.33301 8.91992 8.84863 6.39746 11.9932 6.39746C15.1377 6.39746 17.6738 8.91992 17.6738 12.0645C17.6738 15.209 15.1445 17.7383 12 17.7383ZM8.54102 12.9121H11.9932C12.3008 12.9121 12.54 12.6729 12.54 12.3721V7.8877C12.54 7.58691 12.3008 7.34766 11.9932 7.34766C11.6924 7.34766 11.4531 7.58691 11.4531 7.8877V11.832H8.54102C8.2334 11.832 8.00098 12.0645 8.00098 12.3721C8.00098 12.6729 8.2334 12.9121 8.54102 12.9121Z" fill="#ED3D25"/>
</g>
<defs>
<clipPath id="clip0_7019_54709">
<rect width="24" height="24" fill="white"/>
</clipPath>
</defs>
</svg>
