<svg width="18" height="19" viewBox="0 0 18 19" fill="none" xmlns="http://www.w3.org/2000/svg">
<path d="M9 18.6191C13.9043 18.6191 17.9648 14.5498 17.9648 9.6543C17.9648 4.75 13.8955 0.689453 8.99121 0.689453C4.0957 0.689453 0.0351562 4.75 0.0351562 9.6543C0.0351562 14.5498 4.10449 18.6191 9 18.6191ZM9 17.125C4.85156 17.125 1.53809 13.8027 1.53809 9.6543C1.53809 5.50586 4.84277 2.18359 8.99121 2.18359C13.1396 2.18359 16.4619 5.50586 16.4707 9.6543C16.4795 13.8027 13.1484 17.125 9 17.125ZM4.40332 10.6035H8.99121C9.33398 10.6035 9.60645 10.3398 9.60645 9.98828V4.06445C9.60645 3.72168 9.33398 3.45801 8.99121 3.45801C8.64844 3.45801 8.38477 3.72168 8.38477 4.06445V9.38184H4.40332C4.05176 9.38184 3.78809 9.64551 3.78809 9.98828C3.78809 10.3398 4.05176 10.6035 4.40332 10.6035Z" fill="#ED3D25"/>
</svg>
