<svg width="25" height="24" viewBox="0 0 25 24" fill="none" xmlns="http://www.w3.org/2000/svg">
<g clip-path="url(#clip0_7019_58721)">
<path d="M12.5 19.126C16.3623 19.126 19.5615 15.9336 19.5615 12.0645C19.5615 8.20215 16.3623 5.00293 12.4932 5.00293C8.63086 5.00293 5.43848 8.20215 5.43848 12.0645C5.43848 15.9336 8.6377 19.126 12.5 19.126ZM12.5 17.7383C9.35547 17.7383 6.83301 15.209 6.83301 12.0645C6.83301 8.91992 9.34863 6.39746 12.4932 6.39746C15.6377 6.39746 18.1738 8.91992 18.1738 12.0645C18.1738 15.209 15.6445 17.7383 12.5 17.7383ZM9.33496 12.0645C9.33496 12.4336 9.60156 12.6934 9.98438 12.6934H11.8574V14.5732C11.8574 14.9492 12.1172 15.2158 12.4863 15.2158C12.8691 15.2158 13.1357 14.9492 13.1357 14.5732V12.6934H15.0156C15.3916 12.6934 15.6514 12.4336 15.6514 12.0645C15.6514 11.6816 15.3916 11.415 15.0156 11.415H13.1357V9.54199C13.1357 9.15918 12.8691 8.89941 12.4863 8.89941C12.1172 8.89941 11.8574 9.15918 11.8574 9.54199V11.415H9.98438C9.60156 11.415 9.33496 11.6816 9.33496 12.0645Z" fill="#ED3D25"/>
</g>
<defs>
<clipPath id="clip0_7019_58721">
<rect width="24" height="24" fill="white" transform="translate(0.5)"/>
</clipPath>
</defs>
</svg>
