<svg width="24" height="24" viewBox="0 0 24 24" fill="none" xmlns="http://www.w3.org/2000/svg">
<path d="M9.50391 14.0625C10.0049 14.5723 10.6377 14.9502 11.6221 15.1963C11.9912 14.8008 12.3516 14.4053 12.7207 14.0186C11.7363 13.8516 11.0771 13.5176 10.5674 13.0078C9.0293 11.4697 9.03809 9.29004 10.5586 7.76953L13.4238 4.9043C14.9619 3.375 17.124 3.36621 18.6621 4.9043C20.2002 6.44238 20.1826 8.61328 18.6621 10.1338L18.0205 10.7754C18.627 10.6348 19.4092 10.6084 19.998 10.7227L20.2354 10.4678C21.8174 8.49023 21.6504 5.77441 19.7256 3.84082C17.5898 1.70508 14.6016 1.72266 12.4922 3.83203L9.49512 6.83789C7.38574 8.94727 7.36816 11.9355 9.50391 14.0625ZM10.9365 9.14941C12.0967 9.24609 12.8525 9.58887 13.4238 10.1602C14.2676 11.0039 14.6279 12.041 14.5049 13.043C14.874 12.4453 15.3486 11.9268 15.9287 11.5312C15.7002 10.6699 15.2256 9.83496 14.4873 9.10547C13.9336 8.55176 13.2305 8.15625 12.1055 7.96289L10.9365 9.14941ZM4.26562 19.3271C6.40137 21.4629 9.39844 21.4541 11.4902 19.3447L13.3975 17.4375C13.2744 16.7344 13.2832 16.0137 13.459 15.2842C13.3447 15.46 13.2041 15.627 13.0459 15.7852L10.5586 18.2637C9.0293 19.793 6.86719 19.8018 5.3291 18.2725C3.79102 16.7256 3.7998 14.5635 5.3291 13.0342L7.05176 11.3115C6.80566 10.7578 6.74414 10.0986 6.84082 9.52734L4.25684 12.1025C2.15625 14.2119 2.13867 17.2002 4.26562 19.3271ZM18.9434 20.7422C21.3604 20.7422 23.4082 18.7207 23.4082 16.2773C23.4082 13.834 21.3867 11.8125 18.9434 11.8125C16.4912 11.8125 14.4785 13.834 14.4785 16.2773C14.4785 18.7383 16.4912 20.7422 18.9434 20.7422ZM18.9434 19.0723C18.6094 19.0723 18.3984 18.8613 18.3984 18.5361V16.8223H16.6846C16.3594 16.8223 16.1484 16.6025 16.1484 16.2773C16.1484 15.9521 16.3594 15.7412 16.6846 15.7412H18.3984V14.0273C18.3984 13.7021 18.6094 13.4824 18.9434 13.4824C19.2686 13.4824 19.4795 13.7021 19.4795 14.0273V15.7412H21.1934C21.5186 15.7412 21.7383 15.9521 21.7383 16.2773C21.7383 16.6025 21.5186 16.8223 21.1934 16.8223H19.4795V18.5361C19.4795 18.8613 19.2686 19.0723 18.9434 19.0723Z" fill="#ED3D25"/>
</svg>
