<svg width="16" height="15" viewBox="0 0 16 15" fill="none" xmlns="http://www.w3.org/2000/svg">
<path d="M8 14.126C11.8623 14.126 15.0615 10.9336 15.0615 7.06445C15.0615 3.20215 11.8623 0.00292969 7.99316 0.00292969C4.13086 0.00292969 0.938477 3.20215 0.938477 7.06445C0.938477 10.9336 4.1377 14.126 8 14.126ZM8 12.7383C4.85547 12.7383 2.33301 10.209 2.33301 7.06445C2.33301 3.91992 4.84863 1.39746 7.99316 1.39746C11.1377 1.39746 13.667 3.91992 13.6738 7.06445C13.6738 10.209 11.1445 12.7383 8 12.7383ZM4.83496 7.06445C4.83496 7.43359 5.10156 7.69336 5.48438 7.69336H7.35742V9.57324C7.35742 9.94922 7.61719 10.2158 7.98633 10.2158C8.36914 10.2158 8.63574 9.94922 8.63574 9.57324V7.69336H10.5156C10.8916 7.69336 11.1514 7.43359 11.1514 7.06445C11.1514 6.68164 10.8916 6.41504 10.5156 6.41504H8.63574V4.54199C8.63574 4.15918 8.36914 3.89941 7.98633 3.89941C7.61719 3.89941 7.35742 4.15918 7.35742 4.54199V6.41504H5.48438C5.10156 6.41504 4.83496 6.68164 4.83496 7.06445Z" fill="#ED3D25"/>
</svg>
