<svg width="24" height="24" viewBox="0 0 24 24" fill="none" xmlns="http://www.w3.org/2000/svg">
    <path d="M12 20.6191C16.9043 20.6191 20.9648 16.5498 20.9648 11.6543C20.9648 6.75 16.8955 2.68945 11.9912 2.68945C7.0957 2.68945 3.03516 6.75 3.03516 11.6543C3.03516 16.5498 7.10449 20.6191 12 20.6191ZM12 19.125C7.85156 19.125 4.53809 15.8027 4.53809 11.6543C4.53809 7.50586 7.84277 4.18359 11.9912 4.18359C16.1396 4.18359 19.4619 7.50586 19.4707 11.6543C19.4795 15.8027 16.1484 19.125 12 19.125ZM7.92188 11.6543C7.92188 12.085 8.2207 12.375 8.66895 12.375H11.2529V14.9678C11.2529 15.4072 11.5518 15.7148 11.9824 15.7148C12.4219 15.7148 12.7295 15.416 12.7295 14.9678V12.375H15.3223C15.7617 12.375 16.0693 12.085 16.0693 11.6543C16.0693 11.2148 15.7617 10.9072 15.3223 10.9072H12.7295V8.32324C12.7295 7.875 12.4219 7.56738 11.9824 7.56738C11.5518 7.56738 11.2529 7.875 11.2529 8.32324V10.9072H8.66895C8.2207 10.9072 7.92188 11.2148 7.92188 11.6543Z" fill="#ED3D25"/>
</svg>
