<svg width="18" height="15" viewBox="0 0 18 15" fill="none" xmlns="http://www.w3.org/2000/svg">
<path d="M0.834961 7.6543C0.834961 7.87402 0.931641 8.07617 1.10742 8.24316L6.94336 14.0703C7.11914 14.2373 7.30371 14.3164 7.51465 14.3164C7.94531 14.3164 8.28809 14 8.28809 13.5605C8.28809 13.3496 8.20898 13.1387 8.06836 13.0068L6.09961 11.0029L3.1377 8.30469L5.26465 8.43652H16.3828C16.8398 8.43652 17.1562 8.11133 17.1562 7.6543C17.1562 7.19727 16.8398 6.87207 16.3828 6.87207H5.26465L3.14648 7.00391L6.09961 4.30566L8.06836 2.30176C8.20898 2.16113 8.28809 1.95898 8.28809 1.74805C8.28809 1.30859 7.94531 0.992188 7.51465 0.992188C7.30371 0.992188 7.11914 1.0625 6.92578 1.25586L1.10742 7.06543C0.931641 7.23242 0.834961 7.43457 0.834961 7.6543Z" fill="#ED3D25"/>
</svg>