<svg width="24" height="24" viewBox="0 0 24 24" fill="none" xmlns="http://www.w3.org/2000/svg">
<path d="M5.54004 12.0576C5.54004 12.2627 5.62891 12.4609 5.78613 12.6113L10.291 17.1162C10.4551 17.2734 10.6396 17.3486 10.8242 17.3486C11.2549 17.3486 11.5625 17.041 11.5625 16.6309C11.5625 16.4189 11.4805 16.2344 11.3438 16.1045L9.8125 14.5527L7.78906 12.707L9.38867 12.8027H17.7012C18.1455 12.8027 18.46 12.4951 18.46 12.0576C18.46 11.6133 18.1455 11.3125 17.7012 11.3125H9.38867L7.7959 11.4082L9.8125 9.5625L11.3438 8.01074C11.4805 7.87402 11.5625 7.68945 11.5625 7.47754C11.5625 7.06738 11.2549 6.7666 10.8242 6.7666C10.6396 6.7666 10.4551 6.83496 10.2773 7.00586L5.78613 11.5039C5.62891 11.6475 5.54004 11.8525 5.54004 12.0576Z" fill="#ED3D25"/>
</svg>
