<svg width="18" height="15" viewBox="0 0 18 15" fill="none" xmlns="http://www.w3.org/2000/svg">
<path d="M17.1562 7.6543C17.1562 7.43457 17.0684 7.23242 16.8926 7.06543L11.0654 1.25586C10.8721 1.0625 10.6875 0.992188 10.4766 0.992188C10.0459 0.992188 9.71191 1.30859 9.71191 1.74805C9.71191 1.95898 9.78223 2.16113 9.92285 2.30176L11.8916 4.30566L14.8447 7.00391L12.7266 6.87207H1.6084C1.15137 6.87207 0.834961 7.19727 0.834961 7.6543C0.834961 8.11133 1.15137 8.43652 1.6084 8.43652H12.7266L14.8535 8.30469L11.8916 11.0029L9.92285 13.0068C9.78223 13.1387 9.71191 13.3496 9.71191 13.5605C9.71191 14 10.0459 14.3164 10.4766 14.3164C10.6875 14.3164 10.8721 14.2373 11.0479 14.0703L16.8926 8.24316C17.0684 8.07617 17.1562 7.87402 17.1562 7.6543Z" fill="#ED3D25"/>
</svg>
