<svg width="24" height="24" viewBox="0 0 24 24" fill="none" xmlns="http://www.w3.org/2000/svg">
<path d="M3.83496 11.6543C3.83496 11.874 3.93164 12.0762 4.10742 12.2432L9.94336 18.0703C10.1191 18.2373 10.3037 18.3164 10.5146 18.3164C10.9453 18.3164 11.2881 18 11.2881 17.5605C11.2881 17.3496 11.209 17.1387 11.0684 17.0068L9.09961 15.0029L6.1377 12.3047L8.26465 12.4365H19.3828C19.8398 12.4365 20.1562 12.1113 20.1562 11.6543C20.1562 11.1973 19.8398 10.8721 19.3828 10.8721H8.26465L6.14648 11.0039L9.09961 8.30566L11.0684 6.30176C11.209 6.16113 11.2881 5.95898 11.2881 5.74805C11.2881 5.30859 10.9453 4.99219 10.5146 4.99219C10.3037 4.99219 10.1191 5.0625 9.92578 5.25586L4.10742 11.0654C3.93164 11.2324 3.83496 11.4346 3.83496 11.6543Z" fill="#ED3D25"/>
</svg>
