<svg width="16" height="16" viewBox="0 0 16 16" fill="none" xmlns="http://www.w3.org/2000/svg">
    <g clip-path="url(#clip0_7992_32232)">
        <path d="M12.6143 8.46973C12.6143 8.32324 12.5508 8.17676 12.4385 8.07422L9.22559 4.86133C9.10352 4.73926 8.97168 4.69043 8.83496 4.69043C8.53223 4.69043 8.3125 4.90527 8.3125 5.19824C8.3125 5.34961 8.37109 5.48145 8.46875 5.5791L9.5625 6.6875L10.998 8.00586L9.86523 7.9375H3.92773C3.60547 7.9375 3.38574 8.15234 3.38574 8.46973C3.38574 8.78223 3.60547 9.00195 3.92773 9.00195H9.86523L11.0029 8.93359L9.5625 10.252L8.46875 11.3604C8.37109 11.4531 8.3125 11.585 8.3125 11.7363C8.3125 12.0293 8.53223 12.249 8.83496 12.249C8.97168 12.249 9.09863 12.1953 9.21582 12.083L12.4385 8.86523C12.5508 8.75781 12.6143 8.61621 12.6143 8.46973Z" fill="#ED3D25"/>
    </g>
    <defs>
        <clipPath id="clip0_7992_32232">
            <rect width="16" height="16" fill="white"/>
        </clipPath>
    </defs>
</svg>
