<svg width="24" height="24" viewBox="0 0 24 24" fill="none" xmlns="http://www.w3.org/2000/svg">
<path d="M20.1562 11.6543C20.1562 11.4346 20.0684 11.2324 19.8926 11.0654L14.0654 5.25586C13.8721 5.0625 13.6875 4.99219 13.4766 4.99219C13.0459 4.99219 12.7119 5.30859 12.7119 5.74805C12.7119 5.95898 12.7822 6.16113 12.9229 6.30176L14.8916 8.30566L17.8447 11.0039L15.7266 10.8721H4.6084C4.15137 10.8721 3.83496 11.1973 3.83496 11.6543C3.83496 12.1113 4.15137 12.4365 4.6084 12.4365H15.7266L17.8535 12.3047L14.8916 15.0029L12.9229 17.0068C12.7822 17.1387 12.7119 17.3496 12.7119 17.5605C12.7119 18 13.0459 18.3164 13.4766 18.3164C13.6875 18.3164 13.8721 18.2373 14.0479 18.0703L19.8926 12.2432C20.0684 12.0762 20.1562 11.874 20.1562 11.6543Z" fill="#ED3D25"/>
</svg>
