<svg width="24" height="24" viewBox="0 0 24 24" fill="none" xmlns="http://www.w3.org/2000/svg">
    <path d="M18.46 12.0576C18.46 11.8525 18.3711 11.6475 18.2139 11.5039L13.7158 7.00586C13.5449 6.83496 13.3604 6.7666 13.1689 6.7666C12.7451 6.7666 12.4375 7.06738 12.4375 7.47754C12.4375 7.68945 12.5195 7.87402 12.6562 8.01074L14.1875 9.5625L16.1973 11.4082L14.6113 11.3125H6.29883C5.84766 11.3125 5.54004 11.6133 5.54004 12.0576C5.54004 12.4951 5.84766 12.8027 6.29883 12.8027H14.6113L16.2041 12.707L14.1875 14.5527L12.6562 16.1045C12.5195 16.2344 12.4375 16.4189 12.4375 16.6309C12.4375 17.041 12.7451 17.3486 13.1689 17.3486C13.3604 17.3486 13.5381 17.2734 13.7021 17.1162L18.2139 12.6113C18.3711 12.4609 18.46 12.2627 18.46 12.0576Z" fill="#ED3D25"/>
</svg>
