<svg width="24" height="24" viewBox="0 0 24 24" fill="none" xmlns="http://www.w3.org/2000/svg">
<path d="M12 20.6191C16.9043 20.6191 20.9648 16.5498 20.9648 11.6543C20.9648 6.75 16.8955 2.68945 11.9912 2.68945C7.0957 2.68945 3.03516 6.75 3.03516 11.6543C3.03516 16.5498 7.10449 20.6191 12 20.6191ZM12 19.125C7.85156 19.125 4.53809 15.8027 4.53809 11.6543C4.53809 7.67285 7.58789 4.44727 11.5078 4.20117V11.7773C11.5078 11.9707 11.5518 12.1289 11.7188 12.2871L16.8691 17.332C15.5684 18.4482 13.8633 19.125 12 19.125ZM12.6855 10.8896V4.20996C15.0674 4.42969 17.1152 5.74805 18.3193 7.65527L12.6855 10.8896ZM13.1777 11.9707L18.8643 8.70117C19.251 9.60645 19.4707 10.5996 19.4707 11.6543C19.4795 13.4912 18.8203 15.1699 17.7305 16.4707L13.1777 11.9707Z" fill="#ED3D25"/>
</svg>
