<svg width="18" height="19" viewBox="0 0 18 19" fill="none" xmlns="http://www.w3.org/2000/svg">
<path d="M9 18.6191C13.9043 18.6191 17.9648 14.5498 17.9648 9.6543C17.9648 4.75 13.8955 0.689453 8.99121 0.689453C4.0957 0.689453 0.0351562 4.75 0.0351562 9.6543C0.0351562 14.5498 4.10449 18.6191 9 18.6191ZM9 17.125C4.85156 17.125 1.53809 13.8027 1.53809 9.6543C1.53809 5.67285 4.58789 2.44727 8.50781 2.20117V9.77734C8.50781 9.9707 8.55176 10.1289 8.71875 10.2871L13.8691 15.332C12.5684 16.4482 10.8633 17.125 9 17.125ZM9.68555 8.88965V2.20996C12.0674 2.42969 14.1152 3.74805 15.3193 5.65527L9.68555 8.88965ZM10.1777 9.9707L15.8643 6.70117C16.251 7.60645 16.4707 8.59961 16.4707 9.6543C16.4795 11.4912 15.8203 13.1699 14.7305 14.4707L10.1777 9.9707Z" fill="#ED3D25"/>
</svg>
