<svg width="64" height="64" viewBox="0 0 64 64" fill="none" xmlns="http://www.w3.org/2000/svg">
<rect width="64" height="64" rx="16" fill="#141920"/>
<mask id="mask0_596_9513" style="mask-type:alpha" maskUnits="userSpaceOnUse" x="12" y="30" width="40" height="12">
<path fill-rule="evenodd" clip-rule="evenodd" d="M12.8638 35.6801C12.8638 38.6061 14.3246 41.0775 16.7891 41.0775C19.2536 41.0775 21.6958 38.6061 21.6958 35.6801C21.6958 32.5089 19.2536 30.0375 16.7891 30.0375C14.3246 30.0375 12.8638 32.5089 12.8638 35.6801ZM51.1358 35.6801C51.1358 38.6061 49.6751 41.0775 47.2104 41.0775C44.7458 41.0775 42.3038 38.6061 42.3038 35.6801C42.3038 32.5089 44.7458 30.0375 47.2104 30.0375C49.6751 30.0375 51.1358 32.5089 51.1358 35.6801Z" fill="white"/>
</mask>
<g mask="url(#mask0_596_9513)">
<path d="M54.0799 26.1122H9.91992V44.7575H54.0799V26.1122Z" fill="#727B93"/>
<path d="M49.1733 26.1121H14.8267V44.7574H49.1733V26.1121Z" fill="#727B93"/>
</g>
<g filter="url(#filter0_di_596_9513)">
<path fill-rule="evenodd" clip-rule="evenodd" d="M27.3386 18.016C27.3386 15.3062 29.5354 13.1094 32.2453 13.1094C34.9552 13.1094 37.152 15.3062 37.152 18.016V20.7147H27.3386V18.016Z" fill="#ED3D25"/>
</g>
<path fill-rule="evenodd" clip-rule="evenodd" d="M32.2452 18.752C32.7872 18.752 33.2266 18.5135 33.2266 17.7006C33.2266 16.8876 32.7872 15.808 32.2452 15.808C31.7033 15.808 31.2639 16.8876 31.2639 17.7006C31.2639 18.5135 31.7033 18.752 32.2452 18.752Z" fill="#F8F8F8"/>
<path d="M32.2453 13.4774C32.1098 13.4774 32 13.5873 32 13.7228C32 13.8582 32.1098 13.9681 32.2453 13.9681V13.4774ZM35.1143 15.2408C35.2053 15.3412 35.3604 15.3488 35.4608 15.2579C35.5612 15.1669 35.5689 15.0118 35.4779 14.9113L35.1143 15.2408ZM36.1117 15.8197C36.0489 15.6996 35.9006 15.6532 35.7806 15.716C35.6605 15.7788 35.6141 15.927 35.6769 16.0471L36.1117 15.8197ZM36.0296 17.0239C36.0579 17.1564 36.1883 17.2408 36.3208 17.2125C36.4533 17.1841 36.5377 17.0537 36.5093 16.9212L36.0296 17.0239ZM32.2453 13.9681C33.3831 13.9681 34.4059 14.4587 35.1143 15.2408L35.4779 14.9113C34.6804 14.031 33.5273 13.4774 32.2453 13.4774V13.9681ZM35.6769 16.0471C35.836 16.3512 35.9557 16.679 36.0296 17.0239L36.5093 16.9212C36.4261 16.5323 36.291 16.1625 36.1117 15.8197L35.6769 16.0471Z" fill="#F8F8F8"/>
<path d="M39.3599 18.7521H25.1306C24.9951 18.7521 24.8853 18.862 24.8853 18.9975V22.4321C24.8853 22.5676 24.9951 22.6775 25.1306 22.6775H39.3599C39.4954 22.6775 39.6053 22.5676 39.6053 22.4321V18.9975C39.6053 18.862 39.4954 18.7521 39.3599 18.7521Z" fill="#ED3D25"/>
<mask id="mask1_596_9513" style="mask-type:alpha" maskUnits="userSpaceOnUse" x="16" y="20" width="32" height="31">
<path fill-rule="evenodd" clip-rule="evenodd" d="M16.0532 25.1307C16.0532 22.6918 18.0303 20.7147 20.4692 20.7147H43.5306C45.9694 20.7147 47.9466 22.6918 47.9466 25.1307V31.791C47.9466 32.9036 47.7574 34.008 47.3872 35.0571L43.0985 47.2085C42.4754 48.9739 40.8064 50.1547 38.9342 50.1547H25.0656C23.1933 50.1547 21.5245 48.9739 20.9014 47.2085L16.6127 35.0571C16.2424 34.008 16.0532 32.9036 16.0532 31.791V25.1307Z" fill="white"/>
</mask>
<g mask="url(#mask1_596_9513)">
<path d="M48.4372 20.224H15.5625V50.6453H48.4372V20.224Z" fill="#727B93"/>
</g>
<path d="M29.3132 42.4124C29.2534 42.1481 29.4192 41.8854 29.6835 41.8256C29.9478 41.7657 30.2105 41.9315 30.2704 42.1958C30.4591 43.0298 31.117 43.5308 31.9998 43.5308C32.8826 43.5308 33.5405 43.0298 33.7292 42.1958C33.789 41.9315 34.0518 41.7657 34.3161 41.8256C34.5804 41.8854 34.7462 42.1481 34.6864 42.4124C34.3942 43.7031 33.3319 44.5121 31.9998 44.5121C30.6677 44.5121 29.6054 43.7031 29.3132 42.4124Z" fill="#141920"/>
<path fill-rule="evenodd" clip-rule="evenodd" d="M26.1118 38.8697C28.5507 38.8697 30.5278 36.8926 30.5278 34.4537C30.5278 32.0148 28.5507 30.0377 26.1118 30.0377C23.6729 30.0377 21.6958 32.0148 21.6958 34.4537C21.6958 36.8926 23.6729 38.8697 26.1118 38.8697Z" fill="#141920"/>
<path fill-rule="evenodd" clip-rule="evenodd" d="M37.3972 38.8695C39.8361 38.8695 41.8132 36.8924 41.8132 34.4535C41.8132 32.0146 39.8361 30.0375 37.3972 30.0375C34.9583 30.0375 32.9812 32.0146 32.9812 34.4535C32.9812 36.8924 34.9583 38.8695 37.3972 38.8695Z" fill="#141920"/>
<path fill-rule="evenodd" clip-rule="evenodd" d="M26.1119 38.1332C28.1443 38.1332 29.7919 36.4856 29.7919 34.4532C29.7919 32.4208 28.1443 30.7732 26.1119 30.7732C24.0795 30.7732 22.4319 32.4208 22.4319 34.4532C22.4319 36.4856 24.0795 38.1332 26.1119 38.1332Z" fill="#F8F8F8"/>
<path fill-rule="evenodd" clip-rule="evenodd" d="M37.3973 38.1332C39.4297 38.1332 41.0773 36.4856 41.0773 34.4532C41.0773 32.4208 39.4297 30.7732 37.3973 30.7732C35.3649 30.7732 33.7173 32.4208 33.7173 34.4532C33.7173 36.4856 35.3649 38.1332 37.3973 38.1332Z" fill="#F8F8F8"/>
<path d="M27.5838 32.2455H26.1118C25.8408 32.2455 25.6211 32.4652 25.6211 32.7362V34.2082C25.6211 34.4792 25.8408 34.6989 26.1118 34.6989H27.5838C27.8547 34.6989 28.0744 34.4792 28.0744 34.2082V32.7362C28.0744 32.4652 27.8547 32.2455 27.5838 32.2455Z" fill="#141920"/>
<path d="M39.3599 32.2455H37.8879C37.6169 32.2455 37.3972 32.4652 37.3972 32.7362V34.2082C37.3972 34.4792 37.6169 34.6989 37.8879 34.6989H39.3599C39.6309 34.6989 39.8505 34.4792 39.8505 34.2082V32.7362C39.8505 32.4652 39.6309 32.2455 39.3599 32.2455Z" fill="#141920"/>
<rect x="1" y="1" width="62" height="62" rx="15" stroke="#2F3238" stroke-width="2"/>
<defs>
<filter id="filter0_di_596_9513" x="23.4133" y="9.18404" width="17.6639" height="15.456" filterUnits="userSpaceOnUse" color-interpolation-filters="sRGB">
<feFlood flood-opacity="0" result="BackgroundImageFix"/>
<feColorMatrix in="SourceAlpha" type="matrix" values="0 0 0 0 0 0 0 0 0 0 0 0 0 0 0 0 0 0 127 0" result="hardAlpha"/>
<feOffset/>
<feGaussianBlur stdDeviation="1.96267"/>
<feColorMatrix type="matrix" values="0 0 0 0 1 0 0 0 0 1 0 0 0 0 1 0 0 0 0.5 0"/>
<feBlend mode="normal" in2="BackgroundImageFix" result="effect1_dropShadow_596_9513"/>
<feBlend mode="normal" in="SourceGraphic" in2="effect1_dropShadow_596_9513" result="shape"/>
<feColorMatrix in="SourceAlpha" type="matrix" values="0 0 0 0 0 0 0 0 0 0 0 0 0 0 0 0 0 0 127 0" result="hardAlpha"/>
<feOffset/>
<feGaussianBlur stdDeviation="0.981333"/>
<feComposite in2="hardAlpha" operator="arithmetic" k2="-1" k3="1"/>
<feColorMatrix type="matrix" values="0 0 0 0 1 0 0 0 0 1 0 0 0 0 1 0 0 0 0.5 0"/>
<feBlend mode="normal" in2="shape" result="effect2_innerShadow_596_9513"/>
</filter>
</defs>
</svg>
