<svg width="25" height="24" viewBox="0 0 25 24" fill="none" xmlns="http://www.w3.org/2000/svg">
<path d="M7.16504 19.7578H17.8262C19.6719 19.7578 20.5859 18.8438 20.5859 17.0332V6.30176C20.5859 4.49121 19.6719 3.57715 17.8262 3.57715H7.16504C5.32812 3.57715 4.40527 4.48242 4.40527 6.30176V17.0332C4.40527 18.8525 5.32812 19.7578 7.16504 19.7578ZM11.5156 15.9521C11.2168 15.9521 10.9707 15.8291 10.7422 15.5215L8.53613 12.8145C8.4043 12.6387 8.3252 12.4453 8.3252 12.2432C8.3252 11.8477 8.63281 11.5225 9.03711 11.5225C9.2832 11.5225 9.47656 11.6016 9.69629 11.8916L11.4805 14.1943L15.2334 8.16504C15.4004 7.90137 15.6289 7.76074 15.8662 7.76074C16.2441 7.76074 16.6045 8.02441 16.6045 8.4375C16.6045 8.63086 16.499 8.83301 16.3848 9.01758L12.2539 15.5215C12.0693 15.8115 11.8145 15.9521 11.5156 15.9521Z" fill="#ED3D25"/>
</svg>
