<svg width="24" height="24" viewBox="0 0 24 24" fill="none" xmlns="http://www.w3.org/2000/svg">
    <g clip-path="url(#clip0_9468_10753)">
        <path d="M7.85742 18.4561H16.1357C17.6123 18.4561 18.3779 17.6904 18.3779 16.2344V7.91504C18.3779 6.45215 17.6123 5.69336 16.1357 5.69336H7.85742C6.38086 5.69336 5.61523 6.45215 5.61523 7.91504V16.2344C5.61523 17.6973 6.38086 18.4561 7.85742 18.4561ZM11.2549 15.4414C10.9951 15.4414 10.7832 15.3252 10.5918 15.0791L8.91699 13.042C8.79395 12.8916 8.73242 12.7275 8.73242 12.5566C8.73242 12.208 9.00586 11.9209 9.36133 11.9209C9.57324 11.9209 9.7373 12.0029 9.9082 12.2217L11.2275 13.8965L14.0576 9.37109C14.2012 9.13184 14.3926 9.01562 14.6113 9.01562C14.9531 9.01562 15.2607 9.25488 15.2607 9.61035C15.2607 9.76758 15.1787 9.93848 15.083 10.0889L11.8838 15.0791C11.7266 15.3115 11.5078 15.4414 11.2549 15.4414Z" fill="#ED3D25"/>
    </g>
    <defs>
        <clipPath id="clip0_9468_10753">
            <rect width="24" height="24" fill="white"/>
        </clipPath>
    </defs>
</svg>
