<svg width="24" height="24" viewBox="0 0 24 24" fill="none" xmlns="http://www.w3.org/2000/svg">
    <g clip-path="url(#clip0_8126_64775)">
        <path d="M6.17578 13.9512C6.02539 14.0947 5.94336 14.2861 5.94336 14.5049C5.94336 14.9492 6.29199 15.2979 6.73633 15.2979C6.95508 15.2979 7.16016 15.2158 7.31055 15.0586L12 10.2529L16.6895 15.0586C16.8398 15.2158 17.0449 15.2979 17.2637 15.2979C17.7012 15.2979 18.0498 14.9492 18.0498 14.5049C18.0498 14.2861 17.9746 14.0947 17.8242 13.9512L12.6152 8.61914C12.4443 8.44141 12.2324 8.3457 12 8.3457C11.7676 8.3457 11.5625 8.43457 11.3848 8.61914L6.17578 13.9512Z" fill="#ED3D25"/>
    </g>
    <defs>
        <clipPath id="clip0_8126_64775">
            <rect width="24" height="24" fill="white"/>
        </clipPath>
    </defs>
</svg>
