<svg width="24" height="24" viewBox="0 0 24 24" fill="none" xmlns="http://www.w3.org/2000/svg">
<g clip-path="url(#clip0_2921_130385)">
<path d="M12 15.8105C12.2324 15.8105 12.4443 15.7217 12.6152 15.5371L17.8242 10.2119C17.9746 10.0615 18.0498 9.87695 18.0498 9.65137C18.0498 9.20703 17.7012 8.8584 17.2637 8.8584C17.0449 8.8584 16.8398 8.94727 16.6895 9.09766L12 13.9033L7.31055 9.09766C7.15332 8.94727 6.95508 8.8584 6.73633 8.8584C6.29199 8.8584 5.94336 9.20703 5.94336 9.65137C5.94336 9.87012 6.02539 10.0615 6.17578 10.2119L11.3848 15.5371C11.5625 15.7217 11.7676 15.8105 12 15.8105Z" fill="#ED3D25"/>
</g>
<defs>
<clipPath id="clip0_2921_130385">
<rect width="24" height="24" fill="white"/>
</clipPath>
</defs>
</svg>
