<svg width="24" height="24" viewBox="0 0 24 24" fill="none" xmlns="http://www.w3.org/2000/svg">
<path d="M12 19.126C15.8623 19.126 19.0615 15.9336 19.0615 12.0645C19.0615 8.20215 15.8623 5.00293 11.9932 5.00293C8.13086 5.00293 4.93848 8.20215 4.93848 12.0645C4.93848 15.9336 8.1377 19.126 12 19.126ZM9.75781 14.9629C9.39551 14.9629 9.11523 14.6758 9.11523 14.3066C9.11523 14.1426 9.18359 13.9854 9.30664 13.8623L11.0908 12.0713L9.30664 10.2871C9.18359 10.1641 9.11523 10.0068 9.11523 9.83594C9.11523 9.47363 9.39551 9.2002 9.75781 9.2002C9.94238 9.2002 10.0859 9.26172 10.209 9.38477L12 11.1689L13.8047 9.37793C13.9346 9.24805 14.0781 9.18652 14.2627 9.18652C14.6182 9.18652 14.8984 9.4668 14.8984 9.8291C14.8984 10 14.8438 10.1504 14.7139 10.2803L12.9229 12.0713L14.707 13.8555C14.8301 13.9785 14.8984 14.1357 14.8984 14.3066C14.8984 14.6758 14.6113 14.9629 14.249 14.9629C14.0645 14.9629 13.9004 14.8945 13.7842 14.7715L12 12.9873L10.2295 14.7715C10.0996 14.8945 9.94238 14.9629 9.75781 14.9629Z" fill="#2F3238"/>
</svg>
