<svg width="24" height="24" viewBox="0 0 24 24" fill="none" xmlns="http://www.w3.org/2000/svg">
<g clip-path="url(#clip0_7428_10165)">
<path d="M6.70898 17.3555C7.00977 17.6494 7.50195 17.6494 7.78906 17.3623L11.9932 13.1582L16.1973 17.3623C16.4912 17.6494 16.9834 17.6562 17.2773 17.3555C17.5713 17.0615 17.5713 16.5693 17.2842 16.2822L13.0801 12.0713L17.2842 7.86719C17.5713 7.58008 17.5781 7.08105 17.2773 6.79395C16.9766 6.5 16.4912 6.5 16.1973 6.78711L11.9932 10.9912L7.78906 6.78711C7.50195 6.5 7.00293 6.49316 6.70898 6.78711C6.41504 7.08789 6.42188 7.58691 6.70898 7.86719L10.9131 12.0713L6.70898 16.2822C6.42188 16.5625 6.41504 17.0684 6.70898 17.3555Z" fill="#868993"/>
</g>
<defs>
<clipPath id="clip0_7428_10165">
<rect width="24" height="24" fill="white"/>
</clipPath>
</defs>
</svg>
