<svg width="16" height="18" viewBox="0 0 16 18" fill="none" xmlns="http://www.w3.org/2000/svg">
<path d="M0.890625 15.5107C0.890625 16.9873 1.64941 17.7529 3.1123 17.7529H9.51074C10.9736 17.7529 11.7256 16.9805 11.7256 15.5107V14.2461H12.8877C14.3506 14.2461 15.1094 13.4805 15.1094 12.0039V6.58984C15.1094 5.69434 14.9248 5.12012 14.3848 4.56641L10.9736 1.09375C10.4609 0.567383 9.85254 0.369141 9.06641 0.369141H6.48926C5.0332 0.369141 4.26758 1.13477 4.26758 2.61133V3.86914H3.1123C1.64941 3.86914 0.890625 4.6416 0.890625 6.11133V15.5107ZM11.042 8.32617L7.33691 4.55957C6.81055 4.02637 6.36621 3.88281 5.60742 3.87598V2.68652C5.60742 2.05762 5.94238 1.70898 6.60547 1.70898H9.46289V4.97656C9.46289 5.82422 9.91406 6.26172 10.7549 6.26172H13.7695V11.9219C13.7695 12.5576 13.4414 12.9062 12.7715 12.9062H11.7256V10.2539C11.7256 9.33105 11.6162 8.90723 11.042 8.32617ZM10.584 4.80566V2.2627L13.4209 5.14062H10.9189C10.6865 5.14062 10.584 5.04492 10.584 4.80566ZM2.23047 15.4287V6.19336C2.23047 5.56445 2.55859 5.20898 3.22168 5.20898H5.32031V8.95508C5.32031 9.93262 5.80566 10.4111 6.77637 10.4111H10.3857V15.4287C10.3857 16.0645 10.0576 16.4131 9.39453 16.4131H3.22168C2.55859 16.4131 2.23047 16.0645 2.23047 15.4287ZM6.90625 9.22852C6.62598 9.22852 6.50293 9.10547 6.50293 8.8252V5.46875L10.2012 9.22852H6.90625Z" fill="#ED3D25"/>
</svg>
