<svg width="24" height="24" viewBox="0 0 24 24" fill="none" xmlns="http://www.w3.org/2000/svg">
<path d="M4.89062 18.5107C4.89062 19.9873 5.64941 20.7529 7.1123 20.7529H13.5107C14.9736 20.7529 15.7256 19.9805 15.7256 18.5107V17.2461H16.8877C18.3506 17.2461 19.1094 16.4805 19.1094 15.0039V9.58984C19.1094 8.69434 18.9248 8.12012 18.3848 7.56641L14.9736 4.09375C14.4609 3.56738 13.8525 3.36914 13.0664 3.36914H10.4893C9.0332 3.36914 8.26758 4.13477 8.26758 5.61133V6.86914H7.1123C5.64941 6.86914 4.89062 7.6416 4.89062 9.11133V18.5107ZM15.042 11.3262L11.3369 7.55957C10.8105 7.02637 10.3662 6.88281 9.60742 6.87598V5.68652C9.60742 5.05762 9.94238 4.70898 10.6055 4.70898H13.4629V7.97656C13.4629 8.82422 13.9141 9.26172 14.7549 9.26172H17.7695V14.9219C17.7695 15.5576 17.4414 15.9062 16.7715 15.9062H15.7256V13.2539C15.7256 12.3311 15.6162 11.9072 15.042 11.3262ZM14.584 7.80566V5.2627L17.4209 8.14062H14.9189C14.6865 8.14062 14.584 8.04492 14.584 7.80566ZM6.23047 18.4287V9.19336C6.23047 8.56445 6.55859 8.20898 7.22168 8.20898H9.32031V11.9551C9.32031 12.9326 9.80566 13.4111 10.7764 13.4111H14.3857V18.4287C14.3857 19.0645 14.0576 19.4131 13.3945 19.4131H7.22168C6.55859 19.4131 6.23047 19.0645 6.23047 18.4287ZM10.9062 12.2285C10.626 12.2285 10.5029 12.1055 10.5029 11.8252V8.46875L14.2012 12.2285H10.9062Z" fill="#ED3D25"/>
</svg>
