<svg width="24" height="24" viewBox="0 0 24 24" fill="none" xmlns="http://www.w3.org/2000/svg">
    <path d="M8.15625 17.6074C9.91406 17.6074 11.1445 16.5176 11.7246 14.4258L12.9727 10.0049C13.3857 8.55469 14.1328 7.80762 15.1875 7.80762H15.4951V8.2998C15.4951 8.82715 15.5479 9.28418 15.873 9.60938C16.1982 9.93457 16.6465 9.97852 17.1738 9.97852H19.5469C20.083 9.97852 20.54 9.93457 20.8564 9.60938C21.1816 9.28418 21.2256 8.82715 21.2256 8.2998V5.92676C21.2256 5.39062 21.1816 4.93359 20.8564 4.6084C20.54 4.29199 20.083 4.24805 19.5469 4.24805H17.1738C16.6465 4.24805 16.1982 4.29199 15.873 4.6084C15.5479 4.93359 15.4951 5.39062 15.4951 5.92676V6.39258H15.1875C13.4385 6.39258 12.208 7.48242 11.6279 9.57422L10.3799 13.9951C9.97559 15.4365 9.21094 16.1924 8.15625 16.1924H7.83984V15.709C7.83984 15.1729 7.78711 14.7158 7.46191 14.3906C7.14551 14.0742 6.68848 14.0215 6.15234 14.0215H3.78809C3.25195 14.0215 2.80371 14.0742 2.47852 14.3906C2.15332 14.7158 2.10059 15.1729 2.10059 15.709V18.082C2.10059 18.6094 2.15332 19.0664 2.47852 19.3916C2.80371 19.7168 3.25195 19.7607 3.7793 19.7607H6.15234C6.68848 19.7607 7.14551 19.7168 7.46191 19.3916C7.78711 19.0664 7.83984 18.6094 7.83984 18.0732V17.6074H8.15625Z" fill="#ED3D25"/>
</svg>
