<svg width="25" height="24" viewBox="0 0 25 24" fill="none" xmlns="http://www.w3.org/2000/svg">
<path d="M9.02441 16.6465H19.2812C19.624 16.6465 19.9229 16.3652 19.9229 15.9873C19.9229 15.6094 19.624 15.3281 19.2812 15.3281H9.17383C8.67285 15.3281 8.36523 14.9766 8.28613 14.4404L8.14551 13.5176H19.2988C20.582 13.5176 21.2412 12.7266 21.4258 11.4697L22.1289 6.82031C22.1465 6.70605 22.1641 6.56543 22.1641 6.48633C22.1641 6.06445 21.8477 5.77441 21.3643 5.77441H7.01172L6.84473 4.6582C6.75684 3.98145 6.51074 3.63867 5.61426 3.63867H2.5293C2.17773 3.63867 1.87891 3.94629 1.87891 4.29785C1.87891 4.6582 2.17773 4.96582 2.5293 4.96582H5.5L6.90625 14.6162C7.09082 15.8643 7.75 16.6465 9.02441 16.6465ZM20.6699 7.10156L20.0459 11.3115C19.9756 11.8564 19.6855 12.1904 19.167 12.1904L7.95215 12.1992L7.20508 7.10156H20.6699ZM9.71875 20.918C10.5098 20.918 11.1426 20.2939 11.1426 19.4941C11.1426 18.7031 10.5098 18.0703 9.71875 18.0703C8.91895 18.0703 8.28613 18.7031 8.28613 19.4941C8.28613 20.2939 8.91895 20.918 9.71875 20.918ZM17.9365 20.918C18.7363 20.918 19.3691 20.2939 19.3691 19.4941C19.3691 18.7031 18.7363 18.0703 17.9365 18.0703C17.1455 18.0703 16.5039 18.7031 16.5039 19.4941C16.5039 20.2939 17.1455 20.918 17.9365 20.918Z" fill="#ED3D25"/>
</svg>
