<svg width="33" height="33" viewBox="0 0 33 33" fill="none" xmlns="http://www.w3.org/2000/svg">
    <rect width="32.1053" height="32.1053" rx="6.42105" fill="#1D2129"/>
    <path d="M22.5215 11.2213C21.2554 10.1973 19.7362 9.68531 18.1325 9.59998L17.8793 9.85598C19.3142 10.1973 20.5802 10.88 21.7619 11.8186C20.327 11.0506 18.7233 10.5386 17.0353 10.368C16.5288 10.2826 16.1068 10.2826 15.6004 10.2826C15.094 10.2826 14.672 10.2826 14.1655 10.368C12.4775 10.5386 10.8738 11.0506 9.43892 11.8186C10.6206 10.88 11.8866 10.1973 13.3215 9.85598L13.0683 9.59998C11.4646 9.68531 9.94534 10.1973 8.67929 11.2213C7.24443 13.952 6.48479 17.024 6.40039 20.1813C7.66645 21.5466 9.43892 22.4 11.2958 22.4C11.2958 22.4 11.8866 21.7173 12.3086 21.12C11.2114 20.864 10.1986 20.2666 9.52333 19.328C10.1142 19.6693 10.705 20.0106 11.2958 20.2666C12.0554 20.608 12.8151 20.7786 13.5747 20.9493C14.2499 21.0346 14.9252 21.12 15.6004 21.12C16.2756 21.12 16.9508 21.0346 17.6261 20.9493C18.3857 20.7786 19.1453 20.608 19.905 20.2666C20.4958 20.0106 21.0866 19.6693 21.6775 19.328C21.0022 20.2666 19.9894 20.864 18.8921 21.12C19.3142 21.7173 19.905 22.4 19.905 22.4C21.7619 22.4 23.5343 21.5466 24.8004 20.1813C24.716 17.024 23.9564 13.952 22.5215 11.2213ZM12.8151 18.6453C11.971 18.6453 11.2114 17.8773 11.2114 16.9386C11.2114 16 11.971 15.232 12.8151 15.232C13.6591 15.232 14.4187 16 14.4187 16.9386C14.4187 17.8773 13.6591 18.6453 12.8151 18.6453ZM18.3857 18.6453C17.5417 18.6453 16.782 17.8773 16.782 16.9386C16.782 16 17.5417 15.232 18.3857 15.232C19.2297 15.232 19.9894 16 19.9894 16.9386C19.9894 17.8773 19.2297 18.6453 18.3857 18.6453Z" fill="#ED3D25"/>
</svg>
