<svg width="24" height="24" viewBox="0 0 24 24" fill="none" xmlns="http://www.w3.org/2000/svg">
<g clip-path="url(#clip0_7067_44355)">
<path d="M6.13477 17.2256C6.13477 18.7021 6.89355 19.4678 8.35645 19.4678H15.6367C17.0996 19.4678 17.8584 18.7021 17.8584 17.2256V6.91016C17.8584 5.44043 17.0996 4.66797 15.6367 4.66797H8.35645C6.89355 4.66797 6.13477 5.44043 6.13477 6.91016V17.2256ZM7.47461 17.1436V6.99219C7.47461 6.35645 7.80273 6.00781 8.46582 6.00781H15.5205C16.1836 6.00781 16.5186 6.35645 16.5186 6.99219V17.1436C16.5186 17.7793 16.1836 18.1279 15.5205 18.1279H8.46582C7.80273 18.1279 7.47461 17.7793 7.47461 17.1436ZM9.49805 8.81738H14.502C14.748 8.81738 14.9395 8.62598 14.9395 8.37988C14.9395 8.14062 14.748 7.95605 14.502 7.95605H9.49805C9.24512 7.95605 9.05371 8.14062 9.05371 8.37988C9.05371 8.62598 9.24512 8.81738 9.49805 8.81738ZM9.49805 11.1553H14.502C14.748 11.1553 14.9395 10.9639 14.9395 10.7178C14.9395 10.4785 14.748 10.2939 14.502 10.2939H9.49805C9.24512 10.2939 9.05371 10.4785 9.05371 10.7178C9.05371 10.9639 9.24512 11.1553 9.49805 11.1553ZM9.49805 13.4932H11.918C12.1641 13.4932 12.3486 13.3086 12.3486 13.0693C12.3486 12.8232 12.1641 12.625 11.918 12.625H9.49805C9.24512 12.625 9.05371 12.8232 9.05371 13.0693C9.05371 13.3086 9.24512 13.4932 9.49805 13.4932Z" fill="#B4B6BC"/>
</g>
<defs>
<clipPath id="clip0_7067_44355">
<rect width="24" height="24" fill="white"/>
</clipPath>
</defs>
</svg>
