<svg width="24" height="24" viewBox="0 0 24 24" fill="none" xmlns="http://www.w3.org/2000/svg">
<path d="M12 20.6191C16.9043 20.6191 20.9648 16.5498 20.9648 11.6543C20.9648 6.75 16.8955 2.68945 11.9912 2.68945C7.0957 2.68945 3.03516 6.75 3.03516 11.6543C3.03516 16.5498 7.10449 20.6191 12 20.6191ZM12 19.125C7.85156 19.125 4.53809 15.8027 4.53809 11.6543C4.53809 7.50586 7.84277 4.18359 11.9912 4.18359C16.1396 4.18359 19.4619 7.50586 19.4707 11.6543C19.4795 15.8027 16.1484 19.125 12 19.125ZM15.4717 9.19336L16.1045 8.55176C16.3857 8.25293 16.4121 7.93652 16.1484 7.67285L15.9463 7.4707C15.6826 7.20703 15.3574 7.2334 15.0762 7.51465L14.4346 8.14746L15.4717 9.19336ZM9.17871 15.46L14.9443 9.71191L13.9072 8.6748L8.15039 14.4141L7.64941 15.583C7.56152 15.8027 7.77246 15.9873 7.96582 15.917L9.17871 15.46Z" fill="#ED3D25"/>
</svg>
