<svg width="24" height="24" viewBox="0 0 24 24" fill="none" xmlns="http://www.w3.org/2000/svg">
    <path d="M3.77344 16.5586H4.83691C5.08301 16.5586 5.18848 16.5146 5.38184 16.3564L5.9707 15.9082L5.98828 15.9258C6.31348 16.251 6.75293 16.3125 7.20117 16.1191L10.1191 14.915C10.3389 14.8271 10.4443 14.748 10.5762 14.6162L18.9873 6.2666C19.8135 5.44922 19.8047 4.49121 18.9697 3.64746L17.124 1.78418C16.2803 0.949219 15.3223 0.931641 14.4961 1.74902L6.07617 10.0986C5.94434 10.2217 5.86523 10.3184 5.77734 10.5381L4.54688 13.4561C4.3623 13.8867 4.40625 14.3174 4.73145 14.6514L3.51855 15.9346C3.25488 16.207 3.38672 16.5586 3.77344 16.5586ZM15.3838 2.7334C15.6387 2.49609 15.9375 2.47852 16.1748 2.71582L18.0293 4.58789C18.2666 4.83398 18.249 5.13281 18.0029 5.37891L17.3438 6.0293L14.7246 3.39258L15.3838 2.7334ZM7.43848 10.626L13.8984 4.20996L16.5176 6.84668L10.0576 13.2627L7.43848 10.626ZM7.06934 14.7568C6.89355 14.8184 6.76172 14.8184 6.60352 14.6602L6.00586 14.0625C5.84766 13.9043 5.84766 13.7637 5.91797 13.6055L6.77051 11.6104L9.06445 13.9219L7.06934 14.7568ZM3.59766 19.6963H20.3936C20.7803 19.6963 21.1055 19.3711 21.1055 18.9844C21.1055 18.5977 20.7803 18.2812 20.3936 18.2812H3.59766C3.21094 18.2812 2.89453 18.5977 2.89453 18.9844C2.89453 19.3711 3.21094 19.6963 3.59766 19.6963Z" fill="#ED3D25"/>
</svg>
