<svg width="24" height="24" viewBox="0 0 24 24" fill="none" xmlns="http://www.w3.org/2000/svg">
    <g clip-path="url(#clip0_8037_74952)">
        <path d="M5.66309 16.0361H6.55176C6.75684 16.0361 6.83887 16.002 6.98926 15.8789L7.44727 15.5303C7.7002 15.79 8.07617 15.8379 8.45215 15.6807L10.7148 14.7373C10.8857 14.6621 10.9746 14.6006 11.084 14.4912L17.6807 7.94238C18.3369 7.28613 18.3301 6.5 17.667 5.83691L16.1904 4.35352C15.5273 3.68359 14.7412 3.67676 14.085 4.33301L7.48828 10.875C7.37891 10.9912 7.31738 11.0732 7.24219 11.2441L6.28516 13.5068C6.12793 13.8623 6.16895 14.2246 6.42188 14.498L5.44434 15.5166C5.23242 15.7422 5.33496 16.0361 5.66309 16.0361ZM14.8438 5.22852C15.0215 5.05078 15.2334 5.04395 15.4043 5.21484L16.8057 6.62305C16.9697 6.79395 16.9629 7.00586 16.7852 7.18359L16.3271 7.63477L14.3857 5.67969L14.8438 5.22852ZM8.69141 11.3398L13.6543 6.41113L15.5957 8.35938L10.6328 13.2949L8.69141 11.3398ZM8.31543 14.4775C8.18555 14.5322 8.09668 14.5322 7.98047 14.416L7.5498 13.9854C7.43359 13.8691 7.43359 13.7734 7.48828 13.6504L8.10352 12.2148L9.75098 13.876L8.31543 14.4775ZM5.44434 18.4697H18.5557C18.8838 18.4697 19.1504 18.1895 19.1504 17.8682C19.1504 17.54 18.8838 17.2666 18.5557 17.2666H5.44434C5.11621 17.2666 4.84961 17.54 4.84961 17.8682C4.84961 18.1895 5.11621 18.4697 5.44434 18.4697Z" fill="#ED3D25"/>
    </g>
    <defs>
        <clipPath id="clip0_8037_74952">
            <rect width="24" height="24" fill="white"/>
        </clipPath>
    </defs>
</svg>
