<svg width="25" height="24" viewBox="0 0 25 24" fill="none" xmlns="http://www.w3.org/2000/svg">
    <path d="M12.5 20.6191C17.4043 20.6191 21.4648 16.5498 21.4648 11.6543C21.4648 6.75 17.3955 2.68945 12.4912 2.68945C7.5957 2.68945 3.53516 6.75 3.53516 11.6543C3.53516 16.5498 7.60449 20.6191 12.5 20.6191ZM12.5 19.125C8.35156 19.125 5.03809 15.8027 5.03809 11.6543C5.03809 7.50586 8.34277 4.18359 12.4912 4.18359C16.6396 4.18359 19.9707 7.50586 19.9707 11.6543C19.9707 15.8027 16.6484 19.125 12.5 19.125ZM15.9717 9.19336L16.6045 8.55176C16.8857 8.25293 16.9121 7.93652 16.6484 7.67285L16.4463 7.4707C16.1826 7.20703 15.8574 7.2334 15.5762 7.51465L14.9346 8.14746L15.9717 9.19336ZM9.67871 15.46L15.4443 9.71191L14.4072 8.6748L8.65039 14.4141L8.14941 15.583C8.06152 15.8027 8.27246 15.9873 8.46582 15.917L9.67871 15.46Z" fill="#ED3D25"/>
</svg>
