<svg width="18" height="19" viewBox="0 0 18 19" fill="none" xmlns="http://www.w3.org/2000/svg">
<path d="M9 18.6191C13.9043 18.6191 17.9648 14.5498 17.9648 9.6543C17.9648 4.75 13.8955 0.689453 8.99121 0.689453C4.0957 0.689453 0.0351562 4.75 0.0351562 9.6543C0.0351562 14.5498 4.10449 18.6191 9 18.6191ZM9 17.125C4.85156 17.125 1.53809 13.8027 1.53809 9.6543C1.53809 5.50586 4.84277 2.18359 8.99121 2.18359C13.1396 2.18359 16.4619 5.50586 16.4707 9.6543C16.4795 13.8027 13.1484 17.125 9 17.125ZM12.4717 7.19336L13.1045 6.55176C13.3857 6.25293 13.4121 5.93652 13.1484 5.67285L12.9463 5.4707C12.6826 5.20703 12.3574 5.2334 12.0762 5.51465L11.4346 6.14746L12.4717 7.19336ZM6.17871 13.46L11.9443 7.71191L10.9072 6.6748L5.15039 12.4141L4.64941 13.583C4.56152 13.8027 4.77246 13.9873 4.96582 13.917L6.17871 13.46Z" fill="#ED3D25"/>
</svg>
