<svg width="160" height="328" viewBox="0 0 160 328" fill="none" xmlns="http://www.w3.org/2000/svg">
<path d="M68.7205 296.545C68.7205 297.721 68.5003 298.728 68.06 299.566C67.6232 300.4 67.0266 301.039 66.2702 301.483C65.5174 301.927 64.6633 302.149 63.7081 302.149C62.7528 302.149 61.897 301.927 61.1406 301.483C60.3877 301.036 59.7912 300.395 59.3508 299.56C58.914 298.722 58.6956 297.717 58.6956 296.545C58.6956 295.37 58.914 294.365 59.3508 293.531C59.7912 292.692 60.3877 292.051 61.1406 291.608C61.897 291.164 62.7528 290.942 63.7081 290.942C64.6633 290.942 65.5174 291.164 66.2702 291.608C67.0266 292.051 67.6232 292.692 68.06 293.531C68.5003 294.365 68.7205 295.37 68.7205 296.545ZM66.7336 296.545C66.7336 295.718 66.604 295.02 66.3448 294.452C66.0891 293.88 65.734 293.449 65.2794 293.158C64.8249 292.863 64.3011 292.716 63.7081 292.716C63.115 292.716 62.5912 292.863 62.1367 293.158C61.6821 293.449 61.3252 293.88 61.066 294.452C60.8103 295.02 60.6825 295.718 60.6825 296.545C60.6825 297.373 60.8103 298.072 61.066 298.644C61.3252 299.212 61.6821 299.644 62.1367 299.939C62.5912 300.23 63.115 300.375 63.7081 300.375C64.3011 300.375 64.8249 300.23 65.2794 299.939C65.734 299.644 66.0891 299.212 66.3448 298.644C66.604 298.072 66.7336 297.373 66.7336 296.545ZM77.2256 291.091H79.2018V298.218C79.2018 298.999 79.0172 299.686 78.6478 300.279C78.2821 300.873 77.7672 301.336 77.1031 301.67C76.439 302 75.6631 302.165 74.7753 302.165C73.884 302.165 73.1063 302 72.4422 301.67C71.7782 301.336 71.2632 300.873 70.8975 300.279C70.5317 299.686 70.3488 298.999 70.3488 298.218V291.091H72.325V298.053C72.325 298.507 72.4245 298.912 72.6233 299.267C72.8257 299.623 73.1098 299.901 73.4756 300.104C73.8414 300.303 74.2746 300.402 74.7753 300.402C75.276 300.402 75.7093 300.303 76.075 300.104C76.4444 299.901 76.7284 299.623 76.9273 299.267C77.1262 298.912 77.2256 298.507 77.2256 298.053V291.091ZM90.4475 294.772H88.4553C88.3985 294.445 88.2938 294.156 88.1411 293.903C87.9884 293.648 87.7984 293.431 87.5711 293.254C87.3438 293.076 87.0846 292.943 86.7934 292.854C86.5058 292.762 86.195 292.716 85.8612 292.716C85.2682 292.716 84.7426 292.865 84.2845 293.163C83.8264 293.458 83.4678 293.891 83.2085 294.463C82.9493 295.031 82.8197 295.725 82.8197 296.545C82.8197 297.38 82.9493 298.083 83.2085 298.655C83.4713 299.223 83.83 299.653 84.2845 299.944C84.7426 300.232 85.2664 300.375 85.8559 300.375C86.1826 300.375 86.488 300.333 86.7721 300.248C87.0597 300.159 87.3172 300.029 87.5445 299.859C87.7753 299.688 87.9688 299.479 88.1251 299.23C88.2849 298.982 88.395 298.697 88.4553 298.378L90.4475 298.388C90.3729 298.907 90.2114 299.393 89.9628 299.848C89.7178 300.303 89.3964 300.704 88.9987 301.052C88.6009 301.396 88.1357 301.666 87.6031 301.862C87.0704 302.053 86.4791 302.149 85.8293 302.149C84.8705 302.149 84.0146 301.927 83.2618 301.483C82.509 301.039 81.9159 300.398 81.4827 299.56C81.0494 298.722 80.8328 297.717 80.8328 296.545C80.8328 295.37 81.0512 294.365 81.488 293.531C81.9248 292.692 82.5196 292.051 83.2724 291.608C84.0253 291.164 84.8776 290.942 85.8293 290.942C86.4365 290.942 87.0011 291.027 87.5232 291.197C88.0452 291.368 88.5104 291.618 88.9188 291.949C89.3271 292.275 89.6627 292.676 89.9255 293.152C90.1918 293.625 90.3658 294.164 90.4475 294.772ZM92.0173 302V291.091H93.9935V295.709H99.0485V291.091H101.03V302H99.0485V297.366H93.9935V302H92.0173Z" fill="#2F3238"/>
<path d="M51.3027 310V318H49.8535V310H51.3027ZM52.5904 311.215V310H58.9733V311.215H56.5006V318H55.0631V311.215H52.5904ZM61.4104 310V310.797C61.4104 311.026 61.3662 311.264 61.2776 311.512C61.1917 311.757 61.0732 311.991 60.9222 312.215C60.7711 312.436 60.5993 312.626 60.4065 312.785L59.7503 312.359C59.8935 312.143 60.0185 311.91 60.1253 311.66C60.2321 311.408 60.2854 311.122 60.2854 310.805V310H61.4104ZM67.0439 312.199C67.0075 311.858 66.8538 311.592 66.583 311.402C66.3148 311.212 65.9658 311.117 65.5361 311.117C65.234 311.117 64.9749 311.163 64.7588 311.254C64.5426 311.345 64.3773 311.469 64.2627 311.625C64.1481 311.781 64.0895 311.96 64.0869 312.16C64.0869 312.327 64.1247 312.471 64.2002 312.594C64.2783 312.716 64.3838 312.82 64.5166 312.906C64.6494 312.99 64.7965 313.06 64.958 313.117C65.1194 313.174 65.2822 313.223 65.4463 313.262L66.1963 313.449C66.4984 313.52 66.7887 313.615 67.0674 313.734C67.3486 313.854 67.5999 314.005 67.8213 314.188C68.0452 314.37 68.2223 314.59 68.3525 314.848C68.4827 315.105 68.5478 315.408 68.5478 315.754C68.5478 316.223 68.428 316.635 68.1885 316.992C67.9489 317.346 67.6025 317.624 67.1494 317.824C66.6989 318.022 66.1533 318.121 65.5127 318.121C64.8903 318.121 64.3499 318.025 63.8916 317.832C63.4359 317.639 63.0791 317.358 62.8213 316.988C62.5661 316.618 62.428 316.168 62.4072 315.637H63.833C63.8538 315.915 63.9398 316.147 64.0908 316.332C64.2418 316.517 64.4385 316.655 64.6806 316.746C64.9254 316.837 65.1989 316.883 65.501 316.883C65.8161 316.883 66.0921 316.836 66.3291 316.742C66.5687 316.646 66.7562 316.513 66.8916 316.344C67.027 316.172 67.096 315.971 67.0986 315.742C67.096 315.534 67.0348 315.362 66.915 315.227C66.7952 315.089 66.6273 314.974 66.4111 314.883C66.1976 314.789 65.9476 314.706 65.6611 314.633L64.751 314.398C64.0921 314.229 63.5713 313.973 63.1885 313.629C62.8082 313.283 62.6181 312.823 62.6181 312.25C62.6181 311.779 62.7457 311.366 63.001 311.012C63.2588 310.658 63.609 310.383 64.0517 310.187C64.4944 309.99 64.9957 309.891 65.5556 309.891C66.1234 309.891 66.6207 309.99 67.0478 310.187C67.4775 310.383 67.8148 310.655 68.0596 311.004C68.3043 311.35 68.4306 311.749 68.4385 312.199H67.0439ZM72.7083 318V310H77.9115V311.215H74.1576V313.387H77.6419V314.602H74.1576V316.785H77.9427V318H72.7083ZM79.46 310H81.2334L83.6084 315.797H83.7022L86.0772 310H87.8506V318H86.46V312.504H86.3858L84.1748 317.977H83.1358L80.9248 312.492H80.8506V318H79.46V310ZM89.4987 318V310H92.4987C93.1133 310 93.6289 310.115 94.0456 310.344C94.4649 310.573 94.7813 310.888 94.9948 311.289C95.211 311.687 95.319 312.141 95.319 312.648C95.319 313.161 95.211 313.617 94.9948 314.016C94.7787 314.414 94.4597 314.728 94.0378 314.957C93.6159 315.184 93.0964 315.297 92.4792 315.297H90.4909V314.105H92.2839C92.6433 314.105 92.9375 314.043 93.1667 313.918C93.3959 313.793 93.5651 313.621 93.6745 313.402C93.7865 313.184 93.8425 312.932 93.8425 312.648C93.8425 312.365 93.7865 312.115 93.6745 311.898C93.5651 311.682 93.3946 311.514 93.1628 311.395C92.9336 311.272 92.6381 311.211 92.2761 311.211H90.948V318H89.4987ZM96.2963 311.215V310H102.679V311.215H100.206V318H98.7689V311.215H96.2963ZM103.433 310H105.069L107.026 313.539H107.105L109.062 310H110.698L107.788 315.016V318H106.343V315.016L103.433 310Z" fill="#2F3238"/>
<rect x="80" width="0.5" height="240" fill="#868993"/>
<path d="M86.4971 238.546C86.4851 238.436 86.4337 238.336 86.3528 238.262C86.2718 238.189 86.1672 238.149 86.059 238.15H86.0261H86.0262C85.4174 238.125 84.8316 237.907 84.3498 237.528C83.9101 237.198 83.3786 237.02 82.8326 237.019H82.2417V236.909V236.909C82.6632 236.644 83.0358 236.307 83.3426 235.911C83.5817 235.594 83.9321 235.382 84.3208 235.321C84.9937 235.246 85.6462 235.04 86.2433 234.716C86.3524 234.647 86.4248 234.532 86.4403 234.403C86.4552 234.291 86.4275 234.177 86.3631 234.085C86.2986 233.993 86.2022 233.929 86.0933 233.907C85.9843 233.884 85.871 233.904 85.7763 233.964C85.2786 234.219 84.7398 234.381 84.1858 234.441C83.5758 234.538 83.0258 234.87 82.6508 235.368C82.5099 235.549 82.3504 235.715 82.1749 235.861C82.1648 235.821 82.1535 235.782 82.1395 235.743L82.2506 235.619H82.2507C82.5993 235.228 82.7431 234.691 82.6375 234.174L82.5145 233.572C82.4499 233.265 82.4821 232.945 82.6066 232.658C82.8486 232.13 83.0164 231.571 83.1053 230.996C83.1192 230.869 83.0792 230.742 82.9954 230.648C82.9199 230.562 82.815 230.51 82.7023 230.501C82.5896 230.493 82.4782 230.529 82.3911 230.602C82.3041 230.675 82.2483 230.78 82.2355 230.894C82.1583 231.381 82.0139 231.853 81.8062 232.299C81.6079 232.756 81.5557 233.264 81.6573 233.753L81.7785 234.346H81.7786C81.8048 234.473 81.7991 234.605 81.7622 234.729L81.6864 234.409C81.6142 234.095 81.3897 233.84 81.0906 233.733L80.5767 233.543C80.5294 233.525 80.4795 233.516 80.429 233.516C80.3366 233.516 80.2463 233.546 80.1714 233.601C80.0965 233.656 80.0406 233.734 80.0117 233.824C80.0107 233.83 80.0057 233.834 79.9999 233.834C79.994 233.834 79.9891 233.83 79.9881 233.824C79.9592 233.734 79.9033 233.656 79.8284 233.601C79.7535 233.546 79.6633 233.516 79.5706 233.516C79.5203 233.516 79.4704 233.525 79.423 233.543L78.9091 233.733H78.9093C78.6101 233.84 78.3856 234.095 78.3134 234.409L78.2377 234.729C78.2007 234.605 78.195 234.473 78.2212 234.346L78.3424 233.753H78.3425C78.4441 233.264 78.3919 232.756 78.1936 232.299C77.9859 231.853 77.8415 231.381 77.7643 230.894C77.7461 230.737 77.6466 230.601 77.5034 230.538C77.3602 230.475 77.1948 230.494 77.0694 230.588C76.9439 230.683 76.8773 230.838 76.8946 230.996C76.9834 231.571 77.1512 232.13 77.3932 232.658C77.5178 232.945 77.55 233.265 77.4854 233.572L77.3624 234.174C77.2567 234.691 77.4006 235.228 77.7491 235.619L77.8602 235.743C77.8464 235.782 77.8349 235.821 77.8248 235.861H77.825C77.6494 235.715 77.4899 235.549 77.349 235.368C76.974 234.87 76.4241 234.538 75.814 234.441C75.26 234.381 74.7212 234.219 74.2235 233.964C74.1289 233.905 74.0155 233.884 73.9066 233.907C73.7977 233.929 73.7012 233.993 73.6367 234.085C73.5723 234.177 73.5447 234.291 73.5595 234.403C73.575 234.532 73.6475 234.648 73.7565 234.716C74.3536 235.04 75.0061 235.246 75.679 235.321C76.0677 235.382 76.4181 235.594 76.6573 235.911C76.964 236.307 77.3366 236.644 77.7581 236.909V237.019L77.1672 237.019C76.6212 237.02 76.0897 237.198 75.6499 237.528C75.1681 237.907 74.5823 238.124 73.9736 238.15H73.9407C73.8326 238.149 73.728 238.189 73.647 238.262C73.5661 238.336 73.5148 238.436 73.5027 238.546C73.4889 238.672 73.5279 238.798 73.6101 238.894C73.6893 238.985 73.8023 239.038 73.9219 239.041C73.9396 239.043 73.9573 239.043 73.975 239.043H73.9748C74.7687 239.015 75.5347 238.738 76.1662 238.248C76.4556 238.029 76.8066 237.91 77.1674 237.909H77.854C77.8705 237.964 77.8882 238.019 77.9083 238.073L77.5889 238.156V238.155C77.2358 238.248 76.9196 238.449 76.6833 238.732C76.4472 239.014 76.3027 239.364 76.2698 239.733C76.117 241.448 75.7523 242.253 75.4632 242.433H75.4631C75.3624 242.492 75.2887 242.589 75.2584 242.704C75.2283 242.818 75.244 242.94 75.3022 243.042C75.3603 243.145 75.4561 243.219 75.5685 243.25C75.6809 243.28 75.8006 243.264 75.9012 243.205C76.5677 242.805 76.9742 241.696 77.1421 239.814V239.814C77.158 239.628 77.2302 239.452 77.3486 239.31C77.4671 239.168 77.626 239.066 77.8035 239.019L78.2843 238.885C78.2036 238.901 78.1179 239.108 78.0855 239.169H78.0856C77.741 239.826 77.655 240.592 77.8452 241.31C77.9268 241.623 78.0601 241.918 78.2397 242.185C78.3741 242.359 78.5263 242.518 78.6936 242.659C78.6952 242.724 78.6814 242.787 78.6532 242.845C78.5709 242.967 78.5464 243.119 78.5865 243.261C78.6468 243.373 78.7501 243.454 78.8715 243.486C78.993 243.517 79.1219 243.496 79.2274 243.427C79.2934 243.385 79.3463 243.324 79.3802 243.252C79.4168 243.179 79.4382 243.025 79.6326 243.042C79.876 243.081 80.124 243.081 80.3674 243.042C80.5619 243.026 80.5832 243.179 80.6198 243.252C80.6537 243.324 80.7066 243.385 80.7726 243.427C80.8781 243.496 81.007 243.517 81.1285 243.486C81.2499 243.454 81.3532 243.373 81.4135 243.261C81.4536 243.119 81.4291 242.967 81.3468 242.845C81.3186 242.787 81.3048 242.724 81.3064 242.659C81.4737 242.518 81.6259 242.359 81.7604 242.185C81.9398 241.918 82.0732 241.623 82.1548 241.31C82.3449 240.592 82.259 239.826 81.9144 239.169C81.8821 239.108 81.7964 238.901 81.7156 238.885L82.1964 239.019C82.374 239.066 82.533 239.168 82.6514 239.31C82.7698 239.452 82.8421 239.628 82.8579 239.814C83.0258 241.696 83.4323 242.806 84.0988 243.205V243.205C84.2219 243.278 84.3722 243.285 84.5015 243.224C84.5998 243.179 84.6781 243.098 84.7213 242.997C84.7645 242.897 84.7696 242.783 84.7355 242.679C84.7015 242.575 84.6306 242.487 84.5369 242.433C84.2478 242.253 83.883 241.448 83.7303 239.733H83.7302C83.6973 239.364 83.5528 239.014 83.3167 238.732C83.0804 238.449 82.7641 238.248 82.411 238.155L82.0916 238.073C82.1117 238.019 82.1294 237.964 82.1459 237.909H82.8325L82.8326 237.909C83.1934 237.91 83.5442 238.029 83.8336 238.248C84.4654 238.738 85.2312 239.015 86.025 239.043C86.0427 239.043 86.0604 239.043 86.0781 239.041C86.1977 239.038 86.3106 238.985 86.3899 238.894C86.4721 238.798 86.5111 238.672 86.4973 238.546L86.4971 238.546Z" fill="#868993"/>
<rect x="120.5" y="238.5" width="29" height="3" rx="1.5" transform="rotate(-180 120.5 238.5)" stroke="#ED3D25" stroke-opacity="0.08" stroke-width="3"/>
<rect x="68.5" y="238.5" width="29" height="3" rx="1.5" transform="rotate(-180 68.5 238.5)" stroke="#ED3D25" stroke-opacity="0.08" stroke-width="3"/>
<rect x="93" y="250" width="26" height="26" rx="5" transform="rotate(-180 93 250)" stroke="#2F3238" stroke-width="6"/>
<rect x="81.5" y="277.5" width="3" height="29" rx="1.5" transform="rotate(-180 81.5 277.5)" stroke="#2F3238" stroke-width="3"/>
<rect x="139" y="250" width="26" height="26" rx="5" transform="rotate(-180 139 250)" stroke="#ED3D25" stroke-opacity="0.08" stroke-width="6"/>
<rect x="47" y="250" width="26" height="26" rx="5" transform="rotate(-180 47 250)" stroke="#ED3D25" stroke-opacity="0.08" stroke-width="6"/>
<rect x="28.5" y="238.5" width="27" height="3" rx="1.5" transform="rotate(-180 28.5 238.5)" stroke="#ED3D25" stroke-opacity="0.08" stroke-width="3"/>
<rect x="158.5" y="238.5" width="27" height="3" rx="1.5" transform="rotate(-180 158.5 238.5)" stroke="#ED3D25" stroke-opacity="0.08" stroke-width="3"/>
</svg>
