<svg width="160" height="221" viewBox="0 0 160 221" fill="none" xmlns="http://www.w3.org/2000/svg">
<path d="M68.7205 189.545C68.7205 190.721 68.5003 191.728 68.06 192.566C67.6232 193.4 67.0266 194.039 66.2702 194.483C65.5174 194.927 64.6633 195.149 63.7081 195.149C62.7528 195.149 61.897 194.927 61.1406 194.483C60.3877 194.036 59.7912 193.395 59.3508 192.56C58.914 191.722 58.6956 190.717 58.6956 189.545C58.6956 188.37 58.914 187.365 59.3508 186.531C59.7912 185.692 60.3877 185.051 61.1406 184.608C61.897 184.164 62.7528 183.942 63.7081 183.942C64.6633 183.942 65.5174 184.164 66.2702 184.608C67.0266 185.051 67.6232 185.692 68.06 186.531C68.5003 187.365 68.7205 188.37 68.7205 189.545ZM66.7336 189.545C66.7336 188.718 66.604 188.02 66.3448 187.452C66.0891 186.88 65.734 186.449 65.2794 186.158C64.8249 185.863 64.3011 185.716 63.7081 185.716C63.115 185.716 62.5912 185.863 62.1367 186.158C61.6821 186.449 61.3252 186.88 61.066 187.452C60.8103 188.02 60.6825 188.718 60.6825 189.545C60.6825 190.373 60.8103 191.072 61.066 191.644C61.3252 192.212 61.6821 192.644 62.1367 192.939C62.5912 193.23 63.115 193.375 63.7081 193.375C64.3011 193.375 64.8249 193.23 65.2794 192.939C65.734 192.644 66.0891 192.212 66.3448 191.644C66.604 191.072 66.7336 190.373 66.7336 189.545ZM77.2256 184.091H79.2018V191.218C79.2018 191.999 79.0172 192.686 78.6478 193.279C78.2821 193.873 77.7672 194.336 77.1031 194.67C76.439 195 75.6631 195.165 74.7753 195.165C73.884 195.165 73.1063 195 72.4422 194.67C71.7782 194.336 71.2632 193.873 70.8975 193.279C70.5317 192.686 70.3488 191.999 70.3488 191.218V184.091H72.325V191.053C72.325 191.507 72.4245 191.912 72.6233 192.267C72.8257 192.623 73.1098 192.901 73.4756 193.104C73.8414 193.303 74.2746 193.402 74.7753 193.402C75.276 193.402 75.7093 193.303 76.075 193.104C76.4444 192.901 76.7284 192.623 76.9273 192.267C77.1262 191.912 77.2256 191.507 77.2256 191.053V184.091ZM90.4475 187.772H88.4553C88.3985 187.445 88.2938 187.156 88.1411 186.903C87.9884 186.648 87.7984 186.431 87.5711 186.254C87.3438 186.076 87.0846 185.943 86.7934 185.854C86.5058 185.762 86.195 185.716 85.8612 185.716C85.2682 185.716 84.7426 185.865 84.2845 186.163C83.8264 186.458 83.4678 186.891 83.2085 187.463C82.9493 188.031 82.8197 188.725 82.8197 189.545C82.8197 190.38 82.9493 191.083 83.2085 191.655C83.4713 192.223 83.83 192.653 84.2845 192.944C84.7426 193.232 85.2664 193.375 85.8559 193.375C86.1826 193.375 86.488 193.333 86.7721 193.248C87.0597 193.159 87.3172 193.029 87.5445 192.859C87.7753 192.688 87.9688 192.479 88.1251 192.23C88.2849 191.982 88.395 191.697 88.4553 191.378L90.4475 191.388C90.3729 191.907 90.2114 192.393 89.9628 192.848C89.7178 193.303 89.3964 193.704 88.9987 194.052C88.6009 194.396 88.1357 194.666 87.6031 194.862C87.0704 195.053 86.4791 195.149 85.8293 195.149C84.8705 195.149 84.0146 194.927 83.2618 194.483C82.509 194.039 81.9159 193.398 81.4827 192.56C81.0494 191.722 80.8328 190.717 80.8328 189.545C80.8328 188.37 81.0512 187.365 81.488 186.531C81.9248 185.692 82.5196 185.051 83.2724 184.608C84.0253 184.164 84.8776 183.942 85.8293 183.942C86.4365 183.942 87.0011 184.027 87.5232 184.197C88.0452 184.368 88.5104 184.618 88.9188 184.949C89.3271 185.275 89.6627 185.676 89.9255 186.152C90.1918 186.625 90.3658 187.164 90.4475 187.772ZM92.0173 195V184.091H93.9935V188.709H99.0485V184.091H101.03V195H99.0485V190.366H93.9935V195H92.0173Z" fill="#2F3238"/>
<path d="M51.3027 203V211H49.8535V203H51.3027ZM52.5904 204.215V203H58.9733V204.215H56.5006V211H55.0631V204.215H52.5904ZM61.4104 203V203.797C61.4104 204.026 61.3662 204.264 61.2776 204.512C61.1917 204.757 61.0732 204.991 60.9222 205.215C60.7711 205.436 60.5993 205.626 60.4065 205.785L59.7503 205.359C59.8935 205.143 60.0185 204.91 60.1253 204.66C60.2321 204.408 60.2854 204.122 60.2854 203.805V203H61.4104ZM67.0439 205.199C67.0075 204.858 66.8538 204.592 66.583 204.402C66.3148 204.212 65.9658 204.117 65.5361 204.117C65.234 204.117 64.9749 204.163 64.7588 204.254C64.5426 204.345 64.3773 204.469 64.2627 204.625C64.1481 204.781 64.0895 204.96 64.0869 205.16C64.0869 205.327 64.1247 205.471 64.2002 205.594C64.2783 205.716 64.3838 205.82 64.5166 205.906C64.6494 205.99 64.7965 206.06 64.958 206.117C65.1194 206.174 65.2822 206.223 65.4463 206.262L66.1963 206.449C66.4984 206.52 66.7887 206.615 67.0674 206.734C67.3486 206.854 67.5999 207.005 67.8213 207.188C68.0452 207.37 68.2223 207.59 68.3525 207.848C68.4827 208.105 68.5478 208.408 68.5478 208.754C68.5478 209.223 68.428 209.635 68.1885 209.992C67.9489 210.346 67.6025 210.624 67.1494 210.824C66.6989 211.022 66.1533 211.121 65.5127 211.121C64.8903 211.121 64.3499 211.025 63.8916 210.832C63.4359 210.639 63.0791 210.358 62.8213 209.988C62.5661 209.618 62.428 209.168 62.4072 208.637H63.833C63.8538 208.915 63.9398 209.147 64.0908 209.332C64.2418 209.517 64.4385 209.655 64.6806 209.746C64.9254 209.837 65.1989 209.883 65.501 209.883C65.8161 209.883 66.0921 209.836 66.3291 209.742C66.5687 209.646 66.7562 209.513 66.8916 209.344C67.027 209.172 67.096 208.971 67.0986 208.742C67.096 208.534 67.0348 208.362 66.915 208.227C66.7952 208.089 66.6273 207.974 66.4111 207.883C66.1976 207.789 65.9476 207.706 65.6611 207.633L64.751 207.398C64.0921 207.229 63.5713 206.973 63.1885 206.629C62.8082 206.283 62.6181 205.823 62.6181 205.25C62.6181 204.779 62.7457 204.366 63.001 204.012C63.2588 203.658 63.609 203.383 64.0517 203.187C64.4944 202.99 64.9957 202.891 65.5556 202.891C66.1234 202.891 66.6207 202.99 67.0478 203.187C67.4775 203.383 67.8148 203.655 68.0596 204.004C68.3043 204.35 68.4306 204.749 68.4385 205.199H67.0439ZM72.7083 211V203H77.9115V204.215H74.1576V206.387H77.6419V207.602H74.1576V209.785H77.9427V211H72.7083ZM79.46 203H81.2334L83.6084 208.797H83.7022L86.0772 203H87.8506V211H86.46V205.504H86.3858L84.1748 210.977H83.1358L80.9248 205.492H80.8506V211H79.46V203ZM89.4987 211V203H92.4987C93.1133 203 93.6289 203.115 94.0456 203.344C94.4649 203.573 94.7813 203.888 94.9948 204.289C95.211 204.687 95.319 205.141 95.319 205.648C95.319 206.161 95.211 206.617 94.9948 207.016C94.7787 207.414 94.4597 207.728 94.0378 207.957C93.6159 208.184 93.0964 208.297 92.4792 208.297H90.4909V207.105H92.2839C92.6433 207.105 92.9375 207.043 93.1667 206.918C93.3959 206.793 93.5651 206.621 93.6745 206.402C93.7865 206.184 93.8425 205.932 93.8425 205.648C93.8425 205.365 93.7865 205.115 93.6745 204.898C93.5651 204.682 93.3946 204.514 93.1628 204.395C92.9336 204.272 92.6381 204.211 92.2761 204.211H90.948V211H89.4987ZM96.2963 204.215V203H102.679V204.215H100.206V211H98.7689V204.215H96.2963ZM103.433 203H105.069L107.026 206.539H107.105L109.062 203H110.698L107.788 208.016V211H106.343V208.016L103.433 203Z" fill="#2F3238"/>
<rect x="80" width="0.5" height="134" fill="#868993"/>
<path d="M83.9982 130.951C83.9908 130.884 83.9592 130.822 83.9094 130.777C83.8596 130.732 83.7952 130.707 83.7286 130.708H83.7084H83.7084C83.3338 130.692 82.9733 130.558 82.6768 130.325C82.4062 130.122 82.0791 130.013 81.7431 130.012H81.3795V129.944V129.944C81.6389 129.781 81.8682 129.573 82.057 129.33C82.2042 129.135 82.4198 129.004 82.6589 128.967C83.0731 128.92 83.4746 128.794 83.842 128.595C83.9092 128.552 83.9537 128.481 83.9633 128.402C83.9724 128.333 83.9554 128.263 83.9158 128.206C83.8761 128.149 83.8167 128.11 83.7497 128.096C83.6827 128.083 83.6129 128.095 83.5547 128.132C83.2484 128.289 82.9168 128.388 82.5759 128.425C82.2005 128.485 81.862 128.689 81.6313 128.996C81.5446 129.107 81.4464 129.209 81.3384 129.299C81.3322 129.275 81.3252 129.25 81.3166 129.227L81.385 129.15H81.3851C81.5996 128.909 81.6881 128.579 81.6231 128.261L81.5474 127.891C81.5076 127.702 81.5274 127.505 81.6041 127.328C81.753 127.003 81.8562 126.659 81.9109 126.305C81.9195 126.227 81.8949 126.149 81.8433 126.091C81.7969 126.038 81.7323 126.006 81.6629 126.001C81.5936 125.996 81.525 126.018 81.4715 126.063C81.4179 126.108 81.3836 126.172 81.3757 126.243C81.3282 126.542 81.2393 126.833 81.1115 127.107C80.9895 127.388 80.9574 127.701 81.0199 128.002L81.0944 128.367H81.0945C81.1106 128.445 81.1071 128.526 81.0844 128.602L81.0378 128.406C80.9934 128.212 80.8552 128.055 80.6711 127.989L80.3549 127.872C80.3258 127.862 80.2951 127.856 80.264 127.856C80.2071 127.856 80.1516 127.874 80.1055 127.908C80.0594 127.942 80.025 127.99 80.0072 128.045C80.0066 128.049 80.0035 128.052 79.9999 128.052C79.9963 128.052 79.9933 128.049 79.9927 128.045C79.9749 127.99 79.9405 127.942 79.8944 127.908C79.8483 127.874 79.7928 127.856 79.7358 127.856C79.7048 127.856 79.6741 127.862 79.6449 127.872L79.3287 127.989H79.3288C79.1447 128.055 79.0065 128.212 78.9621 128.406L78.9155 128.602C78.8927 128.526 78.8893 128.445 78.9054 128.367L78.9799 128.002H78.98C79.0425 127.701 79.0104 127.388 78.8883 127.107C78.7606 126.833 78.6717 126.542 78.6242 126.243C78.613 126.146 78.5518 126.062 78.4636 126.023C78.3755 125.984 78.2737 125.996 78.1965 126.054C78.1193 126.112 78.0784 126.208 78.089 126.305C78.1437 126.659 78.2469 127.003 78.3958 127.328C78.4725 127.505 78.4923 127.702 78.4525 127.891L78.3768 128.261C78.3118 128.579 78.4004 128.909 78.6148 129.15L78.6832 129.227C78.6747 129.25 78.6677 129.275 78.6614 129.299H78.6615C78.5535 129.209 78.4553 129.107 78.3686 128.996C78.1379 128.689 77.7994 128.485 77.424 128.425C77.0831 128.388 76.7515 128.289 76.4452 128.132C76.387 128.095 76.3172 128.083 76.2502 128.096C76.1832 128.11 76.1238 128.149 76.0841 128.206C76.0445 128.263 76.0275 128.333 76.0366 128.402C76.0462 128.481 76.0907 128.552 76.1579 128.595C76.5253 128.794 76.9268 128.92 77.341 128.967C77.5801 129.004 77.7958 129.135 77.9429 129.33C78.1317 129.573 78.361 129.781 78.6204 129.944V130.012L78.2568 130.012C77.9208 130.013 77.5937 130.122 77.323 130.325C77.0265 130.558 76.666 130.692 76.2914 130.708H76.2712C76.2047 130.707 76.1403 130.732 76.0905 130.777C76.0407 130.822 76.0091 130.884 76.0017 130.951C75.9932 131.029 76.0172 131.107 76.0677 131.165C76.1165 131.221 76.186 131.254 76.2596 131.256C76.2705 131.257 76.2814 131.257 76.2923 131.257H76.2922C76.7808 131.24 77.2521 131.069 77.6408 130.768C77.8189 130.633 78.0348 130.56 78.2568 130.559H78.6794C78.6895 130.593 78.7004 130.627 78.7128 130.661L78.5162 130.711V130.711C78.299 130.768 78.1044 130.892 77.959 131.066C77.8137 131.239 77.7248 131.455 77.7045 131.682C77.6105 132.737 77.386 133.233 77.2081 133.343H77.2081C77.1461 133.38 77.1007 133.44 77.0821 133.51C77.0635 133.58 77.0732 133.655 77.109 133.718C77.1448 133.781 77.2038 133.827 77.273 133.846C77.3421 133.865 77.4157 133.855 77.4777 133.818C77.8878 133.573 78.138 132.89 78.2413 131.732V131.732C78.251 131.617 78.2955 131.509 78.3684 131.422C78.4413 131.334 78.5391 131.271 78.6483 131.243L78.9442 131.16C78.8945 131.17 78.8418 131.297 78.8218 131.335H78.8219C78.6099 131.739 78.5569 132.21 78.674 132.653C78.7242 132.845 78.8062 133.027 78.9167 133.191C78.9994 133.298 79.0931 133.396 79.1961 133.483C79.1971 133.522 79.1886 133.561 79.1712 133.597C79.1205 133.672 79.1055 133.766 79.1302 133.853C79.1673 133.922 79.2308 133.972 79.3055 133.991C79.3803 134.011 79.4596 133.998 79.5246 133.955C79.5652 133.929 79.5977 133.892 79.6186 133.848C79.6411 133.802 79.6543 133.708 79.7739 133.718C79.9237 133.742 80.0763 133.742 80.2261 133.718C80.3458 133.708 80.3589 133.803 80.3814 133.848C80.4023 133.892 80.4348 133.929 80.4754 133.955C80.5404 133.998 80.6197 134.011 80.6945 133.991C80.7692 133.972 80.8327 133.922 80.8698 133.853C80.8945 133.766 80.8795 133.672 80.8288 133.597C80.8115 133.561 80.8029 133.522 80.8039 133.483C80.9069 133.396 81.0006 133.298 81.0833 133.191C81.1937 133.027 81.2758 132.845 81.326 132.653C81.443 132.21 81.3901 131.739 81.1781 131.335C81.1582 131.297 81.1055 131.17 81.0557 131.16L81.3516 131.243C81.4609 131.271 81.5587 131.334 81.6316 131.422C81.7045 131.509 81.749 131.617 81.7587 131.732C81.862 132.89 82.1122 133.573 82.5223 133.818V133.818C82.5981 133.863 82.6906 133.868 82.7702 133.83C82.8306 133.802 82.8788 133.753 82.9054 133.691C82.932 133.629 82.9351 133.559 82.9141 133.495C82.8932 133.431 82.8496 133.377 82.7919 133.343C82.6141 133.233 82.3895 132.737 82.2956 131.682H82.2955C82.2753 131.455 82.1863 131.239 82.041 131.066C81.8957 130.892 81.701 130.768 81.4837 130.711L81.2871 130.66C81.2995 130.627 81.3104 130.593 81.3205 130.559H81.7431L81.7432 130.559C81.9652 130.56 82.1811 130.633 82.3592 130.768C82.7479 131.069 83.2192 131.24 83.7077 131.257C83.7186 131.257 83.7295 131.257 83.7404 131.256C83.814 131.254 83.8834 131.221 83.9323 131.165C83.9828 131.107 84.0068 131.029 83.9983 130.951L83.9982 130.951Z" fill="#868993"/>
<rect x="120.5" y="131.5" width="29" height="3" rx="1.5" transform="rotate(-180 120.5 131.5)" stroke="#ED3D25" stroke-opacity="0.08" stroke-width="3"/>
<rect x="68.5" y="131.5" width="29" height="3" rx="1.5" transform="rotate(-180 68.5 131.5)" stroke="#ED3D25" stroke-opacity="0.08" stroke-width="3"/>
<rect x="93" y="143" width="26" height="26" rx="5" transform="rotate(-180 93 143)" stroke="#2F3238" stroke-width="6"/>
<rect x="81.5" y="170.5" width="3" height="29" rx="1.5" transform="rotate(-180 81.5 170.5)" stroke="#2F3238" stroke-width="3"/>
<rect x="139" y="143" width="26" height="26" rx="5" transform="rotate(-180 139 143)" stroke="#ED3D25" stroke-opacity="0.08" stroke-width="6"/>
<rect x="47" y="143" width="26" height="26" rx="5" transform="rotate(-180 47 143)" stroke="#ED3D25" stroke-opacity="0.08" stroke-width="6"/>
<rect x="28.5" y="131.5" width="27" height="3" rx="1.5" transform="rotate(-180 28.5 131.5)" stroke="#ED3D25" stroke-opacity="0.08" stroke-width="3"/>
<rect x="158.5" y="131.5" width="27" height="3" rx="1.5" transform="rotate(-180 158.5 131.5)" stroke="#ED3D25" stroke-opacity="0.08" stroke-width="3"/>
</svg>
