<svg width="24" height="24" viewBox="0 0 24 24" fill="none" xmlns="http://www.w3.org/2000/svg">
    <g clip-path="url(#clip0_9822_15039)">
        <path d="M7.85742 18.4561H16.1357C17.6123 18.4561 18.3779 17.6904 18.3779 16.2344V7.91504C18.3779 6.45215 17.6123 5.69336 16.1357 5.69336H7.85742C6.38086 5.69336 5.61523 6.45215 5.61523 7.91504V16.2344C5.61523 17.6973 6.38086 18.4561 7.85742 18.4561ZM7.93945 17.1162C7.30371 17.1162 6.95508 16.7812 6.95508 16.1182V8.02441C6.95508 7.36133 7.30371 7.0332 7.93945 7.0332H16.0537C16.6826 7.0332 17.0381 7.36133 17.0381 8.02441V16.1182C17.0381 16.7812 16.6826 17.1162 16.0537 17.1162H7.93945Z" fill="#ED3D25"/>
    </g>
    <defs>
        <clipPath id="clip0_9822_15039">
            <rect width="24" height="24" fill="white"/>
        </clipPath>
    </defs>
</svg>
