<svg width="25" height="24" viewBox="0 0 25 24" fill="none" xmlns="http://www.w3.org/2000/svg">
    <path d="M7.16504 19.7578H17.8262C19.6719 19.7578 20.5859 18.8438 20.5859 17.0332V6.30176C20.5859 4.49121 19.6719 3.57715 17.8262 3.57715H7.16504C5.32812 3.57715 4.40527 4.48242 4.40527 6.30176V17.0332C4.40527 18.8525 5.32812 19.7578 7.16504 19.7578ZM7.18262 18.3428C6.30371 18.3428 5.82031 17.877 5.82031 16.9629V6.37207C5.82031 5.45801 6.30371 4.99219 7.18262 4.99219H17.8086C18.6787 4.99219 19.1709 5.45801 19.1709 6.37207V16.9629C19.1709 17.877 18.6787 18.3428 17.8086 18.3428H7.18262Z" fill="#ED3D25"/>
</svg>
