<svg width="24" height="24" viewBox="0 0 24 24" fill="none" xmlns="http://www.w3.org/2000/svg">
    <path d="M6.66504 19.7578H17.3262C19.1719 19.7578 20.0859 18.8438 20.0859 17.0332V6.30176C20.0859 4.49121 19.1719 3.57715 17.3262 3.57715H6.66504C4.82812 3.57715 3.90527 4.48242 3.90527 6.30176V17.0332C3.90527 18.8525 4.82812 19.7578 6.66504 19.7578ZM6.68262 18.3428C5.80371 18.3428 5.32031 17.877 5.32031 16.9629V6.37207C5.32031 5.45801 5.80371 4.99219 6.68262 4.99219H17.3086C18.1787 4.99219 18.6709 5.45801 18.6709 6.37207V16.9629C18.6709 17.877 18.1787 18.3428 17.3086 18.3428H6.68262Z" fill="#ED3D25"/>
</svg>
