<svg width="25" height="24" viewBox="0 0 25 24" fill="none" xmlns="http://www.w3.org/2000/svg">
<path d="M10.4014 18.8184H14.585C15.4668 18.8184 15.9453 18.5244 16.417 18.0049L18.9053 15.209C19.3838 14.6758 19.5068 14.334 19.5068 13.6162V10.5605C19.5068 9.84277 19.3838 9.50098 18.9053 8.96777L16.417 6.17871C15.9453 5.65234 15.4668 5.3584 14.585 5.3584H10.4014C9.51953 5.3584 9.04102 5.65234 8.57617 6.17871L6.08105 8.96777C5.60938 9.50098 5.48633 9.84277 5.48633 10.5605V13.6162C5.48633 14.334 5.60938 14.6758 6.08105 15.209L8.57617 18.0049C9.04102 18.5244 9.51953 18.8184 10.4014 18.8184ZM12.5 13.2676C12.1035 13.2676 11.8711 13.0488 11.8643 12.6387L11.7617 9.19336C11.748 8.77637 12.0557 8.48242 12.4932 8.48242C12.9307 8.48242 13.2451 8.7832 13.2314 9.2002L13.1289 12.6387C13.1152 13.0557 12.8896 13.2676 12.5 13.2676ZM12.5 15.626C12.042 15.626 11.666 15.291 11.666 14.8467C11.666 14.4023 12.042 14.0605 12.5 14.0605C12.9648 14.0605 13.334 14.3955 13.334 14.8467C13.334 15.2979 12.958 15.626 12.5 15.626Z" fill="#F8F8F8"/>
</svg>
