<svg width="24" height="24" viewBox="0 0 24 24" fill="none" xmlns="http://www.w3.org/2000/svg">
<g clip-path="url(#clip0_10340_18974)">
<path d="M9.90137 18.8184H14.085C14.9668 18.8184 15.4453 18.5244 15.917 18.0049L18.4053 15.209C18.8838 14.6758 19.0068 14.334 19.0068 13.6162V10.5605C19.0068 9.84277 18.8838 9.50098 18.4053 8.96777L15.917 6.17871C15.4453 5.65234 14.9668 5.3584 14.085 5.3584H9.90137C9.01953 5.3584 8.54102 5.65234 8.07617 6.17871L5.58105 8.96777C5.10938 9.50098 4.98633 9.84277 4.98633 10.5605V13.6162C4.98633 14.334 5.10938 14.6758 5.58105 15.209L8.07617 18.0049C8.54102 18.5244 9.01953 18.8184 9.90137 18.8184ZM12 13.2676C11.6035 13.2676 11.3711 13.0488 11.3643 12.6387L11.2617 9.19336C11.248 8.77637 11.5557 8.48242 11.9932 8.48242C12.4307 8.48242 12.7451 8.7832 12.7314 9.2002L12.6289 12.6387C12.6152 13.0557 12.3896 13.2676 12 13.2676ZM12 15.626C11.542 15.626 11.166 15.291 11.166 14.8467C11.166 14.4023 11.542 14.0605 12 14.0605C12.4648 14.0605 12.834 14.3955 12.834 14.8467C12.834 15.2979 12.458 15.626 12 15.626Z" fill="#ED3D25"/>
</g>
<defs>
<clipPath id="clip0_10340_18974">
<rect width="24" height="24" fill="white"/>
</clipPath>
</defs>
</svg>
