<svg width="20" height="12" viewBox="0 0 20 12" fill="none" xmlns="http://www.w3.org/2000/svg">
<path d="M10 11.9912C15.6055 11.9912 19.3857 7.47266 19.3857 6.07129C19.3857 4.66992 15.5986 0.158203 10 0.158203C4.47656 0.158203 0.607422 4.66992 0.607422 6.07129C0.607422 7.47266 4.46973 11.9912 10 11.9912ZM10 10.6787C5.63184 10.6787 2.15918 7.02832 2.15918 6.07129C2.15918 5.27148 5.63184 1.4707 10 1.4707C14.3613 1.4707 17.8408 5.27148 17.8408 6.07129C17.8408 7.02832 14.3613 10.6787 10 10.6787ZM10 9.75586C12.0508 9.75586 13.6914 8.08105 13.6914 6.07129C13.6914 4.01367 12.0508 2.39355 10 2.39355C7.94238 2.39355 6.29492 4.01367 6.30176 6.07129C6.31543 8.08105 7.94238 9.75586 10 9.75586ZM10 7.26074C9.33691 7.26074 8.79688 6.72754 8.79688 6.07129C8.79688 5.41504 9.33691 4.88184 10 4.88184C10.6631 4.88184 11.1963 5.41504 11.1963 6.07129C11.1963 6.72754 10.6631 7.26074 10 7.26074Z" fill="#ED3D25"/>
</svg>
