<svg width="16" height="17" viewBox="0 0 16 17" fill="none" xmlns="http://www.w3.org/2000/svg">
<g clip-path="url(#clip0_9923_5508)">
<path d="M8 13.208C12.0039 13.208 14.7041 9.98047 14.7041 8.97949C14.7041 7.97852 11.999 4.75586 8 4.75586C4.05469 4.75586 1.29102 7.97852 1.29102 8.97949C1.29102 9.98047 4.0498 13.208 8 13.208ZM8 12.2705C4.87988 12.2705 2.39941 9.66309 2.39941 8.97949C2.39941 8.4082 4.87988 5.69336 8 5.69336C11.1152 5.69336 13.6006 8.4082 13.6006 8.97949C13.6006 9.66309 11.1152 12.2705 8 12.2705ZM8 11.6113C9.46484 11.6113 10.6367 10.415 10.6367 8.97949C10.6367 7.50977 9.46484 6.35254 8 6.35254C6.53027 6.35254 5.35352 7.50977 5.3584 8.97949C5.36816 10.415 6.53027 11.6113 8 11.6113ZM8 9.8291C7.52637 9.8291 7.14062 9.44824 7.14062 8.97949C7.14062 8.51074 7.52637 8.12988 8 8.12988C8.47363 8.12988 8.85449 8.51074 8.85449 8.97949C8.85449 9.44824 8.47363 9.8291 8 9.8291Z" fill="#ED3D25"/>
</g>
<defs>
<clipPath id="clip0_9923_5508">
<rect width="16" height="16" fill="white" transform="translate(0 0.5)"/>
</clipPath>
</defs>
</svg>
