<svg width="20" height="14" viewBox="0 0 20 14" fill="none" xmlns="http://www.w3.org/2000/svg">
<path d="M15.3867 13.1074C15.6055 13.3193 15.9404 13.333 16.1592 13.1074C16.3848 12.875 16.3711 12.5469 16.1592 12.335L4.5791 0.768555C4.37402 0.556641 4.01855 0.549805 3.80664 0.768555C3.60156 0.973633 3.60156 1.3291 3.80664 1.53418L15.3867 13.1074ZM10 1.1582C8.81055 1.1582 7.73047 1.36328 6.72559 1.69141L7.81934 2.78516C8.50977 2.58691 9.22754 2.4707 10 2.4707C14.3682 2.4707 17.8408 6.27148 17.8408 7.07129C17.8408 7.61133 16.7334 9.00586 14.9766 10.1064L15.9883 11.125C18.1348 9.7168 19.3857 7.87793 19.3857 7.07129C19.3857 5.66992 15.6055 1.1582 10 1.1582ZM10 12.9912C11.2646 12.9912 12.4199 12.7725 13.4658 12.4102L12.3789 11.3232C11.6338 11.542 10.8477 11.6787 10 11.6787C5.63184 11.6787 2.15918 8.02832 2.15918 7.07129C2.15918 6.61328 3.32129 5.12988 5.19434 3.98145L4.16211 2.94922C1.92676 4.37109 0.607422 6.25098 0.607422 7.07129C0.607422 8.47266 4.46973 12.9912 10 12.9912ZM13.4111 8.39062C13.5889 7.9873 13.6914 7.53613 13.6914 7.07129C13.6914 5.01367 12.0508 3.39355 10 3.39355C9.52832 3.39355 9.08398 3.48242 8.67383 3.65332L13.4111 8.39062ZM10 10.7559C10.5332 10.7559 11.0322 10.6328 11.4766 10.4209L6.64355 5.58105C6.4248 6.03223 6.30176 6.53125 6.30176 7.07812C6.30859 9.08105 7.94238 10.7559 10 10.7559Z" fill="#ED3D25"/>
</svg>
