<svg width="16" height="16" viewBox="0 0 16 16" fill="none" xmlns="http://www.w3.org/2000/svg">
<g clip-path="url(#clip0_9700_10556)">
<path d="M11.8477 12.791C12.0039 12.9424 12.2432 12.9521 12.3994 12.791C12.5605 12.625 12.5508 12.3906 12.3994 12.2393L4.12793 3.97754C3.98145 3.82617 3.72754 3.82129 3.57617 3.97754C3.42969 4.12402 3.42969 4.37793 3.57617 4.52441L11.8477 12.791ZM8 4.25586C7.15039 4.25586 6.37891 4.40234 5.66113 4.63672L6.44238 5.41797C6.93555 5.27637 7.44824 5.19336 8 5.19336C11.1201 5.19336 13.6006 7.9082 13.6006 8.47949C13.6006 8.86523 12.8096 9.86133 11.5547 10.6475L12.2773 11.375C13.8105 10.3691 14.7041 9.05566 14.7041 8.47949C14.7041 7.47852 12.0039 4.25586 8 4.25586ZM8 12.708C8.90332 12.708 9.72852 12.5518 10.4756 12.293L9.69922 11.5166C9.16699 11.6729 8.60547 11.7705 8 11.7705C4.87988 11.7705 2.39941 9.16309 2.39941 8.47949C2.39941 8.15234 3.22949 7.09277 4.56738 6.27246L3.83008 5.53516C2.2334 6.55078 1.29102 7.89355 1.29102 8.47949C1.29102 9.48047 4.0498 12.708 8 12.708ZM10.4365 9.42188C10.5635 9.13379 10.6367 8.81152 10.6367 8.47949C10.6367 7.00977 9.46484 5.85254 8 5.85254C7.66309 5.85254 7.3457 5.91602 7.05273 6.03809L10.4365 9.42188ZM8 11.1113C8.38086 11.1113 8.7373 11.0234 9.05469 10.8721L5.60254 7.41504C5.44629 7.7373 5.3584 8.09375 5.3584 8.48438C5.36328 9.91504 6.53027 11.1113 8 11.1113Z" fill="#ED3D25"/>
</g>
<defs>
<clipPath id="clip0_9700_10556">
<rect width="16" height="16" fill="white"/>
</clipPath>
</defs>
</svg>
