<svg width="24" height="25" viewBox="0 0 24 25" fill="none" xmlns="http://www.w3.org/2000/svg">
<path d="M17.3867 18.6074C17.6055 18.8193 17.9404 18.833 18.1592 18.6074C18.3848 18.375 18.3711 18.0469 18.1592 17.835L6.5791 6.26855C6.37402 6.05664 6.01855 6.0498 5.80664 6.26855C5.60156 6.47363 5.60156 6.8291 5.80664 7.03418L17.3867 18.6074ZM12 6.6582C10.8105 6.6582 9.73047 6.86328 8.72559 7.19141L9.81934 8.28516C10.5098 8.08691 11.2275 7.9707 12 7.9707C16.3682 7.9707 19.8408 11.7715 19.8408 12.5713C19.8408 13.1113 18.7334 14.5059 16.9766 15.6064L17.9883 16.625C20.1348 15.2168 21.3857 13.3779 21.3857 12.5713C21.3857 11.1699 17.6055 6.6582 12 6.6582ZM12 18.4912C13.2646 18.4912 14.4199 18.2725 15.4658 17.9102L14.3789 16.8232C13.6338 17.042 12.8477 17.1787 12 17.1787C7.63184 17.1787 4.15918 13.5283 4.15918 12.5713C4.15918 12.1133 5.32129 10.6299 7.19434 9.48145L6.16211 8.44922C3.92676 9.87109 2.60742 11.751 2.60742 12.5713C2.60742 13.9727 6.46973 18.4912 12 18.4912ZM15.4111 13.8906C15.5889 13.4873 15.6914 13.0361 15.6914 12.5713C15.6914 10.5137 14.0508 8.89355 12 8.89355C11.5283 8.89355 11.084 8.98242 10.6738 9.15332L15.4111 13.8906ZM12 16.2559C12.5332 16.2559 13.0322 16.1328 13.4766 15.9209L8.64355 11.0811C8.4248 11.5322 8.30176 12.0312 8.30176 12.5781C8.30859 14.5811 9.94238 16.2559 12 16.2559Z" fill="#ED3D25"/>
</svg>
