<svg width="33" height="32" viewBox="0 0 33 32" fill="none" xmlns="http://www.w3.org/2000/svg">
<path d="M6.03516 12.7539C6.78516 12.7539 7.18359 12.3438 7.18359 11.5938V8.94531C7.18359 7.80859 7.78125 7.24609 8.87109 7.24609H11.5781C12.3281 7.24609 12.7383 6.83594 12.7383 6.09766C12.7383 5.35938 12.3281 4.94922 11.5781 4.94922H8.73047C6.19922 4.94922 4.88672 6.25 4.88672 8.74609V11.5938C4.88672 12.3438 5.29688 12.7539 6.03516 12.7539ZM26.9531 12.7539C27.7031 12.7539 28.1016 12.3438 28.1016 11.5938V8.74609C28.1016 6.25 26.7891 4.94922 24.2578 4.94922H21.4102C20.6602 4.94922 20.25 5.35938 20.25 6.09766C20.25 6.83594 20.6602 7.24609 21.4102 7.24609H24.1172C25.1953 7.24609 25.8047 7.80859 25.8047 8.94531V11.5938C25.8047 12.3438 26.2148 12.7539 26.9531 12.7539ZM15.5625 18.5195H15.668C16.8633 18.5195 17.5312 17.8633 17.5312 16.6562V12.9883C17.5312 12.5078 17.2148 12.1797 16.7227 12.1797C16.2305 12.1797 15.9141 12.5078 15.9141 12.9883V16.7266C15.9141 16.832 15.8555 16.8906 15.75 16.8906H15.3867C14.9297 16.8906 14.5781 17.2305 14.5781 17.6758C14.5781 18.2148 14.9531 18.5195 15.5625 18.5195ZM12.0938 15.7773C12.668 15.7773 13.0781 15.3672 13.0781 14.7812V13.1875C13.0781 12.6016 12.668 12.1914 12.0938 12.1914C11.5195 12.1914 11.1094 12.6133 11.1094 13.1875V14.7812C11.1094 15.3672 11.5195 15.7773 12.0938 15.7773ZM20.8711 15.7773C21.4336 15.7773 21.8438 15.3672 21.8438 14.7812V13.1875C21.8438 12.6133 21.4336 12.1914 20.8711 12.1914C20.2852 12.1914 19.875 12.6016 19.875 13.1875V14.7812C19.875 15.3672 20.2852 15.7773 20.8711 15.7773ZM16.4297 22.3867C17.8477 22.3867 19.2891 21.7773 20.3086 20.7578C20.4609 20.6055 20.543 20.4062 20.543 20.1602C20.543 19.6914 20.1797 19.3516 19.7227 19.3516C19.4883 19.3516 19.3125 19.4453 19.0898 19.6914C18.457 20.3359 17.4492 20.7812 16.4297 20.7812C15.457 20.7812 14.4609 20.3594 13.7812 19.6797C13.582 19.4922 13.418 19.3516 13.1367 19.3516C12.668 19.3516 12.3164 19.6914 12.3164 20.1602C12.3164 20.3711 12.3984 20.5586 12.5508 20.7461C13.4883 21.8242 14.9766 22.3867 16.4297 22.3867ZM8.73047 28.1641H11.5781C12.3281 28.1641 12.7383 27.7539 12.7383 27.0156C12.7383 26.2773 12.3281 25.8672 11.5781 25.8672H8.87109C7.78125 25.8672 7.18359 25.3047 7.18359 24.1562V21.5078C7.18359 20.7578 6.77344 20.3477 6.03516 20.3477C5.28516 20.3477 4.88672 20.7578 4.88672 21.5078V24.3555C4.88672 26.8633 6.19922 28.1641 8.73047 28.1641ZM21.4102 28.1641H24.2578C26.7891 28.1641 28.1016 26.8633 28.1016 24.3555V21.5078C28.1016 20.7578 27.6914 20.3477 26.9531 20.3477C26.2031 20.3477 25.8047 20.7695 25.8047 21.5078V24.1562C25.8047 25.3047 25.1953 25.8672 24.1172 25.8672H21.4102C20.6602 25.8672 20.25 26.2773 20.25 27.0156C20.25 27.7539 20.6602 28.1641 21.4102 28.1641Z" fill="#ED3D25"/>
</svg>
