<svg width="24" height="24" viewBox="0 0 24 24" fill="none" xmlns="http://www.w3.org/2000/svg">
<path d="M12 20.6191C16.9043 20.6191 20.9648 16.5498 20.9648 11.6543C20.9648 6.75 16.8955 2.68945 11.9912 2.68945C7.0957 2.68945 3.03516 6.75 3.03516 11.6543C3.03516 16.5498 7.10449 20.6191 12 20.6191ZM7.07812 9.85254C6.67383 9.85254 6.38379 9.59766 6.38379 9.21094C6.38379 8.82422 6.67383 8.56934 7.07812 8.56934H16.957C17.3525 8.56934 17.6514 8.82422 17.6514 9.21094C17.6514 9.59766 17.3525 9.85254 16.957 9.85254H7.07812ZM8.42285 12.8584C8.00977 12.8584 7.72852 12.6035 7.72852 12.208C7.72852 11.8213 8.00977 11.5664 8.42285 11.5664H15.6123C16.0166 11.5664 16.2979 11.8213 16.2979 12.208C16.2979 12.6035 16.0166 12.8584 15.6123 12.8584H8.42285ZM9.82031 15.8643C9.41602 15.8643 9.13477 15.6006 9.13477 15.2139C9.13477 14.8359 9.41602 14.5811 9.82031 14.5811H14.2061C14.6104 14.5811 14.9004 14.8359 14.9004 15.2139C14.9004 15.6006 14.6104 15.8643 14.2061 15.8643H9.82031Z" fill="#ED3D25"/>
</svg>
