<svg width="24" height="24" viewBox="0 0 24 24" fill="none" xmlns="http://www.w3.org/2000/svg">
<path d="M12 20.6191C16.9043 20.6191 20.9648 16.5498 20.9648 11.6543C20.9648 6.75 16.8955 2.68945 11.9912 2.68945C7.0957 2.68945 3.03516 6.75 3.03516 11.6543C3.03516 16.5498 7.10449 20.6191 12 20.6191ZM12 19.125C7.85156 19.125 4.53809 15.8027 4.53809 11.6543C4.53809 7.50586 7.84277 4.18359 11.9912 4.18359C16.1396 4.18359 19.4619 7.50586 19.4707 11.6543C19.4795 15.8027 16.1484 19.125 12 19.125ZM7.21875 9.92285H16.7988C17.1855 9.92285 17.4668 9.67676 17.4668 9.29883C17.4668 8.92969 17.1855 8.68359 16.7988 8.68359H7.21875C6.82324 8.68359 6.55078 8.92969 6.55078 9.29883C6.55078 9.67676 6.82324 9.92285 7.21875 9.92285ZM8.51953 12.832H15.498C15.8848 12.832 16.1572 12.5859 16.1572 12.208C16.1572 11.8389 15.8848 11.5928 15.498 11.5928H8.51953C8.12402 11.5928 7.85156 11.8389 7.85156 12.208C7.85156 12.5859 8.12402 12.832 8.51953 12.832ZM9.87305 15.75H14.1357C14.5225 15.75 14.8037 15.4951 14.8037 15.126C14.8037 14.7568 14.5225 14.5107 14.1357 14.5107H9.87305C9.48633 14.5107 9.21387 14.7568 9.21387 15.126C9.21387 15.4951 9.48633 15.75 9.87305 15.75Z" fill="#ED3D25"/>
</svg>
