<svg width="16" height="17" viewBox="0 0 16 17" fill="none" xmlns="http://www.w3.org/2000/svg">
<path d="M0.241211 15.4883C0.241211 15.8369 0.52832 16.1309 0.883789 16.1309H12.2793C12.6279 16.1309 12.915 15.8369 12.915 15.4883C12.915 15.1396 12.6279 14.8457 12.2793 14.8457H11.7529V10.4229C12.1494 10.4844 12.4023 10.7578 12.4023 11.1816V12.3096C12.4023 13.335 13.0859 14.0186 14.1113 14.0186C15.1025 14.0186 15.7588 13.335 15.7588 12.3096V5.24121C15.7588 4.3457 15.6016 3.60059 15.2734 3.01953C14.9453 2.46582 14.4668 2.08984 13.8379 1.89844C13.5508 1.80957 13.2432 1.98047 13.1543 2.26074C13.0723 2.55469 13.2295 2.86914 13.5303 2.95117C13.8857 3.04688 14.3848 3.33398 14.583 4.30469H13.6738C13.3389 4.30469 13.0791 4.56445 13.0791 4.89941V7.61328C13.0791 7.94141 13.3457 8.20117 13.6738 8.20117H14.665V12.3096C14.665 12.6719 14.4463 12.9111 14.1113 12.9111C13.7354 12.9111 13.4893 12.6719 13.4893 12.3096V11.168C13.4893 10.0605 12.8467 9.37695 11.7529 9.31543V1.86426C11.7529 0.654297 11.1035 0.00488281 9.88672 0.00488281H3.26953C2.05957 0.00488281 1.41016 0.654297 1.41016 1.86426V14.8457H0.883789C0.535156 14.8457 0.241211 15.1396 0.241211 15.4883ZM2.68848 1.91211C2.68848 1.50195 2.90723 1.2832 3.31738 1.2832H9.83887C10.2422 1.2832 10.4609 1.50195 10.4609 1.91211V14.8457H2.68848V1.91211ZM4.32227 7.99609H8.84082C9.29199 7.99609 9.59277 7.71582 9.59277 7.30566V2.94434C9.59277 2.53418 9.29199 2.25391 8.84082 2.25391H4.32227C3.87109 2.25391 3.56348 2.53418 3.56348 2.94434V7.30566C3.56348 7.71582 3.87109 7.99609 4.32227 7.99609Z" fill="#ED3D25"/>
</svg>
