<svg width="16" height="16" viewBox="0 0 16 16" fill="none" xmlns="http://www.w3.org/2000/svg">
    <g clip-path="url(#clip0_9788_1420)">
        <path d="M2.45801 13.7773C2.45801 14.0264 2.66309 14.2363 2.91699 14.2363H11.0566C11.3057 14.2363 11.5107 14.0264 11.5107 13.7773C11.5107 13.5283 11.3057 13.3184 11.0566 13.3184H10.6807V10.1592C10.9639 10.2031 11.1445 10.3984 11.1445 10.7012V11.5068C11.1445 12.2393 11.6328 12.7275 12.3652 12.7275C13.0732 12.7275 13.542 12.2393 13.542 11.5068V6.45801C13.542 5.81836 13.4297 5.28613 13.1953 4.87109C12.9609 4.47559 12.6191 4.20703 12.1699 4.07031C11.9648 4.00684 11.7451 4.12891 11.6816 4.3291C11.623 4.53906 11.7354 4.76367 11.9502 4.82227C12.2041 4.89062 12.5605 5.0957 12.7021 5.78906H12.0527C11.8135 5.78906 11.6279 5.97461 11.6279 6.21387V8.15234C11.6279 8.38672 11.8184 8.57227 12.0527 8.57227H12.7607V11.5068C12.7607 11.7656 12.6045 11.9365 12.3652 11.9365C12.0967 11.9365 11.9209 11.7656 11.9209 11.5068V10.6914C11.9209 9.90039 11.4619 9.41211 10.6807 9.36816V4.0459C10.6807 3.18164 10.2168 2.71777 9.34766 2.71777H4.62109C3.75684 2.71777 3.29297 3.18164 3.29297 4.0459V13.3184H2.91699C2.66797 13.3184 2.45801 13.5283 2.45801 13.7773ZM4.20605 4.08008C4.20605 3.78711 4.3623 3.63086 4.65527 3.63086H9.31348C9.60156 3.63086 9.75781 3.78711 9.75781 4.08008V13.3184H4.20605V4.08008ZM5.37305 8.42578H8.60059C8.92285 8.42578 9.1377 8.22559 9.1377 7.93262V4.81738C9.1377 4.52441 8.92285 4.32422 8.60059 4.32422H5.37305C5.05078 4.32422 4.83105 4.52441 4.83105 4.81738V7.93262C4.83105 8.22559 5.05078 8.42578 5.37305 8.42578Z" fill="#ED3D25"/>
    </g>
    <defs>
        <clipPath id="clip0_9788_1420">
            <rect width="16" height="16" fill="white"/>
        </clipPath>
    </defs>
</svg>
