<svg width="16" height="16" viewBox="0 0 16 16" fill="none" xmlns="http://www.w3.org/2000/svg">
<g clip-path="url(#clip0_12262_4752)">
<path d="M5.56836 3.37207H10.3975C10.3633 2.93262 10.1045 2.69824 9.63086 2.69824H6.33008C5.85645 2.69824 5.59766 2.93262 5.56836 3.37207ZM4.72852 4.78809H11.2324C11.1641 4.32422 10.9297 4.06055 10.4072 4.06055H5.55371C5.03125 4.06055 4.79688 4.32422 4.72852 4.78809ZM5.25098 14.2607H10.8662C11.7988 14.2607 12.3457 13.7188 12.3457 12.6738V7.15137C12.3457 6.10645 11.7988 5.56445 10.7441 5.56445H5.25098C4.19629 5.56445 3.64941 6.10645 3.64941 7.15137V12.6738C3.64941 13.7188 4.19629 14.2607 5.25098 14.2607ZM6.44238 11.1846C5.56348 11.1846 4.89941 11.6582 4.60645 12.2197V7.22949C4.60645 6.75586 4.85547 6.52148 5.30957 6.52148H10.6855C11.1348 6.52148 11.3887 6.75586 11.3887 7.22949V12C11.0127 11.5459 10.3682 11.1943 9.5332 11.1943C8.14648 11.1943 7.27246 12.1807 7.27246 12.957C7.27246 13.1084 7.30176 13.2207 7.35547 13.3037H6.74512C6.71094 13.1963 6.69629 13.0742 6.69629 12.9473C6.69629 12.3857 6.96973 11.8389 7.42871 11.4238C7.16504 11.2676 6.83789 11.1846 6.44238 11.1846ZM9.5332 10.6279C10.1191 10.6279 10.6074 10.1104 10.6074 9.44141C10.6074 8.78223 10.1143 8.28906 9.5332 8.28906C8.95215 8.28906 8.4541 8.79688 8.4541 9.45117C8.45898 10.1104 8.95215 10.6279 9.5332 10.6279ZM6.44238 10.6914C6.9502 10.6914 7.37988 10.2422 7.37988 9.65625C7.37988 9.08496 6.9502 8.65039 6.44238 8.65039C5.93457 8.65039 5.5 9.08984 5.50488 9.66113C5.50488 10.2422 5.93457 10.6914 6.44238 10.6914Z" fill="#868993"/>
</g>
<defs>
<clipPath id="clip0_12262_4752">
<rect width="16" height="16" fill="white"/>
</clipPath>
</defs>
</svg>
