<svg width="24" height="24" viewBox="0 0 24 24" fill="none" xmlns="http://www.w3.org/2000/svg">
    <g clip-path="url(#clip0_6336_191136)">
        <path d="M6.02344 20.1445H17.915C19.1631 20.1445 19.8926 19.4326 19.8926 18.2021V9.75586L21.1143 10.7842C21.29 10.9336 21.4922 11.0654 21.7383 11.0654C22.1514 11.0654 22.4854 10.8105 22.4854 10.3887C22.4854 10.125 22.3975 9.94922 22.2129 9.79102L19.8926 7.83984V4.20117C19.8926 3.81445 19.6465 3.56836 19.2598 3.56836H18.3193C17.9414 3.56836 17.6865 3.81445 17.6865 4.20117V5.98535L13.0635 2.10059C12.4131 1.54688 11.6045 1.54688 10.9453 2.10059L1.78711 9.79102C1.59375 9.94922 1.50586 10.1602 1.50586 10.3623C1.50586 10.7227 1.78711 11.0654 2.26172 11.0654C2.50781 11.0654 2.70996 10.9336 2.89453 10.7842L4.03711 9.81738V18.2021C4.03711 19.4326 4.7666 20.1445 6.02344 20.1445ZM14.5312 12.8408C14.5312 12.4365 14.2676 12.1729 13.8633 12.1729H10.1367C9.72363 12.1729 9.45996 12.4365 9.45996 12.8408V18.7295H6.32227C5.75977 18.7295 5.45215 18.4131 5.45215 17.8418V8.63086L11.6924 3.40137C11.8857 3.22559 12.123 3.22559 12.3164 3.40137L18.4775 8.56934V17.8418C18.4775 18.4131 18.1699 18.7295 17.6162 18.7295H14.5312V12.8408Z" fill="#ED3D25"/>
    </g>
    <defs>
        <clipPath id="clip0_6336_191136">
            <rect width="24" height="24" fill="white"/>
        </clipPath>
    </defs>
</svg>
