<svg width="97" height="96" viewBox="0 0 97 96" fill="none" xmlns="http://www.w3.org/2000/svg">
<path fill-rule="evenodd" clip-rule="evenodd" d="M52.8027 45.6445L54.3906 40.0195C56.043 34.2188 59.0312 31.2305 63.25 31.2305H64.4805V33.1992C64.4805 35.3086 64.6914 37.1367 65.9922 38.4375C67.293 39.7383 69.0859 39.9141 71.1953 39.9141H80.6875C82.832 39.9141 84.6602 39.7383 85.9258 38.4375C87.2266 37.1367 87.4023 35.3086 87.4023 33.1992V23.707C87.4023 21.5625 87.2266 19.7344 85.9258 18.4336C84.6602 17.168 82.832 16.9922 80.6875 16.9922H71.1953C69.0859 16.9922 67.293 17.168 65.9922 18.4336C64.6914 19.7344 64.4805 21.5625 64.4805 23.707V25.5703H63.25C56.2864 25.5703 51.3778 29.8893 49.0442 38.1806L52.8027 45.6445ZM48.1827 61.1913L44.5725 54.0217L44.0195 55.9805C42.4023 61.7461 39.3438 64.7695 35.125 64.7695H33.8594V62.8359C33.8594 60.6914 33.6484 58.8633 32.3477 57.5625C31.082 56.2969 29.2539 56.0859 27.1094 56.0859H17.6523C15.5078 56.0859 13.7148 56.2969 12.4141 57.5625C11.1133 58.8633 10.9023 60.6914 10.9023 62.8359V72.3281C10.9023 74.4375 11.1133 76.2656 12.4141 77.5664C13.7148 78.8672 15.5078 79.043 17.6172 79.043H27.1094C29.2539 79.043 31.082 78.8672 32.3477 77.5664C33.6484 76.2656 33.8594 74.4375 33.8594 72.293V70.4297H35.125C41.1033 70.4297 45.5567 67.2782 48.1827 61.1913Z" fill="#727B93"/>
</svg>
