<svg width="97" height="96" viewBox="0 0 97 96" fill="none" xmlns="http://www.w3.org/2000/svg">
    <path d="M21.2539 81.8398H75.7461C81.7227 81.8398 85.3438 77.6914 85.3438 72.3125C85.3438 70.6602 84.8516 68.9375 83.9727 67.3906L56.6914 19.8594C54.8633 16.6602 51.7344 15.043 48.5 15.043C45.2656 15.043 42.1016 16.6602 40.3086 19.8594L13.0273 67.3906C12.0781 68.9727 11.6562 70.6602 11.6562 72.3125C11.6562 77.6914 15.2773 81.8398 21.2539 81.8398ZM48.5352 58.3555C46.707 58.3555 45.6875 57.3008 45.6523 55.4375L45.1953 36.3125C45.1602 34.4492 46.5312 33.1133 48.5 33.1133C50.3984 33.1133 51.875 34.4844 51.8398 36.3477L51.3125 55.4375C51.2773 57.3359 50.2578 58.3555 48.5352 58.3555ZM48.5352 70.1328C46.4258 70.1328 44.5977 68.4453 44.5977 66.3711C44.5977 64.2617 46.3906 62.5742 48.5352 62.5742C50.6445 62.5742 52.4375 64.2266 52.4375 66.3711C52.4375 68.4805 50.6094 70.1328 48.5352 70.1328Z" fill="#727B93"/>
</svg>
