<svg width="24" height="24" viewBox="0 0 24 24" fill="none" xmlns="http://www.w3.org/2000/svg">
<path d="M4.59961 12.5947C7.71094 12.5947 10.2686 15.1523 10.2686 18.2725C10.2686 19.2832 9.99609 20.25 9.50391 21.0762H16.6582C18.4775 21.0762 19.3828 20.1533 19.3828 18.3252V10.3447H13.0195C11.8945 10.3447 11.3584 9.80859 11.3584 8.68359V2.23242H7.32422C5.51367 2.23242 4.59961 3.16406 4.59961 4.99219V12.5947ZM13.0459 9.14062H19.2773C19.2246 8.78027 18.9697 8.42871 18.5479 7.99805L13.7051 3.06738C13.292 2.64551 12.9316 2.39062 12.5625 2.3291V8.66602C12.5625 8.98242 12.7207 9.14062 13.0459 9.14062ZM4.22168 22.8164H4.97754C5.25 22.8164 5.46094 22.6582 5.52246 22.377L5.7334 21.5156C5.85645 21.4805 5.99707 21.4189 6.12012 21.3574L6.87598 21.8145C7.10449 21.9639 7.35938 21.9639 7.57031 21.7529L8.08887 21.2256C8.27344 21.0234 8.29102 20.7773 8.1416 20.5225L7.69336 19.7578C7.76367 19.6436 7.79883 19.5293 7.84277 19.4062L8.71289 19.2041C8.98535 19.1338 9.16113 18.9229 9.16113 18.6504V17.9033C9.16113 17.6396 8.97656 17.4463 8.71289 17.376L7.85156 17.165C7.79883 17.0156 7.74609 16.9102 7.70215 16.8047L8.17676 16.0225C8.31738 15.7939 8.29102 15.5127 8.10645 15.3369L7.57031 14.8184C7.36816 14.6162 7.10449 14.5723 6.88477 14.7217L6.12012 15.2051C5.9707 15.126 5.85645 15.0908 5.7334 15.0469L5.52246 14.168C5.46094 13.9043 5.25 13.7285 4.97754 13.7285H4.22168C3.94922 13.7285 3.72949 13.9131 3.66797 14.168L3.47461 15.0381C3.31641 15.0908 3.20215 15.126 3.07031 15.2051L2.30566 14.7217C2.09473 14.5811 1.82227 14.6162 1.62891 14.8184L1.11035 15.3369C0.925781 15.5215 0.864258 15.7939 1.01367 16.0225L1.49707 16.8047C1.45312 16.9102 1.3916 17.0332 1.33887 17.165L0.486328 17.376C0.222656 17.4463 0.046875 17.6484 0.046875 17.9033V18.6504C0.046875 18.9229 0.222656 19.1338 0.486328 19.2041L1.34766 19.4062C1.40918 19.5293 1.45312 19.6436 1.50586 19.7578L1.05762 20.5312C0.908203 20.7773 0.93457 21.041 1.11914 21.2256L1.62891 21.7529C1.82227 21.9639 2.08594 21.9551 2.31445 21.8145L3.08789 21.3574C3.22852 21.4365 3.35156 21.4805 3.47461 21.5156L3.66797 22.377C3.72949 22.6406 3.94922 22.8164 4.22168 22.8164ZM4.59961 19.7402C3.78223 19.7402 3.14062 19.0898 3.14062 18.2812C3.14062 17.4814 3.78223 16.8135 4.59961 16.8047C5.39062 16.7959 6.06738 17.4814 6.06738 18.2812C6.06738 19.0898 5.39062 19.7402 4.59961 19.7402Z" fill="#727B93"/>
</svg>
