<svg width="322" height="253" viewBox="0 0 322 253" fill="none" xmlns="http://www.w3.org/2000/svg">
    <g clip-path="url(#clip0_9334_94236)">
        <path d="M104.276 141.722C91.1747 135.043 74.6827 134.659 60.0164 132.326C46.3625 130.146 21.4788 120.611 11.5376 110.279C-5.66004 92.4235 -4.61683 53.4272 21.3561 40.976C51.149 26.6825 88.582 39.7938 120.876 44.0466C170.704 50.6023 181.413 12.0819 229.876 5.46483C248.408 2.9316 274.857 8.48934 283.939 27.3734C295.46 51.3546 280.18 78.8976 297.455 101.635C303.913 110.141 345.734 145.928 303.054 160.022C287.774 165.073 272.095 168.343 256.478 172.074C241.443 175.667 226.838 179.966 213.338 187.611C195.327 197.806 175.522 213.02 154.78 202.749C128.101 189.53 128.623 154.142 104.292 141.737L104.276 141.722Z" fill="url(#paint0_linear_9334_94236)"/>
        <path d="M38.5075 112.46C-12.9935 191.42 85.406 227.76 147.646 227.76C209.886 227.76 278.017 204.654 278.017 133.647C278.017 -49.1446 126.92 -23.0754 38.5075 112.46Z" fill="url(#paint1_radial_9334_94236)"/>
        <path d="M105.979 22.6303C105.979 27.7581 100.533 31.9188 93.7982 31.9188C87.0634 31.9188 81.6172 27.7581 81.6172 22.6303C81.6172 17.5024 87.0634 13.3418 93.7982 13.3418C100.533 13.3418 105.979 17.5024 105.979 22.6303Z" fill="url(#paint2_radial_9334_94236)"/>
        <path d="M121.059 4.63657C121.059 7.2005 118.727 9.27314 115.843 9.27314C112.959 9.27314 110.627 7.2005 110.627 4.63657C110.627 2.07264 112.959 0 115.843 0C118.727 0 121.059 2.07264 121.059 4.63657Z" fill="url(#paint3_radial_9334_94236)"/>
        <path d="M206.004 252.984C211.604 252.984 216.145 248.44 216.145 242.836C216.145 237.231 211.604 232.688 206.004 232.688C200.403 232.688 195.863 237.231 195.863 242.836C195.863 248.44 200.403 252.984 206.004 252.984Z" fill="url(#paint4_radial_9334_94236)"/>
        <path d="M289.202 191.48C289.202 195.81 285.305 199.31 280.503 199.31C275.701 199.31 271.805 195.81 271.805 191.48C271.805 187.151 275.701 183.65 280.503 183.65C285.305 183.65 289.202 187.151 289.202 191.48Z" fill="url(#paint5_radial_9334_94236)"/>
        <path d="M267.753 202.519C267.753 204.116 266.065 205.421 263.979 205.421C261.893 205.421 260.205 204.116 260.205 202.519C260.205 200.922 261.893 199.617 263.979 199.617C266.065 199.617 267.753 200.922 267.753 202.519Z" fill="url(#paint6_radial_9334_94236)"/>
        <g clip-path="url(#clip1_9334_94236)">
            <path d="M206.935 83.1933H193.809V70.0632C193.813 66.4393 190.875 63.5 187.248 63.5H134.748C131.125 63.5 128.187 66.4393 128.187 70.0632V83.1933H115.061C111.438 83.1933 108.5 86.1326 108.5 89.7565V142.273C108.5 145.897 111.438 148.836 115.061 148.836H128.187V161.933C128.187 165.557 131.125 168.496 134.748 168.496H187.248C190.871 168.496 193.809 165.557 193.809 161.933V148.836H206.935C210.558 148.836 213.496 145.897 213.496 142.273V89.7565C213.496 86.1326 210.558 83.1933 206.935 83.1933Z" fill="#080E15"/>
            <path d="M206.935 83.1933H200.374V89.7565H203.655C205.466 89.7565 206.935 91.2261 206.935 93.0381V138.988C206.935 140.8 205.466 142.27 203.655 142.27H200.374V148.833H206.935C210.558 148.833 213.496 145.893 213.496 142.27V89.7565C213.496 86.1326 210.558 83.1933 206.935 83.1933Z" fill="url(#paint7_linear_9334_94236)"/>
            <path d="M115.061 138.992V93.0418C115.061 91.2299 116.53 89.7602 118.342 89.7602H121.622V83.197H115.061C111.438 83.1933 108.5 86.1326 108.5 89.7565V142.273C108.5 145.897 111.438 148.836 115.061 148.836H121.622V142.273H118.342C116.53 142.273 115.061 140.804 115.061 138.992Z" fill="url(#paint8_linear_9334_94236)"/>
            <path d="M183.967 161.967H138.032C136.221 161.967 134.752 160.497 134.752 158.685V136.808C132.494 135.822 130.307 134.709 128.19 133.485V161.933C128.19 165.557 131.129 168.496 134.752 168.496H187.248C190.871 168.496 193.809 165.557 193.809 161.933V133.485C191.693 134.709 189.502 135.822 187.248 136.808V158.685C187.248 160.497 185.779 161.967 183.967 161.967Z" fill="url(#paint9_linear_9334_94236)"/>
            <path d="M138.033 70.0297H183.968C185.779 70.0297 187.249 71.4994 187.249 73.3113V95.1886C189.506 96.1746 191.693 97.2871 193.81 98.5112V70.0632C193.81 66.4393 190.871 63.5 187.249 63.5H134.749C131.126 63.5 128.188 66.4393 128.188 70.0632V98.5149C130.304 97.2908 132.495 96.1783 134.749 95.1924V73.315C134.749 71.5031 136.218 70.0334 138.029 70.0334L138.033 70.0297Z" fill="url(#paint10_linear_9334_94236)"/>
            <path d="M200.374 116.017C192.039 105.606 180.453 98.5223 167.401 96.7587C175.13 99.5083 180.687 107.087 180.687 116.017C180.687 124.946 175.13 132.529 167.401 135.275C180.453 133.511 192.043 126.427 200.374 116.017Z" fill="#F8F8F8"/>
            <path d="M141.313 116.017C141.313 107.087 146.87 99.5046 154.599 96.7587C141.547 98.5223 129.958 105.606 121.626 116.017C129.961 126.427 141.547 133.511 154.599 135.275C146.87 132.525 141.313 124.946 141.313 116.017Z" fill="#F8F8F8"/>
            <path d="M161 122.58C154.885 122.58 149.764 118.394 148.305 112.731C148.034 113.781 147.874 114.878 147.874 116.013C147.874 122.922 153.215 128.574 159.992 129.091C160.323 129.125 160.658 129.143 161 129.143C161.342 129.143 161.677 129.125 162.008 129.091C168.785 128.574 174.126 122.922 174.126 116.013C174.126 114.878 173.966 113.781 173.694 112.731C172.236 118.391 167.115 122.58 161 122.58Z" fill="#ED3D25"/>
            <path d="M161 109.45C164.623 109.45 167.561 107.981 167.561 106.168C167.561 104.356 164.623 102.887 161 102.887C157.376 102.887 154.438 104.356 154.438 106.168C154.438 107.981 157.376 109.45 161 109.45Z" fill="#F8F8F8"/>
        </g>
    </g>
    <defs>
        <linearGradient id="paint0_linear_9334_94236" x1="161.004" y1="4.88867" x2="161.004" y2="206.164" gradientUnits="userSpaceOnUse">
            <stop stop-color="#ED3D25"/>
            <stop offset="1" stop-color="#320903"/>
        </linearGradient>
        <radialGradient id="paint1_radial_9334_94236" cx="0" cy="0" r="1" gradientUnits="userSpaceOnUse" gradientTransform="translate(166 116) rotate(94.5653) scale(131.919 149.48)">
            <stop stop-color="#080E15"/>
            <stop offset="0.541667" stop-color="#1B1E25"/>
            <stop offset="1" stop-color="#070A0E"/>
        </radialGradient>
        <radialGradient id="paint2_radial_9334_94236" cx="0" cy="0" r="1" gradientUnits="userSpaceOnUse" gradientTransform="translate(93.7982 22.6303) rotate(90) scale(9.28849 12.181)">
            <stop stop-color="#ED3D25"/>
            <stop offset="1" stop-color="#891809"/>
        </radialGradient>
        <radialGradient id="paint3_radial_9334_94236" cx="0" cy="0" r="1" gradientUnits="userSpaceOnUse" gradientTransform="translate(115.843 4.63657) rotate(90) scale(4.63657 5.21607)">
            <stop stop-color="#ED3D25"/>
            <stop offset="1" stop-color="#942D1F"/>
        </radialGradient>
        <radialGradient id="paint4_radial_9334_94236" cx="0" cy="0" r="1" gradientUnits="userSpaceOnUse" gradientTransform="translate(206.004 242.836) rotate(90) scale(10.1483 10.1406)">
            <stop stop-color="#ED3D25"/>
            <stop offset="1" stop-color="#8B1909"/>
        </radialGradient>
        <radialGradient id="paint5_radial_9334_94236" cx="0" cy="0" r="1" gradientUnits="userSpaceOnUse" gradientTransform="translate(280.503 191.48) rotate(90) scale(7.82997 8.69855)">
            <stop stop-color="#ED3D25"/>
            <stop offset="1" stop-color="#9B1F0E"/>
        </radialGradient>
        <radialGradient id="paint6_radial_9334_94236" cx="0" cy="0" r="1" gradientUnits="userSpaceOnUse" gradientTransform="translate(263.979 202.519) rotate(90) scale(2.90169 3.77398)">
            <stop stop-color="#ED3D25"/>
            <stop offset="1" stop-color="#A42311"/>
        </radialGradient>
        <linearGradient id="paint7_linear_9334_94236" x1="200.374" y1="116.017" x2="213.5" y2="116.017" gradientUnits="userSpaceOnUse">
            <stop stop-color="#080E15"/>
            <stop offset="1" stop-color="#ED3D25"/>
        </linearGradient>
        <linearGradient id="paint8_linear_9334_94236" x1="108.5" y1="116.017" x2="121.626" y2="116.017" gradientUnits="userSpaceOnUse">
            <stop stop-color="#ED3D25"/>
            <stop offset="1" stop-color="#080E15"/>
        </linearGradient>
        <linearGradient id="paint9_linear_9334_94236" x1="161" y1="168.5" x2="161" y2="133.485" gradientUnits="userSpaceOnUse">
            <stop stop-color="#ED3D25"/>
            <stop offset="1" stop-color="#080E15" stop-opacity="0"/>
        </linearGradient>
        <linearGradient id="paint10_linear_9334_94236" x1="161" y1="98.5149" x2="161" y2="63.5" gradientUnits="userSpaceOnUse">
            <stop stop-color="#080E15" stop-opacity="0"/>
            <stop offset="1" stop-color="#ED3D25"/>
        </linearGradient>
        <clipPath id="clip0_9334_94236">
            <rect width="322" height="253" fill="white"/>
        </clipPath>
        <clipPath id="clip1_9334_94236">
            <rect width="105" height="105" fill="white" transform="translate(108.5 63.5)"/>
        </clipPath>
    </defs>
</svg>
