<svg width="16" height="16" viewBox="0 0 16 16" fill="none" xmlns="http://www.w3.org/2000/svg">
<g clip-path="url(#clip0_11632_31035)">
<path d="M6.74512 9.71484C6.86719 9.71484 6.97461 9.67578 7.08691 9.55859L8.72754 7.98145C8.81055 7.89844 8.85449 7.81055 8.85449 7.69336C8.85449 7.46387 8.67383 7.30273 8.4541 7.30273C8.3418 7.30273 8.22949 7.35156 8.15137 7.43945L7.46289 8.16699L7.15039 8.52344L7.19922 7.80078V2.7373C7.19922 2.49805 6.99414 2.29297 6.74512 2.29297C6.50098 2.29297 6.2959 2.49805 6.2959 2.7373V7.80078L6.34473 8.52832L6.02734 8.16699L5.34375 7.43945C5.26562 7.35156 5.14844 7.30273 5.03613 7.30273C4.81641 7.30273 4.63574 7.46387 4.63574 7.69336C4.63574 7.81055 4.68457 7.89844 4.76758 7.98145L6.4082 9.55859C6.52051 9.67578 6.62793 9.71484 6.74512 9.71484ZM3.9375 12.8789H5.24121V13.6406C5.24121 14.6855 5.7832 15.2275 6.84277 15.2275H12.0576C13.1074 15.2275 13.6592 14.6855 13.6592 13.6406V8.7041C13.6592 7.65918 13.1074 7.11719 12.0576 7.11719H11.1592V6.4873C11.1592 5.44727 10.6123 4.90527 9.55762 4.90527H8.23438V5.8623H9.49902C9.94824 5.8623 10.2021 6.09668 10.2021 6.57031V11.2139C10.2021 11.6875 9.94824 11.9219 9.49902 11.9219H3.99609C3.54199 11.9219 3.29297 11.6875 3.29297 11.2139V6.57031C3.29297 6.09668 3.54199 5.8623 3.99609 5.8623H5.27051V4.90527H3.9375C2.88281 4.90527 2.33594 5.44238 2.33594 6.4873V11.292C2.33594 12.3369 2.88281 12.8789 3.9375 12.8789ZM6.90137 14.2705C6.45215 14.2705 6.19824 14.0312 6.19824 13.5576V12.8789H9.55762C10.6123 12.8789 11.1592 12.3369 11.1592 11.292V8.07422H11.999C12.4531 8.07422 12.7021 8.31348 12.7021 8.78711V13.5576C12.7021 14.0312 12.4531 14.2705 11.999 14.2705H6.90137Z" fill="#868993"/>
</g>
<defs>
<clipPath id="clip0_11632_31035">
<rect width="16" height="16" fill="white"/>
</clipPath>
</defs>
</svg>
