<svg width="16" height="16" viewBox="0 0 16 16" fill="none" xmlns="http://www.w3.org/2000/svg">
    <g clip-path="url(#clip0_2807_96489)">
        <path d="M8 13.5186C10.7588 13.5186 13.0439 11.2383 13.0439 8.47461C13.0439 5.71582 10.7588 3.43066 7.99512 3.43066C5.23633 3.43066 2.95605 5.71582 2.95605 8.47461C2.95605 11.2383 5.24121 13.5186 8 13.5186ZM7.9707 6.76562C7.58496 6.76562 7.27246 6.44824 7.27246 6.06738C7.27246 5.67188 7.58496 5.36426 7.9707 5.36426C8.35645 5.36426 8.66406 5.67188 8.66406 6.06738C8.66406 6.44824 8.35645 6.76562 7.9707 6.76562ZM7.10156 11.2432C6.87207 11.2432 6.69629 11.082 6.69629 10.8477C6.69629 10.6279 6.87207 10.4521 7.10156 10.4521H7.70703V8.33789H7.19434C6.96484 8.33789 6.78906 8.17676 6.78906 7.94238C6.78906 7.72266 6.96484 7.54688 7.19434 7.54688H8.15625C8.44434 7.54688 8.60059 7.75195 8.60059 8.05957V10.4521H9.16211C9.3916 10.4521 9.57227 10.6279 9.57227 10.8477C9.57227 11.082 9.3916 11.2432 9.16211 11.2432H7.10156Z" fill="#2F3238"/>
    </g>
    <defs>
        <clipPath id="clip0_2807_96489">
            <rect width="16" height="16" fill="white"/>
        </clipPath>
    </defs>
</svg>
