<svg width="24" height="24" viewBox="0 0 24 24" fill="none" xmlns="http://www.w3.org/2000/svg">
<g clip-path="url(#clip0_7478_10469)">
<path d="M12 19.126C15.8623 19.126 19.0615 15.9336 19.0615 12.0645C19.0615 8.20215 15.8623 5.00293 11.9932 5.00293C8.13086 5.00293 4.93848 8.20215 4.93848 12.0645C4.93848 15.9336 8.1377 19.126 12 19.126ZM12 17.7383C8.85547 17.7383 6.33301 15.209 6.33301 12.0645C6.33301 8.91992 8.84863 6.39746 11.9932 6.39746C15.1377 6.39746 17.6738 8.91992 17.6738 12.0645C17.6738 15.209 15.1445 17.7383 12 17.7383ZM11.959 9.82227C12.4717 9.82227 12.8818 9.40527 12.8818 8.89941C12.8818 8.37988 12.4717 7.96973 11.959 7.96973C11.4463 7.96973 11.0361 8.37988 11.0361 8.89941C11.0361 9.40527 11.4463 9.82227 11.959 9.82227ZM10.8037 15.8242H13.5586C13.8594 15.8242 14.0986 15.6055 14.0986 15.2979C14.0986 15.0107 13.8594 14.7852 13.5586 14.7852H12.793V11.5518C12.793 11.1484 12.5947 10.8818 12.2119 10.8818H10.9268C10.6191 10.8818 10.3867 11.1143 10.3867 11.4014C10.3867 11.709 10.6191 11.9277 10.9268 11.9277H11.6172V14.7852H10.8037C10.5029 14.7852 10.2637 15.0107 10.2637 15.2979C10.2637 15.6055 10.5029 15.8242 10.8037 15.8242Z" fill="#868993"/>
</g>
<defs>
<clipPath id="clip0_7478_10469">
<rect width="24" height="24" fill="white"/>
</clipPath>
</defs>
</svg>
