<svg width="24" height="24" viewBox="0 0 24 24" fill="none" xmlns="http://www.w3.org/2000/svg">
    <path d="M12 20.6191C16.9043 20.6191 20.9648 16.5498 20.9648 11.6543C20.9648 6.75 16.8955 2.68945 11.9912 2.68945C7.0957 2.68945 3.03516 6.75 3.03516 11.6543C3.03516 16.5498 7.10449 20.6191 12 20.6191ZM12 19.125C7.85156 19.125 4.53809 15.8027 4.53809 11.6543C4.53809 7.50586 7.84277 4.18359 11.9912 4.18359C16.1396 4.18359 19.4619 7.50586 19.4707 11.6543C19.4795 15.8027 16.1484 19.125 12 19.125ZM11.9209 8.52539C12.5625 8.52539 13.0635 8.01562 13.0635 7.37402C13.0635 6.73242 12.5625 6.22266 11.9209 6.22266C11.2881 6.22266 10.7783 6.73242 10.7783 7.37402C10.7783 8.01562 11.2881 8.52539 11.9209 8.52539ZM10.4619 16.4883H14.0391C14.3994 16.4883 14.6807 16.2246 14.6807 15.8643C14.6807 15.5215 14.3994 15.249 14.0391 15.249H12.9492V10.7754C12.9492 10.3008 12.7119 9.98438 12.2637 9.98438H10.6113C10.251 9.98438 9.96973 10.2568 9.96973 10.5996C9.96973 10.96 10.251 11.2236 10.6113 11.2236H11.5518V15.249H10.4619C10.1016 15.249 9.82031 15.5215 9.82031 15.8643C9.82031 16.2246 10.1016 16.4883 10.4619 16.4883Z" fill="#ED3D25"/>
</svg>
