<svg width="16" height="16" viewBox="0 0 16 16" fill="none" xmlns="http://www.w3.org/2000/svg">
<path d="M12 8.5C12 9.05228 11.5523 9.5 11 9.5C10.4477 9.5 10 9.05228 10 8.5C10 7.94772 10.4477 7.5 11 7.5C11.5523 7.5 12 7.94772 12 8.5Z" fill="#868993"/>
<path fill-rule="evenodd" clip-rule="evenodd" d="M12 6.5L4 6.5C3.44772 6.5 3 6.94772 3 7.5L3 9.5C3 10.0523 3.44772 10.5 4 10.5L12 10.5C12.5523 10.5 13 10.0523 13 9.5L13 7.5C13 6.94772 12.5523 6.5 12 6.5ZM4 5.5L12 5.5C13.1046 5.5 14 6.39543 14 7.5L14 9.5C14 10.6046 13.1046 11.5 12 11.5L4 11.5C2.89543 11.5 2 10.6046 2 9.5L2 7.5C2 6.39543 2.89543 5.5 4 5.5Z" fill="#868993"/>
</svg>
