<svg width="32" height="32" viewBox="0 0 32 32" fill="none" xmlns="http://www.w3.org/2000/svg">
<g clip-path="url(#clip0_3534_91967_123)">
<path d="M30 16C31.1046 16 32.0129 15.1011 31.8752 14.0052C31.624 12.0067 30.997 10.0675 30.0209 8.29194C28.7226 5.93027 26.8487 3.93482 24.5732 2.49075C22.2977 1.04669 19.6944 0.200794 17.0046 0.0315723C14.9825 -0.0956497 12.9608 0.162691 11.0456 0.786369C9.99537 1.1284 9.56879 2.33298 10.0391 3.33242L10.7885 4.92492C11.2588 5.92436 12.4494 6.33196 13.5211 6.06457C14.5372 5.81107 15.59 5.71396 16.643 5.78021C18.3644 5.88851 20.0306 6.42988 21.4869 7.35408C22.9432 8.27829 24.1424 9.55537 24.9734 11.0668C25.4817 11.9914 25.8421 12.9854 26.0453 14.0127C26.2597 15.0962 27.1354 16 28.24 16H30Z" fill="url(#paint0_linear_3534_91967_94)"/>
<path d="M2 16C0.895432 16 -0.0128784 16.8989 0.124836 17.9948C0.375957 19.9933 1.00299 21.9325 1.97909 23.7081C3.27743 26.0697 5.15129 28.0652 7.42677 29.5092C9.70226 30.9533 12.3056 31.7992 14.9954 31.9684C17.0175 32.0956 19.0392 31.8373 20.9544 31.2136C22.0046 30.8716 22.4312 29.667 21.9609 28.6676L21.2115 27.0751C20.7412 26.0756 19.5506 25.668 18.4789 25.9354C17.4628 26.1889 16.41 26.286 15.357 26.2198C13.6356 26.1115 11.9694 25.5701 10.5131 24.6459C9.05682 23.7217 7.85756 22.4446 7.02662 20.9332C6.51833 20.0086 6.15794 19.0146 5.9547 17.9873C5.74032 16.9038 4.86457 16 3.76 16H2Z" fill="url(#paint1_linear_3534_91967_12345)"/>
</g>
<defs>
<linearGradient id="paint0_linear_3534_91967_94" x1="32" y1="16" x2="9" y2="2.38419e-07" gradientUnits="userSpaceOnUse">
<stop stop-color="#ED3D25"/>
<stop offset="1" stop-color="#ED3D25" stop-opacity="0"/>
</linearGradient>
<linearGradient id="paint1_linear_3534_91967_12345" x1="0" y1="16" x2="23" y2="32" gradientUnits="userSpaceOnUse">
<stop stop-color="#ED3D25"/>
<stop offset="1" stop-color="#ED3D25" stop-opacity="0"/>
</linearGradient>
<clipPath id="clip0_3534_91967_123">
<rect width="32" height="32" fill="white"/>
</clipPath>
</defs>
</svg>
