<svg width="24" height="24" viewBox="0 0 24 24" fill="none" xmlns="http://www.w3.org/2000/svg">
<g clip-path="url(#clip0_3257_53273)">
<path d="M6.33301 18.6338H12.9434C13.8594 18.6338 14.3105 18.1826 14.3105 17.1914V12.085C14.3105 11.2168 13.9551 10.752 13.2441 10.6562V8.83105C13.2441 7.22461 14.2627 6.35645 15.4863 6.35645C16.71 6.35645 17.7354 7.22461 17.7354 8.83105V10.2871C17.7354 10.7656 18.0156 11.0186 18.3848 11.0186C18.7471 11.0186 19.0273 10.7793 19.0273 10.2871V8.96094C19.0273 6.36328 17.2979 5.1123 15.4863 5.1123C13.6748 5.1123 11.9453 6.36328 11.9453 8.96094V10.6426L6.44922 10.6494C5.5332 10.6494 4.96582 11.1074 4.96582 12.085V17.1914C4.96582 18.1826 5.41699 18.6338 6.33301 18.6338Z" fill="#14BA30"/>
</g>
<defs>
<clipPath id="clip0_3257_53273">
<rect width="24" height="24" fill="white"/>
</clipPath>
</defs>
</svg>
