<svg width="24" height="24" viewBox="0 0 24 24" fill="none" xmlns="http://www.w3.org/2000/svg">
<g clip-path="url(#clip0_3257_42766)">
<path d="M8.69141 18.6338H15.3018C16.2178 18.6338 16.6689 18.1826 16.6689 17.1914V12.085C16.6689 11.1895 16.293 10.7246 15.541 10.6494V8.96094C15.541 6.36328 13.8115 5.1123 11.9932 5.1123C10.1816 5.1123 8.45215 6.36328 8.45215 8.96094V10.6768C7.74805 10.7861 7.32422 11.2373 7.32422 12.085V17.1914C7.32422 18.1826 7.77539 18.6338 8.69141 18.6338ZM9.75098 8.83105C9.75098 7.22461 10.7695 6.35645 11.9932 6.35645C13.2168 6.35645 14.2422 7.22461 14.2422 8.83105V10.6426L9.75098 10.6494V8.83105Z" fill="#CC2500"/>
</g>
<defs>
<clipPath id="clip0_3257_42766">
<rect width="24" height="24" fill="white"/>
</clipPath>
</defs>
</svg>
