<svg width="111" height="40" viewBox="0 0 111 40" fill="none" xmlns="http://www.w3.org/2000/svg">
    <g clip-path="url(#clip0_4235_97601)">
        <path fill-rule="evenodd" clip-rule="evenodd" d="M38.3916 27.7304C38.3916 29.1059 37.2912 30.2063 35.9157 30.2063C34.5401 30.2063 33.4397 29.1059 33.8249 27.7304V17.9367C33.8249 17.4966 33.4397 17.1114 32.9996 17.1114C32.5594 17.1114 32.1743 17.4966 32.1743 17.9367V21.1829C32.1743 22.5585 31.0738 23.6589 29.6983 23.6589C28.3228 23.6589 27.2224 22.5585 27.2224 21.1829V17.9367C27.2224 17.4966 26.8373 17.1114 26.3971 17.1114C25.9569 17.1114 25.5718 17.4966 25.5718 17.9367V19.5873V29.381C25.5718 29.8212 25.9569 30.2063 26.3971 30.2063C26.8373 30.2063 27.2224 29.8212 27.2224 29.381V27.7304C27.2224 26.3549 28.3228 25.2545 29.6983 25.2545C31.0738 25.2545 32.1743 26.3549 32.1743 27.7304V32.6272C32.1743 33.0674 32.5594 33.4525 32.9996 33.4525C33.4397 33.4525 33.8249 33.0674 33.8249 32.6272C33.8249 32.1871 34.21 31.8019 34.6502 31.8019C35.0904 31.8019 35.4755 32.1871 35.4755 32.6272C35.4755 34.0028 34.3751 35.1032 32.9996 35.1032C31.6241 35.1032 30.5236 34.0028 30.5236 32.6272V27.7304C30.5236 27.2902 30.1385 26.9051 29.6983 26.9051C29.2582 26.9051 28.873 27.2902 28.873 27.7304V29.381C28.873 30.7565 27.7726 31.8569 26.3971 31.8569C25.0216 31.8569 23.9212 30.7565 23.9212 29.381V19.5873C23.9212 19.1472 23.536 18.762 23.0959 18.762C22.6557 18.762 22.2705 19.1472 22.2705 19.5873V37.5241C22.2705 37.9642 22.6557 38.3494 23.0959 38.3494C23.536 38.3494 23.9212 37.9642 23.9212 37.5241V35.8735C23.9212 34.4979 25.0216 33.3975 26.3971 33.3975C27.7726 33.3975 28.873 34.4979 28.873 35.8735C28.873 36.3136 28.4879 36.6988 28.0477 36.6988C27.6075 36.6988 27.2224 36.3136 27.2224 35.8735C27.2224 35.4333 26.8373 35.0481 26.3971 35.0481C25.9569 35.0481 25.5718 35.4333 25.5718 35.8735V37.5241C25.5718 38.8996 24.4714 40 23.0959 40C21.7203 40 20.6199 38.8996 20.6199 37.5241V19.5873V16.3411C20.6199 15.901 20.2348 15.5158 19.7946 15.5158C19.3545 15.5158 18.9693 15.901 18.9693 16.3411V19.5873V37.5241C18.9693 38.8996 17.8689 40 16.4934 40C15.1179 40 14.0175 38.8996 14.0175 37.5241V35.8735C14.0175 35.4333 13.6323 35.0481 13.1921 35.0481C12.752 35.0481 12.3668 35.4333 12.3668 35.8735C12.3668 36.3136 11.9817 36.6988 11.5415 36.6988C11.1014 36.6988 10.7162 36.3136 10.7162 35.8735C10.7162 34.4979 11.8166 33.3975 13.1921 33.3975C14.5677 33.3975 15.6681 34.4979 15.6681 35.8735V37.5241C15.6681 37.9642 16.0532 38.3494 16.4934 38.3494C16.9335 38.3494 17.3187 37.9642 17.3187 37.5241V19.5873C17.3187 19.1472 16.9335 18.762 16.4934 18.762C16.0532 18.762 15.6681 19.1472 15.6681 19.5873V29.381C15.6681 30.7565 14.5677 31.8569 13.1921 31.8569C11.8166 31.8569 10.7162 30.7565 10.7162 29.381V27.7304C10.7162 27.2902 10.3311 26.9051 9.8909 26.9051C9.45074 26.9051 9.06559 27.2902 9.06559 27.7304V32.6272C9.06559 34.0028 7.96518 35.1032 6.58967 35.1032C5.21415 35.1032 4.11374 34.0028 4.11374 32.6272C4.11374 32.1871 4.49888 31.8019 4.93905 31.8019C5.37921 31.8019 5.76436 32.1871 5.76436 32.6272C5.76436 33.0674 6.1495 33.4525 6.58967 33.4525C7.02983 33.4525 7.41498 33.0674 7.41498 32.6272V27.7304C7.41498 26.3549 8.51539 25.2545 9.8909 25.2545C11.2664 25.2545 12.3668 26.3549 12.3668 27.7304V29.381C12.3668 29.8212 12.752 30.2063 13.1921 30.2063C13.6323 30.2063 14.0175 29.8212 14.0175 29.381V19.5873V17.9367C14.0175 17.4966 13.6323 17.1114 13.1921 17.1114C12.752 17.1114 12.3668 17.4966 12.3668 17.9367V21.1829C12.3668 22.5585 11.2664 23.6589 9.8909 23.6589C8.51539 23.6589 7.41498 22.5585 7.41498 21.1829V17.9367C7.41498 17.4966 7.02983 17.1114 6.58967 17.1114C6.1495 17.1114 5.76436 17.4966 5.76436 17.9367V27.7304C5.76436 29.1059 4.66394 30.2063 3.28843 30.2063C1.91291 30.2063 0.8125 29.1059 0.8125 27.7304V13.0399C0.8125 11.7194 1.91291 10.564 3.28843 10.564C4.66394 10.564 5.76436 11.6644 5.76436 13.0399C5.76436 13.4801 5.37921 13.8652 4.93905 13.8652C4.49888 13.8652 4.11374 13.4801 4.11374 13.0399C4.11374 12.5997 3.72859 12.2146 3.28843 12.2146C2.84826 12.2146 2.46312 12.5997 2.46312 13.0399V27.7304C2.46312 28.2256 2.73822 28.6107 3.17839 28.6107C3.61855 28.6107 4.0037 28.2256 4.0037 27.7854V17.9917C4.0037 16.6162 5.10411 15.5158 6.47963 15.5158C6.91979 15.5158 7.30493 15.1307 7.30493 14.6905V8.14305C7.30493 7.70289 6.91979 7.31774 6.47963 7.31774C6.03946 7.31774 5.65432 7.70289 5.65432 8.14305C5.65432 8.58322 5.26917 8.96836 4.82901 8.96836C4.38884 8.96836 4.0037 8.58322 4.0037 8.14305C4.0037 6.76754 5.10411 5.66713 6.47963 5.66713C7.85514 5.66713 8.95555 6.76754 8.95555 8.14305V17.9367V21.1829C8.95555 21.6231 9.3407 22.0083 9.78086 22.0083C10.221 22.0083 10.6062 21.6231 10.6062 21.1829V17.9367V8.96836C10.6062 4.01651 14.5677 0 19.5195 0C24.4714 0 28.4879 4.01651 28.4879 8.96836V17.9367V21.1829C28.4879 21.6231 28.873 22.0083 29.3132 22.0083C29.7534 22.0083 30.1385 21.6231 30.1385 21.1829V17.9367V8.14305C30.1385 6.76754 31.2389 5.66713 32.6144 5.66713C33.9899 5.66713 35.0904 6.76754 35.0904 8.14305C35.0904 8.58322 34.7052 8.96836 34.265 8.96836C33.8249 8.96836 33.4397 8.58322 33.4397 8.14305C33.4397 7.70289 33.0546 7.31774 32.6144 7.31774C32.1743 7.31774 31.7891 7.70289 31.7891 8.14305V14.6355C31.7891 15.0757 32.1743 15.4608 32.6144 15.4608C33.9899 15.4608 35.0904 16.5612 35.0904 17.9367V27.7304C35.0904 28.1706 35.4755 28.5557 35.9157 28.5557C36.3558 28.5557 36.741 28.1706 36.741 27.7304V13.0399C36.741 12.5997 36.3558 12.2146 35.9157 12.2146C35.4755 12.2146 35.0904 12.5997 35.0904 13.0399C35.0904 13.4801 34.7052 13.8652 34.265 13.8652C33.8249 13.8652 33.4397 13.4801 33.4397 13.0399C33.4397 11.6644 34.5401 10.564 35.9157 10.564C37.2912 10.564 38.3916 11.6644 38.3916 13.0399V27.7304ZM14.6777 13.8652C15.1179 13.8652 15.503 13.4801 15.503 13.0399V12.2146C15.503 11.7744 15.1179 11.3893 14.6777 11.3893C14.2375 11.3893 13.8524 11.7744 13.8524 12.2146V13.0399C13.8524 13.4801 14.2375 13.8652 14.6777 13.8652ZM24.4714 13.8652C24.9115 13.8652 25.2967 13.4801 25.2967 13.0399V12.2146C25.2967 11.7744 24.9115 11.3893 24.4714 11.3893C24.0312 11.3893 23.6461 11.7744 23.6461 12.2146V13.0399C23.6461 13.4801 24.0312 13.8652 24.4714 13.8652ZM24.4714 9.79367H26.122C26.5622 9.79367 26.9473 9.40853 26.9473 9.02338C26.9473 4.95186 23.591 1.65062 19.5745 1.65062C15.558 1.65062 12.2568 4.95186 12.2018 8.96836C12.2018 9.40853 12.5869 9.79367 13.0271 9.79367H14.6777C15.7231 9.79367 16.6584 10.5089 16.9886 11.4443H22.1605C22.4906 10.4539 23.426 9.79367 24.4714 9.79367ZM106.72 10.3989C106.225 10.3989 105.51 10.564 104.96 10.9491C104.905 11.0042 104.85 11.0042 104.795 10.9491C104.74 10.8941 104.685 10.8391 104.685 10.7841V6.65752C104.685 6.54748 104.63 6.49246 104.52 6.49246H102.704C102.594 6.49246 102.539 6.54748 102.539 6.65752V17.3865C102.539 17.4966 102.594 17.5516 102.704 17.5516H104.52C104.63 17.5516 104.685 17.4966 104.685 17.3865V13.8102C104.685 12.4897 105.95 12.3797 106.17 12.3797C106.775 12.3797 107.491 12.8198 107.491 13.7002V17.3865C107.491 17.4966 107.546 17.5516 107.656 17.5516H109.471C109.581 17.5516 109.636 17.4966 109.636 17.3865V13.6451C109.691 11.6094 108.591 10.3989 106.72 10.3989ZM76.1839 6.54747H74.3682C74.2582 6.54747 74.2032 6.60249 74.2032 6.71253V10.7841C74.2032 10.8391 74.1481 10.8941 74.0931 10.9491C74.0564 10.9858 74.0198 10.9736 73.9831 10.9613C73.9647 10.9552 73.9464 10.9491 73.9281 10.9491C73.4879 10.619 72.8277 10.4539 72.1674 10.4539C70.0766 10.4539 68.536 12.0495 68.536 14.1403C68.536 16.2311 70.0766 17.8267 72.1674 17.8267C72.8277 17.8267 73.4879 17.6616 73.9281 17.3315C73.9831 17.2765 74.0381 17.2765 74.0931 17.3315C74.1481 17.3865 74.2032 17.4416 74.2032 17.4966V17.5516C74.2032 17.6616 74.2582 17.7167 74.3682 17.7167H76.1839C76.2939 17.7167 76.349 17.6616 76.349 17.5516V6.71253C76.349 6.60249 76.2939 6.54747 76.1839 6.54747ZM72.4425 15.7359C71.4521 15.7359 70.7919 15.0206 70.7919 14.0303C70.7919 13.0949 71.5072 12.3797 72.4425 12.3797C73.2678 12.3797 74.1481 12.9299 74.1481 14.0303C74.1481 15.0206 73.4329 15.7359 72.4425 15.7359ZM52.1949 11.3343C52.8551 10.564 53.6804 10.3989 54.2857 10.3989C56.0463 10.3989 57.1467 11.6094 57.0917 13.4801V17.3315C57.0917 17.4416 57.0367 17.4966 56.9267 17.4966H55.111C55.0009 17.4966 54.9459 17.4416 54.9459 17.3315V13.6452C54.9459 12.8198 54.5057 12.3247 53.7905 12.3247C53.0202 12.3247 52.525 12.8749 52.525 13.7552V17.3315C52.525 17.4416 52.47 17.4966 52.3599 17.4966H50.5443C50.4342 17.4966 50.3792 17.4416 50.3792 17.3315V13.6452C50.3792 12.8749 49.939 12.3797 49.2788 12.3797C48.8936 12.3797 48.0133 12.5447 48.0133 13.8102V17.3866C48.0133 17.4966 47.9583 17.5516 47.8483 17.5516H46.0326C45.9225 17.5516 45.8675 17.4966 45.8675 17.3866V10.674C45.8675 10.564 45.9225 10.509 46.0326 10.509H47.8483C47.9583 10.509 48.0133 10.564 48.0133 10.674V10.7291C48.0133 10.7841 48.0683 10.8391 48.1233 10.8941C48.1784 10.9491 48.2334 10.9491 48.2884 10.8941C48.6736 10.564 49.2788 10.3989 49.829 10.3989C50.8744 10.454 51.5346 10.7841 51.9748 11.3343C51.9748 11.3893 52.0298 11.3893 52.0848 11.3893C52.0848 11.3893 52.1399 11.3893 52.1949 11.3343ZM64.6296 10.564H66.4452C66.5553 10.564 66.6103 10.619 66.6103 10.7291V17.5516C66.6103 17.6617 66.5553 17.7167 66.4452 17.7167H64.6296C64.5195 17.7167 64.4645 17.6617 64.4645 17.5516V17.4966C64.4645 17.4416 64.4095 17.3865 64.3545 17.3315C64.2994 17.2765 64.2444 17.2765 64.1894 17.3315C63.5842 17.7167 62.8689 17.8267 62.4287 17.8267C60.6131 17.8267 58.6873 16.5062 58.6873 14.1403C58.6873 11.7194 60.6131 10.4539 62.4287 10.4539C63.034 10.4539 63.6942 10.619 64.1894 10.9491C64.2077 10.9491 64.2261 10.9552 64.2444 10.9614C64.2811 10.9736 64.3178 10.9858 64.3545 10.9491C64.4095 10.8941 64.4645 10.8391 64.4645 10.7841V10.7291C64.4645 10.619 64.5195 10.564 64.6296 10.564ZM60.9432 14.0853C60.9432 15.1307 61.8785 15.7359 62.7038 15.7359C63.5292 15.7359 64.4095 15.1307 64.4645 14.0853C64.4645 13.0399 63.5292 12.4347 62.7038 12.4347C61.8235 12.4347 60.9432 13.0399 60.9432 14.0853ZM78.99 16.5613C78.99 15.901 79.5402 15.3508 80.2004 15.3508C80.9157 15.3508 81.4659 15.846 81.4109 16.5613C81.4109 17.2215 80.8607 17.7717 80.2004 17.7717C79.5402 17.7717 78.99 17.2215 78.99 16.5613ZM91.7548 10.564H86.6378C86.5278 10.564 86.4728 10.509 86.4728 10.3989V9.84871C86.4728 8.69327 87.023 8.58323 87.4081 8.58323H88.0684C88.1784 8.58323 88.2335 8.52821 88.2335 8.41817V6.71253C88.2335 6.60249 88.1784 6.54747 88.0684 6.54747H87.4081C85.3724 6.54747 84.2169 7.75792 84.2169 9.84871V10.3989C84.2169 10.509 84.1619 10.564 84.0519 10.564H82.8414C82.7314 10.564 82.6764 10.619 82.6764 10.729V12.1046C82.6764 12.2146 82.7314 12.2696 82.8414 12.2696H84.0519C84.1619 12.2696 84.2169 12.3246 84.2169 12.4347V17.4416C84.2169 17.5516 84.272 17.6066 84.382 17.6066H86.2527C86.3627 17.6066 86.4178 17.5516 86.4178 17.4416V12.4347C86.4178 12.3246 86.4728 12.2696 86.5828 12.2696H89.4989C89.609 12.2696 89.664 12.3246 89.664 12.4347V17.4416C89.664 17.5516 89.719 17.6066 89.829 17.6066H91.6447C91.7548 17.6066 91.8098 17.5516 91.8098 17.4416V10.729C91.9749 10.619 91.8648 10.564 91.7548 10.564ZM97.0367 13.1499L98.1921 13.425C99.8978 13.8652 100.173 14.9106 100.228 15.6258C100.228 17.1114 98.6873 17.8267 97.2018 17.8267C95.8262 17.8267 94.2306 17.2214 94.1756 15.6809C94.1756 15.6575 94.1756 15.644 94.1798 15.6321C94.1855 15.6159 94.199 15.6025 94.2306 15.5708C94.2306 15.5158 94.2856 15.5158 94.3407 15.5158H96.0463C96.1013 15.5158 96.2114 15.5708 96.2114 15.6809C96.2114 16.066 96.5415 16.3961 97.1467 16.3961C97.917 16.3961 98.0271 15.901 98.0271 15.7359C98.0271 15.0206 96.4315 14.7455 96.4315 14.7455C94.5057 14.2503 94.3407 13.48 94.3407 12.7098C94.3407 11.6093 95.5511 10.2888 97.0917 10.2888C98.4672 10.2888 99.9528 10.8941 100.008 12.5447C100.008 12.5997 100.008 12.5997 99.9528 12.6547C99.9528 12.7098 99.8978 12.7098 99.8427 12.7098H98.0821C98.0271 12.7098 97.917 12.6547 97.917 12.5447C97.862 12.2146 97.5869 11.9945 97.1467 11.9945C97.0367 11.9945 96.7616 11.9945 96.5965 12.1595C96.4865 12.2696 96.4315 12.3796 96.4315 12.5447C96.4315 12.9298 96.8166 13.1499 97.0367 13.1499ZM45.8125 23.879V28.5007H47.133V25.4746C47.133 25.3645 47.133 25.3095 47.188 25.1995C47.243 25.0894 47.2981 25.0344 47.3531 24.9794C47.3825 24.9647 47.4081 24.9499 47.4317 24.9363L47.4318 24.9362C47.4966 24.8988 47.5476 24.8693 47.6282 24.8693C47.7382 24.8143 47.7932 24.8143 47.9033 24.8143C48.3435 24.8143 48.5635 25.0894 48.5635 25.6947V28.5007H49.884V25.4746C49.884 25.2545 49.939 25.0894 50.1041 24.9794C50.2692 24.8693 50.4342 24.8143 50.6543 24.8143C51.0945 24.8143 51.3146 25.0894 51.3146 25.6947V28.5007H52.6351V25.5846C52.6351 24.9794 52.47 24.5392 52.2499 24.2091C51.9748 23.879 51.6447 23.7139 51.2045 23.7139C51.0395 23.7139 50.8744 23.7139 50.7093 23.7689C50.5443 23.824 50.3792 23.879 50.2692 23.989C50.1468 24.0298 50.0849 24.1009 50.0162 24.1798C49.9922 24.2073 49.9675 24.2357 49.939 24.2641C49.9116 24.3191 49.8841 24.3878 49.8566 24.4566L49.8565 24.4567C49.829 24.5255 49.8015 24.5942 49.774 24.6493C49.6639 24.3191 49.4989 24.0991 49.2788 23.934C49.0587 23.7689 48.7836 23.7139 48.4535 23.7139C48.1234 23.7139 47.8483 23.824 47.6282 23.989C47.4081 24.2091 47.2981 24.3742 47.188 24.6493H47.133V23.879H45.8125ZM57.2018 28.5557C56.9817 28.5557 56.7616 28.5007 56.5965 28.3356C56.4315 28.1706 56.3214 28.0055 56.3214 27.7304H56.2664C56.2114 28.0055 56.0463 28.2806 55.7712 28.4457C55.5512 28.6108 55.221 28.6658 54.8909 28.6658C54.3957 28.6658 54.0656 28.5557 53.7905 28.2806C53.5154 28.0055 53.4053 27.7304 53.4053 27.2903C53.4053 26.7951 53.5704 26.4099 53.9556 26.1898C54.3407 25.9698 54.7809 25.8047 55.4411 25.8047H56.1564V25.5296C56.1564 25.3095 56.1014 25.1445 55.9913 24.9794C55.8813 24.8693 55.6612 24.7593 55.3861 24.7593C55.111 24.7593 54.8909 24.8143 54.7809 24.9244C54.6158 25.0344 54.5058 25.1445 54.3957 25.3095L53.6254 24.5942C53.7905 24.3191 54.0656 24.0991 54.3407 23.934C54.6158 23.7689 55.0009 23.7139 55.4961 23.7139C56.1564 23.7139 56.6516 23.879 56.9817 24.1541C57.3118 24.4292 57.4769 24.8693 57.4769 25.4196V27.5103H57.917V28.5557H57.2018ZM55.3861 27.7304C55.6062 27.7304 55.7712 27.6754 55.9363 27.5654C56.1014 27.4553 56.1564 27.3453 56.1564 27.1252V26.575H55.4961C55.0009 26.575 54.7258 26.74 54.7258 27.0702V27.1802C54.7258 27.3453 54.7809 27.4553 54.8909 27.5654C55.0009 27.6754 55.166 27.7304 55.3861 27.7304ZM61.4384 28.0606C61.5484 27.9505 61.6035 27.8405 61.6585 27.7304V28.5007H62.979V21.9533H61.6585V24.6493H61.6035C61.5484 24.3742 61.3834 24.1541 61.1633 23.989C60.8882 23.824 60.6131 23.7139 60.338 23.7139C59.7878 23.7139 59.2926 23.879 59.0175 24.3192C58.7424 24.7593 58.5773 25.3646 58.5773 26.1348C58.5773 26.9051 58.7424 27.5104 59.0175 27.9505C59.2926 28.3357 59.7327 28.5558 60.338 28.5558C60.503 28.5558 60.6131 28.5558 60.7781 28.5007C60.8978 28.5007 60.9886 28.4429 61.0714 28.3901L61.0714 28.39C61.1028 28.3701 61.1331 28.3508 61.1633 28.3357C61.2733 28.2806 61.3834 28.1706 61.4384 28.0606ZM61.3834 27.4003C61.2183 27.5104 61.0532 27.5654 60.7781 27.5654C60.5581 27.5654 60.338 27.5104 60.1729 27.4003C60.0079 27.2353 59.9528 26.9602 59.9528 26.6851V25.8597C59.9528 25.5296 60.0079 25.3095 60.1729 25.1445C60.338 24.9794 60.503 24.8694 60.7781 24.8694C60.9982 24.8694 61.2183 24.9244 61.3834 25.0344C61.5484 25.1445 61.6035 25.3095 61.6035 25.5296V26.9051C61.6035 27.1252 61.5484 27.2903 61.3834 27.4003ZM66.1151 28.6657C65.785 28.6657 65.4549 28.6107 65.1798 28.5007C64.9047 28.3906 64.6846 28.2256 64.4645 28.0055C64.2444 27.7854 64.1344 27.5653 64.0244 27.2352C63.9143 26.9601 63.8593 26.575 63.8593 26.2448C63.8593 25.8597 63.9143 25.5296 64.0244 25.2545C64.1344 24.9794 64.2444 24.7043 64.4645 24.4842C64.6296 24.2641 64.9047 24.099 65.1798 23.989C65.4549 23.8789 65.785 23.8239 66.1151 23.8239C66.5003 23.8239 66.8304 23.879 67.1055 24.044C67.3806 24.1541 67.6007 24.3741 67.7658 24.5942C67.9308 24.8143 68.0409 25.0893 68.1509 25.3644L68.1509 25.3645C68.2059 25.6396 68.261 25.9697 68.261 26.2448V26.63H65.2898V26.685C65.2898 27.0151 65.3999 27.2352 65.5649 27.4003C65.73 27.5653 66.0051 27.6754 66.3352 27.6754C66.6103 27.6754 66.8304 27.6204 66.9955 27.5103C67.1606 27.4003 67.3256 27.2902 67.4907 27.1252L68.1509 27.9505C67.9308 28.1706 67.6557 28.3906 67.3256 28.5007C67.2048 28.5179 67.084 28.5406 66.9614 28.5636C66.6934 28.6139 66.4172 28.6657 66.1151 28.6657ZM66.1151 24.7593C65.84 24.7593 65.62 24.8693 65.5099 25.0344C65.3449 25.1994 65.2898 25.4195 65.2898 25.7497V25.8047H66.9405V25.7497C66.9405 25.4745 66.8854 25.2545 66.7754 25.0344C66.5553 24.8143 66.3903 24.7593 66.1151 24.7593ZM72.1124 23.879H70.8469L72.2775 28.5558H73.653L74.2032 26.575L74.5333 25.3646L74.8634 26.575L75.4136 28.5558H76.7891L78.0546 23.879H76.8442L76.404 25.7497L76.0739 27.1803H76.0189L75.6337 25.7497L75.0835 23.879H73.873L73.3228 25.7497L72.9377 27.1803H72.8827L72.5526 25.7497L72.1124 23.879ZM79.4301 23.3838C79.155 23.3838 78.9899 23.3288 78.8249 23.2188C78.7148 23.1087 78.6598 22.9436 78.6598 22.7786V22.5585C78.6598 22.3934 78.7148 22.2284 78.8249 22.1183C78.9349 22.0083 79.155 21.9533 79.4301 21.9533C79.7052 21.9533 79.8702 22.0083 80.0353 22.1183C80.1453 22.2284 80.2004 22.3934 80.2004 22.5585V22.7786C80.2004 22.9436 80.1453 23.1087 80.0353 23.2188C79.8702 23.3288 79.7052 23.3838 79.4301 23.3838ZM80.0903 23.879V28.5558H78.7698V23.879H80.0903ZM81.906 28.2256C82.1261 28.4457 82.5112 28.5557 82.9514 28.5557H83.7767V27.5103H82.8964V24.9794H83.8317V23.934H82.8964V22.6685H81.741V23.4388C81.741 23.6039 81.6859 23.7139 81.6309 23.824C81.5209 23.879 81.4108 23.934 81.2458 23.934H80.9156V24.9794H81.5759V27.2352C81.5759 27.6754 81.6859 28.0055 81.906 28.2256ZM84.7121 21.9533H86.0326V24.6493H86.0876C86.1977 24.4292 86.3077 24.2091 86.5278 24.0441C86.7479 23.879 87.023 23.769 87.4081 23.769C87.9033 23.769 88.2334 23.934 88.5085 24.2641C88.7286 24.5943 88.8937 25.0344 88.8937 25.6397V28.5558H87.5182V25.7497C87.5182 25.4746 87.4632 25.1995 87.3531 25.0895C87.2431 24.9244 87.078 24.8694 86.8579 24.8694C86.7479 24.8694 86.6378 24.8694 86.5278 24.9244C86.4728 24.9519 86.4315 24.9657 86.3902 24.9794L86.3902 24.9794C86.3489 24.9932 86.3077 25.0069 86.2527 25.0344C86.2397 25.0474 86.2236 25.0604 86.2067 25.0741C86.1519 25.1185 86.0876 25.1705 86.0876 25.2545C86.0326 25.3645 86.0326 25.4196 86.0326 25.5296V28.5558H84.7121V21.9533Z" fill="#868993"/>
        <path d="M98.9067 21.8431C98.2464 21.8431 97.6412 22.1182 97.2561 22.6134C96.8709 22.1733 96.2657 21.8431 95.6055 21.8431C94.395 21.8431 93.3496 22.8335 93.3496 24.099C93.3496 26.9601 97.2561 28.8858 97.2561 28.8858C97.2561 28.8858 101.163 27.0701 101.163 24.099C101.163 22.8335 100.172 21.8431 98.9067 21.8431Z" fill="#ED3D25"/>
    </g>
    <defs>
        <clipPath id="clip0_4235_97601">
            <rect width="109.375" height="40" fill="white" transform="translate(0.8125)"/>
        </clipPath>
    </defs>
</svg>
