<svg width="110" height="40" viewBox="0 0 110 40" fill="none" xmlns="http://www.w3.org/2000/svg">
    <path fill-rule="evenodd" clip-rule="evenodd" d="M37.5791 27.7304C37.5791 29.1059 36.4787 30.2063 35.1032 30.2063C33.7276 30.2063 32.6272 29.1059 33.0124 27.7304V17.9367C33.0124 17.4966 32.6272 17.1114 32.1871 17.1114C31.7469 17.1114 31.3618 17.4966 31.3618 17.9367V21.1829C31.3618 22.5585 30.2613 23.6589 28.8858 23.6589C27.5103 23.6589 26.4099 22.5585 26.4099 21.1829V17.9367C26.4099 17.4966 26.0248 17.1114 25.5846 17.1114C25.1444 17.1114 24.7593 17.4966 24.7593 17.9367V19.5873V29.381C24.7593 29.8212 25.1444 30.2063 25.5846 30.2063C26.0248 30.2063 26.4099 29.8212 26.4099 29.381V27.7304C26.4099 26.3549 27.5103 25.2545 28.8858 25.2545C30.2613 25.2545 31.3618 26.3549 31.3618 27.7304V32.6272C31.3618 33.0674 31.7469 33.4525 32.1871 33.4525C32.6272 33.4525 33.0124 33.0674 33.0124 32.6272C33.0124 32.1871 33.3975 31.8019 33.8377 31.8019C34.2779 31.8019 34.663 32.1871 34.663 32.6272C34.663 34.0028 33.5626 35.1032 32.1871 35.1032C30.8116 35.1032 29.7111 34.0028 29.7111 32.6272V27.7304C29.7111 27.2902 29.326 26.9051 28.8858 26.9051C28.4457 26.9051 28.0605 27.2902 28.0605 27.7304V29.381C28.0605 30.7565 26.9601 31.8569 25.5846 31.8569C24.2091 31.8569 23.1087 30.7565 23.1087 29.381V19.5873C23.1087 19.1472 22.7235 18.762 22.2834 18.762C21.8432 18.762 21.458 19.1472 21.458 19.5873V37.5241C21.458 37.9642 21.8432 38.3494 22.2834 38.3494C22.7235 38.3494 23.1087 37.9642 23.1087 37.5241V35.8735C23.1087 34.4979 24.2091 33.3975 25.5846 33.3975C26.9601 33.3975 28.0605 34.4979 28.0605 35.8735C28.0605 36.3136 27.6754 36.6988 27.2352 36.6988C26.795 36.6988 26.4099 36.3136 26.4099 35.8735C26.4099 35.4333 26.0248 35.0481 25.5846 35.0481C25.1444 35.0481 24.7593 35.4333 24.7593 35.8735V37.5241C24.7593 38.8996 23.6589 40 22.2834 40C20.9078 40 19.8074 38.8996 19.8074 37.5241V19.5873V16.3411C19.8074 15.901 19.4223 15.5158 18.9821 15.5158C18.542 15.5158 18.1568 15.901 18.1568 16.3411V19.5873V37.5241C18.1568 38.8996 17.0564 40 15.6809 40C14.3054 40 13.205 38.8996 13.205 37.5241V35.8735C13.205 35.4333 12.8198 35.0481 12.3796 35.0481C11.9395 35.0481 11.5543 35.4333 11.5543 35.8735C11.5543 36.3136 11.1692 36.6988 10.729 36.6988C10.2889 36.6988 9.90371 36.3136 9.90371 35.8735C9.90371 34.4979 11.0041 33.3975 12.3796 33.3975C13.7552 33.3975 14.8556 34.4979 14.8556 35.8735V37.5241C14.8556 37.9642 15.2407 38.3494 15.6809 38.3494C16.121 38.3494 16.5062 37.9642 16.5062 37.5241V19.5873C16.5062 19.1472 16.121 18.762 15.6809 18.762C15.2407 18.762 14.8556 19.1472 14.8556 19.5873V29.381C14.8556 30.7565 13.7552 31.8569 12.3796 31.8569C11.0041 31.8569 9.90371 30.7565 9.90371 29.381V27.7304C9.90371 27.2902 9.51857 26.9051 9.0784 26.9051C8.63824 26.9051 8.25309 27.2902 8.25309 27.7304V32.6272C8.25309 34.0028 7.15268 35.1032 5.77717 35.1032C4.40165 35.1032 3.30124 34.0028 3.30124 32.6272C3.30124 32.1871 3.68638 31.8019 4.12655 31.8019C4.56671 31.8019 4.95186 32.1871 4.95186 32.6272C4.95186 33.0674 5.337 33.4525 5.77717 33.4525C6.21733 33.4525 6.60248 33.0674 6.60248 32.6272V27.7304C6.60248 26.3549 7.70289 25.2545 9.0784 25.2545C10.4539 25.2545 11.5543 26.3549 11.5543 27.7304V29.381C11.5543 29.8212 11.9395 30.2063 12.3796 30.2063C12.8198 30.2063 13.205 29.8212 13.205 29.381V19.5873V17.9367C13.205 17.4966 12.8198 17.1114 12.3796 17.1114C11.9395 17.1114 11.5543 17.4966 11.5543 17.9367V21.1829C11.5543 22.5585 10.4539 23.6589 9.0784 23.6589C7.70289 23.6589 6.60248 22.5585 6.60248 21.1829V17.9367C6.60248 17.4966 6.21733 17.1114 5.77717 17.1114C5.337 17.1114 4.95186 17.4966 4.95186 17.9367V27.7304C4.95186 29.1059 3.85144 30.2063 2.47593 30.2063C1.10041 30.2063 0 29.1059 0 27.7304V13.0399C0 11.7194 1.10041 10.564 2.47593 10.564C3.85144 10.564 4.95186 11.6644 4.95186 13.0399C4.95186 13.4801 4.56671 13.8652 4.12655 13.8652C3.68638 13.8652 3.30124 13.4801 3.30124 13.0399C3.30124 12.5997 2.91609 12.2146 2.47593 12.2146C2.03576 12.2146 1.65062 12.5997 1.65062 13.0399V27.7304C1.65062 28.2256 1.92572 28.6107 2.36589 28.6107C2.80605 28.6107 3.1912 28.2256 3.1912 27.7854V17.9917C3.1912 16.6162 4.29161 15.5158 5.66713 15.5158C6.10729 15.5158 6.49243 15.1307 6.49243 14.6905V8.14305C6.49243 7.70289 6.10729 7.31774 5.66713 7.31774C5.22696 7.31774 4.84182 7.70289 4.84182 8.14305C4.84182 8.58322 4.45667 8.96836 4.01651 8.96836C3.57634 8.96836 3.1912 8.58322 3.1912 8.14305C3.1912 6.76754 4.29161 5.66713 5.66713 5.66713C7.04264 5.66713 8.14305 6.76754 8.14305 8.14305V17.9367V21.1829C8.14305 21.6231 8.5282 22.0083 8.96836 22.0083C9.40853 22.0083 9.79367 21.6231 9.79367 21.1829V17.9367V8.96836C9.79367 4.01651 13.7552 0 18.707 0C23.6589 0 27.6754 4.01651 27.6754 8.96836V17.9367V21.1829C27.6754 21.6231 28.0605 22.0083 28.5007 22.0083C28.9409 22.0083 29.326 21.6231 29.326 21.1829V17.9367V8.14305C29.326 6.76754 30.4264 5.66713 31.8019 5.66713C33.1774 5.66713 34.2779 6.76754 34.2779 8.14305C34.2779 8.58322 33.8927 8.96836 33.4525 8.96836C33.0124 8.96836 32.6272 8.58322 32.6272 8.14305C32.6272 7.70289 32.2421 7.31774 31.8019 7.31774C31.3618 7.31774 30.9766 7.70289 30.9766 8.14305V14.6355C30.9766 15.0757 31.3618 15.4608 31.8019 15.4608C33.1774 15.4608 34.2779 16.5612 34.2779 17.9367V27.7304C34.2779 28.1706 34.663 28.5557 35.1032 28.5557C35.5433 28.5557 35.9285 28.1706 35.9285 27.7304V13.0399C35.9285 12.5997 35.5433 12.2146 35.1032 12.2146C34.663 12.2146 34.2779 12.5997 34.2779 13.0399C34.2779 13.4801 33.8927 13.8652 33.4525 13.8652C33.0124 13.8652 32.6272 13.4801 32.6272 13.0399C32.6272 11.6644 33.7276 10.564 35.1032 10.564C36.4787 10.564 37.5791 11.6644 37.5791 13.0399V27.7304ZM13.8652 13.8652C14.3054 13.8652 14.6905 13.4801 14.6905 13.0399V12.2146C14.6905 11.7744 14.3054 11.3893 13.8652 11.3893C13.425 11.3893 13.0399 11.7744 13.0399 12.2146V13.0399C13.0399 13.4801 13.425 13.8652 13.8652 13.8652ZM23.6589 13.8652C24.099 13.8652 24.4842 13.4801 24.4842 13.0399V12.2146C24.4842 11.7744 24.099 11.3893 23.6589 11.3893C23.2187 11.3893 22.8336 11.7744 22.8336 12.2146V13.0399C22.8336 13.4801 23.2187 13.8652 23.6589 13.8652ZM23.6589 9.79367H25.3095C25.7497 9.79367 26.1348 9.40853 26.1348 9.02338C26.1348 4.95186 22.7785 1.65062 18.762 1.65062C14.7455 1.65062 11.4443 4.95186 11.3893 8.96836C11.3893 9.40853 11.7744 9.79367 12.2146 9.79367H13.8652C14.9106 9.79367 15.8459 10.5089 16.1761 11.4443H21.348C21.6781 10.4539 22.6135 9.79367 23.6589 9.79367ZM105.908 10.3989C105.413 10.3989 104.697 10.564 104.147 10.9491C104.092 11.0042 104.037 11.0042 103.982 10.9491C103.927 10.8941 103.872 10.8391 103.872 10.7841V6.65752C103.872 6.54748 103.817 6.49246 103.707 6.49246H101.891C101.781 6.49246 101.726 6.54748 101.726 6.65752V17.3865C101.726 17.4966 101.781 17.5516 101.891 17.5516H103.707C103.817 17.5516 103.872 17.4966 103.872 17.3865V13.8102C103.872 12.4897 105.138 12.3797 105.358 12.3797C105.963 12.3797 106.678 12.8198 106.678 13.7002V17.3865C106.678 17.4966 106.733 17.5516 106.843 17.5516H108.659C108.769 17.5516 108.824 17.4966 108.824 17.3865V13.6451C108.879 11.6094 107.779 10.3989 105.908 10.3989ZM75.3714 6.54747H73.5557C73.4457 6.54747 73.3907 6.60249 73.3907 6.71253V10.7841C73.3907 10.8391 73.3356 10.8941 73.2806 10.9491C73.2439 10.9858 73.2073 10.9736 73.1706 10.9613C73.1522 10.9552 73.1339 10.9491 73.1156 10.9491C72.6754 10.619 72.0152 10.4539 71.3549 10.4539C69.2641 10.4539 67.7235 12.0495 67.7235 14.1403C67.7235 16.2311 69.2641 17.8267 71.3549 17.8267C72.0152 17.8267 72.6754 17.6616 73.1156 17.3315C73.1706 17.2765 73.2256 17.2765 73.2806 17.3315C73.3356 17.3865 73.3907 17.4416 73.3907 17.4966V17.5516C73.3907 17.6616 73.4457 17.7167 73.5557 17.7167H75.3714C75.4814 17.7167 75.5365 17.6616 75.5365 17.5516V6.71253C75.5365 6.60249 75.4814 6.54747 75.3714 6.54747ZM71.63 15.7359C70.6396 15.7359 69.9794 15.0206 69.9794 14.0303C69.9794 13.0949 70.6947 12.3797 71.63 12.3797C72.4553 12.3797 73.3356 12.9299 73.3356 14.0303C73.3356 15.0206 72.6204 15.7359 71.63 15.7359ZM51.3824 11.3343C52.0426 10.564 52.8679 10.3989 53.4732 10.3989C55.2338 10.3989 56.3342 11.6094 56.2792 13.4801V17.3315C56.2792 17.4416 56.2242 17.4966 56.1142 17.4966H54.2985C54.1884 17.4966 54.1334 17.4416 54.1334 17.3315V13.6452C54.1334 12.8198 53.6932 12.3247 52.978 12.3247C52.2077 12.3247 51.7125 12.8749 51.7125 13.7552V17.3315C51.7125 17.4416 51.6575 17.4966 51.5474 17.4966H49.7318C49.6217 17.4966 49.5667 17.4416 49.5667 17.3315V13.6452C49.5667 12.8749 49.1265 12.3797 48.4663 12.3797C48.0811 12.3797 47.2008 12.5447 47.2008 13.8102V17.3866C47.2008 17.4966 47.1458 17.5516 47.0358 17.5516H45.2201C45.11 17.5516 45.055 17.4966 45.055 17.3866V10.674C45.055 10.564 45.11 10.509 45.2201 10.509H47.0358C47.1458 10.509 47.2008 10.564 47.2008 10.674V10.7291C47.2008 10.7841 47.2558 10.8391 47.3108 10.8941C47.3659 10.9491 47.4209 10.9491 47.4759 10.8941C47.8611 10.564 48.4663 10.3989 49.0165 10.3989C50.0619 10.454 50.7221 10.7841 51.1623 11.3343C51.1623 11.3893 51.2173 11.3893 51.2723 11.3893C51.2723 11.3893 51.3274 11.3893 51.3824 11.3343ZM63.8171 10.564H65.6327C65.7428 10.564 65.7978 10.619 65.7978 10.7291V17.5516C65.7978 17.6617 65.7428 17.7167 65.6327 17.7167H63.8171C63.707 17.7167 63.652 17.6617 63.652 17.5516V17.4966C63.652 17.4416 63.597 17.3865 63.542 17.3315C63.4869 17.2765 63.4319 17.2765 63.3769 17.3315C62.7717 17.7167 62.0564 17.8267 61.6162 17.8267C59.8006 17.8267 57.8748 16.5062 57.8748 14.1403C57.8748 11.7194 59.8006 10.4539 61.6162 10.4539C62.2215 10.4539 62.8817 10.619 63.3769 10.9491C63.3952 10.9491 63.4136 10.9552 63.4319 10.9614C63.4686 10.9736 63.5053 10.9858 63.542 10.9491C63.597 10.8941 63.652 10.8391 63.652 10.7841V10.7291C63.652 10.619 63.707 10.564 63.8171 10.564ZM60.1307 14.0853C60.1307 15.1307 61.066 15.7359 61.8913 15.7359C62.7167 15.7359 63.597 15.1307 63.652 14.0853C63.652 13.0399 62.7167 12.4347 61.8913 12.4347C61.011 12.4347 60.1307 13.0399 60.1307 14.0853ZM78.1775 16.5613C78.1775 15.901 78.7277 15.3508 79.3879 15.3508C80.1032 15.3508 80.6534 15.846 80.5984 16.5613C80.5984 17.2215 80.0482 17.7717 79.3879 17.7717C78.7277 17.7717 78.1775 17.2215 78.1775 16.5613ZM90.9423 10.564H85.8253C85.7153 10.564 85.6603 10.509 85.6603 10.3989V9.84871C85.6603 8.69327 86.2105 8.58323 86.5956 8.58323H87.2559C87.3659 8.58323 87.421 8.52821 87.421 8.41817V6.71253C87.421 6.60249 87.3659 6.54747 87.2559 6.54747H86.5956C84.5599 6.54747 83.4044 7.75792 83.4044 9.84871V10.3989C83.4044 10.509 83.3494 10.564 83.2394 10.564H82.0289C81.9189 10.564 81.8639 10.619 81.8639 10.729V12.1046C81.8639 12.2146 81.9189 12.2696 82.0289 12.2696H83.2394C83.3494 12.2696 83.4044 12.3246 83.4044 12.4347V17.4416C83.4044 17.5516 83.4595 17.6066 83.5695 17.6066H85.4402C85.5502 17.6066 85.6053 17.5516 85.6053 17.4416V12.4347C85.6053 12.3246 85.6603 12.2696 85.7703 12.2696H88.6864C88.7965 12.2696 88.8515 12.3246 88.8515 12.4347V17.4416C88.8515 17.5516 88.9065 17.6066 89.0165 17.6066H90.8322C90.9423 17.6066 90.9973 17.5516 90.9973 17.4416V10.729C91.1624 10.619 91.0523 10.564 90.9423 10.564ZM96.2242 13.1499L97.3796 13.425C99.0853 13.8652 99.3604 14.9106 99.4154 15.6258C99.4154 17.1114 97.8748 17.8267 96.3893 17.8267C95.0137 17.8267 93.4181 17.2214 93.3631 15.6809C93.3631 15.6575 93.3631 15.644 93.3673 15.6321C93.373 15.6159 93.3865 15.6025 93.4181 15.5708C93.4181 15.5158 93.4731 15.5158 93.5282 15.5158H95.2338C95.2888 15.5158 95.3989 15.5708 95.3989 15.6809C95.3989 16.066 95.729 16.3961 96.3342 16.3961C97.1045 16.3961 97.2146 15.901 97.2146 15.7359C97.2146 15.0206 95.619 14.7455 95.619 14.7455C93.6932 14.2503 93.5282 13.48 93.5282 12.7098C93.5282 11.6093 94.7386 10.2888 96.2792 10.2888C97.6547 10.2888 99.1403 10.8941 99.1953 12.5447C99.1953 12.5997 99.1953 12.5997 99.1403 12.6547C99.1403 12.7098 99.0853 12.7098 99.0302 12.7098H97.2696C97.2146 12.7098 97.1045 12.6547 97.1045 12.5447C97.0495 12.2146 96.7744 11.9945 96.3342 11.9945C96.2242 11.9945 95.9491 11.9945 95.784 12.1595C95.674 12.2696 95.619 12.3796 95.619 12.5447C95.619 12.9298 96.0041 13.1499 96.2242 13.1499ZM45 23.879V28.5007H46.3205V25.4746C46.3205 25.3645 46.3205 25.3095 46.3755 25.1995C46.4305 25.0894 46.4856 25.0344 46.5406 24.9794C46.57 24.9647 46.5956 24.9499 46.6192 24.9363L46.6193 24.9362C46.6841 24.8988 46.7351 24.8693 46.8157 24.8693C46.9257 24.8143 46.9807 24.8143 47.0908 24.8143C47.531 24.8143 47.751 25.0894 47.751 25.6947V28.5007H49.0715V25.4746C49.0715 25.2545 49.1265 25.0894 49.2916 24.9794C49.4567 24.8693 49.6217 24.8143 49.8418 24.8143C50.282 24.8143 50.5021 25.0894 50.5021 25.6947V28.5007H51.8226V25.5846C51.8226 24.9794 51.6575 24.5392 51.4374 24.2091C51.1623 23.879 50.8322 23.7139 50.392 23.7139C50.227 23.7139 50.0619 23.7139 49.8968 23.7689C49.7318 23.824 49.5667 23.879 49.4567 23.989C49.3343 24.0298 49.2724 24.1009 49.2037 24.1798C49.1797 24.2073 49.155 24.2357 49.1265 24.2641C49.0991 24.3191 49.0716 24.3878 49.0441 24.4566L49.044 24.4567C49.0165 24.5255 48.989 24.5942 48.9615 24.6493C48.8514 24.3191 48.6864 24.0991 48.4663 23.934C48.2462 23.7689 47.9711 23.7139 47.641 23.7139C47.3109 23.7139 47.0358 23.824 46.8157 23.989C46.5956 24.2091 46.4856 24.3742 46.3755 24.6493H46.3205V23.879H45ZM56.3893 28.5557C56.1692 28.5557 55.9491 28.5007 55.784 28.3356C55.619 28.1706 55.5089 28.0055 55.5089 27.7304H55.4539C55.3989 28.0055 55.2338 28.2806 54.9587 28.4457C54.7387 28.6108 54.4085 28.6658 54.0784 28.6658C53.5832 28.6658 53.2531 28.5557 52.978 28.2806C52.7029 28.0055 52.5928 27.7304 52.5928 27.2903C52.5928 26.7951 52.7579 26.4099 53.1431 26.1898C53.5282 25.9698 53.9684 25.8047 54.6286 25.8047H55.3439V25.5296C55.3439 25.3095 55.2889 25.1445 55.1788 24.9794C55.0688 24.8693 54.8487 24.7593 54.5736 24.7593C54.2985 24.7593 54.0784 24.8143 53.9684 24.9244C53.8033 25.0344 53.6933 25.1445 53.5832 25.3095L52.8129 24.5942C52.978 24.3191 53.2531 24.0991 53.5282 23.934C53.8033 23.7689 54.1884 23.7139 54.6836 23.7139C55.3439 23.7139 55.8391 23.879 56.1692 24.1541C56.4993 24.4292 56.6644 24.8693 56.6644 25.4196V27.5103H57.1045V28.5557H56.3893ZM54.5736 27.7304C54.7937 27.7304 54.9587 27.6754 55.1238 27.5654C55.2889 27.4553 55.3439 27.3453 55.3439 27.1252V26.575H54.6836C54.1884 26.575 53.9133 26.74 53.9133 27.0702V27.1802C53.9133 27.3453 53.9684 27.4553 54.0784 27.5654C54.1884 27.6754 54.3535 27.7304 54.5736 27.7304ZM60.6259 28.0606C60.7359 27.9505 60.791 27.8405 60.846 27.7304V28.5007H62.1665V21.9533H60.846V24.6493H60.791C60.7359 24.3742 60.5709 24.1541 60.3508 23.989C60.0757 23.824 59.8006 23.7139 59.5255 23.7139C58.9753 23.7139 58.4801 23.879 58.205 24.3192C57.9299 24.7593 57.7648 25.3646 57.7648 26.1348C57.7648 26.9051 57.9299 27.5104 58.205 27.9505C58.4801 28.3357 58.9202 28.5558 59.5255 28.5558C59.6905 28.5558 59.8006 28.5558 59.9656 28.5007C60.0853 28.5007 60.1761 28.4429 60.2589 28.3901L60.2589 28.39C60.2903 28.3701 60.3206 28.3508 60.3508 28.3357C60.4608 28.2806 60.5709 28.1706 60.6259 28.0606ZM60.5709 27.4003C60.4058 27.5104 60.2407 27.5654 59.9656 27.5654C59.7456 27.5654 59.5255 27.5104 59.3604 27.4003C59.1954 27.2353 59.1403 26.9602 59.1403 26.6851V25.8597C59.1403 25.5296 59.1954 25.3095 59.3604 25.1445C59.5255 24.9794 59.6905 24.8694 59.9656 24.8694C60.1857 24.8694 60.4058 24.9244 60.5709 25.0344C60.7359 25.1445 60.791 25.3095 60.791 25.5296V26.9051C60.791 27.1252 60.7359 27.2903 60.5709 27.4003ZM65.3026 28.6657C64.9725 28.6657 64.6424 28.6107 64.3673 28.5007C64.0922 28.3906 63.8721 28.2256 63.652 28.0055C63.4319 27.7854 63.3219 27.5653 63.2119 27.2352C63.1018 26.9601 63.0468 26.575 63.0468 26.2448C63.0468 25.8597 63.1018 25.5296 63.2119 25.2545C63.3219 24.9794 63.4319 24.7043 63.652 24.4842C63.8171 24.2641 64.0922 24.099 64.3673 23.989C64.6424 23.8789 64.9725 23.8239 65.3026 23.8239C65.6878 23.8239 66.0179 23.879 66.293 24.044C66.5681 24.1541 66.7882 24.3741 66.9533 24.5942C67.1183 24.8143 67.2284 25.0893 67.3384 25.3644L67.3384 25.3645C67.3934 25.6396 67.4485 25.9697 67.4485 26.2448V26.63H64.4773V26.685C64.4773 27.0151 64.5874 27.2352 64.7524 27.4003C64.9175 27.5653 65.1926 27.6754 65.5227 27.6754C65.7978 27.6754 66.0179 27.6204 66.183 27.5103C66.3481 27.4003 66.5131 27.2902 66.6782 27.1252L67.3384 27.9505C67.1183 28.1706 66.8432 28.3906 66.5131 28.5007C66.3923 28.5179 66.2715 28.5406 66.1489 28.5636C65.8809 28.6139 65.6047 28.6657 65.3026 28.6657ZM65.3026 24.7593C65.0275 24.7593 64.8075 24.8693 64.6974 25.0344C64.5324 25.1994 64.4773 25.4195 64.4773 25.7497V25.8047H66.128V25.7497C66.128 25.4745 66.0729 25.2545 65.9629 25.0344C65.7428 24.8143 65.5778 24.7593 65.3026 24.7593ZM71.2999 23.879H70.0344L71.465 28.5558H72.8405L73.3907 26.575L73.7208 25.3646L74.0509 26.575L74.6011 28.5558H75.9766L77.2421 23.879H76.0317L75.5915 25.7497L75.2614 27.1803H75.2064L74.8212 25.7497L74.271 23.879H73.0605L72.5103 25.7497L72.1252 27.1803H72.0702L71.7401 25.7497L71.2999 23.879ZM78.6176 23.3838C78.3425 23.3838 78.1774 23.3288 78.0124 23.2188C77.9023 23.1087 77.8473 22.9436 77.8473 22.7786V22.5585C77.8473 22.3934 77.9023 22.2284 78.0124 22.1183C78.1224 22.0083 78.3425 21.9533 78.6176 21.9533C78.8927 21.9533 79.0577 22.0083 79.2228 22.1183C79.3328 22.2284 79.3879 22.3934 79.3879 22.5585V22.7786C79.3879 22.9436 79.3328 23.1087 79.2228 23.2188C79.0577 23.3288 78.8927 23.3838 78.6176 23.3838ZM79.2778 23.879V28.5558H77.9573V23.879H79.2778ZM81.0935 28.2256C81.3136 28.4457 81.6987 28.5557 82.1389 28.5557H82.9642V27.5103H82.0839V24.9794H83.0192V23.934H82.0839V22.6685H80.9285V23.4388C80.9285 23.6039 80.8734 23.7139 80.8184 23.824C80.7084 23.879 80.5983 23.934 80.4333 23.934H80.1031V24.9794H80.7634V27.2352C80.7634 27.6754 80.8734 28.0055 81.0935 28.2256ZM83.8996 21.9533H85.2201V24.6493H85.2751C85.3852 24.4292 85.4952 24.2091 85.7153 24.0441C85.9354 23.879 86.2105 23.769 86.5956 23.769C87.0908 23.769 87.4209 23.934 87.696 24.2641C87.9161 24.5943 88.0812 25.0344 88.0812 25.6397V28.5558H86.7057V25.7497C86.7057 25.4746 86.6507 25.1995 86.5406 25.0895C86.4306 24.9244 86.2655 24.8694 86.0454 24.8694C85.9354 24.8694 85.8253 24.8694 85.7153 24.9244C85.6603 24.9519 85.619 24.9657 85.5777 24.9794L85.5777 24.9794C85.5364 24.9932 85.4952 25.0069 85.4402 25.0344C85.4272 25.0474 85.4111 25.0604 85.3942 25.0741C85.3394 25.1185 85.2751 25.1705 85.2751 25.2545C85.2201 25.3645 85.2201 25.4196 85.2201 25.5296V28.5558H83.8996V21.9533Z" fill="#ED3D25"/>
    <path d="M98.0952 21.8433C97.4349 21.8433 96.8297 22.1184 96.4445 22.6135C96.0594 22.1734 95.4542 21.8433 94.7939 21.8433C93.5835 21.8433 92.5381 22.8336 92.5381 24.0991C92.5381 26.9602 96.4445 28.8859 96.4445 28.8859C96.4445 28.8859 100.351 27.0702 100.351 24.0991C100.351 22.8336 99.3606 21.8433 98.0952 21.8433Z" fill="#EA2424"/>
</svg>
