<svg width="24" height="24" viewBox="0 0 24 24" fill="none" xmlns="http://www.w3.org/2000/svg">
    <path d="M6.16895 11.1963C6.59277 11.1963 6.90723 10.8887 6.90723 10.458V9.96582L6.75684 7.81934L8.35645 9.50098L10.3252 11.4834C10.4688 11.6338 10.6533 11.7021 10.8516 11.7021C11.3096 11.7021 11.6377 11.3945 11.6377 10.9365C11.6377 10.7246 11.5557 10.54 11.4121 10.3965L9.43652 8.4209L7.74805 6.82129L9.91504 6.96484H10.4414C10.8652 6.96484 11.1865 6.65723 11.1865 6.22656C11.1865 5.7959 10.8721 5.48145 10.4414 5.48145H6.64746C5.86816 5.48145 5.41699 5.93262 5.41699 6.71875V10.458C5.41699 10.8818 5.73828 11.1963 6.16895 11.1963ZM13.5518 18.6543H17.3389C18.125 18.6543 18.5762 18.2031 18.5762 17.417V13.6777C18.5762 13.2539 18.2549 12.9395 17.8242 12.9395C17.4004 12.9395 17.0859 13.2471 17.0859 13.6777V14.1699L17.2295 16.3164L15.6299 14.6348L13.6611 12.6523C13.5244 12.502 13.3398 12.4336 13.1416 12.4336C12.6836 12.4336 12.3555 12.7412 12.3555 13.1992C12.3555 13.4111 12.4307 13.5957 12.5742 13.7393L14.5566 15.7148L16.2383 17.3145L14.0781 17.1709H13.5518C13.1279 17.1709 12.8066 17.4785 12.8066 17.9092C12.8066 18.3398 13.1211 18.6543 13.5518 18.6543Z" fill="#ED3D25"/>
</svg>
