<svg width="32" height="32" viewBox="0 0 32 32" fill="none" xmlns="http://www.w3.org/2000/svg">
    <rect width="32" height="32" rx="11" fill="#141920"/>
    <rect x="1" y="1" width="30" height="30" rx="10" stroke="#2F3238" stroke-width="2"/>
    <g clip-path="url(#clip0_7121_48047)">
        <path d="M15.6992 18.8945L16.7383 17.8486C15.918 17.7734 15.3438 17.5137 14.9199 17.0898C13.7646 15.9346 13.7646 14.2939 14.9131 13.1455L17.1826 10.876C18.3379 9.7207 19.9717 9.7207 21.127 10.876C22.2891 12.0449 22.2822 13.6719 21.1338 14.8203L19.958 15.9961C20.1768 16.4951 20.2451 17.1035 20.1289 17.6299L22.0908 15.6748C23.7725 14 23.7793 11.6211 22.084 9.92578C20.3887 8.22363 18.0098 8.2373 16.335 9.91211L13.9561 12.2979C12.2812 13.9727 12.2676 16.3516 13.9629 18.0469C14.3662 18.4434 14.9062 18.7441 15.6992 18.8945ZM16.3008 13.1318L15.2686 14.1777C16.082 14.2529 16.6631 14.5195 17.0801 14.9365C18.2422 16.0986 18.2422 17.7324 17.0869 18.8809L14.8174 21.1504C13.6621 22.3057 12.0352 22.3057 10.873 21.1504C9.71094 19.9883 9.71777 18.3545 10.873 17.2061L12.042 16.0303C11.8301 15.5312 11.7549 14.9297 11.8711 14.3965L9.91602 16.3516C8.23438 18.0264 8.22754 20.4121 9.92285 22.1074C11.6182 23.8027 13.9971 23.7891 15.6719 22.1143L18.0439 19.7354C19.7256 18.0537 19.7324 15.6748 18.0371 13.9863C17.6406 13.583 17.1006 13.2822 16.3008 13.1318Z" fill="#727B93"/>
    </g>
    <defs>
        <clipPath id="clip0_7121_48047">
            <rect width="24" height="24" fill="white" transform="translate(4 4)"/>
        </clipPath>
    </defs>
</svg>
