<svg width="24" height="24" viewBox="0 0 24 24" fill="none" xmlns="http://www.w3.org/2000/svg">
    <path d="M5.46094 16.8047H6.96387V18.1494C6.96387 19.96 7.87793 20.874 9.72363 20.874H18.5479C20.376 20.874 21.2988 19.96 21.2988 18.1494V9.25488C21.2988 7.44434 20.376 6.53027 18.5479 6.53027H17.0361V5.18555C17.0361 3.375 16.1133 2.46094 14.2852 2.46094H5.46094C3.61523 2.46094 2.70117 3.375 2.70117 5.18555V14.0801C2.70117 15.8906 3.61523 16.8047 5.46094 16.8047ZM5.47852 15.3896C4.59961 15.3896 4.11621 14.915 4.11621 14.001V5.26465C4.11621 4.35059 4.59961 3.87598 5.47852 3.87598H14.2588C15.1289 3.87598 15.6211 4.35059 15.6211 5.26465V6.53027H9.72363C7.87793 6.53027 6.96387 7.43555 6.96387 9.25488V15.3896H5.47852ZM9.74121 19.459C8.87109 19.459 8.37891 18.9844 8.37891 18.0703V9.33398C8.37891 8.41992 8.87109 7.94531 9.74121 7.94531H18.5215C19.3916 7.94531 19.8838 8.41992 19.8838 9.33398V18.0703C19.8838 18.9844 19.3916 19.459 18.5215 19.459H9.74121ZM10.0664 13.7021C10.0664 14.1328 10.374 14.4229 10.8223 14.4229H13.4062V17.0156C13.4062 17.4551 13.6963 17.7627 14.127 17.7627C14.5664 17.7627 14.874 17.4639 14.874 17.0156V14.4229H17.4668C17.9062 14.4229 18.2139 14.1328 18.2139 13.7021C18.2139 13.2627 17.9062 12.9551 17.4668 12.9551H14.874V10.3711C14.874 9.92285 14.5664 9.61523 14.127 9.61523C13.6963 9.61523 13.4062 9.92285 13.4062 10.3711V12.9551H10.8223C10.3652 12.9551 10.0664 13.2627 10.0664 13.7021Z" fill="#ED3D25"/>
</svg>
