<svg width="158" height="158" viewBox="0 0 158 158" fill="none" xmlns="http://www.w3.org/2000/svg">
<path d="M0.496457 23.3844C0.189004 21.1968 1.7132 19.1741 3.90084 18.8667L134.616 0.495824C136.804 0.188371 138.827 1.71256 139.134 3.9002L157.505 134.616C157.812 136.803 156.288 138.826 154.1 139.133L23.3851 157.504C21.1974 157.812 19.1748 156.287 18.8673 154.1L0.496457 23.3844Z" fill="#727B93"/>
<path d="M4.56743 18.044C4.41333 15.8402 6.0749 13.9288 8.27866 13.7747L139.957 4.56681C142.161 4.41271 144.072 6.07429 144.226 8.27805L153.434 139.956C153.588 142.16 151.927 144.072 149.723 144.226L18.0446 153.434C15.8408 153.588 13.9294 151.926 13.7753 149.722L4.56743 18.044Z" fill="#2F3238"/>
<path d="M9.00067 13C9.00067 10.7909 10.7915 9 13.0007 9H145.001C147.21 9 149.001 10.7909 149.001 13V145C149.001 147.209 147.21 149 145.001 149H13.0007C10.7915 149 9.00067 147.209 9.00067 145V13Z" fill="#252934"/>
</svg>
