<svg width="164" height="164" viewBox="0 0 164 164" fill="none" xmlns="http://www.w3.org/2000/svg">
<path d="M0.0411607 23.9375C-0.279822 21.6536 1.31145 19.5419 3.59535 19.2209L140.063 0.0416489C142.347 -0.279333 144.459 1.31193 144.78 3.59584L163.959 140.063C164.28 142.347 162.689 144.459 160.405 144.78L23.937 163.959C21.6531 164.28 19.5414 162.689 19.2204 160.405L0.0411607 23.9375Z" fill="#727B93"/>
<path d="M4.29128 18.362C4.1304 16.0613 5.86509 14.0657 8.16583 13.9048L145.639 4.29179C147.94 4.13091 149.935 5.8656 150.096 8.16633L159.709 145.639C159.87 147.94 158.135 149.936 155.835 150.097L18.3615 159.71C16.0608 159.871 14.0652 158.136 13.9043 155.835L4.29128 18.362Z" fill="#2F3238"/>
<path d="M8.91961 13.0961C8.91961 10.7897 10.7893 8.92006 13.0956 8.92006H150.904C153.211 8.92006 155.08 10.7897 155.08 13.0961V150.905C155.08 153.211 153.211 155.081 150.904 155.081H13.0956C10.7893 155.081 8.91961 153.211 8.91961 150.905V13.0961Z" fill="#252934"/>
</svg>
