<svg width="24" height="24" viewBox="0 0 24 24" fill="currentColor" xmlns="http://www.w3.org/2000/svg">
<path d="M11.7363 20.6455C12.0967 20.6455 12.3867 20.3818 12.5098 20.1357L7.79004 11.9883C7.71973 11.8652 7.66699 11.751 7.66699 11.6543C7.66699 11.5576 7.71973 11.4434 7.79004 11.3203L12.5098 3.17285C12.3867 2.92676 12.0967 2.66309 11.7363 2.66309C11.4639 2.66309 11.1562 2.82129 10.9629 3.14648L6.50684 10.6963C6.27832 11.0654 6.12891 11.3291 6.12891 11.6543C6.12891 11.9707 6.27832 12.2432 6.50684 12.6123L10.9717 20.1621C11.1738 20.4961 11.4639 20.6455 11.7363 20.6455ZM16.1309 20.6367C16.6143 20.6367 16.9307 20.3555 17.3438 19.6523L21.3516 12.7705C21.5977 12.3486 21.7119 12.0059 21.7119 11.6543C21.7119 11.2939 21.5977 10.96 21.3516 10.5381L17.3438 3.65625C16.9307 2.95312 16.6143 2.67188 16.1309 2.67188C15.6475 2.67188 15.3311 2.95312 14.9092 3.65625L10.9102 10.5381C10.6553 10.96 10.5498 11.2939 10.5498 11.6543C10.5498 12.0059 10.6641 12.3486 10.9102 12.7705L14.9092 19.6523C15.3311 20.3555 15.6475 20.6367 16.1309 20.6367ZM7.43848 3.99023C7.75488 3.99023 8.00977 3.73535 8.00977 3.41895C8.00977 3.09375 7.75488 2.83887 7.43848 2.83887C7.11328 2.83887 6.8584 3.09375 6.8584 3.41895C6.8584 3.73535 7.11328 3.99023 7.43848 3.99023ZM6.52441 5.61621C6.84961 5.61621 7.10449 5.36133 7.10449 5.04492C7.10449 4.71973 6.84961 4.46484 6.52441 4.46484C6.20801 4.46484 5.95312 4.71973 5.95312 5.04492C5.95312 5.36133 6.20801 5.61621 6.52441 5.61621ZM16.1309 18.7998C16.0869 18.7998 16.0605 18.7734 16.043 18.7295L12.2109 12.041C12.123 11.9004 12.0791 11.7773 12.0791 11.6543C12.0791 11.5312 12.123 11.4082 12.2021 11.2676L16.043 4.57031C16.0605 4.53516 16.0869 4.50879 16.1309 4.50879C16.1748 4.50879 16.1924 4.53516 16.2188 4.57031L20.0508 11.2676C20.1387 11.4082 20.1738 11.5312 20.1738 11.6543C20.1738 11.7773 20.1387 11.9004 20.0508 12.041L16.2188 18.7295C16.1924 18.7734 16.1748 18.7998 16.1309 18.7998ZM5.61035 7.25977C5.93555 7.25977 6.19043 6.99609 6.19043 6.67969C6.19043 6.36328 5.93555 6.09961 5.61035 6.09961C5.29395 6.09961 5.03906 6.36328 5.03906 6.67969C5.03906 6.99609 5.29395 7.25977 5.61035 7.25977ZM4.6875 8.87695C5.0127 8.87695 5.26758 8.62207 5.26758 8.29688C5.26758 7.98047 5.0127 7.72559 4.6875 7.72559C4.37109 7.72559 4.11621 7.98047 4.11621 8.29688C4.11621 8.62207 4.37109 8.87695 4.6875 8.87695ZM3.78223 10.5117C4.09863 10.5117 4.35352 10.2568 4.35352 9.94043C4.35352 9.61523 4.09863 9.36035 3.78223 9.36035C3.46582 9.36035 3.20215 9.61523 3.20215 9.94043C3.20215 10.2568 3.46582 10.5117 3.78223 10.5117ZM2.86816 12.1377C3.18457 12.1377 3.43945 11.8828 3.43945 11.5664C3.43945 11.2412 3.18457 10.9863 2.86816 10.9863C2.54297 10.9863 2.28809 11.2412 2.28809 11.5664C2.28809 11.8828 2.54297 12.1377 2.86816 12.1377ZM3.78223 13.7637C4.09863 13.7637 4.35352 13.5088 4.35352 13.1924C4.35352 12.8672 4.09863 12.6123 3.78223 12.6123C3.46582 12.6123 3.20215 12.8672 3.20215 13.1924C3.20215 13.5088 3.46582 13.7637 3.78223 13.7637ZM4.6875 15.4072C5.0127 15.4072 5.26758 15.1436 5.26758 14.8271C5.26758 14.5107 5.0127 14.2471 4.6875 14.2471C4.37109 14.2471 4.11621 14.5107 4.11621 14.8271C4.11621 15.1436 4.37109 15.4072 4.6875 15.4072ZM5.61035 17.0244C5.93555 17.0244 6.19043 16.7607 6.19043 16.4443C6.19043 16.1279 5.93555 15.8643 5.61035 15.8643C5.29395 15.8643 5.03906 16.1279 5.03906 16.4443C5.03906 16.7607 5.29395 17.0244 5.61035 17.0244ZM6.52441 18.6504C6.84961 18.6504 7.10449 18.3955 7.10449 18.0703C7.10449 17.7539 6.84961 17.499 6.52441 17.499C6.20801 17.499 5.95312 17.7539 5.95312 18.0703C5.95312 18.3955 6.20801 18.6504 6.52441 18.6504ZM7.43848 20.2852C7.75488 20.2852 8.00977 20.0303 8.00977 19.7051C8.00977 19.3799 7.75488 19.125 7.43848 19.125C7.11328 19.125 6.8584 19.3799 6.8584 19.7051C6.8584 20.0303 7.11328 20.2852 7.43848 20.2852Z" fill="#ED3D25"/>
</svg>
