<svg width="20" height="19" viewBox="0 0 20 19" fill="none" xmlns="http://www.w3.org/2000/svg">
<path d="M9.73633 18.6455C10.0967 18.6455 10.3867 18.3818 10.5098 18.1357L5.79004 9.98828C5.71973 9.86523 5.66699 9.75098 5.66699 9.6543C5.66699 9.55762 5.71973 9.44336 5.79004 9.32031L10.5098 1.17285C10.3867 0.926758 10.0967 0.663086 9.73633 0.663086C9.46387 0.663086 9.15625 0.821289 8.96289 1.14648L4.50684 8.69629C4.27832 9.06543 4.12891 9.3291 4.12891 9.6543C4.12891 9.9707 4.27832 10.2432 4.50684 10.6123L8.97168 18.1621C9.17383 18.4961 9.46387 18.6455 9.73633 18.6455ZM14.1309 18.6367C14.6143 18.6367 14.9307 18.3555 15.3438 17.6523L19.3516 10.7705C19.5977 10.3486 19.7119 10.0059 19.7119 9.6543C19.7119 9.29395 19.5977 8.95996 19.3516 8.53809L15.3438 1.65625C14.9307 0.953125 14.6143 0.671875 14.1309 0.671875C13.6475 0.671875 13.3311 0.953125 12.9092 1.65625L8.91016 8.53809C8.65527 8.95996 8.5498 9.29395 8.5498 9.6543C8.5498 10.0059 8.66406 10.3486 8.91016 10.7705L12.9092 17.6523C13.3311 18.3555 13.6475 18.6367 14.1309 18.6367ZM5.43848 1.99023C5.75488 1.99023 6.00977 1.73535 6.00977 1.41895C6.00977 1.09375 5.75488 0.838867 5.43848 0.838867C5.11328 0.838867 4.8584 1.09375 4.8584 1.41895C4.8584 1.73535 5.11328 1.99023 5.43848 1.99023ZM4.52441 3.61621C4.84961 3.61621 5.10449 3.36133 5.10449 3.04492C5.10449 2.71973 4.84961 2.46484 4.52441 2.46484C4.20801 2.46484 3.95312 2.71973 3.95312 3.04492C3.95312 3.36133 4.20801 3.61621 4.52441 3.61621ZM14.1309 16.7998C14.0869 16.7998 14.0605 16.7734 14.043 16.7295L10.2109 10.041C10.123 9.90039 10.0791 9.77734 10.0791 9.6543C10.0791 9.53125 10.123 9.4082 10.2021 9.26758L14.043 2.57031C14.0605 2.53516 14.0869 2.50879 14.1309 2.50879C14.1748 2.50879 14.1924 2.53516 14.2188 2.57031L18.0508 9.26758C18.1387 9.4082 18.1738 9.53125 18.1738 9.6543C18.1738 9.77734 18.1387 9.90039 18.0508 10.041L14.2188 16.7295C14.1924 16.7734 14.1748 16.7998 14.1309 16.7998ZM3.61035 5.25977C3.93555 5.25977 4.19043 4.99609 4.19043 4.67969C4.19043 4.36328 3.93555 4.09961 3.61035 4.09961C3.29395 4.09961 3.03906 4.36328 3.03906 4.67969C3.03906 4.99609 3.29395 5.25977 3.61035 5.25977ZM2.6875 6.87695C3.0127 6.87695 3.26758 6.62207 3.26758 6.29688C3.26758 5.98047 3.0127 5.72559 2.6875 5.72559C2.37109 5.72559 2.11621 5.98047 2.11621 6.29688C2.11621 6.62207 2.37109 6.87695 2.6875 6.87695ZM1.78223 8.51172C2.09863 8.51172 2.35352 8.25684 2.35352 7.94043C2.35352 7.61523 2.09863 7.36035 1.78223 7.36035C1.46582 7.36035 1.20215 7.61523 1.20215 7.94043C1.20215 8.25684 1.46582 8.51172 1.78223 8.51172ZM0.868164 10.1377C1.18457 10.1377 1.43945 9.88281 1.43945 9.56641C1.43945 9.24121 1.18457 8.98633 0.868164 8.98633C0.542969 8.98633 0.288086 9.24121 0.288086 9.56641C0.288086 9.88281 0.542969 10.1377 0.868164 10.1377ZM1.78223 11.7637C2.09863 11.7637 2.35352 11.5088 2.35352 11.1924C2.35352 10.8672 2.09863 10.6123 1.78223 10.6123C1.46582 10.6123 1.20215 10.8672 1.20215 11.1924C1.20215 11.5088 1.46582 11.7637 1.78223 11.7637ZM2.6875 13.4072C3.0127 13.4072 3.26758 13.1436 3.26758 12.8271C3.26758 12.5107 3.0127 12.2471 2.6875 12.2471C2.37109 12.2471 2.11621 12.5107 2.11621 12.8271C2.11621 13.1436 2.37109 13.4072 2.6875 13.4072ZM3.61035 15.0244C3.93555 15.0244 4.19043 14.7607 4.19043 14.4443C4.19043 14.1279 3.93555 13.8643 3.61035 13.8643C3.29395 13.8643 3.03906 14.1279 3.03906 14.4443C3.03906 14.7607 3.29395 15.0244 3.61035 15.0244ZM4.52441 16.6504C4.84961 16.6504 5.10449 16.3955 5.10449 16.0703C5.10449 15.7539 4.84961 15.499 4.52441 15.499C4.20801 15.499 3.95312 15.7539 3.95312 16.0703C3.95312 16.3955 4.20801 16.6504 4.52441 16.6504ZM5.43848 18.2852C5.75488 18.2852 6.00977 18.0303 6.00977 17.7051C6.00977 17.3799 5.75488 17.125 5.43848 17.125C5.11328 17.125 4.8584 17.3799 4.8584 17.7051C4.8584 18.0303 5.11328 18.2852 5.43848 18.2852Z" fill="#ED3D25"/>
</svg>
