<svg width="24" height="24" viewBox="0 0 24 24" fill="none" xmlns="http://www.w3.org/2000/svg">
    <g clip-path="url(#clip0_10714_40766)">
        <path d="M6.12109 19.4678H13.4014C14.8643 19.4678 15.623 18.7021 15.623 17.2256V14.1494H14.2832V17.1436C14.2832 17.7793 13.9482 18.1279 13.2852 18.1279H6.23047C5.56738 18.1279 5.23926 17.7793 5.23926 17.1436V6.99219C5.23926 6.35645 5.56738 6.00781 6.23047 6.00781H13.2852C13.9482 6.00781 14.2832 6.35645 14.2832 6.99219V9.99316H15.623V6.91016C15.623 5.44043 14.8643 4.66797 13.4014 4.66797H6.12109C4.6582 4.66797 3.89941 5.44043 3.89941 6.91016V17.2256C3.89941 18.7021 4.6582 19.4678 6.12109 19.4678ZM10.5234 12.6934H17.4141L18.4258 12.6455L17.9268 13.0693L16.9082 14.0264C16.7852 14.1357 16.7168 14.293 16.7168 14.4502C16.7168 14.7578 16.9492 15.0176 17.2637 15.0176C17.4277 15.0176 17.5508 14.9492 17.667 14.833L19.8818 12.543C20.0391 12.3789 20.0938 12.2285 20.0938 12.0645C20.0938 11.9004 20.0391 11.75 19.8818 11.5859L17.667 9.28906C17.5508 9.17285 17.4277 9.11133 17.2637 9.11133C16.9492 9.11133 16.7168 9.35742 16.7168 9.67188C16.7168 9.82227 16.7852 9.98633 16.9082 10.0957L17.9268 11.0596L18.4326 11.4834L17.4141 11.4287H10.5234C10.1885 11.4287 9.90137 11.7158 9.90137 12.0645C9.90137 12.4131 10.1885 12.6934 10.5234 12.6934Z" fill="#ED3D25"/>
    </g>
    <defs>
        <clipPath id="clip0_10714_40766">
            <rect width="24" height="24" fill="white"/>
        </clipPath>
    </defs>
</svg>
