<svg width="14" height="14" viewBox="0 0 14 14" fill="none" xmlns="http://www.w3.org/2000/svg">
<path d="M2.85742 13.4561H11.1357C12.6123 13.4561 13.3779 12.6904 13.3779 11.2344V2.91504C13.3779 1.45215 12.6123 0.693359 11.1357 0.693359H2.85742C1.38086 0.693359 0.615234 1.45215 0.615234 2.91504V11.2344C0.615234 12.6973 1.38086 13.4561 2.85742 13.4561ZM2.93945 12.1162C2.30371 12.1162 1.95508 11.7812 1.95508 11.1182V3.02441C1.95508 2.36133 2.30371 2.0332 2.93945 2.0332H11.0537C11.6826 2.0332 12.0381 2.36133 12.0381 3.02441V11.1182C12.0381 11.7812 11.6826 12.1162 11.0537 12.1162H2.93945ZM9.13281 8.8418C9.46777 8.8418 9.69336 8.58887 9.69336 8.22656V5.04785C9.69336 4.57617 9.42676 4.37109 9.00293 4.37109H5.80371C5.44141 4.37109 5.20215 4.58984 5.20215 4.9248C5.20215 5.2666 5.44141 5.48535 5.81055 5.48535H6.96582L7.90234 5.38281L6.89062 6.30566L4.49121 8.70508C4.375 8.82129 4.2998 8.97852 4.2998 9.14258C4.2998 9.50488 4.55273 9.7373 4.89453 9.7373C5.08594 9.7373 5.22949 9.67578 5.35938 9.55273L7.74512 7.16016L8.66797 6.15527L8.56543 7.13965V8.2334C8.56543 8.60938 8.79102 8.8418 9.13281 8.8418Z" fill="#ED3D25"/>
</svg>
