<svg width="22" height="16" viewBox="0 0 22 16" fill="none" xmlns="http://www.w3.org/2000/svg">
<path d="M3.43262 15.1689H18.5674C20.4131 15.1689 21.3271 14.2637 21.3271 12.4531V2.88184C21.3271 1.07129 20.4131 0.157227 18.5674 0.157227H3.43262C1.5957 0.157227 0.672852 1.07129 0.672852 2.88184V12.4531C0.672852 14.2637 1.5957 15.1689 3.43262 15.1689ZM3.4502 1.57227H10.4639V4.58691C9.89258 3.46191 8.89941 2.76758 7.79199 2.76758C6.53516 2.76758 5.58594 3.70801 5.58594 4.99121C5.58594 6.09863 6.36816 7.0127 7.47559 7.51367H2.08789V2.96094C2.08789 2.04688 2.57129 1.57227 3.4502 1.57227ZM14.5156 7.51367C15.6318 7.0127 16.4053 6.09863 16.4053 4.99121C16.4053 3.70801 15.4648 2.76758 14.1992 2.76758C13.1006 2.76758 12.1074 3.46191 11.5273 4.58691V1.57227H18.5498C19.4111 1.57227 19.9121 2.04688 19.9121 2.96094V7.51367H14.5156ZM10.042 7.38184C8.31055 7.38184 6.8252 6.19531 6.8252 5.08789C6.8252 4.41992 7.22949 4.01562 7.8623 4.01562C9.16309 4.01562 10.3057 5.46582 10.3057 7.13574V7.38184H10.042ZM11.9492 7.38184H11.6855V7.13574C11.6855 5.46582 12.8281 4.01562 14.1289 4.01562C14.7705 4.01562 15.166 4.41992 15.166 5.08789C15.166 6.19531 13.6895 7.38184 11.9492 7.38184ZM18.5498 13.7539H11.5273V9.0957H11.5977C12.1777 10.9062 14.3486 12.4795 15.7021 12.6904C16.2031 12.7607 16.5107 12.4004 16.5107 12.0137C16.5107 11.5918 16.2559 11.3105 15.7988 11.2666C14.5859 11.1348 12.8896 9.55273 12.3799 8.48047H19.9121V12.374C19.9121 13.2881 19.4111 13.7539 18.5498 13.7539ZM3.4502 13.7539C2.57129 13.7539 2.08789 13.2881 2.08789 12.374V8.48047H9.62012C9.10156 9.55273 7.41406 11.1348 6.19238 11.2666C5.74414 11.3105 5.48926 11.5918 5.48926 12.0137C5.48926 12.4004 5.79688 12.7607 6.29785 12.6904C7.65137 12.4795 9.82227 10.9062 10.4023 9.0957H10.4639V13.7539H3.4502Z" fill="#ED3D25"/>
</svg>
