<svg width="25" height="24" viewBox="0 0 25 24" fill="none" xmlns="http://www.w3.org/2000/svg">
<g clip-path="url(#clip0_4387_94291)">
<path d="M17.2236 17.2461H17.4424C18.7617 17.2461 19.6094 16.5283 19.6094 15.0039V8.55762H15.7812C15.084 8.55762 14.6533 8.12695 14.6533 7.43652V3.36914H10.9824C9.55371 3.36914 8.76758 4.1416 8.76758 5.5498V5.87793H9.82031C10.8799 5.87793 11.666 6.12402 12.4248 6.88281L16.3008 10.7588C17.0459 11.5039 17.2236 12.3516 17.2236 13.3633V17.2461ZM15.959 7.63477H19.5C19.4727 7.40918 19.3018 7.19727 19.042 6.9375L16.2734 4.09375C16.0205 3.83398 15.8086 3.66992 15.5762 3.63574L15.583 7.25195C15.583 7.52539 15.6855 7.63477 15.959 7.63477ZM7.6123 20.7529H14.0107C15.4736 20.7529 16.2256 19.9805 16.2256 18.5107V13.2061H11.3652C10.4971 13.2061 10.0664 12.7754 10.0664 11.9004V6.86914H7.6123C6.14941 6.86914 5.39062 7.6416 5.39062 9.11133V18.5107C5.39062 19.9873 6.14941 20.7529 7.6123 20.7529ZM11.4336 12.208H16.1025C16.0273 11.9141 15.8496 11.6406 15.5352 11.3193L11.9395 7.66211C11.625 7.34082 11.3516 7.12891 11.0645 7.04688V11.832C11.0645 12.0781 11.1943 12.208 11.4336 12.208Z" fill="#ED3D25"/>
</g>
<defs>
<clipPath id="clip0_4387_94291">
<rect width="24" height="24" fill="white" transform="translate(0.5)"/>
</clipPath>
</defs>
</svg>
