<svg width="24" height="24" viewBox="0 0 24 24" fill="none" xmlns="http://www.w3.org/2000/svg">
<path d="M5.58398 10.9424H9.5918C10.708 10.9424 11.2705 10.3799 11.2705 9.21973V5.29102C11.2705 4.13086 10.708 3.57715 9.5918 3.57715H5.58398C4.46777 3.57715 3.90527 4.13086 3.90527 5.29102V9.21973C3.90527 10.3799 4.46777 10.9424 5.58398 10.9424ZM14.4082 10.9424H18.4072C19.5234 10.9424 20.0859 10.3799 20.0859 9.21973V5.29102C20.0859 4.13086 19.5234 3.57715 18.4072 3.57715H14.4082C13.2832 3.57715 12.7207 4.13086 12.7207 5.29102V9.21973C12.7207 10.3799 13.2832 10.9424 14.4082 10.9424ZM5.60156 9.70312C5.29395 9.70312 5.14453 9.54492 5.14453 9.21973V5.29102C5.14453 4.97461 5.29395 4.81641 5.60156 4.81641H9.56543C9.87305 4.81641 10.0312 4.97461 10.0312 5.29102V9.21973C10.0312 9.54492 9.87305 9.70312 9.56543 9.70312H5.60156ZM14.4258 9.70312C14.1094 9.70312 13.96 9.54492 13.96 9.21973V5.29102C13.96 4.97461 14.1094 4.81641 14.4258 4.81641H18.3896C18.6973 4.81641 18.8467 4.97461 18.8467 5.29102V9.21973C18.8467 9.54492 18.6973 9.70312 18.3896 9.70312H14.4258ZM6.83203 8.18262H8.33496C8.45801 8.18262 8.51074 8.12988 8.51074 7.98047V6.52148C8.51074 6.38086 8.45801 6.32812 8.33496 6.32812H6.83203C6.7002 6.32812 6.65625 6.38086 6.65625 6.52148V7.98047C6.65625 8.12988 6.7002 8.18262 6.83203 8.18262ZM15.7002 8.18262H17.2031C17.335 8.18262 17.3877 8.12988 17.3877 7.98047V6.52148C17.3877 6.38086 17.335 6.32812 17.2031 6.32812H15.7002C15.5771 6.32812 15.5332 6.38086 15.5332 6.52148V7.98047C15.5332 8.12988 15.5771 8.18262 15.7002 8.18262ZM5.58398 19.7578H9.5918C10.708 19.7578 11.2705 19.2041 11.2705 18.0439V14.1064C11.2705 12.9551 10.708 12.3926 9.5918 12.3926H5.58398C4.46777 12.3926 3.90527 12.9551 3.90527 14.1064V18.0439C3.90527 19.2041 4.46777 19.7578 5.58398 19.7578ZM13.3184 14.6689H14.8213C14.9443 14.6689 14.9971 14.6162 14.9971 14.4668V13.0078C14.9971 12.8672 14.9443 12.8145 14.8213 12.8145H13.3184C13.1865 12.8145 13.1426 12.8672 13.1426 13.0078V14.4668C13.1426 14.6162 13.1865 14.6689 13.3184 14.6689ZM17.9854 14.6689H19.4883C19.6113 14.6689 19.6641 14.6162 19.6641 14.4668V13.0078C19.6641 12.8672 19.6113 12.8145 19.4883 12.8145H17.9854C17.8535 12.8145 17.8096 12.8672 17.8096 13.0078V14.4668C17.8096 14.6162 17.8535 14.6689 17.9854 14.6689ZM5.60156 18.5186C5.29395 18.5186 5.14453 18.3604 5.14453 18.0439V14.1152C5.14453 13.79 5.29395 13.6318 5.60156 13.6318H9.56543C9.87305 13.6318 10.0312 13.79 10.0312 14.1152V18.0439C10.0312 18.3604 9.87305 18.5186 9.56543 18.5186H5.60156ZM6.83203 17.0068H8.33496C8.45801 17.0068 8.51074 16.9541 8.51074 16.7959V15.3457C8.51074 15.2051 8.45801 15.1523 8.33496 15.1523H6.83203C6.7002 15.1523 6.65625 15.2051 6.65625 15.3457V16.7959C6.65625 16.9541 6.7002 17.0068 6.83203 17.0068ZM15.6738 17.0068H17.1768C17.2998 17.0068 17.3525 16.9541 17.3525 16.7959V15.3457C17.3525 15.2051 17.2998 15.1523 17.1768 15.1523H15.6738C15.542 15.1523 15.498 15.2051 15.498 15.3457V16.7959C15.498 16.9541 15.542 17.0068 15.6738 17.0068ZM13.3184 19.3359H14.8213C14.9443 19.3359 14.9971 19.2832 14.9971 19.1338V17.6748C14.9971 17.5342 14.9443 17.4814 14.8213 17.4814H13.3184C13.1865 17.4814 13.1426 17.5342 13.1426 17.6748V19.1338C13.1426 19.2832 13.1865 19.3359 13.3184 19.3359ZM17.9854 19.3359H19.4883C19.6113 19.3359 19.6641 19.2832 19.6641 19.1338V17.6748C19.6641 17.5342 19.6113 17.4814 19.4883 17.4814H17.9854C17.8535 17.4814 17.8096 17.5342 17.8096 17.6748V19.1338C17.8096 19.2832 17.8535 19.3359 17.9854 19.3359Z" fill="#ED3D25"/>
</svg>
