<svg width="24" height="24" viewBox="0 0 24 24" fill="none" xmlns="http://www.w3.org/2000/svg">
<path d="M4.09863 8.65723C4.56445 8.65723 4.81055 8.39355 4.81055 7.93652V5.8623C4.81055 4.94824 5.29395 4.48242 6.17285 4.48242H8.2998C8.76562 4.48242 9.02051 4.22754 9.02051 3.77051C9.02051 3.31348 8.76562 3.06738 8.2998 3.06738H6.15527C4.31836 3.06738 3.39551 3.97266 3.39551 5.7832V7.93652C3.39551 8.39355 3.65039 8.65723 4.09863 8.65723ZM19.8926 8.65723C20.3584 8.65723 20.6045 8.39355 20.6045 7.93652V5.7832C20.6045 3.97266 19.6816 3.06738 17.8447 3.06738H15.6914C15.2344 3.06738 14.9795 3.31348 14.9795 3.77051C14.9795 4.22754 15.2344 4.48242 15.6914 4.48242H17.8184C18.6885 4.48242 19.1895 4.94824 19.1895 5.8623V7.93652C19.1895 8.39355 19.4443 8.65723 19.8926 8.65723ZM8.16797 11.2852H11.2266C11.4463 11.2852 11.6133 11.1182 11.6133 10.9072V7.83984C11.6133 7.62891 11.4463 7.45312 11.2266 7.45312H8.16797C7.94824 7.45312 7.78125 7.62891 7.78125 7.83984V10.9072C7.78125 11.1182 7.94824 11.2852 8.16797 11.2852ZM12.7559 11.2852H15.8145C16.0342 11.2852 16.2012 11.1182 16.2012 10.9072V7.83984C16.2012 7.62891 16.0342 7.45312 15.8145 7.45312H12.7559C12.5361 7.45312 12.3691 7.62891 12.3691 7.83984V10.9072C12.3691 11.1182 12.5361 11.2852 12.7559 11.2852ZM8.5459 10.5205V8.21777H10.8486V10.5205H8.5459ZM13.1338 10.5205V8.21777H15.4365V10.5205H13.1338ZM9.21387 9.85254H10.1807V8.88574H9.21387V9.85254ZM13.8105 9.85254H14.7686V8.88574H13.8105V9.85254ZM8.16797 15.8818H11.2266C11.4463 15.8818 11.6133 15.7148 11.6133 15.4951V12.4365C11.6133 12.2168 11.4463 12.0498 11.2266 12.0498H8.16797C7.94824 12.0498 7.78125 12.2168 7.78125 12.4365V15.4951C7.78125 15.7148 7.94824 15.8818 8.16797 15.8818ZM12.4834 13.1133H13.4414V12.1553H12.4834V13.1133ZM15.1289 13.1133H16.0869V12.1553H15.1289V13.1133ZM8.5459 15.1172V12.8145H10.8486V15.1172H8.5459ZM9.21387 14.4404H10.1807V13.4824H9.21387V14.4404ZM13.8018 14.4404H14.7686V13.4824H13.8018V14.4404ZM6.15527 20.2676H8.2998C8.76562 20.2676 9.02051 20.0127 9.02051 19.5645C9.02051 19.1074 8.76562 18.8525 8.2998 18.8525H6.17285C5.29395 18.8525 4.81055 18.3867 4.81055 17.4727V15.3984C4.81055 14.9326 4.55566 14.6777 4.09863 14.6777C3.6416 14.6777 3.39551 14.9326 3.39551 15.3984V17.543C3.39551 19.3623 4.31836 20.2676 6.15527 20.2676ZM15.6914 20.2676H17.8447C19.6816 20.2676 20.6045 19.3535 20.6045 17.543V15.3984C20.6045 14.9326 20.3496 14.6777 19.8926 14.6777C19.4355 14.6777 19.1895 14.9326 19.1895 15.3984V17.4727C19.1895 18.3867 18.6885 18.8525 17.8184 18.8525H15.6914C15.2344 18.8525 14.9795 19.1074 14.9795 19.5645C14.9795 20.0127 15.2344 20.2676 15.6914 20.2676ZM12.4834 15.7676H13.4414V14.8096H12.4834V15.7676ZM15.1289 15.7676H16.0869V14.8096H15.1289V15.7676Z" fill="#ED3D25"/>
</svg>
