<svg width="18" height="18" viewBox="0 0 18 18" fill="none" xmlns="http://www.w3.org/2000/svg">
<path d="M1.09863 5.65723C1.56445 5.65723 1.81055 5.39355 1.81055 4.93652V2.8623C1.81055 1.94824 2.29395 1.48242 3.17285 1.48242H5.2998C5.76562 1.48242 6.02051 1.22754 6.02051 0.770508C6.02051 0.313477 5.76562 0.0673828 5.2998 0.0673828H3.15527C1.31836 0.0673828 0.395508 0.972656 0.395508 2.7832V4.93652C0.395508 5.39355 0.650391 5.65723 1.09863 5.65723ZM16.8926 5.65723C17.3584 5.65723 17.6045 5.39355 17.6045 4.93652V2.7832C17.6045 0.972656 16.6816 0.0673828 14.8447 0.0673828H12.6914C12.2344 0.0673828 11.9795 0.313477 11.9795 0.770508C11.9795 1.22754 12.2344 1.48242 12.6914 1.48242H14.8184C15.6885 1.48242 16.1895 1.94824 16.1895 2.8623V4.93652C16.1895 5.39355 16.4443 5.65723 16.8926 5.65723ZM5.16797 8.28516H8.22656C8.44629 8.28516 8.61328 8.11816 8.61328 7.90723V4.83984C8.61328 4.62891 8.44629 4.45312 8.22656 4.45312H5.16797C4.94824 4.45312 4.78125 4.62891 4.78125 4.83984V7.90723C4.78125 8.11816 4.94824 8.28516 5.16797 8.28516ZM9.75586 8.28516H12.8145C13.0342 8.28516 13.2012 8.11816 13.2012 7.90723V4.83984C13.2012 4.62891 13.0342 4.45312 12.8145 4.45312H9.75586C9.53613 4.45312 9.36914 4.62891 9.36914 4.83984V7.90723C9.36914 8.11816 9.53613 8.28516 9.75586 8.28516ZM5.5459 7.52051V5.21777H7.84863V7.52051H5.5459ZM10.1338 7.52051V5.21777H12.4365V7.52051H10.1338ZM6.21387 6.85254H7.18066V5.88574H6.21387V6.85254ZM10.8105 6.85254H11.7686V5.88574H10.8105V6.85254ZM5.16797 12.8818H8.22656C8.44629 12.8818 8.61328 12.7148 8.61328 12.4951V9.43652C8.61328 9.2168 8.44629 9.0498 8.22656 9.0498H5.16797C4.94824 9.0498 4.78125 9.2168 4.78125 9.43652V12.4951C4.78125 12.7148 4.94824 12.8818 5.16797 12.8818ZM9.4834 10.1133H10.4414V9.15527H9.4834V10.1133ZM12.1289 10.1133H13.0869V9.15527H12.1289V10.1133ZM5.5459 12.1172V9.81445H7.84863V12.1172H5.5459ZM6.21387 11.4404H7.18066V10.4824H6.21387V11.4404ZM10.8018 11.4404H11.7686V10.4824H10.8018V11.4404ZM3.15527 17.2676H5.2998C5.76562 17.2676 6.02051 17.0127 6.02051 16.5645C6.02051 16.1074 5.76562 15.8525 5.2998 15.8525H3.17285C2.29395 15.8525 1.81055 15.3867 1.81055 14.4727V12.3984C1.81055 11.9326 1.55566 11.6777 1.09863 11.6777C0.641602 11.6777 0.395508 11.9326 0.395508 12.3984V14.543C0.395508 16.3623 1.31836 17.2676 3.15527 17.2676ZM12.6914 17.2676H14.8447C16.6816 17.2676 17.6045 16.3535 17.6045 14.543V12.3984C17.6045 11.9326 17.3496 11.6777 16.8926 11.6777C16.4355 11.6777 16.1895 11.9326 16.1895 12.3984V14.4727C16.1895 15.3867 15.6885 15.8525 14.8184 15.8525H12.6914C12.2344 15.8525 11.9795 16.1074 11.9795 16.5645C11.9795 17.0127 12.2344 17.2676 12.6914 17.2676ZM9.4834 12.7676H10.4414V11.8096H9.4834V12.7676ZM12.1289 12.7676H13.0869V11.8096H12.1289V12.7676Z" fill="#ED3D25"/>
</svg>
