<svg width="24" height="24" viewBox="0 0 24 24" fill="none" xmlns="http://www.w3.org/2000/svg">
    <path d="M12 20.6191C16.9043 20.6191 20.9648 16.5498 20.9648 11.6543C20.9648 6.75 16.8955 2.68945 11.9912 2.68945C7.0957 2.68945 3.03516 6.75 3.03516 11.6543C3.03516 16.5498 7.10449 20.6191 12 20.6191ZM12 19.125C7.85156 19.125 4.53809 15.8027 4.53809 11.6543C4.53809 7.50586 7.84277 4.18359 11.9912 4.18359C16.1396 4.18359 19.4707 7.50586 19.4707 11.6543C19.4707 15.8027 16.1484 19.125 12 19.125ZM12.0088 15.0908C13.9072 15.0908 15.4541 13.5439 15.4541 11.6367C15.4541 9.73828 13.9072 8.2002 12.0088 8.2002C10.1016 8.2002 8.55469 9.73828 8.55469 11.6367C8.55469 13.5439 10.1016 15.0908 12.0088 15.0908Z" fill="#ED3D25"/>
</svg>
