<svg width="25" height="24" viewBox="0 0 25 24" fill="none" xmlns="http://www.w3.org/2000/svg">
    <path d="M6.85864 17.833C6.4104 17.833 6.10278 18.1582 6.10278 18.6152C6.10278 19.0723 6.4104 19.4062 6.85864 19.4062H18.7151C19.1721 19.4062 19.4885 19.0723 19.4885 18.6152C19.4885 18.1582 19.1721 17.833 18.7151 17.833H12.9758C13.1252 17.7891 13.2659 17.71 13.3889 17.5781L19.1985 11.7598C19.3743 11.5752 19.4622 11.3818 19.4622 11.1709C19.4622 10.7314 19.137 10.3975 18.6975 10.3975C18.4866 10.3975 18.2756 10.4766 18.135 10.6172L16.1663 12.5596L13.5208 15.4512L13.5823 13.5703V4.69336C13.5823 4.23633 13.2571 3.91113 12.8 3.91113C12.3342 3.91113 12.009 4.23633 12.009 4.69336V13.5703L12.0793 15.46L9.43384 12.5596L7.46509 10.6172C7.31567 10.4766 7.11353 10.3975 6.90259 10.3975C6.45435 10.3975 6.13794 10.7314 6.13794 11.1709C6.13794 11.3818 6.22583 11.5752 6.39282 11.7598L12.2112 17.5781C12.3254 17.71 12.4661 17.7891 12.6155 17.833H6.85864Z" fill="#ED3D25"/>
</svg>
