<svg width="24" height="24" viewBox="0 0 24 24" fill="none" xmlns="http://www.w3.org/2000/svg">
<path d="M6.05859 17.833C5.61035 17.833 5.30273 18.1582 5.30273 18.6152C5.30273 19.0723 5.61035 19.4062 6.05859 19.4062H17.915C18.3721 19.4062 18.6885 19.0723 18.6885 18.6152C18.6885 18.1582 18.3721 17.833 17.915 17.833H12.1758C12.3252 17.7891 12.4658 17.71 12.5889 17.5781L18.3984 11.7598C18.5742 11.5752 18.6621 11.3818 18.6621 11.1709C18.6621 10.7314 18.3369 10.3975 17.8975 10.3975C17.6865 10.3975 17.4756 10.4766 17.335 10.6172L15.3662 12.5596L12.7207 15.4512L12.7822 13.5703V4.69336C12.7822 4.23633 12.457 3.91113 12 3.91113C11.5342 3.91113 11.209 4.23633 11.209 4.69336V13.5703L11.2793 15.46L8.63379 12.5596L6.66504 10.6172C6.51562 10.4766 6.31348 10.3975 6.10254 10.3975C5.6543 10.3975 5.33789 10.7314 5.33789 11.1709C5.33789 11.3818 5.42578 11.5752 5.59277 11.7598L11.4111 17.5781C11.5254 17.71 11.666 17.7891 11.8154 17.833H6.05859Z" fill="#ED3D25"/>
</svg>
