<svg width="14" height="17" viewBox="0 0 14 17" fill="none" xmlns="http://www.w3.org/2000/svg">
<path d="M1.05859 14.833C0.610352 14.833 0.302734 15.1582 0.302734 15.6152C0.302734 16.0723 0.610352 16.4062 1.05859 16.4062H12.915C13.3721 16.4062 13.6885 16.0723 13.6885 15.6152C13.6885 15.1582 13.3721 14.833 12.915 14.833H7.17578C7.3252 14.7891 7.46582 14.71 7.58887 14.5781L13.3984 8.75977C13.5742 8.5752 13.6621 8.38184 13.6621 8.1709C13.6621 7.73145 13.3369 7.39746 12.8975 7.39746C12.6865 7.39746 12.4756 7.47656 12.335 7.61719L10.3662 9.55957L7.7207 12.4512L7.78223 10.5703V1.69336C7.78223 1.23633 7.45703 0.911133 7 0.911133C6.53418 0.911133 6.20898 1.23633 6.20898 1.69336V10.5703L6.2793 12.46L3.63379 9.55957L1.66504 7.61719C1.51562 7.47656 1.31348 7.39746 1.10254 7.39746C0.654297 7.39746 0.337891 7.73145 0.337891 8.1709C0.337891 8.38184 0.425781 8.5752 0.592773 8.75977L6.41113 14.5781C6.52539 14.71 6.66602 14.7891 6.81543 14.833H1.05859Z" fill="#ED3D25"/>
</svg>
