<svg width="33" height="33" viewBox="0 0 33 33" fill="none" xmlns="http://www.w3.org/2000/svg">
    <rect width="32.1053" height="32.1053" rx="6.42105" fill="#1D2129"/>
    <path fill-rule="evenodd" clip-rule="evenodd" d="M22.4019 13.8402C23.5044 13.8402 24.4012 14.7332 24.4012 15.8308C24.4012 16.5564 24.0075 17.1904 23.4241 17.5375C23.4481 17.7033 23.461 17.8709 23.461 18.0404C23.461 20.8708 20.0089 23.1736 15.766 23.1736C11.5227 23.1736 8.07094 20.8708 8.07094 18.0404C8.07094 17.8576 8.08599 17.6771 8.11394 17.4988C7.5655 17.1439 7.20117 16.5295 7.20117 15.8308C7.20117 14.7332 8.09792 13.8404 9.20048 13.8402C9.69029 13.8402 10.1396 14.0177 10.4877 14.3104C11.8153 13.4742 13.5867 12.9492 15.5393 12.9111L16.6809 9.31845C16.7409 9.12736 16.9399 9.01508 17.1357 9.06081L20.0924 9.75337C20.357 9.19138 20.9291 8.80005 21.5929 8.80005C22.5064 8.80005 23.2501 9.54009 23.2501 10.45C23.2501 11.3599 22.5066 12.1 21.5929 12.1C20.6975 12.1 19.9679 11.3891 19.9384 10.5051L17.3071 9.88822L16.3428 12.9229C18.1767 13.0142 19.8328 13.5355 21.0855 14.3367C21.4375 14.0288 21.8976 13.8402 22.4019 13.8402ZM13.2336 15.9289C13.8831 15.9289 14.4096 16.4713 14.4096 17.1177C14.4096 17.764 13.8831 18.288 13.2336 18.2888C12.5845 18.2888 12.0397 17.764 12.0397 17.1177C12.0397 16.4713 12.5843 15.9289 13.2336 15.9289ZM18.3864 15.9286C17.7371 15.9286 17.1908 16.4707 17.1908 17.1172C17.1908 17.7638 17.7371 18.2882 18.3864 18.2882C19.0359 18.2882 19.5628 17.7642 19.5628 17.1172C19.5624 16.4703 19.0359 15.9286 18.3864 15.9286ZM15.8103 20.5995C16.8851 20.5995 17.6186 20.3891 18.0543 19.9559C18.205 19.8065 18.4489 19.8065 18.5996 19.9563C18.7499 20.1058 18.7499 20.3482 18.5992 20.4983C18.0121 21.0821 17.0997 21.3664 15.8103 21.3664C15.8086 21.3664 15.807 21.3661 15.8054 21.3658C15.8039 21.3655 15.8024 21.3652 15.8009 21.3652C15.7978 21.3652 15.795 21.3664 15.7917 21.3664C14.5021 21.3664 13.5899 21.0821 13.0033 20.4979C12.8528 20.3486 12.8528 20.106 13.0033 19.9559C13.1536 19.8061 13.3976 19.8061 13.5479 19.9559C13.983 20.3891 14.7167 20.5995 15.7917 20.5995C15.7932 20.5995 15.7947 20.5997 15.7961 20.5999C15.7977 20.6002 15.7992 20.6004 15.8009 20.6004C15.8024 20.6004 15.8039 20.6002 15.8054 20.6C15.807 20.5997 15.8086 20.5995 15.8103 20.5995Z" fill="#ED3D25"/>
</svg>
