<svg width="24" height="24" viewBox="0 0 24 24" fill="none" xmlns="http://www.w3.org/2000/svg">
<g clip-path="url(#clip0_2954_132106)">
<path d="M6.90039 7.26562C6.57227 7.59375 6.59277 8.02441 6.86621 8.26367C7.14648 8.5166 7.54297 8.5166 7.87109 8.20215C8.88965 7.09473 10.3662 6.39746 12 6.39746C14.8916 6.39746 17.2295 8.52344 17.6055 11.251H16.5732C16.0537 11.251 15.9102 11.6338 16.2109 12.0576L17.8379 14.3545C18.084 14.6963 18.46 14.6963 18.7129 14.3545L20.3398 12.0645C20.6475 11.6406 20.5039 11.251 19.9775 11.251H19.0205C18.6172 7.78516 15.6094 5.00293 12 5.00293C9.99023 5.00293 8.1582 5.8916 6.90039 7.26562ZM3.65332 12.0713C3.35254 12.4951 3.48926 12.8848 4.01562 12.8848H4.98633C5.38281 16.3506 8.39062 19.1328 12 19.1328C14.0166 19.1328 15.8486 18.2441 17.1133 16.8633C17.4346 16.5352 17.4141 16.1045 17.1406 15.8584C16.8604 15.6055 16.4707 15.6123 16.1357 15.9268C15.124 17.041 13.6475 17.7383 12 17.7383C9.11523 17.7383 6.77051 15.6191 6.39453 12.8848H7.41992C7.93945 12.8848 8.08301 12.502 7.78223 12.0781L6.15527 9.78125C5.90918 9.43945 5.5332 9.43945 5.28711 9.78125L3.65332 12.0713Z" fill="#ED3D25"/>
</g>
<defs>
<clipPath id="clip0_2954_132106">
<rect width="24" height="24" fill="white"/>
</clipPath>
</defs>
</svg>
