<svg width="24" height="24" viewBox="0 0 24 24" fill="none" xmlns="http://www.w3.org/2000/svg">
<g clip-path="url(#clip0_9252_9329)">
<path d="M12 17.9912C13.1279 17.9912 14.1875 17.7998 15.1445 17.4922C15.0146 16.918 15.1104 16.4941 15.4248 15.9404C14.3926 16.3848 13.2373 16.6787 12 16.6787C7.63184 16.6787 4.15918 13.0283 4.15918 12.0713C4.15918 11.2715 7.63184 7.4707 12 7.4707C14.8301 7.4707 17.2773 9.07031 18.6445 10.417C19.0068 9.99316 19.5127 9.76074 20.0801 9.78809C18.5146 8.07227 15.6367 6.1582 12 6.1582C6.47656 6.1582 2.60742 10.6699 2.60742 12.0713C2.60742 13.4727 6.46973 17.9912 12 17.9912ZM12 15.7559C14.0508 15.7559 15.6914 14.0811 15.6914 12.0713C15.6914 10.0137 14.0508 8.39355 12 8.39355C9.94238 8.39355 8.29492 10.0137 8.30859 12.0713C8.31543 14.0811 9.94238 15.7559 12 15.7559ZM17.0449 17.9912H22.9648C23.5459 17.9912 23.9287 17.5605 23.9287 17.0342C23.9287 16.8701 23.8809 16.7129 23.792 16.5625L20.832 11.2646C20.6475 10.9365 20.3262 10.7793 20.0049 10.7793C19.6836 10.7793 19.3555 10.9365 19.1777 11.2646L16.2178 16.5625C16.1289 16.7129 16.0879 16.8701 16.0879 17.0342C16.0879 17.5605 16.4639 17.9912 17.0449 17.9912ZM12 13.2607C11.3369 13.2607 10.8037 12.7275 10.8037 12.0713C10.8037 11.415 11.3369 10.8818 12 10.8818C12.6631 10.8818 13.1963 11.415 13.1963 12.0713C13.1963 12.7275 12.6631 13.2607 12 13.2607ZM20.0049 15.2842C19.7451 15.2842 19.5537 15.1064 19.5469 14.8467L19.4922 12.9463C19.4854 12.6455 19.6973 12.4336 20.0049 12.4336C20.3193 12.4336 20.5312 12.6387 20.5244 12.9463L20.4697 14.8467C20.4561 15.1064 20.2715 15.2842 20.0049 15.2842ZM20.0049 16.9521C19.6631 16.9521 19.3896 16.6855 19.3896 16.3438C19.3896 16.0088 19.6631 15.7422 20.0049 15.7422C20.3535 15.7422 20.627 16.0156 20.627 16.3438C20.6201 16.6855 20.3535 16.9521 20.0049 16.9521Z" fill="#ED3D25"/>
</g>
<defs>
<clipPath id="clip0_9252_9329">
<rect width="24" height="24" fill="white"/>
</clipPath>
</defs>
</svg>
