<svg width="24" height="24" viewBox="0 0 24 24" fill="none" xmlns="http://www.w3.org/2000/svg">
    <path d="M3.41309 10.002C3.41309 13.8691 6.55957 17.0156 10.4268 17.0156C11.9561 17.0156 13.3535 16.5234 14.5049 15.6973L18.8291 20.0303C19.0312 20.2324 19.2949 20.3291 19.5762 20.3291C20.1738 20.3291 20.5869 19.8809 20.5869 19.292C20.5869 19.0107 20.4814 18.7559 20.2969 18.5713L15.999 14.2471C16.9043 13.0693 17.4404 11.6016 17.4404 10.002C17.4404 6.13477 14.2939 2.98828 10.4268 2.98828C6.55957 2.98828 3.41309 6.13477 3.41309 10.002ZM4.91602 10.002C4.91602 6.96094 7.38574 4.49121 10.4268 4.49121C13.4678 4.49121 15.9375 6.96094 15.9375 10.002C15.9375 13.043 13.4678 15.5127 10.4268 15.5127C7.38574 15.5127 4.91602 13.043 4.91602 10.002Z" fill="#ED3D25"/>
</svg>
