<svg width="18" height="19" viewBox="0 0 18 19" fill="none" xmlns="http://www.w3.org/2000/svg">
<path d="M0.413086 8.00195C0.413086 11.8691 3.55957 15.0156 7.42676 15.0156C8.95605 15.0156 10.3535 14.5234 11.5049 13.6973L15.8291 18.0303C16.0312 18.2324 16.2949 18.3291 16.5762 18.3291C17.1738 18.3291 17.5869 17.8809 17.5869 17.292C17.5869 17.0107 17.4814 16.7559 17.2969 16.5713L12.999 12.2471C13.9043 11.0693 14.4404 9.60156 14.4404 8.00195C14.4404 4.13477 11.2939 0.988281 7.42676 0.988281C3.55957 0.988281 0.413086 4.13477 0.413086 8.00195ZM1.91602 8.00195C1.91602 4.96094 4.38574 2.49121 7.42676 2.49121C10.4678 2.49121 12.9375 4.96094 12.9375 8.00195C12.9375 11.043 10.4678 13.5127 7.42676 13.5127C4.38574 13.5127 1.91602 11.043 1.91602 8.00195Z" fill="#ED3D25"/>
</svg>
