<svg width="24" height="24" viewBox="0 0 24 24" fill="none" xmlns="http://www.w3.org/2000/svg">
    <path d="M11.3848 22.3066C11.7539 22.6143 12.2549 22.6582 12.6064 22.3154L15.3223 19.5996C15.665 19.248 15.6475 18.7207 15.3135 18.3779L13.9512 17.0244L15.9375 15.0469C16.2803 14.7129 16.2627 14.1768 15.9287 13.8252L14.0918 11.9795C16.5088 10.8193 17.8711 8.85059 17.8711 6.5127C17.8711 3.26953 15.2432 0.650391 12 0.650391C8.73047 0.650391 6.12012 3.25195 6.12012 6.5127C6.12012 8.86816 7.47363 10.96 9.60938 11.9004V20.1973C9.60938 20.4873 9.69727 20.8213 9.95215 21.0498L11.3848 22.3066ZM12 20.918L11.0244 19.9512V10.8809C8.95898 10.415 7.52637 8.63086 7.52637 6.5127C7.52637 4.05176 9.52148 2.06543 12 2.06543C14.4697 2.06543 16.4561 4.05176 16.4561 6.5127C16.4561 8.61328 15.0146 10.415 12.8086 10.9424V12.7178L14.5312 14.4492L12.668 16.2861V17.7451L13.916 18.9756L12 20.918ZM12 6.5918C12.8789 6.5918 13.5908 5.87988 13.5908 4.99219C13.5908 4.11328 12.8789 3.40137 12 3.40137C11.1035 3.40137 10.4004 4.10449 10.4004 4.99219C10.4004 5.87988 11.1123 6.5918 12 6.5918Z" fill="#ED3D25"/>
</svg>
