<svg width="24" height="24" viewBox="0 0 24 24" fill="none" xmlns="http://www.w3.org/2000/svg">
    <path d="M6.54199 19.6699C9.21387 19.6699 11.3496 16.418 11.3496 11.6543C11.3496 6.88184 9.21387 3.64746 6.54199 3.64746C3.86133 3.64746 1.72559 6.88184 1.72559 11.6543C1.72559 16.418 3.86133 19.6699 6.54199 19.6699ZM17.458 19.6699C20.1387 19.6699 22.2744 16.418 22.2744 11.6543C22.2744 6.88184 20.1387 3.64746 17.458 3.64746C14.7861 3.64746 12.6504 6.88184 12.6504 11.6543C12.6504 16.418 14.7861 19.6699 17.458 19.6699ZM4.64355 14.7568C6.11133 14.7568 7.08691 13.7373 7.08691 12.1904C7.08691 10.6699 6.11133 9.6416 4.64355 9.6416C4.01074 9.6416 3.47461 9.82617 3.07031 10.1602C3.41309 6.9873 4.86328 4.9043 6.54199 4.88672C8.48438 4.87793 10.1104 7.62891 10.1104 11.6543C10.1104 15.6533 8.48438 18.4131 6.54199 18.4307C5.0918 18.4307 3.80859 16.875 3.26367 14.3789C3.6416 14.625 4.10742 14.7568 4.64355 14.7568ZM15.5508 14.7568C17.0186 14.7568 18.0117 13.7373 18.0117 12.1904C18.0117 10.6699 17.0186 9.6416 15.5508 9.6416C14.9268 9.6416 14.3818 9.82617 13.9688 10.1602C14.3203 6.9873 15.7705 4.9043 17.458 4.89551C19.3828 4.89551 21.0176 7.64648 21.0176 11.6543C21.0176 15.6621 19.3828 18.4131 17.458 18.4219C15.999 18.4219 14.7158 16.8574 14.1709 14.3789C14.5488 14.6162 15.0234 14.7568 15.5508 14.7568ZM3.94922 11.8916C3.63281 11.8477 3.43945 11.4697 3.50977 11.083C3.58887 10.7051 3.8877 10.4238 4.18652 10.4854C4.50293 10.5469 4.69629 10.9072 4.61719 11.2852C4.54688 11.6719 4.25684 11.9443 3.94922 11.8916ZM14.8564 11.8916C14.5488 11.8389 14.3467 11.4697 14.4258 11.083C14.5049 10.7051 14.7949 10.4238 15.1025 10.4854C15.4189 10.5381 15.6035 10.9072 15.5244 11.2852C15.4541 11.6719 15.1641 11.9443 14.8564 11.8916Z" fill="#ED3D25"/>
</svg>
