<svg width="24" height="24" viewBox="0 0 24 24" fill="none" xmlns="http://www.w3.org/2000/svg">
    <path d="M6.66504 19.7578H17.3262C19.1719 19.7578 20.0859 18.8438 20.0859 17.0332V6.30176C20.0859 4.49121 19.1719 3.57715 17.3262 3.57715H6.66504C4.82812 3.57715 3.90527 4.48242 3.90527 6.30176V17.0332C3.90527 18.8525 4.82812 19.7578 6.66504 19.7578ZM11.0156 15.9521C10.7168 15.9521 10.4707 15.8291 10.2422 15.5215L8.03613 12.8145C7.9043 12.6387 7.8252 12.4453 7.8252 12.2432C7.8252 11.8477 8.13281 11.5225 8.53711 11.5225C8.7832 11.5225 8.97656 11.6016 9.19629 11.8916L10.9805 14.1943L14.7334 8.16504C14.9004 7.90137 15.1289 7.76074 15.3662 7.76074C15.7441 7.76074 16.1045 8.02441 16.1045 8.4375C16.1045 8.63086 15.999 8.83301 15.8848 9.01758L11.7539 15.5215C11.5693 15.8115 11.3145 15.9521 11.0156 15.9521Z" fill="#ED3D25"/>
</svg>
