<svg width="25" height="24" viewBox="0 0 25 24" fill="none" xmlns="http://www.w3.org/2000/svg">
<path d="M12.5 20.6191C17.4043 20.6191 21.4648 16.5498 21.4648 11.6543C21.4648 6.75 17.3955 2.68945 12.4912 2.68945C7.5957 2.68945 3.53516 6.75 3.53516 11.6543C3.53516 16.5498 7.60449 20.6191 12.5 20.6191ZM11.5156 15.9521C11.2168 15.9521 10.9707 15.8291 10.7422 15.5215L8.53613 12.8145C8.4043 12.6387 8.3252 12.4453 8.3252 12.2432C8.3252 11.8477 8.63281 11.5225 9.02832 11.5225C9.2832 11.5225 9.47656 11.6016 9.69629 11.8916L11.4805 14.1943L15.2334 8.16504C15.4004 7.90137 15.6289 7.76074 15.8574 7.76074C16.2441 7.76074 16.6045 8.02441 16.6045 8.4375C16.6045 8.63086 16.4902 8.83301 16.3848 9.01758L12.2539 15.5215C12.0693 15.8115 11.8145 15.9521 11.5156 15.9521Z" fill="#ED3D25"/>
</svg>
