<svg width="25" height="24" viewBox="0 0 25 24" fill="none" xmlns="http://www.w3.org/2000/svg">
    <path d="M12.3999 19.4062C12.8569 19.4062 13.1821 19.0811 13.1821 18.624V9.74707L13.1206 7.86621L15.7661 10.7578L17.7349 12.7002C17.8755 12.8408 18.0864 12.9199 18.2974 12.9199C18.7368 12.9199 19.062 12.5859 19.062 12.1465C19.062 11.9355 18.9741 11.7422 18.7983 11.5576L12.9888 5.73926C12.8657 5.60742 12.7251 5.52832 12.5757 5.48438H18.3149C18.772 5.48438 19.0884 5.15918 19.0884 4.70215C19.0884 4.24512 18.772 3.91113 18.3149 3.91113H6.4585C6.01025 3.91113 5.70264 4.24512 5.70264 4.70215C5.70264 5.15918 6.01025 5.48438 6.4585 5.48438H12.2153C12.0659 5.52832 11.9253 5.60742 11.811 5.73926L5.99268 11.5576C5.82568 11.7422 5.73779 11.9355 5.73779 12.1465C5.73779 12.5859 6.0542 12.9199 6.50244 12.9199C6.71338 12.9199 6.91553 12.8408 7.06494 12.7002L9.03369 10.7578L11.6792 7.85742L11.6089 9.74707V18.624C11.6089 19.0811 11.9341 19.4062 12.3999 19.4062Z" fill="#ED3D25"/>
</svg>
