<svg width="14" height="17" viewBox="0 0 14 17" fill="none" xmlns="http://www.w3.org/2000/svg">
<path d="M7 16.4062C7.45703 16.4062 7.78223 16.0811 7.78223 15.624V6.74707L7.7207 4.86621L10.3662 7.75781L12.335 9.7002C12.4756 9.84082 12.6865 9.91992 12.8975 9.91992C13.3369 9.91992 13.6621 9.58594 13.6621 9.14648C13.6621 8.93555 13.5742 8.74219 13.3984 8.55762L7.58887 2.73926C7.46582 2.60742 7.3252 2.52832 7.17578 2.48438H12.915C13.3721 2.48438 13.6885 2.15918 13.6885 1.70215C13.6885 1.24512 13.3721 0.911133 12.915 0.911133H1.05859C0.610352 0.911133 0.302734 1.24512 0.302734 1.70215C0.302734 2.15918 0.610352 2.48438 1.05859 2.48438H6.81543C6.66602 2.52832 6.52539 2.60742 6.41113 2.73926L0.592773 8.55762C0.425781 8.74219 0.337891 8.93555 0.337891 9.14648C0.337891 9.58594 0.654297 9.91992 1.10254 9.91992C1.31348 9.91992 1.51562 9.84082 1.66504 9.7002L3.63379 7.75781L6.2793 4.85742L6.20898 6.74707V15.624C6.20898 16.0811 6.53418 16.4062 7 16.4062Z" fill="#ED3D25"/>
</svg>
