<svg width="24" height="24" viewBox="0 0 24 24" fill="none" xmlns="http://www.w3.org/2000/svg">
<g clip-path="url(#clip0_7067_43311)">
<path d="M12 18.1963C12.4375 18.1963 12.7451 17.8887 12.7451 17.4375V11.0732L12.6768 9.6377L14.502 11.6406L15.9102 13.0215C16.0469 13.1582 16.2383 13.2471 16.4502 13.2471C16.8604 13.2471 17.168 12.9395 17.168 12.5156C17.168 12.3174 17.0859 12.1328 16.9219 11.9688L12.5537 7.6416C12.4443 7.52539 12.3076 7.44336 12.1572 7.41602H16.5049C16.9287 7.41602 17.2363 7.10156 17.2363 6.67773C17.2363 6.25391 16.9287 5.93945 16.5049 5.93945H7.47461C7.05762 5.93945 6.75684 6.25391 6.75684 6.67773C6.75684 7.10156 7.05762 7.41602 7.47461 7.41602H11.8359C11.6855 7.44336 11.5488 7.52539 11.4395 7.6416L7.07129 11.9688C6.90723 12.1328 6.83203 12.3174 6.83203 12.5156C6.83203 12.9395 7.13281 13.2471 7.5498 13.2471C7.76172 13.2471 7.94629 13.165 8.08984 13.0215L9.49121 11.6406L11.3164 9.63086L11.248 11.0732V17.4375C11.248 17.8887 11.5557 18.1963 12 18.1963Z" fill="#CC2500"/>
</g>
<defs>
<clipPath id="clip0_7067_43311">
<rect width="24" height="24" fill="white"/>
</clipPath>
</defs>
</svg>
