<svg width="24" height="24" viewBox="0 0 24 24" fill="none" xmlns="http://www.w3.org/2000/svg">
<path d="M12 19.4062C12.457 19.4062 12.7822 19.0811 12.7822 18.624V9.74707L12.7207 7.86621L15.3662 10.7578L17.335 12.7002C17.4756 12.8408 17.6865 12.9199 17.8975 12.9199C18.3369 12.9199 18.6621 12.5859 18.6621 12.1465C18.6621 11.9355 18.5742 11.7422 18.3984 11.5576L12.5889 5.73926C12.4658 5.60742 12.3252 5.52832 12.1758 5.48438H17.915C18.3721 5.48438 18.6885 5.15918 18.6885 4.70215C18.6885 4.24512 18.3721 3.91113 17.915 3.91113H6.05859C5.61035 3.91113 5.30273 4.24512 5.30273 4.70215C5.30273 5.15918 5.61035 5.48438 6.05859 5.48438H11.8154C11.666 5.52832 11.5254 5.60742 11.4111 5.73926L5.59277 11.5576C5.42578 11.7422 5.33789 11.9355 5.33789 12.1465C5.33789 12.5859 5.6543 12.9199 6.10254 12.9199C6.31348 12.9199 6.51562 12.8408 6.66504 12.7002L8.63379 10.7578L11.2793 7.85742L11.209 9.74707V18.624C11.209 19.0811 11.5342 19.4062 12 19.4062Z" fill="#ED3D25"/>
</svg>
