<svg width="24" height="24" viewBox="0 0 24 24" fill="none" xmlns="http://www.w3.org/2000/svg">
<path d="M11.1123 21.0498H12.8877C13.5645 21.0498 14.083 20.6367 14.2412 19.9863L14.6191 18.3428L14.9004 18.2461L16.333 19.125C16.9043 19.4854 17.5635 19.3975 18.0469 18.9141L19.2773 17.6924C19.7607 17.209 19.8486 16.541 19.4883 15.9785L18.5918 14.5547L18.6973 14.291L20.3408 13.9043C20.9824 13.7461 21.4043 13.2188 21.4043 12.5508V10.8105C21.4043 10.1426 20.9912 9.61523 20.3408 9.45703L18.7148 9.06152L18.6006 8.78027L19.4971 7.35645C19.8574 6.79395 19.7695 6.13477 19.2861 5.64258L18.0557 4.41211C17.5811 3.9375 16.9219 3.84961 16.3506 4.20117L14.918 5.08008L14.6191 4.96582L14.2412 3.32227C14.083 2.67188 13.5645 2.25879 12.8877 2.25879H11.1123C10.4355 2.25879 9.91699 2.67188 9.75879 3.32227L9.37207 4.96582L9.07324 5.08008L7.64941 4.20117C7.07812 3.84961 6.41016 3.9375 5.93555 4.41211L4.71387 5.64258C4.23047 6.13477 4.13379 6.79395 4.50293 7.35645L5.39062 8.78027L5.28516 9.06152L3.65918 9.45703C3.00879 9.61523 2.5957 10.1426 2.5957 10.8105V12.5508C2.5957 13.2188 3.01758 13.7461 3.65918 13.9043L5.30273 14.291L5.39941 14.5547L4.51172 15.9785C4.14258 16.541 4.23926 17.209 4.72266 17.6924L5.94434 18.9141C6.42773 19.3975 7.0957 19.4854 7.66699 19.125L9.09082 18.2461L9.37207 18.3428L9.75879 19.9863C9.91699 20.6367 10.4355 21.0498 11.1123 21.0498ZM11.2529 19.6787C11.1035 19.6787 11.0244 19.6172 10.998 19.4766L10.4707 17.2969C9.93457 17.165 9.43359 16.9541 9.05566 16.7168L7.13965 17.8945C7.03418 17.9736 6.91992 17.9561 6.81445 17.8506L5.77734 16.8135C5.68066 16.7168 5.67188 16.6113 5.74219 16.4883L6.91992 14.5898C6.71777 14.2207 6.48926 13.7197 6.34863 13.1836L4.16895 12.665C4.02832 12.6387 3.9668 12.5596 3.9668 12.4102V10.9424C3.9668 10.7842 4.01953 10.7139 4.16895 10.6875L6.33984 10.1602C6.48047 9.58887 6.74414 9.07031 6.90234 8.74512L5.7334 6.84668C5.6543 6.71484 5.66309 6.60938 5.75977 6.50391L6.80566 5.48438C6.91113 5.37891 7.00781 5.36133 7.13965 5.44043L9.03809 6.5918C9.41602 6.38086 9.95215 6.16113 10.4795 6.01172L10.998 3.83203C11.0244 3.69141 11.1035 3.62988 11.2529 3.62988H12.7471C12.8965 3.62988 12.9756 3.69141 12.9932 3.83203L13.5293 6.0293C14.0742 6.16992 14.5488 6.38965 14.9443 6.60059L16.8516 5.44043C16.9922 5.36133 17.0801 5.37891 17.1943 5.48438L18.2314 6.50391C18.3369 6.60938 18.3369 6.71484 18.2578 6.84668L17.0889 8.74512C17.2559 9.07031 17.5107 9.58887 17.6514 10.1602L19.8311 10.6875C19.9717 10.7139 20.0332 10.7842 20.0332 10.9424V12.4102C20.0332 12.5596 19.9629 12.6387 19.8311 12.665L17.6426 13.1836C17.502 13.7197 17.2822 14.2207 17.0713 14.5898L18.249 16.4883C18.3193 16.6113 18.3193 16.7168 18.2139 16.8135L17.1855 17.8506C17.0713 17.9561 16.9658 17.9736 16.8516 17.8945L14.9355 16.7168C14.5576 16.9541 14.0654 17.165 13.5293 17.2969L12.9932 19.4766C12.9756 19.6172 12.8965 19.6787 12.7471 19.6787H11.2529ZM12 15.0117C13.8369 15.0117 15.3486 13.5 15.3486 11.6543C15.3486 9.82617 13.8369 8.31445 12 8.31445C10.1631 8.31445 8.64258 9.82617 8.64258 11.6543C8.64258 13.4912 10.1543 15.0117 12 15.0117ZM12 13.6494C10.9102 13.6494 10.0137 12.7529 10.0137 11.6543C10.0137 10.5732 10.9102 9.67676 12 9.67676C13.0723 9.67676 13.9688 10.5732 13.9688 11.6543C13.9688 12.7441 13.0723 13.6494 12 13.6494Z" fill="#ED3D25"/>
</svg>
