<svg width="24" height="24" viewBox="0 0 24 24" fill="none" xmlns="http://www.w3.org/2000/svg">
    <path d="M11.3096 19.4814H12.6904C13.2578 19.4814 13.7021 19.1328 13.832 18.5928L14.1123 17.3828L14.29 17.3145L15.3428 17.9639C15.8213 18.2646 16.3818 18.1895 16.7783 17.7861L17.7354 16.8291C18.1455 16.4258 18.2139 15.8652 17.9131 15.3936L17.2637 14.3477L17.3252 14.1768L18.5352 13.8965C19.0684 13.7598 19.4238 13.3154 19.4238 12.7549V11.4082C19.4238 10.8477 19.0752 10.4033 18.5352 10.2666L17.3389 9.97949L17.2705 9.80176L17.9199 8.75586C18.2207 8.28418 18.1455 7.73047 17.7422 7.31348L16.7852 6.35645C16.3887 5.95996 15.8281 5.88477 15.3564 6.17871L14.3037 6.82129L14.1123 6.74609L13.832 5.53613C13.7021 4.99609 13.2578 4.64746 12.6904 4.64746H11.3096C10.7354 4.64746 10.2979 4.99609 10.168 5.53613L9.8877 6.74609L9.69629 6.82129L8.64355 6.17871C8.16504 5.88477 7.60449 5.95996 7.20801 6.35645L6.25098 7.31348C5.84766 7.73047 5.77246 8.28418 6.07324 8.75586L6.72949 9.80176L6.6543 9.97949L5.46484 10.2666C4.91797 10.4033 4.57617 10.8477 4.57617 11.4082V12.7549C4.57617 13.3154 4.9248 13.7598 5.46484 13.8965L6.66797 14.1768L6.73633 14.3477L6.08008 15.3936C5.7793 15.8652 5.85449 16.4258 6.25781 16.8291L7.21484 17.7861C7.61816 18.1895 8.17871 18.2646 8.65039 17.9639L9.70312 17.3145L9.8877 17.3828L10.168 18.5928C10.2979 19.1328 10.7354 19.4814 11.3096 19.4814ZM11.4736 18.2441C11.3574 18.2441 11.3027 18.1895 11.2822 18.0869L10.8789 16.4053C10.4414 16.3027 10.0312 16.1318 9.69629 15.9199L8.21973 16.8291C8.1377 16.8838 8.05566 16.877 7.9668 16.7949L7.24219 16.0703C7.16699 15.9951 7.16016 15.9131 7.22168 15.8242L8.13086 14.3477C7.93945 14.0264 7.75488 13.6162 7.65234 13.1855L5.96387 12.7822C5.86133 12.7617 5.81348 12.707 5.81348 12.5908V11.5654C5.81348 11.4424 5.86133 11.3945 5.96387 11.3672L7.65234 10.9707C7.75488 10.5127 7.95312 10.0889 8.11719 9.79492L7.21484 8.3252C7.15332 8.22949 7.15332 8.14746 7.23535 8.06543L7.95996 7.34766C8.04883 7.27246 8.11719 7.25879 8.21973 7.31348L9.68945 8.20898C9.99707 8.02441 10.4482 7.83301 10.8789 7.72363L11.2822 6.04199C11.3027 5.93945 11.3574 5.88477 11.4736 5.88477H12.5264C12.6426 5.88477 12.6973 5.93262 12.7109 6.04199L13.1211 7.7373C13.5654 7.83984 13.9688 8.02441 14.3037 8.21582L15.7734 7.32031C15.876 7.26562 15.9443 7.27246 16.0264 7.35449L16.7578 8.07227C16.8398 8.14746 16.8398 8.22949 16.7783 8.3252L15.876 9.79492C16.04 10.0889 16.2451 10.5127 16.3477 10.9707L18.0293 11.3672C18.1387 11.3945 18.1865 11.4424 18.1865 11.5654V12.5908C18.1865 12.707 18.1318 12.7617 18.0293 12.7822L16.3408 13.1855C16.2383 13.6162 16.0537 14.0264 15.8691 14.3477L16.7715 15.8242C16.8262 15.9131 16.8262 15.9951 16.751 16.0635L16.0264 16.7949C15.9375 16.877 15.8555 16.8838 15.7734 16.8291L14.2969 15.9199C13.9619 16.1318 13.5723 16.3027 13.1211 16.4053L12.7109 18.0869C12.6973 18.1963 12.6426 18.2441 12.5264 18.2441H11.4736ZM12 14.6621C13.4219 14.6621 14.5908 13.4932 14.5908 12.0645C14.5908 10.6494 13.4219 9.48047 12 9.48047C10.5781 9.48047 9.40234 10.6494 9.40234 12.0645C9.40234 13.4932 10.5713 14.6621 12 14.6621ZM12 13.4932C11.2207 13.4932 10.5781 12.8506 10.5781 12.0645C10.5781 11.292 11.2207 10.6562 12 10.6562C12.7656 10.6562 13.4014 11.292 13.4014 12.0645C13.4014 12.8438 12.7656 13.4932 12 13.4932Z" fill="#ED3D25"/>
</svg>
