<svg width="20" height="20" viewBox="0 0 20 20" fill="none" xmlns="http://www.w3.org/2000/svg">
<path d="M9.1123 19.0498H10.8877C11.5645 19.0498 12.083 18.6367 12.2412 17.9863L12.6191 16.3428L12.9004 16.2461L14.333 17.125C14.9043 17.4854 15.5635 17.3975 16.0469 16.9141L17.2773 15.6924C17.7607 15.209 17.8486 14.541 17.4883 13.9785L16.5918 12.5547L16.6973 12.291L18.3408 11.9043C18.9824 11.7461 19.4043 11.2188 19.4043 10.5508V8.81055C19.4043 8.14258 18.9912 7.61523 18.3408 7.45703L16.7148 7.06152L16.6006 6.78027L17.4971 5.35645C17.8574 4.79395 17.7695 4.13477 17.2861 3.64258L16.0557 2.41211C15.5811 1.9375 14.9219 1.84961 14.3506 2.20117L12.918 3.08008L12.6191 2.96582L12.2412 1.32227C12.083 0.671875 11.5645 0.258789 10.8877 0.258789H9.1123C8.43555 0.258789 7.91699 0.671875 7.75879 1.32227L7.37207 2.96582L7.07324 3.08008L5.64941 2.20117C5.07812 1.84961 4.41016 1.9375 3.93555 2.41211L2.71387 3.64258C2.23047 4.13477 2.13379 4.79395 2.50293 5.35645L3.39062 6.78027L3.28516 7.06152L1.65918 7.45703C1.00879 7.61523 0.595703 8.14258 0.595703 8.81055V10.5508C0.595703 11.2188 1.01758 11.7461 1.65918 11.9043L3.30273 12.291L3.39941 12.5547L2.51172 13.9785C2.14258 14.541 2.23926 15.209 2.72266 15.6924L3.94434 16.9141C4.42773 17.3975 5.0957 17.4854 5.66699 17.125L7.09082 16.2461L7.37207 16.3428L7.75879 17.9863C7.91699 18.6367 8.43555 19.0498 9.1123 19.0498ZM9.25293 17.6787C9.10352 17.6787 9.02441 17.6172 8.99805 17.4766L8.4707 15.2969C7.93457 15.165 7.43359 14.9541 7.05566 14.7168L5.13965 15.8945C5.03418 15.9736 4.91992 15.9561 4.81445 15.8506L3.77734 14.8135C3.68066 14.7168 3.67188 14.6113 3.74219 14.4883L4.91992 12.5898C4.71777 12.2207 4.48926 11.7197 4.34863 11.1836L2.16895 10.665C2.02832 10.6387 1.9668 10.5596 1.9668 10.4102V8.94238C1.9668 8.78418 2.01953 8.71387 2.16895 8.6875L4.33984 8.16016C4.48047 7.58887 4.74414 7.07031 4.90234 6.74512L3.7334 4.84668C3.6543 4.71484 3.66309 4.60938 3.75977 4.50391L4.80566 3.48438C4.91113 3.37891 5.00781 3.36133 5.13965 3.44043L7.03809 4.5918C7.41602 4.38086 7.95215 4.16113 8.47949 4.01172L8.99805 1.83203C9.02441 1.69141 9.10352 1.62988 9.25293 1.62988H10.7471C10.8965 1.62988 10.9756 1.69141 10.9932 1.83203L11.5293 4.0293C12.0742 4.16992 12.5488 4.38965 12.9443 4.60059L14.8516 3.44043C14.9922 3.36133 15.0801 3.37891 15.1943 3.48438L16.2314 4.50391C16.3369 4.60938 16.3369 4.71484 16.2578 4.84668L15.0889 6.74512C15.2559 7.07031 15.5107 7.58887 15.6514 8.16016L17.8311 8.6875C17.9717 8.71387 18.0332 8.78418 18.0332 8.94238V10.4102C18.0332 10.5596 17.9629 10.6387 17.8311 10.665L15.6426 11.1836C15.502 11.7197 15.2822 12.2207 15.0713 12.5898L16.249 14.4883C16.3193 14.6113 16.3193 14.7168 16.2139 14.8135L15.1855 15.8506C15.0713 15.9561 14.9658 15.9736 14.8516 15.8945L12.9355 14.7168C12.5576 14.9541 12.0654 15.165 11.5293 15.2969L10.9932 17.4766C10.9756 17.6172 10.8965 17.6787 10.7471 17.6787H9.25293ZM10 13.0117C11.8369 13.0117 13.3486 11.5 13.3486 9.6543C13.3486 7.82617 11.8369 6.31445 10 6.31445C8.16309 6.31445 6.64258 7.82617 6.64258 9.6543C6.64258 11.4912 8.1543 13.0117 10 13.0117ZM10 11.6494C8.91016 11.6494 8.01367 10.7529 8.01367 9.6543C8.01367 8.57324 8.91016 7.67676 10 7.67676C11.0723 7.67676 11.9688 8.57324 11.9688 9.6543C11.9688 10.7441 11.0723 11.6494 10 11.6494Z" fill="#ED3D25"/>
</svg>
