<svg width="25" height="24" viewBox="0 0 25 24" fill="none" xmlns="http://www.w3.org/2000/svg">
    <path d="M11.3123 21.0498H13.0876C13.7644 21.0498 14.283 20.6367 14.4412 19.9863L14.8191 18.3428L15.1003 18.2461L16.533 19.125C17.1042 19.4854 17.7634 19.3975 18.2468 18.9141L19.4773 17.6924C19.9607 17.209 20.0486 16.541 19.6882 15.9785L18.7917 14.5547L18.8972 14.291L20.5408 13.9043C21.1824 13.7461 21.6042 13.2188 21.6042 12.5508V10.8105C21.6042 10.1426 21.1912 9.61523 20.5408 9.45703L18.9148 9.06152L18.8005 8.78027L19.697 7.35645C20.0574 6.79395 19.9695 6.13477 19.4861 5.64258L18.2556 4.41211C17.781 3.9375 17.1218 3.84961 16.5505 4.20117L15.1179 5.08008L14.8191 4.96582L14.4412 3.32227C14.283 2.67188 13.7644 2.25879 13.0876 2.25879H11.3123C10.6355 2.25879 10.1169 2.67188 9.95874 3.32227L9.57202 4.96582L9.27319 5.08008L7.84937 4.20117C7.27808 3.84961 6.61011 3.9375 6.1355 4.41211L4.91382 5.64258C4.43042 6.13477 4.33374 6.79395 4.70288 7.35645L5.59058 8.78027L5.48511 9.06152L3.85913 9.45703C3.20874 9.61523 2.79565 10.1426 2.79565 10.8105V12.5508C2.79565 13.2188 3.21753 13.7461 3.85913 13.9043L5.50269 14.291L5.59937 14.5547L4.71167 15.9785C4.34253 16.541 4.43921 17.209 4.92261 17.6924L6.14429 18.9141C6.62769 19.3975 7.29565 19.4854 7.86694 19.125L9.29077 18.2461L9.57202 18.3428L9.95874 19.9863C10.1169 20.6367 10.6355 21.0498 11.3123 21.0498ZM11.4529 19.6787C11.3035 19.6787 11.2244 19.6172 11.198 19.4766L10.6707 17.2969C10.1345 17.165 9.63354 16.9541 9.25562 16.7168L7.3396 17.8945C7.23413 17.9736 7.11987 17.9561 7.0144 17.8506L5.97729 16.8135C5.88062 16.7168 5.87183 16.6113 5.94214 16.4883L7.11987 14.5898C6.91772 14.2207 6.68921 13.7197 6.54858 13.1836L4.3689 12.665C4.22827 12.6387 4.16675 12.5596 4.16675 12.4102V10.9424C4.16675 10.7842 4.21948 10.7139 4.3689 10.6875L6.53979 10.1602C6.68042 9.58887 6.94409 9.07031 7.10229 8.74512L5.93335 6.84668C5.85425 6.71484 5.86304 6.60938 5.95972 6.50391L7.00562 5.48438C7.11108 5.37891 7.20776 5.36133 7.3396 5.44043L9.23804 6.5918C9.61597 6.38086 10.1521 6.16113 10.6794 6.01172L11.198 3.83203C11.2244 3.69141 11.3035 3.62988 11.4529 3.62988H12.947C13.0964 3.62988 13.1755 3.69141 13.1931 3.83203L13.7292 6.0293C14.2742 6.16992 14.7488 6.38965 15.1443 6.60059L17.0515 5.44043C17.1921 5.36133 17.28 5.37891 17.3943 5.48438L18.4314 6.50391C18.5369 6.60938 18.5369 6.71484 18.4578 6.84668L17.2888 8.74512C17.4558 9.07031 17.7107 9.58887 17.8513 10.1602L20.031 10.6875C20.1716 10.7139 20.2332 10.7842 20.2332 10.9424V12.4102C20.2332 12.5596 20.1628 12.6387 20.031 12.665L17.8425 13.1836C17.7019 13.7197 17.4822 14.2207 17.2712 14.5898L18.449 16.4883C18.5193 16.6113 18.5193 16.7168 18.4138 16.8135L17.3855 17.8506C17.2712 17.9561 17.1658 17.9736 17.0515 17.8945L15.1355 16.7168C14.7576 16.9541 14.2654 17.165 13.7292 17.2969L13.1931 19.4766C13.1755 19.6172 13.0964 19.6787 12.947 19.6787H11.4529ZM12.2 15.0117C14.0369 15.0117 15.5486 13.5 15.5486 11.6543C15.5486 9.82617 14.0369 8.31445 12.2 8.31445C10.363 8.31445 8.84253 9.82617 8.84253 11.6543C8.84253 13.4912 10.3542 15.0117 12.2 15.0117ZM12.2 13.6494C11.1101 13.6494 10.2136 12.7529 10.2136 11.6543C10.2136 10.5732 11.1101 9.67676 12.2 9.67676C13.2722 9.67676 14.1687 10.5732 14.1687 11.6543C14.1687 12.7441 13.2722 13.6494 12.2 13.6494Z" fill="#ED3D25"/>
</svg>
