<svg width="24" height="24" viewBox="0 0 24 24" fill="none" xmlns="http://www.w3.org/2000/svg">
<path d="M11.9932 13.8691C12.3418 13.8691 12.6289 13.582 12.6289 13.2471V6.36328L12.5742 5.34473L12.998 5.84375L13.9619 6.86914C14.0713 6.99219 14.2285 7.05371 14.3857 7.05371C14.6934 7.05371 14.9463 6.82812 14.9463 6.50684C14.9463 6.34277 14.8848 6.21973 14.7686 6.10352L12.4717 3.89551C12.3145 3.73145 12.1641 3.67676 11.9932 3.67676C11.8291 3.67676 11.6787 3.73145 11.5215 3.89551L9.22461 6.10352C9.1084 6.21973 9.04004 6.34277 9.04004 6.50684C9.04004 6.82812 9.29297 7.05371 9.60059 7.05371C9.75781 7.05371 9.92188 6.99219 10.0312 6.86914L10.9883 5.84375L11.4189 5.34473L11.3643 6.36328V13.2471C11.3643 13.582 11.6514 13.8691 11.9932 13.8691ZM8.0625 19.3174H15.9307C17.4072 19.3174 18.1729 18.5586 18.1729 17.1025V10.3691C18.1729 8.91309 17.4072 8.1543 15.9307 8.1543H14.0781V9.49414H15.8486C16.4775 9.49414 16.833 9.82227 16.833 10.4854V16.9863C16.833 17.6494 16.4775 17.9775 15.8486 17.9775H8.14453C7.50879 17.9775 7.16016 17.6494 7.16016 16.9863V10.4854C7.16016 9.82227 7.50879 9.49414 8.14453 9.49414H9.92871V8.1543H8.0625C6.58594 8.1543 5.82031 8.91309 5.82031 10.3691V17.1025C5.82031 18.5586 6.58594 19.3174 8.0625 19.3174Z" fill="#ED3D25"/>
</svg>
