<svg width="24" height="24" viewBox="0 0 24 24" fill="none" xmlns="http://www.w3.org/2000/svg">
<path d="M15.1465 8.41113C16.0605 8.41113 16.834 7.82227 17.1328 7.01367H20.1738C20.5342 7.01367 20.8506 6.69727 20.8506 6.30176C20.8506 5.90625 20.5342 5.59863 20.1738 5.59863H17.1328C16.8428 4.78125 16.0605 4.18359 15.1465 4.18359C14.2324 4.18359 13.4414 4.78125 13.1514 5.59863H3.84375C3.44824 5.59863 3.14062 5.90625 3.14062 6.30176C3.14062 6.69727 3.44824 7.01367 3.84375 7.01367H13.1602C13.4502 7.82227 14.2324 8.41113 15.1465 8.41113ZM15.1465 7.33008C14.5664 7.33008 14.1182 6.87305 14.1182 6.29297C14.1182 5.71289 14.5664 5.26465 15.1465 5.26465C15.7266 5.26465 16.1748 5.71289 16.1748 6.29297C16.1748 6.87305 15.7266 7.33008 15.1465 7.33008ZM3.80859 10.96C3.44824 10.96 3.14062 11.2764 3.14062 11.6719C3.14062 12.0674 3.44824 12.375 3.80859 12.375H6.95508C7.24512 13.2012 8.02734 13.79 8.94141 13.79C9.85547 13.79 10.6377 13.2012 10.9365 12.375H20.1387C20.5342 12.375 20.8506 12.0674 20.8506 11.6719C20.8506 11.2764 20.5342 10.96 20.1387 10.96H10.9277C10.6377 10.1514 9.85547 9.5625 8.94141 9.5625C8.02734 9.5625 7.24512 10.1514 6.95508 10.96H3.80859ZM8.94141 12.7002C8.37012 12.7002 7.91309 12.2432 7.91309 11.6719C7.91309 11.0918 8.37012 10.6436 8.94141 10.6436C9.52148 10.6436 9.96973 11.0918 9.96973 11.6719C9.96973 12.2432 9.52148 12.7002 8.94141 12.7002ZM15.1465 19.1514C16.0605 19.1514 16.8428 18.5625 17.1328 17.7451H20.1738C20.5342 17.7451 20.8506 17.4375 20.8506 17.042C20.8506 16.6465 20.5342 16.3301 20.1738 16.3301H17.1328C16.8428 15.5127 16.0605 14.9326 15.1465 14.9326C14.2324 14.9326 13.4502 15.5127 13.1602 16.3301H3.84375C3.44824 16.3301 3.14062 16.6465 3.14062 17.042C3.14062 17.4375 3.44824 17.7451 3.84375 17.7451H13.1514C13.4502 18.5625 14.2324 19.1514 15.1465 19.1514ZM15.1465 18.0703C14.5664 18.0703 14.1182 17.6133 14.1182 17.042C14.1182 16.4531 14.5664 16.0137 15.1465 16.0137C15.7266 16.0137 16.1748 16.4531 16.1748 17.042C16.1748 17.6133 15.7266 18.0703 15.1465 18.0703Z" fill="#ED3D25"/>
</svg>
