<svg width="33" height="32" viewBox="0 0 33 32" fill="none" xmlns="http://www.w3.org/2000/svg">
    <rect x="0.5" width="32" height="32" rx="11" fill="#141920"/>
    <g clip-path="url(#clip0_596_15700)">
        <mask id="mask0_596_15700" style="mask-type:alpha" maskUnits="userSpaceOnUse" x="6" y="15" width="21" height="6">
            <path fill-rule="evenodd" clip-rule="evenodd" d="M6.93188 17.8401C6.93188 19.3031 7.66228 20.5388 8.89455 20.5388C10.1268 20.5388 11.3479 19.3031 11.3479 17.8401C11.3479 16.2545 10.1268 15.0188 8.89455 15.0188C7.66228 15.0188 6.93188 16.2545 6.93188 17.8401ZM26.0679 17.8401C26.0679 19.3031 25.3375 20.5388 24.1052 20.5388C22.8729 20.5388 21.6519 19.3031 21.6519 17.8401C21.6519 16.2545 22.8729 15.0188 24.1052 15.0188C25.3375 15.0188 26.0679 16.2545 26.0679 17.8401Z" fill="white"/>
        </mask>
        <g mask="url(#mask0_596_15700)">
            <path d="M27.54 13.0561H5.45996V22.3788H27.54V13.0561Z" fill="#14BA30"/>
            <path d="M25.0867 13.056H7.91333V22.3787H25.0867V13.056Z" fill="#14BA30"/>
        </g>
        <g filter="url(#filter0_di_596_15700)">
            <path fill-rule="evenodd" clip-rule="evenodd" d="M14.1692 9.00808C14.1692 7.65314 15.2676 6.55475 16.6225 6.55475C17.9775 6.55475 19.0759 7.65314 19.0759 9.00808V10.3574H14.1692V9.00808Z" fill="#ED3D25"/>
        </g>
        <path fill-rule="evenodd" clip-rule="evenodd" d="M16.6227 9.37605C16.8937 9.37605 17.1134 9.25682 17.1134 8.85034C17.1134 8.44386 16.8937 7.90405 16.6227 7.90405C16.3518 7.90405 16.1321 8.44386 16.1321 8.85034C16.1321 9.25682 16.3518 9.37605 16.6227 9.37605Z" fill="#F8F8F8"/>
        <path d="M16.6227 6.73877C16.5549 6.73877 16.5 6.79369 16.5 6.86144C16.5 6.92919 16.5549 6.9841 16.6227 6.9841V6.73877ZM18.0571 7.62044C18.1026 7.67064 18.1802 7.67448 18.2304 7.629C18.2806 7.58351 18.2844 7.50594 18.239 7.45573L18.0571 7.62044ZM18.5558 7.90991C18.5244 7.84987 18.4503 7.82665 18.3903 7.85805C18.3302 7.88946 18.307 7.96357 18.3384 8.0236L18.5558 7.90991ZM18.5148 8.51203C18.529 8.57827 18.5942 8.62048 18.6604 8.6063C18.7266 8.59212 18.7689 8.52692 18.7547 8.46068L18.5148 8.51203ZM16.6227 6.9841C17.1915 6.9841 17.7029 7.22942 18.0571 7.62044L18.239 7.45573C17.8402 7.01554 17.2637 6.73877 16.6227 6.73877V6.9841ZM18.3384 8.0236C18.418 8.17567 18.4779 8.33958 18.5148 8.51203L18.7547 8.46068C18.713 8.26619 18.6455 8.08133 18.5558 7.90991L18.3384 8.0236Z" fill="#F8F8F8"/>
        <path d="M20.18 9.37604H13.0653C12.9975 9.37604 12.9426 9.43096 12.9426 9.4987V11.216C12.9426 11.2838 12.9975 11.3387 13.0653 11.3387H20.18C20.2477 11.3387 20.3026 11.2838 20.3026 11.216V9.4987C20.3026 9.43096 20.2477 9.37604 20.18 9.37604Z" fill="#ED3D25"/>
        <mask id="mask1_596_15700" style="mask-type:alpha" maskUnits="userSpaceOnUse" x="8" y="10" width="17" height="16">
            <path fill-rule="evenodd" clip-rule="evenodd" d="M8.52661 12.5653C8.52661 11.3459 9.51517 10.3573 10.7346 10.3573H22.2653C23.4847 10.3573 24.4733 11.3459 24.4733 12.5653V15.8955C24.4733 16.4518 24.3787 17.004 24.1936 17.5285L22.0493 23.6042C21.7377 24.4869 20.9032 25.0773 19.9671 25.0773H13.0328C12.0967 25.0773 11.2622 24.4869 10.9507 23.6042L8.80634 17.5285C8.6212 17.004 8.52661 16.4518 8.52661 15.8955V12.5653Z" fill="white"/>
        </mask>
        <g mask="url(#mask1_596_15700)">
            <path d="M24.7186 10.112H8.28125V25.3227H24.7186V10.112Z" fill="#14BA30"/>
        </g>
        <path d="M15.1567 21.2063C15.1268 21.0741 15.2097 20.9428 15.3419 20.9128C15.474 20.8829 15.6054 20.9658 15.6353 21.098C15.7297 21.5149 16.0586 21.7655 16.5 21.7655C16.9414 21.7655 17.2704 21.5149 17.3647 21.098C17.3946 20.9658 17.526 20.8829 17.6582 20.9128C17.7903 20.9428 17.8732 21.0741 17.8433 21.2063C17.6972 21.8516 17.1661 22.2561 16.5 22.2561C15.834 22.2561 15.3028 21.8516 15.1567 21.2063Z" fill="#141920"/>
        <path fill-rule="evenodd" clip-rule="evenodd" d="M13.5559 19.435C14.7753 19.435 15.7639 18.4465 15.7639 17.227C15.7639 16.0076 14.7753 15.019 13.5559 15.019C12.3365 15.019 11.3479 16.0076 11.3479 17.227C11.3479 18.4465 12.3365 19.435 13.5559 19.435Z" fill="#141920"/>
        <path fill-rule="evenodd" clip-rule="evenodd" d="M19.1987 19.4347C20.4182 19.4347 21.4067 18.4462 21.4067 17.2267C21.4067 16.0073 20.4182 15.0187 19.1987 15.0187C17.9793 15.0187 16.9907 16.0073 16.9907 17.2267C16.9907 18.4462 17.9793 19.4347 19.1987 19.4347Z" fill="#141920"/>
        <path fill-rule="evenodd" clip-rule="evenodd" d="M13.5561 19.0666C14.5723 19.0666 15.3961 18.2428 15.3961 17.2266C15.3961 16.2104 14.5723 15.3866 13.5561 15.3866C12.5399 15.3866 11.7161 16.2104 11.7161 17.2266C11.7161 18.2428 12.5399 19.0666 13.5561 19.0666Z" fill="#F8F8F8"/>
        <path fill-rule="evenodd" clip-rule="evenodd" d="M19.1986 19.0666C20.2149 19.0666 21.0386 18.2428 21.0386 17.2266C21.0386 16.2104 20.2149 15.3866 19.1986 15.3866C18.1824 15.3866 17.3586 16.2104 17.3586 17.2266C17.3586 18.2428 18.1824 19.0666 19.1986 19.0666Z" fill="#F8F8F8"/>
        <path d="M14.2919 16.1227H13.5559C13.4204 16.1227 13.3105 16.2325 13.3105 16.368V17.104C13.3105 17.2395 13.4204 17.3493 13.5559 17.3493H14.2919C14.4274 17.3493 14.5372 17.2395 14.5372 17.104V16.368C14.5372 16.2325 14.4274 16.1227 14.2919 16.1227Z" fill="#141920"/>
        <path d="M20.1798 16.1227H19.4438C19.3083 16.1227 19.1985 16.2325 19.1985 16.368V17.104C19.1985 17.2395 19.3083 17.3493 19.4438 17.3493H20.1798C20.3153 17.3493 20.4252 17.2395 20.4252 17.104V16.368C20.4252 16.2325 20.3153 16.1227 20.1798 16.1227Z" fill="#141920"/>
    </g>
    <rect x="1.5" y="1" width="30" height="30" rx="10" stroke="#2F3238" stroke-width="2"/>
    <defs>
        <filter id="filter0_di_596_15700" x="10.2439" y="2.62942" width="12.7574" height="11.6533" filterUnits="userSpaceOnUse" color-interpolation-filters="sRGB">
            <feFlood flood-opacity="0" result="BackgroundImageFix"/>
            <feColorMatrix in="SourceAlpha" type="matrix" values="0 0 0 0 0 0 0 0 0 0 0 0 0 0 0 0 0 0 127 0" result="hardAlpha"/>
            <feOffset/>
            <feGaussianBlur stdDeviation="1.96267"/>
            <feColorMatrix type="matrix" values="0 0 0 0 1 0 0 0 0 1 0 0 0 0 1 0 0 0 0.5 0"/>
            <feBlend mode="normal" in2="BackgroundImageFix" result="effect1_dropShadow_596_15700"/>
            <feBlend mode="normal" in="SourceGraphic" in2="effect1_dropShadow_596_15700" result="shape"/>
            <feColorMatrix in="SourceAlpha" type="matrix" values="0 0 0 0 0 0 0 0 0 0 0 0 0 0 0 0 0 0 127 0" result="hardAlpha"/>
            <feOffset/>
            <feGaussianBlur stdDeviation="0.981333"/>
            <feComposite in2="hardAlpha" operator="arithmetic" k2="-1" k3="1"/>
            <feColorMatrix type="matrix" values="0 0 0 0 1 0 0 0 0 1 0 0 0 0 1 0 0 0 0.5 0"/>
            <feBlend mode="normal" in2="shape" result="effect2_innerShadow_596_15700"/>
        </filter>
        <clipPath id="clip0_596_15700">
            <rect width="24" height="24" fill="white" transform="translate(4.5 4)"/>
        </clipPath>
    </defs>
</svg>
