<svg width="16" height="14" viewBox="0 0 16 14" fill="none" xmlns="http://www.w3.org/2000/svg">
<path d="M3.44727 6.98828C5.06445 6.98828 6.04883 5.66992 6.04883 3.56934V3.56055C6.04883 1.45996 5.06445 0.150391 3.44727 0.150391C1.83008 0.150391 0.854492 1.45996 0.854492 3.56055V3.56934C0.854492 5.66992 1.83008 6.98828 3.44727 6.98828ZM4.39648 13L13.0273 0.317383H11.6035L2.97266 13H4.39648ZM3.44727 5.94238C2.57715 5.94238 2.07617 5.05469 2.07617 3.56934V3.56055C2.07617 2.0752 2.57715 1.19629 3.44727 1.19629C4.31738 1.19629 4.82715 2.0752 4.82715 3.56055V3.56934C4.82715 5.05469 4.31738 5.94238 3.44727 5.94238ZM12.5352 13.167C14.1523 13.167 15.1367 11.8486 15.1367 9.74805V9.73926C15.1367 7.63867 14.1523 6.3291 12.5352 6.3291C10.918 6.3291 9.94238 7.63867 9.94238 9.73926V9.74805C9.94238 11.8486 10.918 13.167 12.5352 13.167ZM12.5352 12.1211C11.665 12.1211 11.1641 11.2334 11.1641 9.74805V9.73926C11.1641 8.25391 11.665 7.375 12.5352 7.375C13.4053 7.375 13.915 8.25391 13.915 9.73926V9.74805C13.915 11.2334 13.4053 12.1211 12.5352 12.1211Z" fill="#ED3D25"/>
</svg>
