<svg width="24" height="24" viewBox="0 0 24 24" fill="none" xmlns="http://www.w3.org/2000/svg">
<path d="M6.40137 3.66504L1.96289 8.19141C1.81348 8.34961 1.7168 8.57812 1.7168 8.77148C1.7168 9.2373 2.0332 9.55371 2.49023 9.55371C2.71875 9.55371 2.89453 9.47461 3.04395 9.3252L4.87207 7.43555L6.28711 5.80078L6.19922 7.83105V19.125C6.19922 19.5908 6.52441 19.916 6.99023 19.916C7.44727 19.916 7.77246 19.5908 7.77246 19.125V7.83105L7.69336 5.80078L9.09961 7.43555L10.9365 9.3252C11.0859 9.47461 11.2529 9.55371 11.4814 9.55371C11.9385 9.55371 12.2549 9.2373 12.2549 8.77148C12.2549 8.57812 12.167 8.34961 12.0088 8.19141L7.5791 3.66504C7.25391 3.32227 6.73535 3.30469 6.40137 3.66504ZM17.6074 19.6611L22.0371 15.1172C22.1953 14.9678 22.2832 14.7393 22.2832 14.5371C22.2832 14.0713 21.9668 13.7637 21.5098 13.7637C21.2812 13.7637 21.1143 13.834 20.9648 13.9834L19.1367 15.873L17.7217 17.5166L17.8008 15.4863V4.19238C17.8008 3.73535 17.4756 3.40137 17.0186 3.40137C16.5527 3.40137 16.2275 3.73535 16.2275 4.19238V15.4863L16.3154 17.5166L14.9004 15.873L13.0723 13.9834C12.9229 13.834 12.7471 13.7637 12.5273 13.7637C12.0703 13.7637 11.7451 14.0713 11.7451 14.5371C11.7451 14.7393 11.8418 14.9678 12 15.1172L16.4297 19.6611C16.7549 20.0039 17.2646 20.0127 17.6074 19.6611Z" fill="#ED3D25"/>
</svg>
