<svg width="22" height="18" viewBox="0 0 22 18" fill="none" xmlns="http://www.w3.org/2000/svg">
<path d="M5.40137 0.665039L0.962891 5.19141C0.813477 5.34961 0.716797 5.57812 0.716797 5.77148C0.716797 6.2373 1.0332 6.55371 1.49023 6.55371C1.71875 6.55371 1.89453 6.47461 2.04395 6.3252L3.87207 4.43555L5.28711 2.80078L5.19922 4.83105V16.125C5.19922 16.5908 5.52441 16.916 5.99023 16.916C6.44727 16.916 6.77246 16.5908 6.77246 16.125V4.83105L6.69336 2.80078L8.09961 4.43555L9.93652 6.3252C10.0859 6.47461 10.2529 6.55371 10.4814 6.55371C10.9385 6.55371 11.2549 6.2373 11.2549 5.77148C11.2549 5.57812 11.167 5.34961 11.0088 5.19141L6.5791 0.665039C6.25391 0.322266 5.73535 0.304688 5.40137 0.665039ZM16.6074 16.6611L21.0371 12.1172C21.1953 11.9678 21.2832 11.7393 21.2832 11.5371C21.2832 11.0713 20.9668 10.7637 20.5098 10.7637C20.2812 10.7637 20.1143 10.834 19.9648 10.9834L18.1367 12.873L16.7217 14.5166L16.8008 12.4863V1.19238C16.8008 0.735352 16.4756 0.401367 16.0186 0.401367C15.5527 0.401367 15.2275 0.735352 15.2275 1.19238V12.4863L15.3154 14.5166L13.9004 12.873L12.0723 10.9834C11.9229 10.834 11.7471 10.7637 11.5273 10.7637C11.0703 10.7637 10.7451 11.0713 10.7451 11.5371C10.7451 11.7393 10.8418 11.9678 11 12.1172L15.4297 16.6611C15.7549 17.0039 16.2646 17.0127 16.6074 16.6611Z" fill="#ED3D25"/>
</svg>
