<svg width="24" height="24" viewBox="0 0 24 24" fill="none" xmlns="http://www.w3.org/2000/svg">
<g clip-path="url(#clip0_7019_54660)">
<path d="M7.50879 5.80273L4.06348 9.32324C3.92676 9.4668 3.83789 9.67188 3.83789 9.85645C3.83789 10.2803 4.13184 10.5674 4.54883 10.5674C4.75391 10.5674 4.91797 10.499 5.04785 10.3623L6.46289 8.89941L7.37891 7.83984L7.32422 9.30273V17.8477C7.32422 18.2715 7.625 18.5723 8.04199 18.5723C8.45898 18.5723 8.75977 18.2715 8.75977 17.8477V9.30273L8.70508 7.83984L9.62793 8.89941L11.0361 10.3623C11.166 10.499 11.3369 10.5674 11.5352 10.5674C11.9521 10.5674 12.2461 10.2803 12.2461 9.85645C12.2461 9.67188 12.1641 9.4668 12.0205 9.32324L8.58203 5.80273C8.28125 5.48828 7.80957 5.48145 7.50879 5.80273ZM16.4912 18.3398L19.9365 14.8057C20.0732 14.6689 20.1621 14.4639 20.1621 14.2793C20.1621 13.8555 19.8682 13.5684 19.4512 13.5684C19.2461 13.5684 19.082 13.6367 18.9453 13.7734L17.5371 15.2295L16.6211 16.2959L16.6758 14.833V6.28809C16.6758 5.87109 16.375 5.56348 15.958 5.56348C15.541 5.56348 15.2334 5.87109 15.2334 6.28809V14.833L15.2881 16.2959L14.3721 15.2295L12.9639 13.7734C12.8271 13.6367 12.6631 13.5684 12.4648 13.5684C12.0479 13.5684 11.7539 13.8555 11.7539 14.2793C11.7539 14.4639 11.8359 14.6689 11.9727 14.8057L15.418 18.3398C15.7188 18.6475 16.1904 18.6543 16.4912 18.3398Z" fill="#ED3D25"/>
</g>
<defs>
<clipPath id="clip0_7019_54660">
<rect width="24" height="24" fill="white"/>
</clipPath>
</defs>
</svg>
