<svg width="25" height="24" viewBox="0 0 25 24" fill="none" xmlns="http://www.w3.org/2000/svg">
    <path d="M7.00146 3.66504L2.56299 8.19141C2.41357 8.34961 2.31689 8.57812 2.31689 8.77148C2.31689 9.2373 2.6333 9.55371 3.09033 9.55371C3.31885 9.55371 3.49463 9.47461 3.64404 9.3252L5.47217 7.43555L6.88721 5.80078L6.79932 7.83105V19.125C6.79932 19.5908 7.12451 19.916 7.59033 19.916C8.04736 19.916 8.37256 19.5908 8.37256 19.125V7.83105L8.29346 5.80078L9.69971 7.43555L11.5366 9.3252C11.686 9.47461 11.853 9.55371 12.0815 9.55371C12.5386 9.55371 12.855 9.2373 12.855 8.77148C12.855 8.57812 12.7671 8.34961 12.6089 8.19141L8.1792 3.66504C7.854 3.32227 7.33545 3.30469 7.00146 3.66504ZM18.2075 19.6611L22.6372 15.1172C22.7954 14.9678 22.8833 14.7393 22.8833 14.5371C22.8833 14.0713 22.5669 13.7637 22.1099 13.7637C21.8813 13.7637 21.7144 13.834 21.5649 13.9834L19.7368 15.873L18.3218 17.5166L18.4009 15.4863V4.19238C18.4009 3.73535 18.0757 3.40137 17.6187 3.40137C17.1528 3.40137 16.8276 3.73535 16.8276 4.19238V15.4863L16.9155 17.5166L15.5005 15.873L13.6724 13.9834C13.5229 13.834 13.3472 13.7637 13.1274 13.7637C12.6704 13.7637 12.3452 14.0713 12.3452 14.5371C12.3452 14.7393 12.4419 14.9678 12.6001 15.1172L17.0298 19.6611C17.355 20.0039 17.8647 20.0127 18.2075 19.6611Z" fill="#ED3D25"/>
</svg>
