<svg width="33" height="33" viewBox="0 0 33 33" fill="none" xmlns="http://www.w3.org/2000/svg">
    <rect width="32.1053" height="32.1053" rx="6.42105" fill="#1D2129"/>
    <path d="M7.47108 15.7344C9.31252 14.7201 11.3681 13.8735 13.2887 13.0226C16.5929 11.6289 19.9102 10.2594 23.261 8.98434C23.913 8.76709 25.0844 8.55463 25.1992 9.52078C25.1363 10.8883 24.8776 12.2479 24.7001 13.6075C24.2497 16.5973 23.7291 19.5768 23.2214 22.5568C23.0465 23.5494 21.803 24.0633 21.0074 23.4281C19.0953 22.1365 17.1685 20.8575 15.2808 19.536C14.6625 18.9077 15.2359 18.0054 15.7881 17.5567C17.363 16.0047 19.0331 14.6861 20.5257 13.0539C20.9283 12.0817 19.7387 12.901 19.3463 13.1521C17.1904 14.6378 15.0872 16.2142 12.8141 17.52C11.653 18.1591 10.2997 17.6129 9.13918 17.2563C8.09859 16.8254 6.57375 16.3914 7.47098 15.7344L7.47108 15.7344Z" fill="#ED3D25"/>
</svg>
