<svg width="24" height="24" viewBox="0 0 24 24" fill="none" xmlns="http://www.w3.org/2000/svg">
<path d="M7.85742 18.4561H16.1357C17.6123 18.4561 18.3779 17.6904 18.3779 16.2344V7.91504C18.3779 6.45215 17.6123 5.69336 16.1357 5.69336H7.85742C6.38086 5.69336 5.61523 6.45215 5.61523 7.91504V16.2344C5.61523 17.6973 6.38086 18.4561 7.85742 18.4561ZM7.93945 17.1162C7.30371 17.1162 6.95508 16.7812 6.95508 16.1182V8.02441C6.95508 7.36133 7.30371 7.0332 7.93945 7.0332H16.0537C16.6826 7.0332 17.0381 7.36133 17.0381 8.02441V16.1182C17.0381 16.7812 16.6826 17.1162 16.0537 17.1162H7.93945ZM14.1328 13.8418C14.4678 13.8418 14.6934 13.5889 14.6934 13.2266V10.0479C14.6934 9.57617 14.4268 9.37109 14.0029 9.37109H10.8037C10.4414 9.37109 10.2021 9.58984 10.2021 9.9248C10.2021 10.2666 10.4414 10.4854 10.8105 10.4854H11.9658L12.9023 10.3828L11.8906 11.3057L9.49121 13.7051C9.375 13.8213 9.2998 13.9785 9.2998 14.1426C9.2998 14.5049 9.55273 14.7373 9.89453 14.7373C10.0859 14.7373 10.2295 14.6758 10.3594 14.5527L12.7451 12.1602L13.668 11.1553L13.5654 12.1396V13.2334C13.5654 13.6094 13.791 13.8418 14.1328 13.8418Z" fill="#ED3D25"/>
</svg>
