<svg width="25" height="24" viewBox="0 0 25 24" fill="none" xmlns="http://www.w3.org/2000/svg">
    <path d="M9.9707 15.9541H17.9277C18.249 15.9541 18.5293 15.708 18.5293 15.3525C18.5293 14.9971 18.249 14.751 17.9277 14.751H10.1211C9.78613 14.751 9.58105 14.5117 9.5332 14.1631L9.43066 13.4521H17.9824C19.0215 13.4521 19.5684 12.8164 19.7256 11.7842L20.2383 8.3457C20.252 8.25 20.2656 8.13379 20.2656 8.06543C20.2656 7.66895 19.9854 7.40234 19.5205 7.40234H8.54883L8.43945 6.65039C8.35742 6.0625 8.125 5.76172 7.36621 5.76172H5.01465C4.67969 5.76172 4.38574 6.05566 4.38574 6.4043C4.38574 6.74609 4.67969 7.04004 5.01465 7.04004H7.16797L8.23438 14.2998C8.38477 15.3252 8.93164 15.9541 9.9707 15.9541ZM18.8643 8.60547L18.4268 11.6611C18.3789 12.0166 18.1875 12.2422 17.8457 12.2422L9.25293 12.249L8.72656 8.60547H18.8643ZM10.5244 19.3721C11.1875 19.3721 11.707 18.8457 11.707 18.1895C11.707 17.5264 11.1875 17 10.5244 17C9.86816 17 9.3418 17.5264 9.3418 18.1895C9.3418 18.8457 9.86816 19.3721 10.5244 19.3721ZM16.8477 19.3721C17.5107 19.3721 18.0371 18.8457 18.0371 18.1895C18.0371 17.5264 17.5107 17 16.8477 17C16.1914 17 15.6582 17.5264 15.6582 18.1895C15.6582 18.8457 16.1914 19.3721 16.8477 19.3721Z" fill="#ED3D25"/>
</svg>
