<svg width="21" height="18" viewBox="0 0 21 18" fill="none" xmlns="http://www.w3.org/2000/svg">
<path d="M7.77441 13.6465H18.0312C18.374 13.6465 18.6729 13.3652 18.6729 12.9873C18.6729 12.6094 18.374 12.3281 18.0312 12.3281H7.92383C7.42285 12.3281 7.11523 11.9766 7.03613 11.4404L6.89551 10.5176H18.0488C19.332 10.5176 19.9912 9.72656 20.1758 8.46973L20.8789 3.82031C20.8965 3.70605 20.9141 3.56543 20.9141 3.48633C20.9141 3.06445 20.5977 2.77441 20.1143 2.77441H5.76172L5.59473 1.6582C5.50684 0.981445 5.26074 0.638672 4.36426 0.638672H1.2793C0.927734 0.638672 0.628906 0.946289 0.628906 1.29785C0.628906 1.6582 0.927734 1.96582 1.2793 1.96582H4.25L5.65625 11.6162C5.84082 12.8643 6.5 13.6465 7.77441 13.6465ZM19.4199 4.10156L18.7959 8.31152C18.7256 8.85645 18.4355 9.19043 17.917 9.19043L6.70215 9.19922L5.95508 4.10156H19.4199ZM8.46875 17.918C9.25977 17.918 9.89258 17.2939 9.89258 16.4941C9.89258 15.7031 9.25977 15.0703 8.46875 15.0703C7.66895 15.0703 7.03613 15.7031 7.03613 16.4941C7.03613 17.2939 7.66895 17.918 8.46875 17.918ZM16.6865 17.918C17.4863 17.918 18.1191 17.2939 18.1191 16.4941C18.1191 15.7031 17.4863 15.0703 16.6865 15.0703C15.8955 15.0703 15.2539 15.7031 15.2539 16.4941C15.2539 17.2939 15.8955 17.918 16.6865 17.918Z" fill="#ED3D25"/>
</svg>
