<svg width="17" height="16" viewBox="0 0 17 16" fill="none" xmlns="http://www.w3.org/2000/svg">
<g clip-path="url(#clip0_1376_24426)">
<path d="M6.25879 13.5332H10.7461C11.4932 13.5332 11.9766 13.0791 12.0107 12.3271L12.3428 5.29102H12.8799C13.124 5.29102 13.3145 5.10547 13.3145 4.86133C13.3145 4.62207 13.124 4.43652 12.8799 4.43652H10.707V3.7041C10.707 2.95703 10.2334 2.5127 9.42285 2.5127H7.56738C6.76172 2.5127 6.2832 2.95703 6.2832 3.7041V4.43652H4.11523C3.88086 4.43652 3.68555 4.62207 3.68555 4.86133C3.68555 5.10547 3.88086 5.29102 4.11523 5.29102H4.65723L4.98926 12.332C5.02344 13.084 5.50195 13.5332 6.25879 13.5332ZM7.18164 3.74805C7.18164 3.49414 7.35742 3.33301 7.63086 3.33301H9.35938C9.63281 3.33301 9.80859 3.49414 9.80859 3.74805V4.43652H7.18164V3.74805ZM6.35156 12.6689C6.08301 12.6689 5.8877 12.4736 5.87305 12.1855L5.5459 5.29102H11.4395L11.1221 12.1855C11.1123 12.4736 10.917 12.6689 10.6387 12.6689H6.35156ZM7.05957 11.8828C7.26465 11.8828 7.39648 11.751 7.3916 11.5605L7.24512 6.44336C7.24023 6.24805 7.10352 6.12109 6.9082 6.12109C6.70312 6.12109 6.57129 6.25293 6.57617 6.44336L6.72266 11.5605C6.72754 11.7559 6.86426 11.8828 7.05957 11.8828ZM8.5 11.8828C8.70508 11.8828 8.8418 11.751 8.8418 11.5605V6.44336C8.8418 6.25293 8.70508 6.12109 8.5 6.12109C8.29492 6.12109 8.1582 6.25293 8.1582 6.44336V11.5605C8.1582 11.751 8.29492 11.8828 8.5 11.8828ZM9.94043 11.8828C10.1357 11.8828 10.2676 11.7559 10.2725 11.5605L10.4238 6.44336C10.4287 6.25293 10.292 6.12109 10.0918 6.12109C9.89648 6.12109 9.75977 6.24805 9.75488 6.44336L9.60352 11.5605C9.59863 11.751 9.73535 11.8828 9.94043 11.8828Z" fill="#ED3D25"/>
</g>
<defs>
<clipPath id="clip0_1376_24426">
<rect width="16" height="16" fill="white" transform="translate(0.5)"/>
</clipPath>
</defs>
</svg>
