<svg width="33" height="33" viewBox="0 0 33 33" fill="none" xmlns="http://www.w3.org/2000/svg">
    <rect width="32.1053" height="32.1053" rx="6.42105" fill="#1D2129"/>
    <path d="M15.7689 13.1173L15.8036 13.6892L15.2256 13.6192C13.1215 13.3507 11.2833 12.4404 9.72257 10.9114L8.95955 10.1528L8.76302 10.713C8.34683 11.9618 8.61273 13.2807 9.47979 14.1677C9.94223 14.6579 9.83818 14.728 9.04048 14.4362C8.76302 14.3428 8.52024 14.2728 8.49712 14.3078C8.41619 14.3895 8.69365 15.4516 8.91331 15.8718C9.21389 16.4553 9.82662 17.0272 10.4972 17.3657L11.0636 17.6342L10.3931 17.6458C9.74569 17.6458 9.72257 17.6575 9.79194 17.9026C10.0232 18.6612 10.9365 19.4666 11.9538 19.8167L12.6706 20.0618L12.0463 20.4353C11.1214 20.9722 10.0347 21.2756 8.94799 21.299C8.42775 21.3107 8 21.3573 8 21.3924C8 21.5091 9.41043 22.1627 10.2313 22.4194C12.6937 23.1781 15.6186 22.8513 17.8152 21.5558C19.3759 20.6337 20.9366 18.8013 21.665 17.0272C22.058 16.0819 22.4511 14.3545 22.4511 13.5258C22.4511 12.9889 22.4858 12.9189 23.1332 12.277C23.5147 11.9035 23.8731 11.495 23.9425 11.3783C24.0581 11.1565 24.0465 11.1565 23.4569 11.3549C22.4742 11.7051 22.3355 11.6584 22.8211 11.1332C23.1794 10.7597 23.6072 10.0827 23.6072 9.88432C23.6072 9.8493 23.4338 9.90766 23.2372 10.0127C23.0291 10.1294 22.5667 10.3045 22.2199 10.4095L21.5956 10.6079L21.0291 10.2228C20.717 10.0127 20.2777 9.77928 20.0464 9.70925C19.4568 9.54585 18.5551 9.56919 18.0233 9.75593C16.5782 10.2811 15.6649 11.635 15.7689 13.1173Z" fill="#ED3D25"/>
</svg>
