<svg width="24" height="24" viewBox="0 0 24 24" fill="none" xmlns="http://www.w3.org/2000/svg">
    <path d="M12 11.8125C14.0918 11.8125 15.7969 9.94922 15.7969 7.68164C15.7969 5.43164 14.1006 3.66504 12 3.66504C9.91699 3.66504 8.20312 5.4668 8.20312 7.69922C8.21191 9.95801 9.9082 11.8125 12 11.8125ZM12 10.4854C10.7168 10.4854 9.61816 9.25488 9.61816 7.69922C9.61816 6.16992 10.6992 4.99219 12 4.99219C13.3096 4.99219 14.3818 6.15234 14.3818 7.68164C14.3818 9.2373 13.292 10.4854 12 10.4854ZM6.47168 19.9424H17.5195C18.9785 19.9424 19.6729 19.5029 19.6729 18.5361C19.6729 16.2334 16.7637 12.9023 12 12.9023C7.22754 12.9023 4.31836 16.2334 4.31836 18.5361C4.31836 19.5029 5.0127 19.9424 6.47168 19.9424ZM6.05859 18.6152C5.83008 18.6152 5.7334 18.5537 5.7334 18.3691C5.7334 16.9277 7.96582 14.2295 12 14.2295C16.0254 14.2295 18.2578 16.9277 18.2578 18.3691C18.2578 18.5537 18.1699 18.6152 17.9414 18.6152H6.05859Z" fill="#ED3D25"/>
</svg>
