<svg width="24" height="24" viewBox="0 0 24 24" fill="none" xmlns="http://www.w3.org/2000/svg">
<path d="M10.9325 2.5C8.74977 2.5 6.96627 4.28267 6.96627 6.46443C6.96627 8.64618 8.74977 10.4289 10.9325 10.4289C13.1153 10.4289 14.8988 8.64618 14.8988 6.46443C14.8988 4.28267 13.1153 2.5 10.9325 2.5ZM10.9325 3.82148C12.4007 3.82148 13.5767 4.99759 13.5767 6.46443C13.5767 7.93193 12.4007 9.10738 10.9325 9.10738C9.46436 9.10738 8.28836 7.93193 8.28836 6.46443C8.28836 4.99759 9.46436 3.82148 10.9325 3.82148ZM8.9494 11.7503C5.66467 11.7503 3 14.4138 3 17.697V19.0184C3 19.1937 3.06965 19.3617 3.19362 19.4857C3.31759 19.6096 3.48572 19.6792 3.66104 19.6792H10.8321C11.0074 19.6792 11.1755 19.6096 11.2995 19.4857C11.4235 19.3617 11.4931 19.1937 11.4931 19.0184C11.4931 18.8432 11.4235 18.6751 11.2995 18.5512C11.1755 18.4273 11.0074 18.3577 10.8321 18.3577H4.32209V17.697C4.32209 15.1234 6.37463 13.0718 8.9494 13.0718H11.6042C11.7795 13.0718 11.9476 13.0022 12.0716 12.8783C12.1956 12.7544 12.2652 12.5863 12.2652 12.4111C12.2652 12.2358 12.1956 12.0678 12.0716 11.9439C11.9476 11.8199 11.7795 11.7503 11.6042 11.7503H8.9494ZM16.8733 11.7503C16.7863 11.7513 16.7004 11.7694 16.6204 11.8036C16.5404 11.8378 16.4679 11.8874 16.4071 11.9496C16.3463 12.0119 16.2984 12.0855 16.2661 12.1662C16.2338 12.247 16.2178 12.3334 16.2189 12.4203V13.1379C15.8047 13.2242 15.411 13.3895 15.0594 13.6248L14.5518 13.1174C14.3958 12.9575 14.2193 12.8967 14.052 12.906C13.5516 12.9324 13.1365 13.5845 13.617 14.0517L14.1267 14.5618C13.8925 14.9132 13.7282 15.3065 13.6428 15.72H12.9249C12.0312 15.7075 12.0312 17.0547 12.9249 17.0415H13.6455C13.7314 17.4584 13.9 17.8463 14.128 18.1905L13.6144 18.7039C12.9732 19.327 13.9264 20.2791 14.5491 19.6382L15.0621 19.1261C15.413 19.3605 15.8058 19.5251 16.2189 19.6111V20.33C16.2057 21.2233 17.5536 21.2233 17.541 20.33V19.6131C17.9536 19.5274 18.3459 19.3632 18.6965 19.1294L19.2121 19.6448C19.2727 19.7094 19.3457 19.7612 19.4267 19.797C19.5077 19.8329 19.595 19.8521 19.6836 19.8535C19.7722 19.8549 19.8601 19.8386 19.9422 19.8054C20.0243 19.7722 20.0989 19.7228 20.1616 19.6602C20.2242 19.5977 20.2737 19.5231 20.307 19.4411C20.3402 19.359 20.3567 19.2711 20.3553 19.1826C20.3539 19.0941 20.3348 19.0067 20.2989 18.9257C20.2631 18.8448 20.2114 18.7718 20.1468 18.7112L19.6332 18.1971C19.8674 17.847 20.0321 17.4551 20.1184 17.0428H20.839C21.0143 17.0428 21.1824 16.9732 21.3064 16.8493C21.4304 16.7254 21.5 16.5573 21.5 16.3821C21.5 16.2069 21.4304 16.0388 21.3064 15.9149C21.1824 15.791 21.0143 15.7214 20.839 15.7214H20.1211C20.0358 15.3051 19.8705 14.9093 19.6345 14.5558L20.1442 14.0464C20.2077 13.985 20.2582 13.9115 20.2927 13.8302C20.3271 13.749 20.3449 13.6616 20.3449 13.5733C20.3449 13.485 20.3271 13.3976 20.2927 13.3164C20.2582 13.2351 20.2077 13.1616 20.1442 13.1002C20.0187 12.978 19.85 12.9103 19.6749 12.9119C19.5002 12.9149 19.3338 12.9869 19.2121 13.1121L18.7011 13.6229C18.3498 13.3883 17.9566 13.2237 17.543 13.1379V12.4203C17.5444 12.3322 17.5281 12.2446 17.4951 12.1629C17.4621 12.0811 17.413 12.0068 17.3508 11.9443C17.2885 11.8819 17.2144 11.8325 17.1327 11.7992C17.051 11.7659 16.9635 11.7493 16.8753 11.7503H16.8733ZM16.8819 14.3933C17.9846 14.3933 18.8651 15.2727 18.8651 16.3755C18.8651 17.4776 17.9846 18.3577 16.8819 18.3577C15.7787 18.3577 14.8988 17.4776 14.8988 16.3755C14.8988 15.2727 15.7787 14.3933 16.8819 14.3933Z" fill="#ED3D25"/>
</svg>
