<svg width="64" height="64" viewBox="0 0 64 64" fill="none" xmlns="http://www.w3.org/2000/svg">
    <g clip-path="url(#clip0_10297_30393)">
        <path d="M56.4988 14.5031H49.4983V7.50037C49.5002 5.56763 47.9331 4 45.999 4H17.999C16.0669 4 14.4998 5.56763 14.4998 7.50037V14.5031H7.49926C5.56713 14.5031 4 16.0707 4 18.0035V46.0124C4 47.9451 5.56713 49.5128 7.49926 49.5128H14.4998V56.4976C14.4998 58.4304 16.0669 59.998 17.999 59.998H45.999C47.9311 59.998 49.4983 58.4304 49.4983 56.4976V49.5128H56.4988C58.4309 49.5128 59.998 47.9451 59.998 46.0124V18.0035C59.998 16.0707 58.4309 14.5031 56.4988 14.5031Z" fill="#080E15"/>
        <path d="M56.4988 14.5032H52.9995V18.0035H54.7491C55.7152 18.0035 56.4988 18.7874 56.4988 19.7537V44.2603C56.4988 45.2267 55.7152 46.0105 54.7491 46.0105H52.9995V49.5109H56.4988C58.4309 49.5109 59.998 47.9432 59.998 46.0105V18.0035C59.998 16.0708 58.4309 14.5032 56.4988 14.5032Z" fill="url(#paint0_linear_10297_30393)"/>
        <path d="M7.49926 44.2623V19.7557C7.49926 18.7893 8.28282 18.0055 9.24888 18.0055H10.9985V14.5051H7.49926C5.56713 14.5031 4 16.0708 4 18.0035V46.0124C4 47.9452 5.56713 49.5128 7.49926 49.5128H10.9985V46.0124H9.24888C8.28282 46.0124 7.49926 45.2286 7.49926 44.2623Z" fill="url(#paint1_linear_10297_30393)"/>
        <path d="M44.2494 56.5155H19.7506C18.7846 56.5155 18.001 55.7317 18.001 54.7654V43.0975C16.7969 42.5716 15.6305 41.9783 14.5017 41.3254V56.4977C14.5017 58.4304 16.0689 59.9981 18.001 59.9981H45.999C47.9311 59.9981 49.4983 58.4304 49.4983 56.4977V41.3254C48.3695 41.9783 47.2011 42.5716 45.999 43.0975V54.7654C45.999 55.7317 45.2154 56.5155 44.2494 56.5155Z" fill="url(#paint2_linear_10297_30393)"/>
        <path d="M19.7506 7.48251H44.2494C45.2154 7.48251 45.999 8.26633 45.999 9.2327V20.9006C47.2031 21.4265 48.3695 22.0198 49.4983 22.6726V7.50037C49.4983 5.56763 47.9311 4 45.999 4H17.999C16.0669 4 14.4998 5.56763 14.4998 7.50037V22.6746C15.6285 22.0218 16.7969 21.4284 17.999 20.9026V9.23468C17.999 8.26831 18.7826 7.4845 19.7486 7.4845L19.7506 7.48251Z" fill="url(#paint3_linear_10297_30393)"/>
        <path d="M52.9995 32.009C48.554 26.4568 42.3748 22.6786 35.414 21.738C39.5361 23.2045 42.4998 27.2466 42.4998 32.009C42.4998 36.7714 39.5361 40.8155 35.414 42.2799C42.3748 41.3393 48.556 37.5611 52.9995 32.009Z" fill="white"/>
        <path d="M21.5003 32.009C21.5003 27.2466 24.4639 23.2025 28.5861 21.738C21.6252 22.6786 15.444 26.4568 11.0005 32.009C15.446 37.5611 21.6252 41.3393 28.5861 42.2799C24.4639 40.8135 21.5003 36.7714 21.5003 32.009Z" fill="white"/>
        <path d="M32 35.5094C28.7388 35.5094 26.0072 33.277 25.2296 30.2568C25.0848 30.8164 24.9995 31.4018 24.9995 32.007C24.9995 35.6919 27.8481 38.7061 31.4624 38.982C31.639 38.9998 31.8175 39.0097 32 39.0097C32.1825 39.0097 32.361 38.9998 32.5376 38.982C36.1519 38.7061 39.0005 35.6919 39.0005 32.007C39.0005 31.4018 38.9152 30.8164 38.7704 30.2568C37.9928 33.275 35.2612 35.5094 32 35.5094Z" fill="#ED3D25"/>
        <path d="M32 28.5065C33.9326 28.5065 35.4992 27.7229 35.4992 26.7563C35.4992 25.7897 33.9326 25.0061 32 25.0061C30.0674 25.0061 28.5007 25.7897 28.5007 26.7563C28.5007 27.7229 30.0674 28.5065 32 28.5065Z" fill="white"/>
    </g>
    <defs>
        <linearGradient id="paint0_linear_10297_30393" x1="52.9995" y1="32.009" x2="60" y2="32.009" gradientUnits="userSpaceOnUse">
            <stop stop-color="#080E15"/>
            <stop offset="1" stop-color="#ED3D25"/>
        </linearGradient>
        <linearGradient id="paint1_linear_10297_30393" x1="4" y1="32.009" x2="11.0005" y2="32.009" gradientUnits="userSpaceOnUse">
            <stop stop-color="#ED3D25"/>
            <stop offset="1" stop-color="#080E15"/>
        </linearGradient>
        <linearGradient id="paint2_linear_10297_30393" x1="32" y1="60" x2="32" y2="41.3254" gradientUnits="userSpaceOnUse">
            <stop stop-color="#ED3D25"/>
            <stop offset="1" stop-color="#080E15" stop-opacity="0"/>
        </linearGradient>
        <linearGradient id="paint3_linear_10297_30393" x1="32" y1="22.6746" x2="32" y2="4" gradientUnits="userSpaceOnUse">
            <stop stop-color="#080E15" stop-opacity="0"/>
            <stop offset="1" stop-color="#ED3D25"/>
        </linearGradient>
        <clipPath id="clip0_10297_30393">
            <rect width="56" height="56" fill="white" transform="translate(4 4)"/>
        </clipPath>
    </defs>
</svg>
