<svg width="65" height="64" viewBox="0 0 65 64" fill="none" xmlns="http://www.w3.org/2000/svg">
    <path d="M39.9099 49.5154H56.5909C58.7491 49.5154 60.5007 47.9477 60.5007 46.0148V17.9166C60.5007 15.9837 58.7511 14.416 56.5909 14.416H39.9099C37.7516 14.416 36 15.9837 36 17.9166V46.0128C36 47.9477 37.7516 49.5154 39.9099 49.5154Z" fill="url(#paint0_linear_6685_70118)"/>
    <path d="M55.2486 46.0128H41.2496C40.2836 46.0128 39.5 45.2289 39.5 44.2625V19.7542C39.5 18.7878 40.2836 18.0039 41.2496 18.0039H55.2486C56.2147 18.0039 56.9983 18.7878 56.9983 19.7542V44.2625C56.9983 45.2289 56.2147 46.0128 55.2486 46.0128Z" fill="#080E15"/>
    <path d="M8.40988 49.5154H25.0909C27.2491 49.5154 29.0007 47.9477 29.0007 46.0148V17.9166C29.0007 15.9837 27.2511 14.416 25.0909 14.416H8.40988C6.25161 14.416 4.5 15.9837 4.5 17.9166V46.0128C4.5 47.9477 6.24963 49.5154 8.40988 49.5154Z" fill="url(#paint1_linear_6685_70118)"/>
    <path d="M55.2498 46.0128H9.75158C8.78552 46.0128 8.00195 45.2289 8.00195 44.2625V19.7542C8.00195 18.7878 8.78552 18.0039 9.75158 18.0039H55.2518C56.2179 18.0039 57.0015 18.7878 57.0015 19.7542V44.2625C56.9995 45.2289 56.2159 46.0128 55.2498 46.0128Z" fill="#080E15"/>
    <path d="M46.4992 54.767C46.4992 55.7335 45.7157 56.5173 44.7496 56.5173H20.2508C19.2848 56.5173 18.5012 55.7335 18.5012 54.767V43.0983C17.2971 42.5724 16.1307 41.9791 15.002 41.3262V56.4995C15.002 58.4323 16.5691 60.0001 18.5012 60.0001H46.5012C48.4333 60.0001 50.0005 58.4323 50.0005 56.4995V41.3262C48.8717 41.9791 47.7033 42.5724 46.5012 43.0983V54.767H46.4992Z" fill="url(#paint2_linear_6685_70118)"/>
    <path d="M18.5012 9.25092C18.5012 8.28448 19.2848 7.50061 20.2508 7.50061H44.7496C45.7157 7.50061 46.4992 8.28448 46.4992 9.25092V20.9196C47.7033 21.4455 48.8697 22.0389 49.9985 22.6918V7.50061C49.9985 5.56773 48.4314 4 46.4992 4H18.5012C16.5691 4 15.002 5.56773 15.002 7.50061V22.6918C16.1307 22.0389 17.2991 21.4455 18.5012 20.9196V9.25092Z" fill="url(#paint3_linear_6685_70118)"/>
    <path d="M20.2516 56.5167H44.7503C45.7164 56.5167 46.5 55.7328 46.5 54.7664V43.0977C42.2132 44.973 37.4781 46.0129 32.501 46.0129C27.5238 46.0129 22.7887 44.971 18.502 43.0977V54.7664C18.502 55.7328 19.2855 56.5167 20.2516 56.5167Z" fill="#080E15"/>
    <path d="M44.7503 7.5H20.2516C19.2855 7.5 18.502 8.28387 18.502 9.25031V20.919C22.7887 19.0437 27.5238 18.0038 32.501 18.0038C37.4781 18.0038 42.2132 19.0457 46.5 20.919V9.25031C46.5 8.28188 45.7164 7.5 44.7503 7.5Z" fill="#080E15"/>
    <path d="M32.4995 42.5116C44.0972 42.5116 53.499 37.8088 53.499 32.0077C53.499 26.2066 44.0972 21.5039 32.4995 21.5039C20.9018 21.5039 11.5 26.2066 11.5 32.0077C11.5 37.8088 20.9018 42.5116 32.4995 42.5116Z" fill="white"/>
    <path d="M32.4998 42.8725C38.2986 42.8725 42.9995 38.009 42.9995 32.0095C42.9995 26.01 38.2986 21.1465 32.4998 21.1465C26.7009 21.1465 22 26.01 22 32.0095C22 38.009 26.7009 42.8725 32.4998 42.8725Z" fill="#080E15"/>
    <path d="M32.5005 39.0123C36.3668 39.0123 39.501 35.8768 39.501 32.0091C39.501 28.1413 36.3668 25.0059 32.5005 25.0059C28.6342 25.0059 25.5 28.1413 25.5 32.0091C25.5 35.8768 28.6342 39.0123 32.5005 39.0123Z" fill="#ED3D24"/>
    <path d="M32.5009 39.0117C35.4008 39.0117 37.7517 36.6599 37.7517 33.7588C37.7517 30.8577 35.4008 28.5059 32.5009 28.5059C29.6009 28.5059 27.25 30.8577 27.25 33.7588C27.25 36.6599 29.6009 39.0117 32.5009 39.0117Z" fill="#ED3D24"/>
    <path d="M32.5005 35.5103C36.3668 35.5103 39.501 32.3749 39.501 28.5071C39.501 24.6394 36.3668 21.5039 32.5005 21.5039C28.6342 21.5039 25.5 24.6394 25.5 28.5071C25.5 32.3749 28.6342 35.5103 32.5005 35.5103Z" fill="#080E15"/>
    <path d="M32.4993 28.506C34.4318 28.506 35.9985 27.7225 35.9985 26.7559C35.9985 25.7894 34.4318 25.0059 32.4993 25.0059C30.5667 25.0059 29 25.7894 29 26.7559C29 27.7225 30.5667 28.506 32.4993 28.506Z" fill="white"/>
    <defs>
        <linearGradient id="paint0_linear_6685_70118" x1="36.0007" y1="31.9652" x2="60.5005" y2="31.9652" gradientUnits="userSpaceOnUse">
            <stop offset="0.6" stop-color="#080E15"/>
            <stop offset="1" stop-color="#ED3D24"/>
        </linearGradient>
        <linearGradient id="paint1_linear_6685_70118" x1="4.50027" y1="31.9652" x2="29" y2="31.9652" gradientUnits="userSpaceOnUse">
            <stop stop-color="#ED3D24"/>
            <stop offset="0.4" stop-color="#080E15"/>
        </linearGradient>
        <linearGradient id="paint2_linear_6685_70118" x1="32.5002" y1="60.0015" x2="32.5002" y2="41.3265" gradientUnits="userSpaceOnUse">
            <stop stop-color="#ED3D24"/>
            <stop offset="1" stop-color="#080E15"/>
        </linearGradient>
        <linearGradient id="paint3_linear_6685_70118" x1="32.5002" y1="22.6912" x2="32.5002" y2="3.99835" gradientUnits="userSpaceOnUse">
            <stop stop-color="#080E15"/>
            <stop offset="1" stop-color="#ED3D24"/>
        </linearGradient>
    </defs>
</svg>
