<svg width="25" height="24" viewBox="0 0 25 24" fill="none" xmlns="http://www.w3.org/2000/svg">
<path d="M7.13379 18.6201H17.8594C18.9189 18.6201 19.5957 17.8408 19.5957 16.8838C19.5957 16.5967 19.5205 16.3027 19.3701 16.0293L13.9971 6.43164C13.6689 5.83691 13.0879 5.54297 12.5 5.54297C11.9121 5.54297 11.3242 5.84375 10.9961 6.43164L5.62988 16.0361C5.47949 16.3096 5.39746 16.5967 5.39746 16.8838C5.39746 17.8408 6.08105 18.6201 7.13379 18.6201ZM12.5068 13.9375C12.1035 13.9375 11.8779 13.7119 11.8643 13.3086L11.7686 9.86328C11.7549 9.44629 12.0557 9.15234 12.5 9.15234C12.9307 9.15234 13.2451 9.44629 13.2314 9.86328L13.1289 13.3018C13.1152 13.7188 12.8896 13.9375 12.5068 13.9375ZM12.5068 16.2891C12.0488 16.2891 11.666 15.9609 11.666 15.5098C11.666 15.0654 12.042 14.7305 12.5068 14.7305C12.9648 14.7305 13.3408 15.0586 13.3408 15.5098C13.3408 15.9609 12.958 16.2891 12.5068 16.2891Z" fill="#F8F8F8"/>
</svg>
