<svg width="24" height="24" viewBox="0 0 24 24" fill="none" xmlns="http://www.w3.org/2000/svg">
    <g clip-path="url(#clip0_2795_80946)">
        <path d="M6.63379 18.6201H17.3594C18.4189 18.6201 19.0957 17.8408 19.0957 16.8838C19.0957 16.5967 19.0205 16.3027 18.8701 16.0293L13.4971 6.43164C13.1689 5.83691 12.5879 5.54297 12 5.54297C11.4121 5.54297 10.8242 5.84375 10.4961 6.43164L5.12988 16.0361C4.97949 16.3096 4.89746 16.5967 4.89746 16.8838C4.89746 17.8408 5.58105 18.6201 6.63379 18.6201ZM12.0068 13.9375C11.6035 13.9375 11.3779 13.7119 11.3643 13.3086L11.2686 9.86328C11.2549 9.44629 11.5557 9.15234 12 9.15234C12.4307 9.15234 12.7451 9.44629 12.7314 9.86328L12.6289 13.3018C12.6152 13.7188 12.3896 13.9375 12.0068 13.9375ZM12.0068 16.2891C11.5488 16.2891 11.166 15.9609 11.166 15.5098C11.166 15.0654 11.542 14.7305 12.0068 14.7305C12.4648 14.7305 12.8408 15.0586 12.8408 15.5098C12.8408 15.9609 12.458 16.2891 12.0068 16.2891Z" fill="#D6A700"/>
    </g>
    <defs>
        <clipPath id="clip0_2795_80946">
            <rect width="24" height="24" fill="white"/>
        </clipPath>
    </defs>
</svg>
