<svg width="24" height="24" viewBox="0 0 24 24" fill="none" xmlns="http://www.w3.org/2000/svg">
    <path d="M4.95215 5.83008H19.041C19.3691 5.83008 19.5879 5.59082 19.5879 5.24219C19.5879 4.89355 19.3691 4.64746 19.041 4.64746H4.95215C4.62402 4.64746 4.40527 4.88672 4.40527 5.24219C4.40527 5.59082 4.62402 5.83008 4.95215 5.83008ZM5.875 11.4424H7.2832C8.26758 11.4424 8.75293 10.957 8.75293 9.94531V8.58496C8.75293 7.57324 8.26758 7.09473 7.2832 7.09473H5.875C4.89062 7.09473 4.40527 7.57324 4.40527 8.58496V9.94531C4.40527 10.957 4.89062 11.4424 5.875 11.4424ZM11.2891 11.4424H12.6973C13.6816 11.4424 14.167 10.957 14.167 9.94531V8.58496C14.167 7.57324 13.6816 7.09473 12.6973 7.09473H11.2891C10.3047 7.09473 9.81934 7.57324 9.81934 8.58496V9.94531C9.81934 10.957 10.3047 11.4424 11.2891 11.4424ZM16.71 11.4424H18.1182C19.1025 11.4424 19.5879 10.957 19.5879 9.94531V8.58496C19.5879 7.57324 19.1025 7.09473 18.1182 7.09473H16.71C15.7188 7.09473 15.2402 7.57324 15.2402 8.58496V9.94531C15.2402 10.957 15.7188 11.4424 16.71 11.4424ZM5.88184 10.3145C5.64258 10.3145 5.52637 10.1982 5.52637 9.94531V8.57812C5.52637 8.33887 5.64258 8.21582 5.88184 8.21582H7.26953C7.50879 8.21582 7.625 8.33887 7.625 8.57812V9.94531C7.625 10.1982 7.50879 10.3145 7.26953 10.3145H5.88184ZM11.3027 10.3145C11.0566 10.3145 10.9473 10.1982 10.9473 9.94531V8.57812C10.9473 8.33887 11.0566 8.21582 11.3027 8.21582H12.6904C12.9297 8.21582 13.0459 8.33887 13.0459 8.57812V9.94531C13.0459 10.1982 12.9297 10.3145 12.6904 10.3145H11.3027ZM16.7168 10.3145C16.4775 10.3145 16.3613 10.1982 16.3613 9.94531V8.57812C16.3613 8.33887 16.4775 8.21582 16.7168 8.21582H18.1045C18.3438 8.21582 18.46 8.33887 18.46 8.57812V9.94531C18.46 10.1982 18.3438 10.3145 18.1045 10.3145H16.7168ZM4.95215 13.8281H19.041C19.3691 13.8281 19.5879 13.5889 19.5879 13.2402C19.5879 12.8916 19.3691 12.6455 19.041 12.6455H4.95215C4.62402 12.6455 4.40527 12.8848 4.40527 13.2402C4.40527 13.5957 4.62402 13.8281 4.95215 13.8281ZM5.88184 19.4404H7.29004C8.27441 19.4404 8.75977 18.9619 8.75977 17.9434V16.583C8.75977 15.5713 8.27441 15.0928 7.29004 15.0928H5.88184C4.89746 15.0928 4.41211 15.5713 4.41211 16.583V17.9434C4.41211 18.9619 4.89746 19.4404 5.88184 19.4404ZM11.2959 19.4404H12.7041C13.6885 19.4404 14.1738 18.9619 14.1738 17.9434V16.583C14.1738 15.5713 13.6885 15.0928 12.7041 15.0928H11.2959C10.3115 15.0928 9.82617 15.5713 9.82617 16.583V17.9434C9.82617 18.9619 10.3115 19.4404 11.2959 19.4404ZM16.7168 19.4404H18.1182C19.1094 19.4404 19.5879 18.9619 19.5879 17.9434V16.583C19.5879 15.5713 19.1094 15.0928 18.1182 15.0928H16.7168C15.7256 15.0928 15.2471 15.5713 15.2471 16.583V17.9434C15.2471 18.9619 15.7256 19.4404 16.7168 19.4404ZM5.88867 18.3125C5.64941 18.3125 5.5332 18.1963 5.5332 17.9502V16.583C5.5332 16.3369 5.64941 16.2139 5.88867 16.2139H7.27637C7.51562 16.2139 7.63184 16.3369 7.63184 16.583V17.9502C7.63184 18.1963 7.51562 18.3125 7.27637 18.3125H5.88867ZM11.3096 18.3125C11.0635 18.3125 10.9541 18.1963 10.9541 17.9502V16.583C10.9541 16.3369 11.0635 16.2139 11.3096 16.2139H12.6973C12.9365 16.2139 13.0527 16.3369 13.0527 16.583V17.9502C13.0527 18.1963 12.9365 18.3125 12.6973 18.3125H11.3096ZM16.7236 18.3125C16.4844 18.3125 16.3682 18.1963 16.3682 17.9502V16.583C16.3682 16.3369 16.4844 16.2139 16.7236 16.2139H18.1113C18.3506 16.2139 18.4668 16.3369 18.4668 16.583V17.9502C18.4668 18.1963 18.3506 18.3125 18.1113 18.3125H16.7236Z" fill="#ED3D25"/>
</svg>
