<svg width="16" height="15" viewBox="0 0 16 15" fill="none" xmlns="http://www.w3.org/2000/svg">
<path d="M1.25879 14.4043C1.56641 14.7031 2.07617 14.7031 2.375 14.4043L8 8.7793L13.625 14.4043C13.9238 14.7031 14.4424 14.7119 14.7412 14.4043C15.04 14.0967 15.04 13.5957 14.7412 13.2969L9.11621 7.66309L14.7412 2.03809C15.04 1.73926 15.0488 1.22949 14.7412 0.930664C14.4336 0.623047 13.9238 0.623047 13.625 0.930664L8 6.55566L2.375 0.930664C2.07617 0.623047 1.55762 0.614258 1.25879 0.930664C0.959961 1.23828 0.959961 1.73926 1.25879 2.03809L6.88379 7.66309L1.25879 13.2969C0.959961 13.5957 0.951172 14.1055 1.25879 14.4043Z" fill="#ED3D25"/>
</svg>
