<svg width="24" height="24" viewBox="0 0 24 24" fill="none" xmlns="http://www.w3.org/2000/svg">
    <path d="M5.25879 18.4043C5.56641 18.7031 6.07617 18.7031 6.375 18.4043L12 12.7793L17.625 18.4043C17.9238 18.7031 18.4424 18.7119 18.7412 18.4043C19.04 18.0967 19.04 17.5957 18.7412 17.2969L13.1162 11.6631L18.7412 6.03809C19.04 5.73926 19.0488 5.22949 18.7412 4.93066C18.4336 4.62305 17.9238 4.62305 17.625 4.93066L12 10.5557L6.375 4.93066C6.07617 4.62305 5.55762 4.61426 5.25879 4.93066C4.95996 5.23828 4.95996 5.73926 5.25879 6.03809L10.8838 11.6631L5.25879 17.2969C4.95996 17.5957 4.95117 18.1055 5.25879 18.4043Z" fill="#ED3D25"/>
</svg>
