<svg width="33" height="33" viewBox="0 0 33 33" fill="none" xmlns="http://www.w3.org/2000/svg">
    <rect width="32.1053" height="32.1053" rx="6.42105" fill="#1D2129"/>
    <path fill-rule="evenodd" clip-rule="evenodd" d="M22.519 9.95943C23.2591 10.1572 23.842 10.74 24.0398 11.4801C24.3992 12.8214 24.3992 15.62 24.3992 15.62C24.3992 15.62 24.3992 18.4185 24.0398 19.7599C23.842 20.5 23.2591 21.0827 22.519 21.2806C21.1778 21.64 15.7992 21.64 15.7992 21.64C15.7992 21.64 10.4206 21.64 9.0793 21.2806C8.33921 21.0827 7.75636 20.5 7.55856 19.7599C7.19922 18.4185 7.19922 15.62 7.19922 15.62C7.19922 15.62 7.19922 12.8214 7.55856 11.4801C7.75636 10.74 8.33921 10.1572 9.0793 9.95943C10.4206 9.59998 15.7992 9.59998 15.7992 9.59998C15.7992 9.59998 21.1778 9.59998 22.519 9.95943ZM14.187 13.2644V18.4992L18.487 15.8819L14.187 13.2644Z" fill="#ED3D25"/>
</svg>
